<?xml version="1.0" encoding="iso-8859-1"?>
<!-- Generator: Adobe Illustrator 19.0.0, SVG Export Plug-In . SVG Version: 6.00 Build 0)  -->
<svg version="1.1" id="Layer_1" xmlns="http://www.w3.org/2000/svg" xmlns:xlink="http://www.w3.org/1999/xlink" x="0px" y="0px"
	 viewBox="0 0 512 512" style="enable-background:new 0 0 512 512;" xml:space="preserve">
<g>
	<g>
		<path d="M486.4,76.8H25.6C11.46,76.8,0,88.26,0,102.4v307.2c0,14.14,11.46,25.6,25.6,25.6h460.8c14.14,0,25.6-11.46,25.6-25.6
			V102.4C512,88.26,500.54,76.8,486.4,76.8z M463.326,102.4L256,240.623L48.674,102.4H463.326z M486.4,409.6H25.6V117.777
			L248.9,266.65c2.15,1.425,4.625,2.15,7.1,2.15s4.949-0.725,7.1-2.15l223.3-148.872V409.6z"/>
	</g>
</g>
<g>
	<g>
		<path d="M215.458,274.5c-3.917-5.897-11.861-7.475-17.758-3.55L44.1,373.35c-5.888,3.925-7.475,11.878-3.55,17.749
			c2.466,3.703,6.528,5.7,10.667,5.7c2.441,0,4.898-0.7,7.091-2.15l153.6-102.4C217.796,288.324,219.383,280.371,215.458,274.5z"/>
	</g>
</g>
<g>
	<g>
		<path d="M467.908,373.35L314.3,270.95c-5.914-3.925-13.85-2.347-17.749,3.55c-3.925,5.871-2.338,13.824,3.55,17.749l153.6,102.4
			c2.185,1.451,4.651,2.15,7.091,2.15c4.139,0,8.201-1.997,10.667-5.7C475.383,385.229,473.796,377.276,467.908,373.35z"/>
	</g>
</g>
<g>
</g>
<g>
</g>
<g>
</g>
<g>
</g>
<g>
</g>
<g>
</g>
<g>
</g>
<g>
</g>
<g>
</g>
<g>
</g>
<g>
</g>
<g>
</g>
<g>
</g>
<g>
</g>
<g>
</g>
</svg>
