<svg xmlns="http://www.w3.org/2000/svg" width="37" height="36" viewBox="0 0 37 36" fill="none">
    <rect x="0.5" width="36" height="36" rx="18" fill="#ABF0D4"/>
    <path d="M17.855 9.10795C17.9257 9.01644 18.0057 8.91888 18.0903 8.81577C18.2982 8.5624 18.5337 8.27543 18.725 7.96182C19.0303 7.46229 18.9082 7.04741 18.435 6.70329C18.3231 6.62156 18.2044 6.54895 18.0858 6.47642C17.9426 6.38886 17.7996 6.30142 17.6691 6.19821M17.855 9.10795L17.8398 9.00911C17.8267 9.01113 17.8136 9.01316 17.8005 9.01521M17.855 9.10795L17.7759 9.04685C17.784 9.03635 17.7922 9.02581 17.8005 9.01521M17.855 9.10795C13.7076 9.74485 10.9047 11.922 9.26039 15.6046L19.2703 8.95575M17.8005 9.01521C17.8679 8.92903 17.9414 8.83942 18.0179 8.74619C18.2243 8.49476 18.4522 8.21708 18.6397 7.90974L18.6397 7.90967C18.7827 7.67562 18.8182 7.4744 18.7748 7.29819C18.731 7.12001 18.6018 6.94819 18.3762 6.78416L18.3761 6.78404C18.2677 6.70488 18.1524 6.63441 18.0333 6.56151C18.0211 6.55408 18.0089 6.54663 17.9967 6.53914C17.866 6.45907 17.7316 6.37514 17.6071 6.27667L17.6691 6.19821M17.8005 9.01521C13.6567 9.66255 10.8432 11.8453 9.18768 15.5223C7.90491 15.9194 6.99089 16.4022 6.39841 17.044C5.79581 17.6967 5.53521 18.5035 5.54299 19.5211L5.54299 19.5211C5.55079 20.5038 5.83924 21.3027 6.44883 21.9443C7.04841 22.5752 7.95066 23.0454 9.17648 23.3962C10.1144 25.4119 11.3569 27.0118 12.9195 28.1241C14.4936 29.2445 16.3872 29.8663 18.61 29.9244L18.6101 29.9244C20.9806 29.9838 22.9971 29.4078 24.6723 28.2814C26.3355 27.163 27.6563 25.506 28.654 23.4034C29.8744 23.0896 30.7867 22.6283 31.3984 21.9918C32.0202 21.3449 32.3231 20.5258 32.3331 19.5227V19.5226C32.343 18.4836 32.0563 17.6439 31.4339 16.9806C30.8217 16.3281 29.8936 15.856 28.6328 15.524C27.7092 13.5075 26.4594 11.9475 24.878 10.8491C23.3237 9.7694 21.4543 9.13927 19.2703 8.95575M17.6691 6.19821L17.6071 6.27665M17.6691 6.19821C17.0669 5.72227 16.8657 4.91193 17.1446 4.18345C17.3791 3.57015 18.1395 3.04148 18.8 3.08866C18.9359 3.09837 19.0664 3.18487 19.1858 3.26399C19.237 3.29792 19.2861 3.3305 19.3328 3.35507C19.2593 3.79077 19.0594 3.90177 18.7625 3.94201L17.6071 6.27665M17.6071 6.27665C16.9684 5.7719 16.7577 4.91439 17.0512 4.1477C17.1773 3.8179 17.4415 3.51723 17.7568 3.30537C18.0719 3.0936 18.4489 2.96333 18.8071 2.98891C18.9292 2.99764 19.0407 3.05465 19.1331 3.11101C19.1706 3.13392 19.2076 3.15843 19.2418 3.1811C19.2501 3.18665 19.2583 3.19209 19.2663 3.19737C19.3084 3.22507 19.3453 3.24864 19.3794 3.2666L19.4435 3.30034L19.4314 3.37171C19.3926 3.60189 19.3176 3.76307 19.1986 3.87094C19.0801 3.97829 18.9319 4.01997 18.7759 4.04111L18.7757 4.04115C18.5645 4.06917 18.3893 4.13821 18.2576 4.24891C18.127 4.35868 18.0325 4.5148 17.9907 4.72984C17.9476 4.95121 17.9905 5.1191 18.0831 5.25726C18.1784 5.39938 18.331 5.51702 18.5192 5.62429L18.5194 5.6244C18.6531 5.701 18.7875 5.78017 18.9183 5.8683L18.9184 5.86836C19.3777 6.17867 19.6734 6.57762 19.7848 7.02918C19.8961 7.48066 19.8204 7.97309 19.5585 8.4652C19.4877 8.59906 19.4081 8.72966 19.3173 8.8786C19.3019 8.90376 19.2863 8.92944 19.2703 8.95575M17.6071 6.27665L19.2703 8.95575M18.9383 28.8877C14.2137 28.9056 9.53497 25.0876 9.50193 19.4616C9.49106 14.2859 13.6964 10.0667 18.8765 10.0544C24.0978 10.042 28.2897 14.2429 28.3075 19.4651C28.324 24.7209 23.918 28.8685 18.9383 28.8877ZM29.0298 16.7353C30.3629 17.024 31.2578 18.0988 31.2978 19.3971C31.3377 20.7059 30.4502 21.8393 29.0141 22.205C29.4909 20.3416 29.4578 18.5437 29.0298 16.7353ZM8.79187 16.7632C8.32747 18.566 8.32753 20.3587 8.78728 22.1577C7.50602 21.9071 6.5696 20.7416 6.58246 19.4367C6.59666 18.1524 7.5099 17.0309 8.79187 16.7632Z" fill="black" stroke="black" stroke-width="0.2"/>
    <path d="M14.4349 21.2352H14.5041H14.5052H14.5063H14.5073H14.5084H14.5095H14.5106H14.5117H14.5127H14.5138H14.5149H14.516H14.517H14.5181H14.5192H14.5203H14.5213H14.5224H14.5235H14.5246H14.5256H14.5267H14.5278H14.5289H14.5299H14.531H14.5321H14.5331H14.5342H14.5353H14.5364H14.5374H14.5385H14.5396H14.5406H14.5417H14.5428H14.5438H14.5449H14.546H14.547H14.5481H14.5492H14.5502H14.5513H14.5524H14.5534H14.5545H14.5556H14.5566H14.5577H14.5587H14.5598H14.5609H14.5619H14.563H14.5641H14.5651H14.5662H14.5672H14.5683H14.5694H14.5704H14.5715H14.5726H14.5736H14.5747H14.5757H14.5768H14.5779H14.5789H14.58H14.581H14.5821H14.5831H14.5842H14.5853H14.5863H14.5874H14.5884H14.5895H14.5905H14.5916H14.5927H14.5937H14.5948H14.5958H14.5969H14.5979H14.599H14.6001H14.6011H14.6022H14.6032H14.6043H14.6053H14.6064H14.6075H14.6085H14.6096H14.6106H14.6117H14.6127H14.6138H14.6148H14.6159H14.6169H14.618H14.6191H14.6201H14.6212H14.6222H14.6233H14.6243H14.6254H14.6264H14.6275H14.6285H14.6296H14.6307H14.6317H14.6328H14.6338H14.6349H14.6359H14.637H14.638H14.6391H14.6401H14.6412H14.6423H14.6433H14.6444H14.6454H14.6465H14.6475H14.6486H14.6496H14.6507H14.6517H14.6528H14.6539H14.6549H14.656H14.657H14.6581H14.6591H14.6602H14.6612H14.6623H14.6634H14.6644H14.6655H14.6665H14.6676H14.6686H14.6697H14.6707H14.6718H14.6729H14.6739H14.675H14.676H14.6771H14.6781H14.6792H14.6803H14.6813H14.6824H14.6834H14.6845H14.6856H14.6866H14.6877H14.6887H14.6898H14.6908H14.6919H14.693H14.694H14.6951H14.6962H14.6972H14.6983H14.6993H14.7004H14.7015H14.7025H14.7036H14.7046H14.7057H14.7068H14.7078H14.7089H14.71H14.711H14.7121H14.7132H14.7142H14.7153H14.7163H14.7174H14.7185H14.7195H14.7206H14.7217H14.7227H14.7238H14.7249H14.726H14.727H14.7281H14.7292H14.7302H14.7313H14.7324H14.7334H14.7345H14.7356H14.7367H14.7377H14.7388H14.7399H14.7409H14.742H14.7431H14.7442H14.7452H14.7463H14.7474H14.7485H14.7495H14.7506H14.7517H14.7528H14.7538H14.7549H14.756H14.7571H14.7582H14.7592H14.7603H14.7614H14.7625H14.7636H14.7646H14.7657H14.7668H14.7679H14.769H14.7701H14.7711H14.7722H14.7733H14.7744H14.7755H14.7766H14.7777H14.7788H14.7798H14.7809H14.782H14.7831H14.7842H14.7853H14.7864H14.7875H14.7886H14.7897H14.7908H14.7919H14.7929H14.794H14.7951H14.7962H14.7973H14.7984H14.7995H14.8006H14.8017H14.8028H14.8039H14.805H14.8061H14.8072H14.8083H14.8094H14.8105H14.8116H14.8128H14.8139H14.815H14.8161H14.8172H14.8183H14.8194H14.8205H14.8216H14.8227H14.8238H14.825H14.8261H14.8272H14.8283H14.8294H14.8305H14.8316H14.8328H14.8339H14.835H14.8361H14.8372H14.8384H14.8395H14.8406H14.8417H14.8428H14.844H14.8451H14.8462H14.8473H14.8485H14.8496H14.8507H14.8519H14.853H14.8541H14.8552H14.8564H14.8575H14.8586H14.8598H14.8609H14.862H14.8632H14.8643H14.8655H14.8666H14.8677H14.8689H14.87H14.8712H14.8723H14.8734H14.8746H14.8757H14.8769H14.878H14.8792H14.8803H14.8815H14.8826H14.8838H14.8849H14.8861H14.8872H14.8884H14.8895H14.8907H14.8919H14.893H14.8942H14.8953H14.8965H14.8977H14.8988H14.9H14.9012H14.9023H14.9035H14.9046H14.9058H14.907H14.9082H14.9093H14.9105H14.9117H14.9128H14.914H14.9152H14.9164H14.9175H14.9187H14.9199H14.9211H14.9223H14.9234H14.9246H14.9258H14.927H14.9282H14.9294H14.9306H14.9317H14.9329H14.9341H14.9353H14.9365H14.9377H14.9389H14.9401H14.9413H14.9425H14.9437H14.9449H14.9461H14.9473H14.9485H14.9497H14.9509H14.9521H14.9533H14.9545H14.9557H14.9569H14.9582H14.9594H14.9606H14.9618H14.963H14.9642H14.9654H14.9667H14.9679H14.9691H14.9703H14.9716H14.9728H14.974H14.9752H14.9765H14.9777H14.9789H14.9801H14.9814H14.9826H14.9838H14.9851H14.9863H14.9876H14.9888H14.99H14.9913H14.9925H14.9938H14.995H14.9963H14.9975H14.9988H15H15.0013H15.0025H15.0038H15.005H15.0063H15.0075H15.0088H15.01H15.0113H15.0126H15.0138H15.0151H15.0164H15.0176H15.0189H15.0202H15.0214H15.0227H15.024H15.0253H15.0265H15.0278H15.0291H15.0304H15.0317H15.0329H15.0342H15.0355H15.0368H15.0381H15.0394H15.0407H15.0419H15.0432H15.0445H15.0458H15.0471H15.0484H15.0497H15.051H15.0523H15.0536H15.0549H15.0562H15.0576H15.0589H15.0602H15.0615H15.0628H15.0641H15.0654H15.0667H15.0681H15.0694H15.0707H15.072H15.0733H15.0747H15.076H15.0773H15.0787H15.08H15.0813H15.1611L15.1788 21.313C15.1961 21.389 15.215 21.461 15.2341 21.5337C15.2455 21.5771 15.257 21.6206 15.2682 21.6654L14.4349 21.2352ZM14.4349 21.2352L14.4105 21.2999M14.4349 21.2352L14.4105 21.2999M14.4105 21.2999C14.1686 21.9413 14.2854 22.761 14.6281 23.5324C14.9719 24.3063 15.5502 25.0488 16.2577 25.5411C17.9754 26.7368 20.3417 26.6179 21.9249 25.2531C22.5463 24.7176 23.0279 23.9909 23.2922 23.2673C23.5554 22.547 23.6093 21.8114 23.347 21.2681L23.3178 21.2077L23.2508 21.2118C23.1154 21.2201 22.9615 21.2284 22.7748 21.2385C22.744 21.2402 22.7124 21.2419 22.6798 21.2436L22.596 21.2482L22.5859 21.3315C22.5747 21.4247 22.5634 21.5122 22.5525 21.5958C22.5329 21.7464 22.515 21.8846 22.5024 22.0212L22.5024 22.0213M14.4105 21.2999L22.5024 22.0213M22.5024 22.0213C22.335 23.8729 20.7472 25.3103 18.8754 25.3022C17.0294 25.2941 15.4916 23.8661 15.3336 22.0232L22.5024 22.0213Z" fill="black" stroke="black" stroke-width="0.2"/>
    <path d="M20.5717 18.0168C20.5462 18.174 20.5402 18.3119 20.5604 18.4265C20.5809 18.5426 20.6297 18.6416 20.7186 18.7078C20.8063 18.773 20.9182 18.7951 21.0426 18.7889C21.1669 18.7827 21.3128 18.7479 21.4794 18.689L21.5393 18.6678L21.5456 18.6046C21.5818 18.2394 21.6655 17.9026 21.8406 17.6593C22.011 17.4227 22.2748 17.265 22.7 17.2669C23.1232 17.2689 23.3795 17.4341 23.5493 17.6924C23.7248 17.9594 23.8123 18.3326 23.871 18.7556L23.8853 18.8583L23.9874 18.8403C24.2704 18.7904 24.4937 18.7515 24.6934 18.7168L24.7702 18.7035L24.7761 18.6259C24.8739 17.3309 24.0959 16.3345 22.9457 16.21L22.9455 16.21C21.7871 16.0864 20.7565 16.8706 20.5717 18.0168ZM20.5717 18.0168L20.6704 18.0328M20.5717 18.0168C20.5717 18.0168 20.5717 18.0168 20.5717 18.0169L20.6704 18.0328M20.6704 18.0328C20.8466 16.9394 21.829 16.1915 22.9349 16.3094C24.0242 16.4273 24.7707 17.3695 24.6763 18.6183C24.5003 18.6489 24.3059 18.6827 24.0686 18.7244C24.0688 18.7257 24.0689 18.7269 24.0691 18.7281L23.9701 18.7418L23.9527 18.6433C23.9537 18.6432 23.9546 18.643 23.9556 18.6428C23.8323 17.8373 23.5764 17.1709 22.7004 17.1669C21.7902 17.1628 21.5196 17.8524 21.4461 18.5947C20.7981 18.8237 20.5719 18.6405 20.6704 18.0328Z" fill="black" stroke="black" stroke-width="0.2"/>
    <path d="M16.1843 18.6692L16.1957 18.7391L16.2654 18.7515C16.4404 18.7827 16.5899 18.7966 16.7139 18.7887C16.8374 18.7807 16.9453 18.7504 17.0268 18.6836C17.1107 18.6149 17.1532 18.5185 17.1665 18.4069C17.1795 18.2978 17.1653 18.169 17.1326 18.0235L17.1325 18.0231C17.0685 17.7428 16.9682 17.4549 16.8201 17.2036C16.2999 16.321 15.1936 15.969 14.2372 16.3455C13.2944 16.7162 12.798 17.6018 12.9847 18.6785L12.9991 18.7614H13.0832H13.0845H13.0857H13.0869H13.0882H13.0894H13.0906H13.0918H13.0931H13.0943H13.0955H13.0968H13.098H13.0992H13.1005H13.1017H13.1029H13.1042H13.1054H13.1066H13.1079H13.1091H13.1103H13.1116H13.1128H13.114H13.1153H13.1165H13.1177H13.119H13.1202H13.1215H13.1227H13.1239H13.1252H13.1264H13.1276H13.1289H13.1301H13.1314H13.1326H13.1338H13.1351H13.1363H13.1376H13.1388H13.1401H13.1413H13.1425H13.1438H13.145H13.1463H13.1475H13.1488H13.15H13.1512H13.1525H13.1537H13.155H13.1562H13.1575H13.1587H13.16H13.1612H13.1625H13.1637H13.1649H13.1662H13.1674H13.1687H13.1699H13.1712H13.1724H13.1737H13.1749H13.1762H13.1774H13.1787H13.1799H13.1812H13.1824H13.1837H13.1849H13.1862H13.1874H13.1887H13.1899H13.1912H13.1924H13.1937H13.1949H13.1962H13.1975H13.1987H13.2H13.2012H13.2025H13.2037H13.205H13.2062H13.2075H13.2087H13.21H13.2112H13.2125H13.2138H13.215H13.2163H13.2175H13.2188H13.22H13.2213H13.2226H13.2238H13.2251H13.2263H13.2276H13.2288H13.2301H13.2314H13.2326H13.2339H13.2351H13.2364H13.2376H13.2389H13.2402H13.2414H13.2427H13.2439H13.2452H13.2465H13.2477H13.249H13.2502H13.2515H13.2528H13.254H13.2553H13.2565H13.2578H13.2591H13.2603H13.2616H13.2628H13.2641H13.2654H13.2666H13.2679H13.2692H13.2704H13.2717H13.2729H13.2742H13.2755H13.2767H13.278H13.2792H13.2805H13.2818H13.283H13.2843H13.2856H13.2868H13.2881H13.2894H13.2906H13.2919H13.2931H13.2944H13.2957H13.2969H13.2982H13.2995H13.3007H13.302H13.3033H13.3045H13.3058H13.307H13.3083H13.3096H13.3108H13.3121H13.3134H13.3146H13.3159H13.3172H13.3184H13.3197H13.321H13.3222H13.3235H13.3248H13.326H13.3273H13.3286H13.3298H13.3311H13.3323H13.3336H13.3349H13.3361H13.3374H13.3387H13.3399H13.3412H13.3425H13.3437H13.345H13.3463H13.3475H13.3488H13.3501H13.3513H13.3526H13.3539H13.3551H13.3564H13.3577H13.3589H13.3602H13.3615H13.3627H13.364H13.3652H13.3665H13.3678H13.369H13.3703H13.3716H13.3728H13.3741H13.3754H13.3766H13.3779H13.3792H13.3804H13.3817H13.383H13.3842H13.3855H13.3868H13.388H13.3893H13.3906H13.3918H13.3931H13.3943H13.3956H13.3969H13.3981H13.3994H13.4007H13.4019H13.4032H13.4045H13.4057H13.407H13.4083H13.4095H13.4108H13.412H13.4133H13.4146H13.4158H13.4171H13.4184H13.4196H13.4209H13.4222H13.4234H13.4247H13.4259H13.4272H13.4285H13.4297H13.431H13.4323H13.4335H13.4348H13.436H13.4373H13.4386H13.4398H13.4411H13.4424H13.4436H13.4449H13.4461H13.4474H13.4487H13.4499H13.4512H13.4524H13.4537H13.455H13.4562H13.4575H13.4587H13.46H13.4613H13.4625H13.4638H13.465H13.4663H13.4676H13.4688H13.4701H13.4713H13.4726H13.4739H13.4751H13.4764H13.4776H13.4789H13.4801H13.4814H13.4827H13.4839H13.4852H13.4864H13.4877H13.4889H13.4902H13.4915H13.4927H13.494H13.4952H13.4965H13.4977H13.499H13.5002H13.5015H13.5028H13.504H13.5053H13.5065H13.5078H13.509H13.5103H13.5115H13.5128H13.514H13.5153H13.5165H13.5178H13.519H13.5203H13.5216H13.5228H13.5241H13.5253H13.5266H13.5278H13.5291H13.5303H13.5316H13.5328H13.5341H13.5353H13.5366H13.5378H13.539H13.5403H13.5415H13.5428H13.544H13.5453H13.5465H13.5478H13.549H13.5503H13.5515H13.5528H13.554H13.5553H13.5565H13.5577H13.559H13.5602H13.5615H13.5627H13.564H13.5652H13.5664H13.5677H13.5689H13.5702H13.5714H13.5727H13.5739H13.5751H13.5764H13.5776H13.5789H13.5801H13.5813H13.5826H13.5838H13.5851H13.5863H13.5875H13.5888H13.59H13.5912H13.5925H13.5937H13.595H13.5962H13.5974H13.5987H13.5999H13.6011H13.6024H13.6036H13.6048H13.6061H13.6073H13.6085H13.6098H13.611H13.6122H13.6135H13.6147H13.6159H13.6172H13.6184H13.6196H13.6208H13.6221H13.6233H13.6245H13.6258H13.627H13.6282H13.6294H13.6307H13.6319H13.6331H13.6343H13.6356H13.6368H13.638H13.6392H13.6405H13.6417H13.6429H13.6441H13.6454H13.6466H13.6478H13.649H13.6502H13.6515H13.6527H13.6539H13.6551H13.6563H13.6576H13.6588H13.66H13.6612H13.6624H13.6636H13.6649H13.6661H13.6673H13.6685H13.6697H13.6709H13.6721H13.6734H13.6746H13.6758H13.677H13.6782H13.6794H13.6806H13.6818H13.683H13.6843H13.6855H13.6867H13.6879H13.6891H13.6903H13.6915H13.6927H13.6939H13.6951H13.6963H13.6975H13.6987H13.6999H13.7011H13.7023H13.7035H13.7047H13.7059H13.7072H13.7084H13.7096H13.7108H13.7119H13.7131H13.7143H13.7155H13.7167H13.7179H13.7191H13.7203H13.7215H13.8002L13.8187 18.685C13.9477 18.1525 14.0906 17.7997 14.2702 17.5787C14.4439 17.365 14.6564 17.2692 14.9489 17.2628L14.949 17.2628C15.4061 17.2524 15.6748 17.4127 15.8497 17.6589C16.0311 17.9141 16.1192 18.2715 16.1843 18.6692ZM16.283 18.6531C16.1526 17.8566 15.9208 17.1406 14.9467 17.1628C14.3099 17.1767 13.981 17.5902 13.7215 18.6614L16.283 18.6531Z" fill="black" stroke="black" stroke-width="0.2"/>
</svg>