<svg width="14" height="21" viewBox="0 0 14 21" fill="none"
    xmlns="http://www.w3.org/2000/svg">
    <g clip-path="url(#clip0_39_5300)">
        <path d="M13.6768 7.36823C13.7427 8.41393 13.5361 9.37507 13.2191 10.3139C12.8668 11.3574 12.4463 12.3691 11.8607 13.3002C11.6635 13.6137 11.476 13.9339 11.2936 14.2573C10.129 16.3243 8.76232 18.2517 7.45197 20.2184C7.22254 20.5627 6.75118 20.649 6.46811 20.275C6.42234 20.2147 6.37303 20.1568 6.3308 20.0941C5.23653 18.4733 4.13647 16.8569 3.05219 15.2291C2.47821 14.3677 1.93517 13.4835 1.48691 12.5444C0.973226 11.4686 0.488549 10.375 0.26167 9.1895C-0.015915 7.74056 0.00342761 6.2999 0.583518 4.92271C1.52107 2.69445 3.11391 1.20901 5.42195 0.690722C8.86562 -0.0826277 11.7889 1.8336 13.0763 4.62256C13.4843 5.50596 13.6541 6.43967 13.6768 7.3679L13.6768 7.36823ZM6.93974 18.8307C7.03396 18.7104 7.11921 18.6116 7.19378 18.5047C7.43225 18.162 7.67332 17.8213 7.90175 17.4712C8.96007 15.8497 10.0731 14.2657 10.9912 12.5485C11.5281 11.5444 11.9666 10.5035 12.2802 9.40401C12.5469 8.46838 12.6229 7.51674 12.4563 6.55728C11.8944 3.31858 9.01548 1.42425 6.27991 1.73489C4.02907 1.99065 2.05076 3.72678 1.43736 5.98762C1.13193 7.11352 1.19507 8.22573 1.48502 9.33946C1.82082 10.6291 2.38079 11.8171 3.03364 12.9596C4.15889 14.9287 5.46299 16.7726 6.76451 18.6182C6.81192 18.6852 6.86867 18.7448 6.93974 18.8304L6.93974 18.8307Z" fill="#A6A8AB"/>
        <path d="M3.49924 7.54607C3.427 5.79531 4.93877 4.04784 6.91554 4.02866C8.69653 4.01152 10.2674 5.65695 10.3016 7.50978C10.3309 9.10798 9.13526 11.0698 6.81019 11.0789C5.21556 11.085 3.43688 9.59941 3.49956 7.54607L3.49924 7.54607ZM9.14084 7.52133C9.14018 6.26554 8.13489 5.21956 6.89952 5.22837C5.36952 5.23925 4.61563 6.52785 4.63326 7.56236C4.65576 8.86953 5.60011 9.86193 6.8828 9.89405C8.12704 9.9253 9.14172 8.83493 9.14084 7.52133Z" fill="#A6A8AB"/>
    </g>
    <defs>
        <clipPath id="clip0_39_5300">
            <rect width="13.6" height="20" fill="white" transform="translate(0.0626221 0.542969) rotate(-0.20722)"/>
        </clipPath>
    </defs>
</svg>
