<svg width="13" height="17" viewBox="0 0 13 17" fill="none" xmlns="http://www.w3.org/2000/svg">
<g clip-path="url(#clip0_39_7469)">
<path d="M12.9984 2.47245C13.0118 2.09919 12.9009 1.77784 12.63 1.52404C11.8639 0.806729 10.9838 0.301481 9.97853 0.0518569C9.33992 -0.106734 8.91301 0.0975039 8.56472 0.677352C8.35 1.03444 8.22526 1.43222 8.09219 1.82557C7.87193 2.47689 7.65368 3.12873 7.43544 3.78057C7.40141 3.8823 7.3689 3.98507 7.34043 4.08862C7.22147 4.52292 7.3064 4.9147 7.57984 5.26214C7.7376 5.46299 7.89411 5.66618 8.06623 5.85347C8.33891 6.14978 8.39864 6.48 8.22979 6.84335C8.07934 7.1668 7.9183 7.4858 7.7434 7.79568C7.18115 8.79183 6.54002 9.73059 5.80338 10.5979C5.70257 10.7166 5.59144 10.8261 5.49038 10.9448C5.41124 11.0377 5.32153 11.0541 5.21039 11.022C4.8495 10.9179 4.47803 10.8446 4.12773 10.7111C3.60227 10.5108 3.16175 10.6261 2.76608 11.0077C2.4813 11.2823 2.20333 11.5643 1.91452 11.8343C1.47097 12.249 1.0181 12.653 0.574551 13.0678C0.446275 13.1875 0.323794 13.3182 0.219964 13.4606C-0.0325565 13.8062 -0.0635548 14.1873 0.105044 14.5801C0.166536 14.7236 0.239621 14.8681 0.335135 14.9884C0.755246 15.5163 1.18846 16.033 1.73609 16.4277C2.06825 16.6671 2.41981 16.8682 2.82077 16.9606C3.10656 17.0263 3.38428 17.0153 3.65746 16.8954C4.12647 16.6893 4.56321 16.4243 4.98508 16.1319C6.15494 15.3207 7.25449 14.4187 8.22551 13.361C9.18065 12.3205 10.039 11.201 10.7207 9.9437C11.4929 8.51873 12.0798 7.01681 12.4931 5.44134C12.7265 4.55161 12.8903 3.64806 12.9841 2.73121C12.9929 2.64539 12.9939 2.55879 12.9984 2.47245ZM9.37319 0.865678C9.55237 0.882111 9.70736 0.877938 9.85353 0.912891C10.5919 1.08948 11.2245 1.4883 11.8351 1.9346C12.1113 2.13649 12.2094 2.39942 12.1549 2.73877C12.1003 3.07917 12.0602 3.42217 12.004 3.76231C11.6033 6.19438 10.7046 8.42118 9.41603 10.4873C8.912 11.2956 8.28801 12.0012 7.65973 12.7037C7.14864 13.2752 6.61563 13.826 6.00121 14.2752C5.20711 14.8556 4.39033 15.4026 3.57984 15.9587C3.41956 16.0688 3.23256 16.1011 3.04002 16.0836C2.78448 16.0604 2.5554 15.9589 2.34471 15.8147C1.81145 15.4495 1.37445 14.9777 0.977524 14.4648C0.804137 14.2408 0.825559 14.0548 1.02566 13.8555C1.16074 13.7209 1.30162 13.5923 1.43846 13.459C2.00021 12.9118 2.57153 12.3745 3.1179 11.8111C3.37445 11.5463 3.64184 11.4221 3.99491 11.5244C4.00827 11.5283 4.02188 11.5317 4.03549 11.5343C4.3742 11.5946 4.68871 11.7286 4.99844 11.8755C5.28801 12.0127 5.55388 11.9772 5.79582 11.7693C5.93997 11.6454 6.08312 11.5184 6.21215 11.3783C7.16679 10.341 7.97878 9.19431 8.61563 7.92167C8.84496 7.46337 9.02994 6.98082 9.22349 6.50426C9.31018 6.29116 9.27541 6.08587 9.12974 5.89807C8.8689 5.56159 8.62142 5.21389 8.35958 4.87792C8.14864 4.60743 8.09622 4.33251 8.22526 3.99733C8.45887 3.38983 8.66023 2.76929 8.88251 2.1571C9.03599 1.73428 9.20182 1.31537 9.37319 0.865678Z" fill="#FBBB23"/>
</g>
<defs>
<clipPath id="clip0_39_7469">
<rect width="13" height="17" fill="white"/>
</clipPath>
</defs>
</svg>
