<svg width="17" height="13" viewBox="0 0 17 13" fill="none" xmlns="http://www.w3.org/2000/svg">
<g clip-path="url(#clip0_39_7442)">
<path d="M8.49385 12.5C6.11419 12.5 3.73453 12.5001 1.35487 12.4998C0.551448 12.4996 0.000478359 11.9051 0.000138359 11.0382C-0.000371641 10.0287 -0.000201641 9.01912 -3.16406e-05 8.00957C-3.16406e-05 7.6741 0.130868 7.52515 0.439928 7.50784C0.932758 7.48022 1.31968 7.03262 1.31713 6.49351C1.31458 5.96084 0.928848 5.51987 0.441118 5.49188C0.130698 5.47402 0.000138359 5.32654 -3.16406e-05 4.99144C-0.000201641 3.97729 -0.000541641 2.96314 0.000308359 1.949C0.000988359 1.10019 0.556208 0.500138 1.34076 0.500138C6.11725 0.499954 10.8937 0.499954 15.6702 0.500138C16.4371 0.500138 16.9978 1.10461 16.9989 1.93372C17.0003 2.96186 16.9996 3.99 16.9991 5.01814C16.9989 5.31568 16.8555 5.47807 16.585 5.49096C16.0709 5.51527 15.6789 5.95606 15.6818 6.50621C15.6847 7.05085 16.0745 7.48409 16.5836 7.50895C16.8556 7.5222 16.9988 7.68276 16.9989 7.9803C16.9996 9.01304 17.0005 10.046 16.9986 11.0787C16.9971 11.8903 16.434 12.4992 15.6843 12.4996C13.2875 12.5007 10.8907 12.5 8.49385 12.5ZM16.2294 4.69813C16.2294 4.63737 16.2294 4.58655 16.2294 4.53592C16.2294 3.69393 16.2294 2.85193 16.2294 2.00994C16.2294 1.54467 16.0373 1.33403 15.6116 1.33403C12.124 1.33384 8.63648 1.33403 5.14893 1.33403C5.10303 1.33403 5.05713 1.33403 4.99474 1.33403C4.99474 1.48538 4.99474 1.62163 4.99474 1.75751C4.74484 1.75751 4.51143 1.75751 4.26612 1.75751C4.26612 1.61316 4.26612 1.48004 4.26612 1.33384C4.21206 1.33384 4.17007 1.33384 4.12825 1.33384C3.19631 1.33384 2.2642 1.33348 1.33226 1.33421C0.985458 1.3344 0.771258 1.56676 0.770748 1.94458C0.769728 2.81916 0.772108 3.69374 0.768198 4.56833C0.767688 4.66978 0.796418 4.71047 0.886178 4.7403C1.60766 4.98021 2.08638 5.68411 2.08757 6.49627C2.08893 7.3088 1.61259 8.01491 0.892638 8.25796C0.800668 8.28907 0.766838 8.32903 0.767518 8.4384C0.772448 9.30359 0.769898 10.169 0.770408 11.0342C0.770578 11.4403 0.977808 11.6657 1.3513 11.6659C2.27899 11.6662 3.20668 11.6661 4.13454 11.6657C4.17602 11.6657 4.2175 11.6611 4.26935 11.658C4.26935 11.5147 4.26935 11.3812 4.26935 11.2395C4.515 11.2395 4.7496 11.2395 4.99882 11.2395C4.99882 11.3783 4.99882 11.5156 4.99882 11.6659C5.05475 11.6659 5.09691 11.6659 5.1389 11.6659C8.64362 11.6659 12.1483 11.6659 15.6532 11.6657C16.0184 11.6657 16.2288 11.4379 16.2292 11.0426C16.2299 10.1774 16.2271 9.31206 16.2321 8.44687C16.2328 8.33381 16.2025 8.29036 16.1022 8.25611C15.1109 7.91659 14.6281 6.71906 15.0751 5.70915C15.308 5.18274 15.6978 4.85574 16.2294 4.69813Z" fill="#FBBB23"/>
<path d="M8.63929 2.91602C9.57208 2.91694 10.3277 3.73849 10.3243 4.74822C10.3209 5.7585 9.55899 6.58005 8.63096 6.57398C7.6946 6.5679 6.94745 5.75298 6.94898 4.7392C6.95051 3.72487 7.70106 2.9151 8.63929 2.91602ZM7.71908 4.73772C7.71755 5.28899 8.12419 5.73622 8.62977 5.73953C9.13382 5.74285 9.55202 5.29506 9.5544 4.74951C9.55678 4.20138 9.14827 3.75396 8.64082 3.74899C8.13507 3.7442 7.72061 4.18886 7.71908 4.73772Z" fill="#FBBB23"/>
<path d="M11.8833 10.0845C10.9473 10.086 10.1961 9.27735 10.1922 8.2645C10.1882 7.24851 10.9468 6.42327 11.8814 6.42677C12.8141 6.43027 13.5663 7.24538 13.5694 8.25566C13.5723 9.26133 12.8147 10.0833 11.8833 10.0845ZM10.9617 8.26284C10.9648 8.81226 11.3772 9.25378 11.8852 9.25139C12.3886 9.24918 12.8034 8.79477 12.7991 8.25013C12.7949 7.70384 12.3755 7.25532 11.8736 7.26048C11.3669 7.26563 10.9585 7.71434 10.9617 8.26284Z" fill="#FBBB23"/>
<path d="M8.2177 9.12593C8.05926 9.12667 7.91952 9.03184 7.86189 8.87644C7.79797 8.70411 7.82619 8.54576 7.94604 8.41356C8.18982 8.14511 8.43683 7.88016 8.68265 7.61392C9.77507 6.43056 10.8666 5.2461 11.9623 4.06624C12.0378 3.98505 12.1388 3.91287 12.2397 3.88231C12.3992 3.83388 12.5619 3.93515 12.6387 4.09055C12.7185 4.25202 12.6926 4.44885 12.5636 4.59062C12.2712 4.91155 11.9756 5.22916 11.6811 5.54806C10.631 6.68539 9.58195 7.824 8.52829 8.95746C8.44839 9.04344 8.33551 9.09371 8.23793 9.16055C8.2313 9.14913 8.2245 9.13753 8.2177 9.12593Z" fill="#FBBB23"/>
<path d="M4.27612 5.39041C4.27612 4.9185 4.27612 4.45525 4.27612 3.98242C4.5131 3.98242 4.74668 3.98242 4.98859 3.98242C4.98859 4.45193 4.98859 4.91795 4.98859 5.39041C4.74923 5.39041 4.51548 5.39041 4.27612 5.39041Z" fill="#FBBB23"/>
<path d="M4.28125 9.4248C4.51466 9.4248 4.74909 9.4248 4.98981 9.4248C4.98981 9.89413 4.98981 10.3609 4.98981 10.8354C4.75249 10.8354 4.52214 10.8354 4.28125 10.8354C4.28125 10.3662 4.28125 9.90002 4.28125 9.4248Z" fill="#FBBB23"/>
<path d="M4.98807 7.20405C4.75364 7.20405 4.51972 7.20405 4.27832 7.20405C4.27832 6.73564 4.27832 6.27294 4.27832 5.79883C4.5119 5.79883 4.74548 5.79883 4.98807 5.79883C4.98807 6.2619 4.98807 6.72846 4.98807 7.20405Z" fill="#FBBB23"/>
<path d="M4.99012 2.16797C4.99012 2.643 4.99012 3.1057 4.99012 3.57522C4.7494 3.57522 4.51565 3.57522 4.27612 3.57522C4.27612 3.10368 4.27612 2.64043 4.27612 2.16797C4.51293 2.16797 4.74685 2.16797 4.99012 2.16797Z" fill="#FBBB23"/>
<path d="M4.98771 9.02801C4.77606 9.02801 4.57512 9.02838 4.37418 9.02764C4.34477 9.02745 4.31553 9.02285 4.27881 9.01972C4.27881 8.55187 4.27881 8.0899 4.27881 7.61523C4.51205 7.61523 4.74512 7.61523 4.98771 7.61523C4.98771 8.07628 4.98771 8.54284 4.98771 9.02801Z" fill="#FBBB23"/>
</g>
<defs>
<clipPath id="clip0_39_7442">
<rect width="17" height="12" fill="white" transform="translate(0 0.5)"/>
</clipPath>
</defs>
</svg>
    