<svg width="17" height="17" viewBox="0 0 17 17" fill="none" xmlns="http://www.w3.org/2000/svg">
<path d="M17 8.50313C16.9972 13.2055 13.2018 17.0008 8.50124 17.0022C3.79502 17.0033 -0.0105004 13.1922 2.17677e-05 8.4884C0.0101932 3.78358 3.8101 -0.00825856 8.50755 -0.00194525C13.2099 0.00436805 17.0025 3.80287 17 8.50313ZM6.10885 5.95255C5.8984 7.6575 5.897 9.34946 6.10955 11.0442C7.71348 11.0442 9.29496 11.0442 10.8919 11.0442C11.1023 9.34245 11.1041 7.65048 10.8905 5.95255C9.29145 5.95255 7.71453 5.95255 6.10885 5.95255ZM5.24392 5.95606C5.18886 5.9515 5.16045 5.94694 5.13239 5.94694C3.89323 5.94659 2.65407 5.9487 1.41525 5.94308C1.28653 5.94238 1.26268 6.01183 1.23287 6.10442C0.722544 7.69503 0.720089 9.28528 1.2255 10.8776C1.26689 11.0085 1.31915 11.059 1.46576 11.0579C2.65792 11.0505 3.85044 11.0537 5.04295 11.0537C5.10468 11.0537 5.16641 11.0537 5.24533 11.0537C5.04961 9.3435 5.04961 7.65855 5.24392 5.95606ZM11.7564 5.95536C11.9539 7.66416 11.948 9.35227 11.7593 11.0432C11.8098 11.0484 11.8326 11.053 11.855 11.053C13.0998 11.0534 14.3449 11.0516 15.5897 11.0569C15.7093 11.0572 15.7352 10.9965 15.7636 10.9078C16.2792 9.30562 16.2803 7.70415 15.7682 6.10057C15.7293 5.97816 15.6721 5.94238 15.5465 5.94308C14.3424 5.94799 13.1384 5.94589 11.9346 5.94624C11.8834 5.94659 11.8319 5.9515 11.7564 5.95536ZM10.746 5.08974C10.746 5.04695 10.7495 5.0231 10.7456 5.00065C10.5632 4.00981 10.3233 3.0337 9.8572 2.13441C9.68463 1.80156 9.46682 1.47852 9.21219 1.20425C8.75798 0.714264 8.23433 0.713563 7.78363 1.20986C7.51321 1.50799 7.28733 1.86048 7.10214 2.21964C6.70931 2.98214 6.49536 3.80954 6.32315 4.6464C6.29334 4.79091 6.26984 4.93681 6.24178 5.08974C7.75872 5.08974 9.24761 5.08974 10.746 5.08974ZM6.24283 11.9109C6.27124 12.0635 6.29509 12.2059 6.32455 12.3472C6.52167 13.2876 6.76683 14.2153 7.247 15.0553C7.42131 15.3601 7.64368 15.6522 7.89867 15.8929C8.28729 16.2594 8.73168 16.2482 9.12345 15.8834C9.33845 15.6831 9.5268 15.4425 9.68288 15.1928C10.0571 14.5937 10.2844 13.9287 10.4643 13.2497C10.5804 12.8116 10.6737 12.3672 10.7807 11.9113C9.25077 11.9109 7.75627 11.9109 6.24283 11.9109ZM6.73176 1.06886C5.15484 1.11621 2.24405 3.40864 1.67235 5.08588C2.90239 5.08588 4.13068 5.08588 5.36563 5.08588C5.45893 4.36862 5.59922 3.66889 5.86684 3.0074C6.13235 2.34976 6.4431 1.71071 6.73176 1.06886ZM15.348 5.08798C14.8279 4.05471 14.1264 3.19469 13.2345 2.48971C12.366 1.80331 10.6716 1.01204 10.2118 1.08359C10.9803 2.31679 11.4496 3.65381 11.6361 5.08763C12.8785 5.08798 14.1018 5.08798 15.348 5.08798ZM1.66814 11.9078C2.29421 13.6348 5.1864 15.9093 6.79594 15.9321C6.02397 14.6884 5.54872 13.3486 5.36353 11.9078C4.12296 11.9078 2.90239 11.9078 1.66814 11.9078ZM10.2002 15.9377C11.9322 15.8192 14.8545 13.5103 15.3238 11.9162C14.0952 11.9162 12.8662 11.9162 11.6337 11.9162C11.4481 13.3602 10.9732 14.6902 10.2002 15.9377Z" fill="#FBBB23"/>
</svg>
