<svg width="14" height="20" viewBox="0 0 14 20" fill="none"
    xmlns="http://www.w3.org/2000/svg">
    <g clip-path="url(#clip0_39_7428)">
        <path d="M13.9893 6.87446C14.0514 7.92039 13.8414 8.88077 13.5209 9.81843C13.1649 10.8607 12.7407 11.8709 12.1518 12.7998C11.9534 13.1126 11.7647 13.4321 11.5812 13.7549C10.4092 15.8177 9.03549 17.7401 7.71804 19.702C7.48737 20.0455 7.0157 20.13 6.73399 19.7551C6.68844 19.6946 6.63933 19.6365 6.59733 19.5737C5.50893 17.949 4.41472 16.3286 3.33633 14.6969C2.76548 13.8334 2.22564 12.9472 1.78078 12.0065C1.27099 10.9289 0.790268 9.83347 0.567677 8.64719C0.295335 7.19726 0.319887 5.75668 0.904955 4.3816C1.85056 2.15674 3.44876 0.677067 5.75866 0.167134C9.2051 -0.593756 12.1214 1.33303 13.3988 4.12663C13.8036 5.0115 13.97 5.94582 13.9893 6.87412L13.9893 6.87446ZM7.21083 18.3125C7.30549 18.1926 7.3911 18.094 7.46605 17.9874C7.70576 17.6455 7.94806 17.3057 8.17776 16.9565C9.24193 15.3388 10.3607 13.7589 11.285 12.045C11.8255 11.0428 12.2677 10.0036 12.5853 8.90517C12.8554 7.97051 12.9349 7.01915 12.7717 6.0591C12.2215 2.81838 9.34951 0.913654 6.61284 1.2144C4.36109 1.46202 2.37651 3.19098 1.75494 5.44958C1.44544 6.57438 1.50456 7.68681 1.79047 8.80158C2.12161 10.0924 2.67728 11.2824 3.32599 12.4272C4.44412 14.4005 5.74154 16.2491 7.03638 18.0993C7.08354 18.1665 7.14008 18.2263 7.21083 18.3122L7.21083 18.3125Z" fill="#FBBB23"/>
        <path d="M3.81115 7.01583C3.74524 5.26482 5.26332 3.52282 7.24014 3.51079C9.02119 3.5001 10.5861 5.1512 10.6136 7.00414C10.6372 8.60244 9.43439 10.56 7.1093 10.5606C5.51466 10.561 3.74137 9.06893 3.81147 7.01583L3.81115 7.01583ZM9.45281 7.01149C9.45668 5.7557 8.45519 4.7061 7.21979 4.71044C5.68976 4.71579 4.93121 6.00165 4.9451 7.03622C4.96287 8.34346 5.90363 9.33927 7.18619 9.37603C8.43031 9.41178 9.44893 8.32508 9.45281 7.01149Z" fill="#FBBB23"/>
    </g>
    <defs>
        <clipPath id="clip0_39_7428">
            <rect width="13.6" height="20" fill="white" transform="translate(0.399902)"/>
        </clipPath>
    </defs>
</svg>
