<svg width="18" height="19" viewBox="0 0 18 19" fill="none"
    xmlns="http://www.w3.org/2000/svg">
    <g clip-path="url(#clip0_39_7481)">
        <path d="M8.48835 8.0766L8.48833 8.0766C8.40405 8.1133 8.31254 8.11919 8.23149 8.11826C8.19293 8.11782 8.15397 8.11573 8.11758 8.11377L8.11062 8.1134C8.0714 8.1113 8.03516 8.10948 8.00049 8.10948C6.3907 8.11029 4.78074 8.11026 3.17078 8.11022C2.84879 8.11022 2.5268 8.11021 2.20481 8.11021H2.20374H2.20268H2.20161H2.20055H2.19948H2.19842H2.19735H2.19629H2.19522H2.19416H2.19309H2.19203H2.19096H2.1899H2.18883H2.18777H2.1867H2.18564H2.18457H2.18351H2.18244H2.18138H2.18031H2.17925H2.17818H2.17712H2.17605H2.17499H2.17392H2.17286H2.17179H2.17073H2.16966H2.1686H2.16753H2.16647H2.1654H2.16434H2.16327H2.16221H2.16114H2.16008H2.15901H2.15795H2.15688H2.15582H2.15475H2.15369H2.15262H2.15156H2.15049H2.14943H2.14836H2.1473H2.14623H2.14517H2.1441H2.14304H2.14197H2.14091H2.13984H2.13878H2.13771H2.13664H2.13558H2.13451H2.13345H2.13238H2.13132H2.13025H2.12919H2.12812H2.12706H2.12599H2.12493H2.12386H2.1228H2.12173H2.12067H2.1196H2.11854H2.11747H2.11641H2.11534H2.11428H2.11321H2.11214H2.11108H2.11001H2.10895H2.10788H2.10682H2.10575H2.10469H2.10362H2.10256H2.10149H2.10043H2.09936H2.0983H2.09723H2.09617H2.0951H2.09403H2.09297H2.0919H2.09084H2.08977H2.08871H2.08764H2.08658H2.08551H2.08445H2.08338H2.08232H2.08125H2.08019H2.07912H2.07805H2.07699H2.07592H2.07486H2.07379H2.07273H2.07166H2.0706H2.06953H2.06847H2.0674H2.06633H2.06527H2.0642H2.06314H2.06207H2.06101H2.05994H2.05888H2.05781H2.05675H2.05568H2.05462H2.05355H2.05248H2.05142H2.05035H2.04929H2.04822H2.04716H2.04609H2.04503H2.04396H2.0429H2.04183H2.04076H2.0397H2.03863H2.03757H2.0365H2.03544H2.03437H2.03331H2.03224H2.03118H2.03011H2.02904H2.02798H2.02691H2.02585H2.02478H2.02372H2.02265H2.02159H2.02052H2.01945H2.01839H2.01732H2.01626H2.01519H2.01413H2.01306H2.012H2.01093H2.00987H2.0088H2.00773H2.00667H2.0056H2.00454H2.00347H2.00241H2.00134H2.00028H1.99921H1.99814H1.99708H1.99601H1.99495H1.99388H1.99282H1.99175H1.99069H1.98962H1.98855H1.98749H1.98642H1.98536H1.98429H1.98323H1.98216H1.9811H1.98003H1.97896H1.9779H1.97683H1.97577H1.9747H1.97364H1.97257H1.97151H1.97044H1.96937H1.96831H1.96724H1.96618H1.96511H1.96405H1.96298H1.96192H1.96085H1.95978H1.95872H1.95765H1.95659H1.95552H1.95446H1.95339H1.95233H1.95126H1.95019H1.94913H1.94806H1.947H1.94593H1.94487H1.9438H1.94274H1.94167H1.9406H1.93954H1.93847H1.93741H1.93634H1.93528H1.93421H1.93315H1.93208H1.93101H1.92995H1.92888H1.92782H1.92675H1.92569H1.92462H1.92356H1.92249H1.92142H1.92036H1.91929H1.91823H1.91716H1.9161H1.91503H1.91396H1.9129H1.91183H1.91077H1.9097H1.90864H1.90757H1.90651H1.90544H1.90437H1.90331H1.90224H1.90118H1.90011H1.89905H1.89798H1.89692H1.89585H1.89478H1.89372H1.89265H1.89159H1.89052H1.88946H1.88839H1.88733H1.88626H1.88519H1.88413H1.88306H1.882H1.88093H1.87987H1.8788H1.87774H1.87667H1.8756H1.87454H1.87347H1.87241H1.87134H1.87028H1.86921H1.86815H1.86708H1.86601H1.86495H1.86388H1.86282H1.86175H1.86069H1.85962H1.85856H1.85749H1.85643H1.85536H1.85429H1.85323H1.85216H1.8511H1.85003H1.84897H1.8479H1.84684H1.84577H1.8447H1.84364H1.84257H1.84151H1.84044H1.83938H1.83831H1.83725H1.83618H1.83511H1.83405H1.83298H1.83192H1.83085H1.82979H1.82872H1.82766H1.82659H1.82553H1.82446H1.82339H1.82233H1.82126H1.8202H1.81913H1.81807H1.817H1.81594H1.81487H1.81381H1.81274H1.81167H1.81061H1.80954H1.80848H1.80741H1.80635H1.80528H1.80422H1.80315H1.80209H1.80102H1.79996H1.79889H1.79782H1.79676H1.79569H1.79463H1.79356H1.7925H1.79143H1.79037H1.7893H1.78824H1.78717H1.78611H1.78504H1.78397H1.78291H1.78184H1.78078H1.77971H1.77865H1.77758H1.77652H1.77545H1.77439H1.77332H1.77226H1.77119H1.77012H1.76906H1.76799H1.76693H1.76586H1.7648H1.76373H1.76267H1.7616H1.76054H1.75947H1.75841H1.75734H1.75628H1.75521H1.75415H1.75308H1.75201H1.75095H1.74988H1.74882H1.74775H1.74669H1.74562H1.74456H1.74349H1.74243H1.74136H1.7403H1.73923H1.73817H1.7371H1.73604H1.73497H1.73391H1.73284H1.73178H1.73071H1.72964H1.72858H1.72751H1.72645H1.72538H1.72432H1.72325H1.72219H1.72112H1.72006H1.71899H1.71793H1.71686H1.7158H1.71473H1.71367H1.71336C1.70992 8.11545 1.70648 8.1207 1.70304 8.12594C1.98101 8.39968 2.25909 8.6734 2.53718 8.94715C2.93526 9.339 3.33338 9.7309 3.7313 10.1229L3.73132 10.1229C3.75542 10.1467 3.78274 10.1703 3.81295 10.1958C3.81803 10.2001 3.82321 10.2044 3.82848 10.2089C3.85356 10.23 3.88039 10.2525 3.90572 10.2755C3.96596 10.3302 4.03175 10.3991 4.06433 10.4881L4.06437 10.4882C4.10333 10.5949 4.11957 10.7068 4.12957 10.8134C4.13399 10.8604 4.13709 10.9041 4.1401 10.9465C4.14433 11.006 4.14838 11.063 4.15565 11.1234L4.17199 11.259L4.03776 11.2336C3.99641 11.2258 3.95054 11.2211 3.90002 11.217C3.88787 11.216 3.87532 11.2151 3.86252 11.2141C3.824 11.2111 3.78325 11.208 3.74432 11.2035C3.64385 11.1921 3.52373 11.1695 3.43699 11.0919L3.43696 11.0919C3.09431 10.7848 2.7715 10.4528 2.45156 10.1238C2.33541 10.0043 2.21963 9.88525 2.10342 9.7679L2.10342 9.7679C1.93744 9.60028 1.77231 9.43227 1.60734 9.26441C1.22802 8.87846 0.849477 8.49331 0.463163 8.11553L8.48835 8.0766ZM8.48835 8.0766C8.56693 8.04236 8.65833 7.97807 8.72797 7.91245C8.76304 7.8794 8.79634 7.84255 8.82039 7.80514C8.84097 7.77313 8.87005 7.71766 8.85696 7.65638L8.8569 7.65612M8.48835 8.0766L8.8569 7.65612M8.8569 7.65612C8.83622 7.56054 8.77849 7.47258 8.7136 7.40111C8.64771 7.32853 8.56762 7.26542 8.49045 7.2203L8.49042 7.22028M8.8569 7.65612L8.49042 7.22028M8.49042 7.22028C8.41294 7.17502 8.32186 7.17251 8.24976 7.17559M8.49042 7.22028L8.24976 7.17559M3.37193 4.25175L3.372 4.25168C3.46187 4.161 3.57692 4.04754 3.70746 3.99869C3.77649 3.97285 3.85314 3.96352 3.93353 3.98569C4.01297 4.00759 4.08637 4.05757 4.15467 4.13322M3.37193 4.25175L3.92118 4.83989L3.91483 4.84617L3.98517 4.91725C3.98905 4.91341 3.99298 4.90953 3.99697 4.90559C4.08316 4.82048 4.19142 4.71356 4.2456 4.59188C4.27548 4.52478 4.29114 4.44921 4.27737 4.36748C4.26367 4.28615 4.22242 4.2082 4.15467 4.13322M3.37193 4.25175C3.08974 4.53708 2.80806 4.82274 2.52645 5.10833C1.83615 5.80838 1.14624 6.50804 0.449974 7.20149L0.449956 7.2015M3.37193 4.25175L0.449956 7.2015M4.15467 4.13322L4.08044 4.20023L4.15463 4.13318C4.15464 4.13319 4.15465 4.13321 4.15467 4.13322ZM0.449956 7.2015C0.301264 7.34967 0.213872 7.50137 0.219331 7.66641M0.449956 7.2015L0.219331 7.66641M8.24976 7.17559C8.21833 7.17694 8.18601 7.1797 8.15628 7.18223M8.24976 7.17559L8.15628 7.18223M8.15628 7.18223C8.15059 7.18272 8.14499 7.1832 8.13952 7.18366M8.15628 7.18223L8.13952 7.18366M8.13952 7.18366C8.1041 7.18662 8.07256 7.18888 8.04355 7.18888L8.13952 7.18366ZM0.219331 7.66641C0.22473 7.82966 0.320264 7.97587 0.463142 8.11551L0.219331 7.66641ZM1.7108 7.16811L3.98516 4.91726L8.04353 7.18888C7.38837 7.18872 6.73321 7.18869 6.07804 7.18866C4.76772 7.18861 3.45741 7.18855 2.14718 7.18742C2.03787 7.18727 1.93012 7.18095 1.78083 7.17219C1.75847 7.17088 1.73517 7.16951 1.7108 7.16811Z" fill="white" stroke="#FBBB23" stroke-width="0.2"/>
        <path d="M10.1162 13.9917V13.991V13.9898V13.9886V13.9874V13.9862V13.985V13.9838V13.9826V13.9814V13.9802V13.979V13.9778V13.9766V13.9754V13.9742V13.973V13.9718V13.9707V13.9695V13.9683V13.9671V13.9659V13.9647V13.9635V13.9623V13.9612V13.96V13.9588V13.9576V13.9564V13.9553V13.9541V13.9529V13.9517V13.9505V13.9494V13.9482V13.947V13.9458V13.9447V13.9435V13.9423V13.9411V13.94V13.9388V13.9376V13.9364V13.9353V13.9341V13.9329V13.9318V13.9306V13.9294V13.9283V13.9271V13.9259V13.9248V13.9236V13.9224V13.9213V13.9201V13.919V13.9178V13.9166V13.9155V13.9143V13.9131V13.912V13.9108V13.9097V13.9085V13.9074V13.9062V13.9051V13.9039V13.9027V13.9016V13.9004V13.8993V13.8981V13.897V13.8958V13.8947V13.8935V13.8924V13.8912V13.8901V13.8889V13.8878V13.8866V13.8855V13.8844V13.8832V13.8821V13.8809V13.8798V13.8786V13.8775V13.8763V13.8752V13.8741V13.8729V13.8718V13.8706V13.8695V13.8684V13.8672V13.8661V13.865V13.8638V13.8627V13.8616V13.8604V13.8593V13.8582V13.857V13.8559V13.8548V13.8536V13.8525V13.8514V13.8502V13.8491V13.848V13.8468V13.8457V13.8446V13.8435V13.8423V13.8412V13.8401V13.839V13.8378V13.8367V13.8356V13.8345V13.8333V13.8322V13.8311V13.83V13.8289V13.8277V13.8266V13.8255V13.8244V13.8233V13.8221V13.821V13.8199V13.8188V13.8177V13.8166V13.8154V13.8143V13.8132V13.8121V13.811V13.8099V13.8088V13.8076V13.8065V13.8054V13.8043V13.8032V13.8021V13.801V13.7999V13.7988V13.7976V13.7965V13.7954V13.7943V13.7932V13.7921V13.791V13.7899V13.7888V13.7877V13.7866V13.7855V13.7844V13.7833V13.7822V13.7811V13.78V13.7789V13.7778V13.7767V13.7756V13.7745V13.7734V13.7723V13.7712V13.7701V13.769V13.7679V13.7668V13.7657V13.7646V13.7635V13.7624V13.7613V13.7602V13.7591V13.758V13.7569V13.7558V13.7547V13.7536V13.7525V13.7514V13.7503V13.7492V13.7481V13.7471V13.746V13.7449V13.7438V13.7427V13.7416V13.7405V13.7394V13.7383V13.7373V13.7362V13.7351V13.734V13.7329V13.7318V13.7307V13.7296V13.7286V13.7275V13.7264V13.7253V13.7242V13.7231V13.722V13.721V13.7199V13.7188V13.7177V13.7166V13.7155V13.7145V13.7134V13.7123V13.7112V13.7101V13.7091V13.708V13.7069V13.7058V13.7047V13.7037V13.7026V13.7015V13.7004V13.6993V13.6983V13.6972V13.6961V13.695V13.694V13.6929V13.6918V13.6907V13.6897V13.6886V13.6875V13.6864V13.6854V13.6843V13.6832V13.6821V13.6811V13.68V13.6789V13.6778V13.6768V13.6757V13.6746V13.6736V13.6725V13.6714V13.6703V13.6693V13.6682V13.6671V13.6661V13.665V13.6639V13.6629V13.6618V13.6607V13.6596V13.6586V13.6575V13.6564V13.6554V13.6543V13.6532V13.6522V13.6511V13.65V13.649V13.6479V13.6468V13.6458V13.6447V13.6436V13.6426V13.6415V13.6404V13.6394V13.6383V13.6372V13.6362V13.6351V13.634V13.633V13.6319V13.6309V13.6298V13.6287V13.6277V13.6266V13.6255V13.6245V13.6234V13.6224V13.6213V13.6202V13.6192V13.6181V13.617V13.616V13.6149V13.6139V13.6128V13.6117V13.6107V13.6096V13.6086V13.6075V13.6064V13.6054V13.6043V13.6033V13.6022V13.6011V13.6001V13.599V13.598V13.5969V13.5958V13.5948V13.5937V13.5927V13.5916V13.5905V13.5895V13.5884V13.5874V13.5863V13.5853V13.5842V13.5831V13.5821V13.581V13.58V13.5789V13.5779V13.5768V13.5757V13.5747V13.5736V13.5726V13.5715V13.5705V13.5694V13.5683V13.5673V13.5662V13.5652V13.5641V13.5631V13.562V13.5609V13.5599V13.5588V13.5578V13.5567V13.5557V13.5546V13.5536V13.5525V13.5514V13.5504V13.5493V13.5483V13.5472V13.5462V13.5451V13.5441V13.543V13.5419V13.5409V13.5398V13.5388V13.5377V13.5367V13.5356V13.5346V13.5335V13.5325V13.5314V13.5303V13.5293V13.5282V13.5272V13.5261V13.5251V13.524V13.523V13.5219V13.5209V13.5198V13.5187V13.5177V13.5166C10.1162 12.813 10.1167 12.1094 10.1171 11.4058C10.1186 9.20718 10.12 7.00888 10.1076 4.81062C10.1063 4.58676 10.1374 4.39848 10.2313 4.23944C10.326 4.07927 10.4767 3.9616 10.6892 3.86346L10.6892 3.86345C11.9906 3.26243 13.2825 2.64081 14.5752 2.01878C14.9922 1.81815 15.4092 1.61749 15.8266 1.41746L15.8267 1.41745C15.8863 1.38891 15.944 1.35818 16.0129 1.32037C15.9406 1.3152 15.88 1.31191 15.8183 1.31191H15.8183C13.1137 1.31045 10.4093 1.30996 7.7047 1.31142L7.70468 1.31142C7.54457 1.31148 7.42852 1.31533 7.34203 1.32931C7.25615 1.3432 7.2127 1.36518 7.18655 1.39111C7.16048 1.41696 7.13838 1.45988 7.12422 1.54492C7.10994 1.63065 7.10574 1.74575 7.10513 1.90468C7.10426 2.14013 7.10572 2.37662 7.10717 2.61368C7.11052 3.15815 7.11388 3.70561 7.08915 4.25031L10.1162 13.9917ZM10.1162 13.9917C9.88043 13.9913 9.64843 13.9896 9.41928 13.9878C8.81011 13.9833 8.22108 13.9788 7.63434 14.0001C7.39546 14.0088 7.27075 13.9591 7.20183 13.8814C7.12981 13.8003 7.09428 13.6624 7.09933 13.4357C7.11716 12.6378 7.1242 11.8363 7.08843 11.0369C7.08843 11.037 7.08843 11.037 7.08843 11.037L10.1162 13.9917ZM10.1162 14.9005C9.8655 14.9006 9.61881 14.9009 9.37503 14.9013C8.75346 14.9021 8.15082 14.903 7.54853 14.8993C7.1225 14.8966 6.79059 14.7983 6.56537 14.5752C6.34003 14.3518 6.24005 14.0219 6.2362 13.5983L6.3362 13.5974L6.2362 13.5983C6.23492 13.4579 6.23338 13.3173 6.23183 13.1767C6.22403 12.4688 6.2162 11.7579 6.24301 11.0488L10.1162 14.9005ZM10.1162 14.9005C10.1162 15.1804 10.1159 15.4547 10.1157 15.7249C10.115 16.4292 10.1144 17.1059 10.1174 17.7823C10.1181 17.9334 10.1308 18.0622 10.1607 18.1659C10.1906 18.2698 10.2406 18.358 10.3229 18.4132C10.4062 18.469 10.5056 18.4796 10.6104 18.463C10.714 18.4465 10.8312 18.4021 10.9615 18.3368L10.9167 18.2474L10.9616 18.3368C12.7772 17.4259 14.5907 16.5104 16.4041 15.595C16.734 15.4285 17.0638 15.262 17.3936 15.0955C17.3936 15.0955 17.3936 15.0955 17.3936 15.0955L10.1162 14.9005ZM6.67721 4.96802L6.59119 4.83525C6.56597 4.79632 6.53485 4.75635 6.50005 4.71341C6.49142 4.70277 6.48248 4.69184 6.47338 4.68071C6.44695 4.64839 6.41915 4.61439 6.39366 4.58085C6.32705 4.49318 6.25596 4.38388 6.25096 4.26063L6.67721 4.96802ZM6.67721 4.96802L6.76024 4.83336M6.67721 4.96802L6.76024 4.83336M6.76024 4.83336C6.78483 4.79347 6.81504 4.7526 6.84867 4.7088M6.76024 4.83336L6.84867 4.7088M6.84867 4.7088C6.85688 4.69811 6.86537 4.68715 6.87401 4.676M6.84867 4.7088L6.87401 4.676M6.87401 4.676C6.89968 4.64285 6.92667 4.60801 6.95145 4.57359M6.87401 4.676L6.95145 4.57359M6.95145 4.57359C7.01616 4.48365 7.08361 4.37352 7.08915 4.25037L6.95145 4.57359ZM18.0951 1.58065C18.0945 1.22487 17.9855 0.928907 17.7765 0.721608C17.5677 0.514421 17.2703 0.407043 16.9146 0.406141C13.7565 0.397872 10.5982 0.398115 7.43986 0.405898C7.07329 0.406798 6.77044 0.516991 6.55812 0.729526C6.34596 0.941911 6.23583 1.24485 6.23163 1.60861L18.0951 1.58065ZM17.177 1.76822C17.1786 1.79441 17.1803 1.81976 17.1819 1.84441C17.1903 1.97347 17.1975 2.08349 17.1975 2.19565V2.1957C17.198 3.26017 17.1978 4.32471 17.1975 5.38928C17.197 8.12254 17.1964 10.856 17.2076 13.5893C17.2086 13.8127 17.1799 13.9732 17.1081 14.1011C17.0372 14.2274 16.9169 14.3344 16.709 14.4355C15.3885 15.078 14.0791 15.7451 12.7707 16.4118C12.2547 16.6747 11.7389 16.9375 11.2225 17.1987C11.1699 17.2253 11.1175 17.2467 11.0437 17.2769C11.0362 17.2799 11.0285 17.2831 11.0206 17.2863C11.0206 15.0332 11.0206 12.8443 11.0203 10.6556C11.0203 10.2639 11.0201 9.87217 11.0199 9.48049C11.019 8.00727 11.0182 6.53442 11.0292 5.06166C11.0298 4.99015 11.0475 4.89399 11.0789 4.80984C11.0945 4.76811 11.1123 4.73239 11.1308 4.70545C11.1499 4.67755 11.1655 4.66529 11.1742 4.66104L11.1743 4.661C12.8178 3.85395 14.4694 3.06376 16.1598 2.25502C16.4973 2.09359 16.8362 1.93142 17.177 1.76822ZM6.23163 1.60863C6.22128 2.49092 6.21474 3.37656 6.25096 4.26057L6.23163 1.60863Z" fill="#FBBB23" stroke="#FBBB23" stroke-width="0.2"/>
        <path d="M3.73131 10.1231L3.73131 10.1231C3.75534 10.1468 3.78261 10.1703 3.81281 10.1958C3.81788 10.2001 3.82306 10.2044 3.82831 10.2088C3.8534 10.2299 3.88025 10.2525 3.90561 10.2755C3.96589 10.3301 4.03177 10.3992 4.06435 10.4883L4.06437 10.4883C4.10333 10.5951 4.11957 10.7069 4.12957 10.8135C4.13399 10.8606 4.13709 10.9043 4.1401 10.9467C4.14433 11.0062 4.14838 11.0632 4.15565 11.1235L4.17199 11.2592L4.03776 11.2338C3.99641 11.2259 3.95054 11.2213 3.90002 11.2172C3.88786 11.2162 3.87531 11.2152 3.86251 11.2142C3.82399 11.2113 3.78325 11.2081 3.74433 11.2037C3.64385 11.1922 3.52373 11.1697 3.43699 11.0921L3.43698 11.092C3.09315 10.7841 2.76956 10.4512 2.44877 10.1212C2.33356 10.0027 2.21872 9.88455 2.10342 9.76806C2.10341 9.76806 2.10341 9.76805 2.1034 9.76805L2.17448 9.6977L3.73131 10.1231ZM3.73131 10.1231C3.17542 9.57526 2.61937 9.02788 2.06331 8.4805C1.9432 8.36226 1.82308 8.24402 1.70297 8.12578C1.70635 8.12064 1.70973 8.11551 1.71311 8.11038H1.71367H1.71473H1.7158H1.71686H1.71793H1.71899H1.72006H1.72112H1.72219H1.72325H1.72432H1.72538H1.72645H1.72751H1.72858H1.72964H1.73071H1.73178H1.73284H1.73391H1.73497H1.73604H1.7371H1.73817H1.73923H1.7403H1.74136H1.74243H1.74349H1.74456H1.74562H1.74669H1.74775H1.74882H1.74988H1.75095H1.75201H1.75308H1.75415H1.75521H1.75628H1.75734H1.75841H1.75947H1.76054H1.7616H1.76267H1.76373H1.7648H1.76586H1.76693H1.76799H1.76906H1.77012H1.77119H1.77226H1.77332H1.77439H1.77545H1.77652H1.77758H1.77865H1.77971H1.78078H1.78184H1.78291H1.78397H1.78504H1.78611H1.78717H1.78824H1.7893H1.79037H1.79143H1.7925H1.79356H1.79463H1.79569H1.79676H1.79782H1.79889H1.79996H1.80102H1.80209H1.80315H1.80422H1.80528H1.80635H1.80741H1.80848H1.80954H1.81061H1.81167H1.81274H1.81381H1.81487H1.81594H1.817H1.81807H1.81913H1.8202H1.82126H1.82233H1.82339H1.82446H1.82553H1.82659H1.82766H1.82872H1.82979H1.83085H1.83192H1.83298H1.83405H1.83511H1.83618H1.83725H1.83831H1.83938H1.84044H1.84151H1.84257H1.84364H1.8447H1.84577H1.84684H1.8479H1.84897H1.85003H1.8511H1.85216H1.85323H1.85429H1.85536H1.85643H1.85749H1.85856H1.85962H1.86069H1.86175H1.86282H1.86388H1.86495H1.86601H1.86708H1.86815H1.86921H1.87028H1.87134H1.87241H1.87347H1.87454H1.8756H1.87667H1.87774H1.8788H1.87987H1.88093H1.882H1.88306H1.88413H1.88519H1.88626H1.88733H1.88839H1.88946H1.89052H1.89159H1.89265H1.89372H1.89478H1.89585H1.89692H1.89798H1.89905H1.90011H1.90118H1.90224H1.90331H1.90437H1.90544H1.90651H1.90757H1.90864H1.9097H1.91077H1.91183H1.9129H1.91396H1.91503H1.9161H1.91716H1.91823H1.91929H1.92036H1.92142H1.92249H1.92356H1.92462H1.92569H1.92675H1.92782H1.92888H1.92995H1.93101H1.93208H1.93315H1.93421H1.93528H1.93634H1.93741H1.93847H1.93954H1.9406H1.94167H1.94274H1.9438H1.94487H1.94593H1.947H1.94806H1.94913H1.95019H1.95126H1.95233H1.95339H1.95446H1.95552H1.95659H1.95765H1.95872H1.95978H1.96085H1.96192H1.96298H1.96405H1.96511H1.96618H1.96724H1.96831H1.96937H1.97044H1.97151H1.97257H1.97364H1.9747H1.97577H1.97683H1.9779H1.97896H1.98003H1.9811H1.98216H1.98323H1.98429H1.98536H1.98642H1.98749H1.98855H1.98962H1.99069H1.99175H1.99282H1.99388H1.99495H1.99601H1.99708H1.99814H1.99921H2.00028H2.00134H2.00241H2.00347H2.00454H2.0056H2.00667H2.00773H2.0088H2.00987H2.01093H2.012H2.01306H2.01413H2.01519H2.01626H2.01732H2.01839H2.01945H2.02052H2.02159H2.02265H2.02372H2.02478H2.02585H2.02691H2.02798H2.02904H2.03011H2.03118H2.03224H2.03331H2.03437H2.03544H2.0365H2.03757H2.03863H2.0397H2.04076H2.04183H2.0429H2.04396H2.04503H2.04609H2.04716H2.04822H2.04929H2.05035H2.05142H2.05248H2.05355H2.05462H2.05568H2.05675H2.05781H2.05888H2.05994H2.06101H2.06207H2.06314H2.0642H2.06527H2.06633H2.0674H2.06847H2.06953H2.0706H2.07166H2.07273H2.07379H2.07486H2.07592H2.07699H2.07805H2.07912H2.08019H2.08125H2.08232H2.08338H2.08445H2.08551H2.08658H2.08764H2.08871H2.08977H2.09084H2.0919H2.09297H2.09403H2.0951H2.09617H2.09723H2.0983H2.09936H2.10043H2.10149H2.10256H2.10362H2.10469H2.10575H2.10682H2.10788H2.10895H2.11001H2.11108H2.11214H2.11321H2.11428H2.11534H2.11641H2.11747H2.11854H2.1196H2.12067H2.12173H2.1228H2.12386H2.12493H2.12599H2.12706H2.12812H2.12919H2.13025H2.13132H2.13238H2.13345H2.13451H2.13558H2.13664H2.13771H2.13878H2.13984H2.14091H2.14197H2.14304H2.1441H2.14517H2.14623H2.1473H2.14836H2.14943H2.15049H2.15156H2.15262H2.15369H2.15475H2.15582H2.15688H2.15795H2.15901H2.16008H2.16114H2.16221H2.16327H2.16434H2.1654H2.16647H2.16753H2.1686H2.16966H2.17073H2.17179H2.17286H2.17392H2.17499H2.17605H2.17712H2.17818H2.17925H2.18031H2.18138H2.18244H2.18351H2.18457H2.18564H2.1867H2.18777H2.18883H2.1899H2.19096H2.19203H2.19309H2.19416H2.19522H2.19629H2.19735H2.19842H2.19948H2.20055H2.20161H2.20268H2.20374H2.20481C2.52675 8.11038 2.8487 8.11038 3.17066 8.11039C4.78049 8.11042 6.39049 8.11046 8.00049 8.10965H8.0006M3.73131 10.1231L8.0006 8.10965M0.449956 7.20167L0.449966 7.20166C1.13949 6.51476 1.82276 5.8219 2.50636 5.12871C2.79467 4.83636 3.08303 4.54395 3.37194 4.25191C3.46175 4.16106 3.57677 4.04753 3.70737 3.99867C3.77645 3.97282 3.85313 3.96352 3.93354 3.98573C4.01298 4.00767 4.08638 4.05768 4.15466 4.13338L0.449956 7.20167ZM0.449956 7.20167C0.301264 7.34984 0.213872 7.50154 0.219331 7.66657M0.449956 7.20167L0.219331 7.66657M2.14704 7.18758H2.14712C3.45751 7.18872 4.76796 7.18877 6.07843 7.18883C6.73346 7.18885 7.3885 7.18888 8.04353 7.18904L2.14704 7.18758ZM2.14704 7.18758C2.03793 7.18758 1.93044 7.18124 1.7815 7.17246C1.75893 7.17112 1.7354 7.16974 1.71076 7.16831M2.14704 7.18758L1.71076 7.16831M8.49042 7.22045L8.49045 7.22047C8.56762 7.26558 8.64771 7.3287 8.7136 7.40128C8.77849 7.47274 8.83622 7.5607 8.8569 7.65627L8.49042 7.22045ZM8.49042 7.22045C8.41294 7.17519 8.32186 7.17267 8.24976 7.17576M8.49042 7.22045L8.24976 7.17576M8.0006 8.10965C8.03522 8.10959 8.07144 8.11138 8.11065 8.11346L8.11867 8.11389C8.15471 8.11582 8.19329 8.11788 8.23145 8.11833C8.31245 8.11929 8.40397 8.11349 8.48829 8.07679M8.0006 8.10965L8.48829 8.07679M1.71076 7.16831L3.98516 4.91743C3.98516 4.91742 3.98517 4.91742 3.98517 4.91741C3.98912 4.91351 3.99312 4.90956 3.99717 4.90556C4.0833 4.8205 4.19145 4.71371 4.2456 4.59214C4.27548 4.52505 4.29113 4.44948 4.27737 4.36775C4.26367 4.28642 4.22243 4.20845 4.1547 4.13342L1.71076 7.16831ZM0.219331 7.66657C0.22473 7.82982 0.320264 7.97603 0.463142 8.11568L0.219331 7.66657ZM8.24976 7.17576C8.21833 7.1771 8.18601 7.17986 8.15628 7.1824M8.24976 7.17576L8.15628 7.1824M8.15628 7.1824C8.15059 7.18289 8.14499 7.18336 8.13952 7.18382M8.15628 7.1824L8.13952 7.18382M8.13952 7.18382C8.1041 7.18678 8.07256 7.18904 8.04355 7.18904L8.13952 7.18382ZM8.48829 8.07679C8.56701 8.04256 8.65848 7.97826 8.72815 7.91261M8.48829 8.07679L8.72815 7.91261M8.72815 7.91261C8.76323 7.87956 8.79653 7.84268 8.82056 7.80524M8.72815 7.91261L8.82056 7.80524M8.82056 7.80524C8.84113 7.77319 8.87018 7.71763 8.8569 7.65628L8.82056 7.80524Z" fill="#FBBB23" stroke="#FBBB23" stroke-width="0.2"/>
    </g>
    <defs>
        <clipPath id="clip0_39_7481">
            <rect width="18" height="18" fill="white" transform="translate(0 0.5)"/>
        </clipPath>
    </defs>
</svg>
