<svg width="18" height="17" viewBox="0 0 18 17" fill="none"
    xmlns="http://www.w3.org/2000/svg">
    <path d="M15.3728 10.2062C15.3955 10.2265 15.4183 10.2465 15.441 10.2668C15.4279 10.3176 15.4174 10.3691 15.4015 10.4191C14.7225 12.5452 13.3532 14.0421 11.2649 14.7982C9.09893 15.5826 7.03405 15.2775 5.13592 13.9647C4.11325 13.2574 3.36486 12.3125 2.86865 11.1663C2.7079 10.7945 2.36536 10.6538 2.03763 10.801C1.72707 10.9404 1.61074 11.3033 1.77085 11.6565C2.75833 13.8352 4.37423 15.3275 6.64923 16.047C8.80018 16.7274 10.8947 16.4938 12.8561 15.3949C14.5448 14.4489 15.7325 13.0327 16.4047 11.1999C16.5049 10.9266 16.5841 10.6456 16.6869 10.3245C16.759 10.44 16.8103 10.5221 16.8616 10.6045C17.0792 10.9534 17.4177 11.0518 17.7313 10.8575C18.0133 10.6825 18.085 10.3168 17.8899 9.9903C17.5403 9.4048 17.1876 8.82102 16.829 8.2409C16.5753 7.83059 16.1677 7.77801 15.8231 8.11591C15.3221 8.60681 14.8289 9.1059 14.3374 9.6065C14.0926 9.85583 14.0898 10.2226 14.3183 10.4562C14.5544 10.6976 14.9274 10.7032 15.1807 10.4599C15.2565 10.3872 15.3095 10.2913 15.3728 10.2062ZM2.60638 6.75053C2.59522 6.74385 2.58406 6.73716 2.5729 6.73048C2.58556 6.67963 2.59651 6.62834 2.61132 6.57813C3.37645 3.97235 5.71455 2.04387 8.41901 1.81673C10.0536 1.67946 11.5557 2.08093 12.895 3.04399C13.7824 3.68229 14.4772 4.49277 14.9785 5.46875C15.0455 5.59913 15.1086 5.73662 15.2017 5.84695C15.3872 6.06654 15.734 6.09542 15.9656 5.93099C16.2276 5.74502 16.298 5.42673 16.1396 5.10866C15.003 2.82741 13.2055 1.35945 10.7311 0.782782C8.77335 0.326792 6.88402 0.610601 5.14365 1.6105C3.25046 2.69811 1.99127 4.31843 1.40428 6.44409C1.38646 6.50852 1.36221 6.57123 1.33174 6.66196C1.22099 6.49947 1.1448 6.36457 1.0465 6.24842C0.852482 6.01913 0.532695 5.9797 0.285664 6.14024C0.0343406 6.30359 -0.0830581 6.63955 0.0661047 6.89642C0.448992 7.55519 0.841537 8.20922 1.25426 8.84946C1.45729 9.16452 1.87816 9.19059 2.14408 8.92898C2.66325 8.41847 3.17706 7.90235 3.68464 7.38042C3.9306 7.12764 3.9218 6.77725 3.68636 6.53244C3.47345 6.31113 3.10688 6.30445 2.85191 6.52081C2.76627 6.593 2.68794 6.67381 2.60638 6.75053ZM8.01938 6.75936C8.01938 6.034 8.73643 5.53189 9.41571 5.7767C9.75031 5.89738 9.92695 6.16007 10.0808 6.45982C10.233 6.75634 10.5648 6.86 10.8479 6.72488C11.1436 6.58373 11.2797 6.25769 11.1561 5.94866C10.9361 5.39893 10.5758 4.95932 10.0244 4.73714C9.72434 4.61625 9.56144 4.49751 9.59192 4.13612C9.61746 3.8327 9.31913 3.58919 9.01673 3.58316C8.70961 3.57691 8.44025 3.82214 8.41257 4.13871C8.40377 4.23848 8.40184 4.33977 8.40913 4.43954C8.4175 4.55613 8.37716 4.61366 8.26233 4.6587C7.35062 5.01578 6.80376 5.84372 6.81728 6.82983C6.82973 7.7556 7.42187 8.5607 8.3323 8.89342C8.66432 9.01475 8.99699 9.13413 9.32579 9.26365C9.8866 9.48453 10.1474 10.0884 9.92222 10.6288C9.69065 11.1841 9.07983 11.4294 8.52589 11.1906C8.24387 11.0691 8.09021 10.8338 7.95478 10.5726C7.78158 10.239 7.46007 10.1299 7.14951 10.2814C6.84625 10.4295 6.73765 10.7626 6.88016 11.104C7.10444 11.6406 7.47445 12.055 8.00758 12.2683C8.31062 12.3894 8.44433 12.5187 8.42244 12.8605C8.40291 13.1659 8.69651 13.4079 8.99827 13.4139C9.30454 13.4201 9.57368 13.1747 9.60265 12.8583C9.61059 12.7719 9.61703 12.6831 9.60544 12.5978C9.58484 12.4442 9.65116 12.3784 9.79109 12.3233C10.6685 11.9772 11.2115 11.1367 11.1979 10.1657C11.1853 9.25567 10.5936 8.437 9.71898 8.11699C9.36828 7.98877 9.01716 7.86163 8.66926 7.72586C8.2574 7.56575 8.01938 7.20501 8.01938 6.75936Z" fill="#FBBB23"/>
    <path d="M15.3726 10.2061C15.3093 10.2912 15.2561 10.3871 15.1808 10.4595C14.9275 10.7028 14.5543 10.6972 14.3184 10.4559C14.09 10.2223 14.0926 9.8555 14.3375 9.60617C14.829 9.10557 15.3222 8.6067 15.8231 8.11558C16.1678 7.77768 16.5754 7.83026 16.8291 8.24057C17.1877 8.82069 17.5403 9.40447 17.8899 9.98997C18.085 10.3167 18.0133 10.6824 17.7313 10.8571C17.4178 11.0515 17.0793 10.953 16.8617 10.6041C16.8104 10.522 16.7591 10.4397 16.687 10.3242C16.584 10.6455 16.5048 10.9263 16.4047 11.1996C15.7325 13.0326 14.5448 14.4486 12.8562 15.3946C10.8947 16.4934 8.80023 16.727 6.64928 16.0467C4.37428 15.3272 2.75817 13.8346 1.77091 11.6562C1.6108 11.303 1.72712 10.9403 2.03768 10.8007C2.3652 10.6535 2.70774 10.7944 2.8687 11.1659C3.36491 12.3124 4.1133 13.2571 5.13598 13.9644C7.0341 15.277 9.09877 15.5823 11.265 14.7979C13.3532 14.0417 14.7225 12.5451 15.4016 10.4188C15.4175 10.369 15.428 10.3173 15.4411 10.2665C15.4181 10.2464 15.3954 10.2262 15.3726 10.2061Z" fill="#FBBB23"/>
    <path d="M2.60635 6.75053C2.68791 6.6736 2.76646 6.593 2.85166 6.5206C3.10685 6.30424 3.47321 6.31092 3.68612 6.53223C3.92156 6.77682 3.93036 7.12722 3.6844 7.38021C3.17682 7.90236 2.66301 8.41848 2.14384 8.92877C1.87771 9.19038 1.45705 9.16431 1.25401 8.84925C0.841293 8.20901 0.448748 7.55498 0.0658606 6.89621C-0.0833022 6.63934 0.0340964 6.30338 0.28542 6.14003C0.532665 5.97949 0.852238 6.01914 1.04626 6.24821C1.14455 6.36436 1.22075 6.49926 1.33149 6.66175C1.36175 6.57102 1.38622 6.50853 1.40403 6.44388C1.99124 4.31844 3.25022 2.69812 5.14341 1.6103C6.884 0.610607 8.77332 0.326798 10.7309 0.782789C13.2053 1.35924 15.0027 2.82742 16.1394 5.10866C16.2978 5.42674 16.2274 5.74503 15.9653 5.931C15.7338 6.09542 15.3869 6.06655 15.2015 5.84696C15.1083 5.73662 15.0452 5.59913 14.9783 5.46876C14.4769 4.49278 13.7824 3.68229 12.8947 3.04399C11.5555 2.08094 10.0533 1.67947 8.41876 1.81674C5.7143 2.04387 3.37599 3.97257 2.61107 6.57814C2.59626 6.62835 2.58532 6.67963 2.57265 6.73049C2.58403 6.73717 2.59519 6.74385 2.60635 6.75053Z" fill="#FBBB23"/>
    <path d="M8.01945 6.7589C8.01945 7.20454 8.25747 7.5655 8.66911 7.72583C9.01702 7.86138 9.36814 7.98852 9.71883 8.11695C10.5932 8.43675 11.1851 9.25542 11.1978 10.1657C11.2113 11.1367 10.6685 11.9771 9.79094 12.3232C9.65101 12.3784 9.58469 12.4441 9.6053 12.5978C9.61667 12.6831 9.61045 12.7719 9.60251 12.8583C9.57353 13.1747 9.30439 13.4201 8.99813 13.4139C8.69615 13.4078 8.40277 13.1658 8.4223 12.8605C8.44419 12.5187 8.31048 12.3896 8.00743 12.2683C7.47431 12.0549 7.1043 11.6405 6.88002 11.104C6.73729 10.7626 6.84589 10.4294 7.14937 10.2814C7.45971 10.1299 7.78143 10.2389 7.95463 10.5725C8.09027 10.8337 8.24373 11.069 8.52574 11.1906C9.0799 11.4294 9.69072 11.1841 9.92208 10.6288C10.1472 10.0883 9.88645 9.4845 9.32564 9.26361C8.99684 9.1341 8.66418 9.01471 8.33215 8.89339C7.42151 8.56066 6.82958 7.75557 6.81713 6.82979C6.80383 5.84347 7.35068 5.01553 8.26219 4.65867C8.37701 4.61363 8.41736 4.55631 8.40899 4.43951C8.40191 4.33973 8.40384 4.23845 8.41242 4.13867C8.44011 3.82211 8.70946 3.57688 9.01659 3.58312C9.31899 3.58916 9.61731 3.83267 9.59177 4.13609C9.5613 4.49726 9.7242 4.616 10.0242 4.73711C10.5754 4.95929 10.9357 5.3989 11.1559 5.94863C11.2798 6.25765 11.1437 6.5837 10.8477 6.72485C10.5647 6.85996 10.2331 6.75631 10.0807 6.45979C9.9268 6.16003 9.75017 5.89734 9.41557 5.77666C8.7365 5.53121 8.01945 6.03353 8.01945 6.7589Z" fill="#FBBB23"/>
</svg>
