<svg width="286" height="46" viewBox="0 0 286 46" fill="none" xmlns="http://www.w3.org/2000/svg">
<g filter="url(#filter0_d_734_11725)">
<rect x="4.80469" y="3.59453" width="277" height="36" rx="5" transform="rotate(-0.20722 4.80469 3.59453)" fill="white"/>
<g clip-path="url(#clip0_734_11725)">
<path d="M32.4477 18.369C32.5135 19.4147 32.307 20.3758 31.9899 21.3146C31.6377 22.3582 31.2172 23.3699 30.6316 24.301C30.4343 24.6145 30.2468 24.9346 30.0645 25.2581C28.8999 27.3251 27.5332 29.2525 26.2228 31.2191C25.9934 31.5635 25.5221 31.6497 25.239 31.2758C25.1932 31.2155 25.1439 31.1575 25.1017 31.0949C24.0074 29.4741 22.9073 27.8577 21.8231 26.2299C21.2491 25.3685 20.706 24.4842 20.2578 23.5452C19.7441 22.4694 19.2594 21.3757 19.0325 20.1903C18.755 18.7413 18.7743 17.3007 19.3544 15.9235C20.2919 13.6952 21.8848 12.2098 24.1928 11.6915C27.6365 10.9181 30.5597 12.8344 31.8472 15.6233C32.2552 16.5067 32.425 17.4404 32.4477 18.3687L32.4477 18.369ZM25.7106 29.8315C25.8048 29.7112 25.8901 29.6123 25.9647 29.5054C26.2031 29.1627 26.4442 28.822 26.6726 28.472C27.7309 26.8505 28.844 25.2665 29.7621 23.5493C30.2989 22.5451 30.7374 21.5043 31.051 20.4048C31.3177 19.4691 31.3938 18.5175 31.2271 17.558C30.6653 14.3193 27.7864 12.425 25.0508 12.7357C22.7999 12.9914 20.8216 14.7275 20.2082 16.9884C19.9028 18.1143 19.9659 19.2265 20.2559 20.3402C20.5917 21.6299 21.1517 22.8178 21.8045 23.9603C22.9298 25.9295 24.2339 27.7734 25.5354 29.6189C25.5828 29.6859 25.6395 29.7456 25.7106 29.8312L25.7106 29.8315Z" fill="#A6A8AB"/>
<path d="M22.2701 18.5469C22.1979 16.7961 23.7096 15.0486 25.6864 15.0295C27.4674 15.0123 29.0383 16.6578 29.0725 18.5106C29.1018 20.1088 27.9061 22.0707 25.5811 22.0797C23.9864 22.0858 22.2078 20.6002 22.2704 18.5469L22.2701 18.5469ZM27.9117 18.5221C27.9111 17.2663 26.9058 16.2204 25.6704 16.2292C24.1404 16.2401 23.3865 17.5287 23.4041 18.5632C23.4266 19.8703 24.371 20.8627 25.6537 20.8949C26.8979 20.9261 27.9126 19.8357 27.9117 18.5221Z" fill="#A6A8AB"/>
</g>
<path d="M51.1179 15.2907L51.1599 26.927L49.5463 26.9329L43.6007 18.4202L43.4928 18.4206L43.5236 26.9547L41.768 26.961L41.7259 15.3247L43.3509 15.3188L49.3022 23.8428L49.4101 23.8424L49.3792 15.297L51.1179 15.2907ZM57.2614 27.0811C56.4432 27.0841 55.7285 26.8991 55.1173 26.5264C54.5061 26.1536 54.0307 25.6307 53.6912 24.9576C53.3516 24.2846 53.1802 23.4974 53.177 22.5958C53.1737 21.6905 53.3394 20.8983 53.674 20.219C54.0087 19.5398 54.4803 19.0116 55.0888 18.6344C55.6973 18.2572 56.4106 18.0671 57.2288 18.0641C58.047 18.0612 58.7616 18.2461 59.3728 18.6189C59.984 18.9917 60.4594 19.5165 60.799 20.1933C61.1386 20.8701 61.31 21.6611 61.3133 22.5664C61.3165 23.4679 61.1508 24.2564 60.8161 24.9319C60.4815 25.6073 60.0099 26.1337 59.4014 26.5109C58.7929 26.8881 58.0796 27.0781 57.2614 27.0811ZM57.2619 25.655C57.7922 25.653 58.2311 25.5113 58.5786 25.2297C58.926 24.9482 59.1823 24.5741 59.3472 24.1076C59.516 23.6411 59.5994 23.1275 59.5973 22.5669C59.5953 22.0101 59.5083 21.4991 59.3361 21.0338C59.1678 20.5647 58.9088 20.1887 58.5593 19.9059C58.2098 19.6231 57.7699 19.4826 57.2396 19.4845C56.7055 19.4865 56.2628 19.6301 55.9116 19.9155C55.5641 20.2008 55.306 20.5787 55.1373 21.049C54.9723 21.5155 54.8908 22.0271 54.8928 22.584C54.8949 23.1446 54.9801 23.6575 55.1484 24.1228C55.3205 24.5881 55.5814 24.9603 55.9309 25.2393C56.2841 25.5183 56.7278 25.6569 57.2619 25.655ZM67.2655 27.0279C66.7466 27.0222 66.2349 26.9293 65.7304 26.7493C65.2298 26.5693 64.7741 26.2679 64.3635 25.8452C63.9529 25.4224 63.6232 24.8535 63.3744 24.1385C63.1294 23.4235 63.0049 22.53 63.001 21.458C62.9974 20.4429 63.0945 19.541 63.2924 18.7524C63.4941 17.9638 63.7852 17.298 64.1658 16.7549C64.5464 16.2081 65.0071 15.7917 65.5477 15.5056C66.0883 15.2196 66.6958 15.0753 67.37 15.0729C68.0632 15.0704 68.6792 15.2045 69.2181 15.4753C69.7569 15.7461 70.1939 16.1214 70.529 16.6012C70.8678 17.0811 71.0838 17.6276 71.177 18.2409L69.444 18.2472C69.3248 17.7628 69.0904 17.3678 68.7409 17.0622C68.3913 16.7567 67.9362 16.6049 67.3756 16.607C66.5233 16.61 65.8599 16.9837 65.3853 17.7278C64.9145 18.4719 64.6796 19.505 64.6806 20.827L64.7658 20.8266C64.9654 20.4964 65.2106 20.2152 65.5014 19.9831C65.796 19.7472 66.1249 19.566 66.4881 19.4397C66.855 19.3096 67.2412 19.2438 67.6465 19.2424C68.3207 19.2399 68.9311 19.4025 69.4778 19.7301C70.0282 20.0538 70.4673 20.503 70.7952 21.0776C71.123 21.6521 71.2883 22.3106 71.2909 23.0531C71.2936 23.7955 71.1275 24.4684 70.7926 25.0719C70.4614 25.6754 69.9934 26.1544 69.3887 26.5088C68.7839 26.8595 68.0762 27.0325 67.2655 27.0279ZM67.2545 25.5506C67.7015 25.549 68.1007 25.4377 68.4522 25.2168C68.8036 24.9958 69.081 24.6993 69.2842 24.3274C69.4874 23.9554 69.5882 23.5403 69.5865 23.082C69.5849 22.635 69.483 22.2282 69.2809 21.8615C69.0826 21.4948 68.8089 21.2041 68.4596 20.9894C68.1141 20.7748 67.7198 20.6682 67.2766 20.6698C66.9395 20.6711 66.6272 20.7366 66.3398 20.8664C66.0562 20.9962 65.8068 21.1752 65.5918 21.4032C65.3767 21.6313 65.2072 21.8932 65.0832 22.1891C64.9631 22.4812 64.9036 22.7902 64.9048 23.1159C64.9063 23.5515 65.0082 23.9546 65.2103 24.3251C65.4162 24.6955 65.6957 24.9938 66.0487 25.2198C66.4056 25.442 66.8075 25.5522 67.2545 25.5506ZM75.0702 25.2496L74.9872 25.8693C74.9321 26.324 74.8372 26.7978 74.7026 27.2908C74.5718 27.7874 74.4352 28.2482 74.2928 28.6729C74.1542 29.0977 74.0399 29.4352 73.9499 29.6855L72.7454 29.6899C72.7937 29.4549 72.8608 29.1364 72.9464 28.7346C73.0321 28.3366 73.1157 27.8912 73.1973 27.3985C73.2789 26.9057 73.3395 26.4036 73.3794 25.8921L73.4339 25.2556L75.0702 25.2496ZM77.6115 26.8314L77.5694 15.1951L81.7171 15.1801C82.6186 15.1768 83.3673 15.3294 83.9631 15.6379C84.5627 15.9463 85.0112 16.3746 85.3086 16.9228C85.6061 17.4672 85.7561 18.0973 85.7587 18.8132C85.7612 19.5253 85.6139 20.1528 85.3166 20.6955C85.0231 21.2344 84.5776 21.6546 83.9802 21.956C83.3866 22.2574 82.6391 22.4097 81.7376 22.413L78.5955 22.4244L78.5901 20.913L81.573 20.9022C82.1412 20.9002 82.603 20.8171 82.9585 20.6529C83.3177 20.4887 83.5801 20.251 83.7457 19.9398C83.9112 19.6286 83.9932 19.2552 83.9916 18.8196C83.99 18.3802 83.9034 17.9998 83.7318 17.6785C83.564 17.3571 83.2998 17.1119 82.9394 16.9427C82.5827 16.7698 82.1146 16.6843 81.535 16.6864L79.3305 16.6944L79.3671 26.825L77.6115 26.8314ZM83.3368 21.5606L86.2307 26.8002L84.2307 26.8074L81.3936 21.5677L83.3368 21.5606ZM91.3549 26.9578C90.5367 26.9608 89.8221 26.7758 89.2109 26.403C88.5996 26.0303 88.1243 25.5074 87.7847 24.8343C87.4452 24.1613 87.2737 23.374 87.2705 22.4725C87.2672 21.5672 87.4329 20.775 87.7676 20.0957C88.1022 19.4165 88.5738 18.8883 89.1823 18.5111C89.7908 18.1339 90.5041 17.9438 91.3223 17.9408C92.1405 17.9379 92.8552 18.1228 93.4664 18.4956C94.0776 18.8684 94.553 19.3932 94.8925 20.07C95.2321 20.7468 95.4035 21.5378 95.4068 22.4431C95.4101 23.3446 95.2443 24.1331 94.9097 24.8086C94.575 25.484 94.1034 26.0104 93.4949 26.3876C92.8864 26.7648 92.1731 26.9548 91.3549 26.9578ZM91.3554 25.5316C91.8857 25.5297 92.3246 25.388 92.6721 25.1064C93.0196 24.8249 93.2758 24.4508 93.4408 23.9843C93.6095 23.5178 93.6929 23.0042 93.6909 22.4436C93.6889 21.8868 93.6018 21.3758 93.4296 20.9105C93.2613 20.4414 93.0023 20.0654 92.6528 19.7826C92.3033 19.4998 91.8634 19.3593 91.3331 19.3612C90.799 19.3632 90.3564 19.5068 90.0051 19.7922C89.6577 20.0775 89.3996 20.4554 89.2308 20.9257C89.0658 21.3922 88.9843 21.9038 88.9864 22.4607C88.9884 23.0213 89.0736 23.5342 89.2419 23.9995C89.4141 24.4648 89.6749 24.837 90.0244 25.116C90.3777 25.395 90.8214 25.5336 91.3554 25.5316ZM103.835 20.1399L102.296 20.4182C102.231 20.2214 102.128 20.0343 101.987 19.8568C101.85 19.6793 101.664 19.5341 101.429 19.4213C101.193 19.3085 100.9 19.2528 100.547 19.254C100.066 19.2558 99.6651 19.3652 99.3439 19.5823C99.0227 19.7955 98.8627 20.0707 98.8639 20.4079C98.865 20.6995 98.9738 20.934 99.1904 21.1112C99.4069 21.2885 99.7559 21.4331 100.237 21.545L101.625 21.8581C102.429 22.0408 103.028 22.3246 103.423 22.7096C103.819 23.0945 104.018 23.5957 104.02 24.2131C104.022 24.7358 103.872 25.2023 103.57 25.6125C103.273 26.0189 102.855 26.3385 102.318 26.5716C101.785 26.8045 101.166 26.9223 100.461 26.9249C99.4841 26.9284 98.686 26.7229 98.0671 26.3085C97.4482 25.8903 97.0672 25.2951 96.9243 24.5229L98.5654 24.2669C98.6692 24.6946 98.8806 25.0177 99.1996 25.2362C99.5186 25.451 99.9337 25.5574 100.445 25.5556C101.002 25.5536 101.447 25.4364 101.779 25.2042C102.112 24.9681 102.277 24.6815 102.276 24.3444C102.275 24.0717 102.172 23.8429 101.967 23.658C101.765 23.4732 101.456 23.3341 101.039 23.2409L99.5605 22.9224C98.7455 22.7398 98.1421 22.4465 97.7505 22.0426C97.3627 21.6387 97.1677 21.1261 97.1654 20.5049C97.1636 19.9898 97.3059 19.5385 97.5923 19.1511C97.8788 18.7637 98.2755 18.4611 98.7823 18.2434C99.289 18.0218 99.8701 17.9099 100.525 17.9075C101.469 17.9041 102.212 18.106 102.755 18.5131C103.298 18.9164 103.658 19.4587 103.835 20.1399ZM109.659 26.8916C108.799 26.8947 108.058 26.7137 107.435 26.3485C106.816 25.9795 106.337 25.4604 105.998 24.7912C105.662 24.1182 105.492 23.329 105.489 22.4237C105.486 21.5298 105.65 20.7413 105.981 20.0583C106.315 19.3752 106.783 18.8413 107.384 18.4566C107.989 18.0718 108.696 17.878 109.507 17.875C109.999 17.8733 110.477 17.953 110.94 18.1142C111.402 18.2754 111.818 18.5296 112.187 18.8767C112.555 19.2239 112.847 19.6755 113.061 20.2315C113.275 20.7838 113.383 21.4557 113.386 22.2474L113.388 22.8497L106.451 22.8748L106.446 21.602L111.719 21.583C111.718 21.136 111.625 20.7405 111.442 20.3965C111.259 20.0486 111.002 19.7749 110.672 19.5754C110.346 19.3758 109.963 19.2768 109.523 19.2784C109.046 19.2801 108.63 19.3991 108.275 19.6352C107.923 19.8675 107.652 20.1715 107.46 20.5472C107.272 20.9191 107.178 21.3229 107.18 21.7585L107.184 22.7528C107.186 23.3361 107.29 23.832 107.496 24.2403C107.706 24.6486 107.996 24.9601 108.368 25.1747C108.74 25.3854 109.175 25.4899 109.671 25.4881C109.993 25.487 110.286 25.4405 110.551 25.3486C110.816 25.2529 111.044 25.112 111.237 24.9256C111.429 24.7393 111.576 24.5096 111.678 24.2366L113.287 24.5205C113.16 24.9945 112.93 25.4101 112.598 25.7673C112.27 26.1208 111.856 26.3969 111.357 26.5957C110.861 26.7907 110.295 26.8893 109.659 26.8916ZM120.641 26.6757L118.777 26.6825L122.923 15.031L124.951 15.0237L129.181 26.6449L127.317 26.6516L123.993 17.1408L123.902 17.1412L120.641 26.6757ZM120.937 22.1178L126.982 22.096L126.988 23.5732L120.942 23.5951L120.937 22.1178ZM137.065 17.889L133.932 26.6277L132.114 26.6342L128.912 17.9185L130.736 17.9119L132.97 24.6198L133.061 24.6194L135.241 17.8956L137.065 17.889ZM142.159 26.7741C141.299 26.7772 140.558 26.5961 139.935 26.231C139.316 25.862 138.837 25.3429 138.498 24.6736C138.162 24.0006 137.992 23.2114 137.989 22.3062C137.986 21.4122 138.15 20.6237 138.48 19.9407C138.815 19.2577 139.283 18.7238 139.884 18.339C140.488 17.9543 141.196 17.7604 142.007 17.7575C142.499 17.7557 142.977 17.8354 143.439 17.9966C143.902 18.1578 144.318 18.412 144.686 18.7592C145.055 19.1063 145.347 19.5579 145.561 20.114C145.775 20.6662 145.883 21.3382 145.886 22.1299L145.888 22.7321L138.951 22.7572L138.946 21.4845L144.219 21.4654C144.217 21.0185 144.125 20.623 143.942 20.2789C143.759 19.9311 143.502 19.6574 143.172 19.4578C142.845 19.2583 142.462 19.1593 142.023 19.1609C141.546 19.1626 141.13 19.2815 140.774 19.5177C140.423 19.75 140.151 20.054 139.959 20.4297C139.771 20.8016 139.678 21.2053 139.68 21.6409L139.683 22.6353C139.685 23.2186 139.79 23.7144 139.996 24.1228C140.205 24.5311 140.496 24.8426 140.868 25.0571C141.24 25.2679 141.674 25.3724 142.171 25.3706C142.493 25.3694 142.786 25.3229 143.051 25.231C143.316 25.1354 143.544 24.9944 143.737 24.8081C143.929 24.6218 144.076 24.3921 144.177 24.119L145.786 24.403C145.659 24.8769 145.43 25.2925 145.098 25.6498C144.769 26.0032 144.356 26.2794 143.856 26.4781C143.361 26.6731 142.795 26.7718 142.159 26.7741ZM149.467 21.3896L149.486 26.5714L147.787 26.5776L147.756 17.8503L149.386 17.8444L149.391 19.2649L149.499 19.2645C149.698 18.8017 150.011 18.4293 150.438 18.1475C150.869 17.8656 151.412 17.7235 152.068 17.7211C152.662 17.719 153.184 17.8421 153.631 18.0905C154.079 18.3351 154.427 18.7012 154.675 19.189C154.923 19.6767 155.049 20.2804 155.051 21.0001L155.071 26.5512L153.372 26.5574L153.353 21.2108C153.351 20.5782 153.184 20.0845 152.853 19.7296C152.522 19.371 152.069 19.1927 151.493 19.1948C151.099 19.1962 150.749 19.2827 150.443 19.4543C150.141 19.6258 149.901 19.8767 149.724 20.2069C149.551 20.5333 149.466 20.9275 149.467 21.3896ZM162.865 22.9037L162.846 17.7958L164.551 17.7896L164.582 26.5168L162.912 26.5229L162.907 25.0115L162.816 25.0118C162.617 25.4785 162.296 25.8679 161.854 26.1801C161.416 26.4885 160.869 26.6439 160.214 26.6463C159.653 26.6483 159.156 26.527 158.724 26.2823C158.295 26.0339 157.956 25.6658 157.708 25.178C157.464 24.6903 157.341 24.0866 157.338 23.3669L157.318 17.8158L159.017 17.8096L159.036 23.1562C159.038 23.7509 159.205 24.2238 159.536 24.5748C159.866 24.9259 160.295 25.1005 160.822 25.0986C161.14 25.0974 161.456 25.0168 161.77 24.8565C162.087 24.6963 162.35 24.4548 162.557 24.1321C162.768 23.8093 162.87 23.3999 162.865 22.9037ZM170.627 26.6711C169.767 26.6742 169.026 26.4932 168.404 26.128C167.785 25.759 167.306 25.2399 166.966 24.5707C166.63 23.8977 166.461 23.1085 166.458 22.2032C166.454 21.3093 166.618 20.5208 166.949 19.8378C167.284 19.1547 167.751 18.6208 168.352 18.2361C168.957 17.8513 169.665 17.6575 170.475 17.6545C170.968 17.6528 171.445 17.7325 171.908 17.8937C172.371 18.0549 172.786 18.3091 173.155 18.6562C173.524 19.0034 173.815 19.455 174.029 20.011C174.243 20.5633 174.352 21.2352 174.355 22.0269L174.357 22.6292L167.419 22.6543L167.415 21.3815L172.687 21.3625C172.686 20.9155 172.594 20.52 172.41 20.176C172.227 19.8281 171.971 19.5544 171.64 19.3549C171.314 19.1553 170.931 19.0563 170.492 19.0579C170.014 19.0596 169.598 19.1786 169.243 19.4147C168.891 19.647 168.62 19.951 168.428 20.3267C168.24 20.6986 168.147 21.1024 168.148 21.538L168.152 22.5323C168.154 23.1156 168.258 23.6115 168.464 24.0198C168.674 24.4281 168.965 24.7396 169.337 24.9542C169.709 25.1649 170.143 25.2694 170.639 25.2676C170.961 25.2665 171.254 25.22 171.519 25.1281C171.784 25.0324 172.013 24.8914 172.205 24.7051C172.398 24.5188 172.545 24.2891 172.646 24.016L174.255 24.3C174.128 24.774 173.898 25.1896 173.566 25.5468C173.238 25.9003 172.824 26.1764 172.325 26.3752C171.829 26.5702 171.263 26.6688 170.627 26.6711ZM178.46 24.8757L178.377 25.4953C178.322 25.9501 178.227 26.4239 178.093 26.9168C177.962 27.4135 177.825 27.8742 177.683 28.299C177.544 28.7237 177.43 29.0613 177.34 29.3116L176.135 29.316C176.184 29.0809 176.251 28.7625 176.336 28.3607C176.422 27.9626 176.506 27.5173 176.587 27.0245C176.669 26.5318 176.729 26.0297 176.769 25.5182L176.824 24.8816L178.46 24.8757ZM180.959 14.8211L183.09 14.8134L186.827 23.8454L186.964 23.8449L190.635 14.7862L192.766 14.7784L192.808 26.4147L191.138 26.4208L191.107 18.0004L190.999 18.0008L187.598 26.4165L186.212 26.4215L182.749 18.0249L182.641 18.0253L182.672 26.4514L181.001 26.4574L180.959 14.8211ZM200.74 22.7667L200.721 17.6588L202.426 17.6526L202.457 26.3798L200.787 26.3859L200.781 24.8745L200.69 24.8749C200.491 25.3415 200.171 25.7309 199.729 26.0431C199.29 26.3515 198.744 26.5069 198.088 26.5093C197.528 26.5113 197.031 26.39 196.598 26.1453C196.169 25.8969 195.831 25.5288 195.583 25.0411C195.339 24.5533 195.215 23.9496 195.213 23.2299L195.193 17.6788L196.892 17.6726L196.911 23.0192C196.913 23.6139 197.08 24.0868 197.41 24.4378C197.741 24.7889 198.17 24.9635 198.696 24.9616C199.015 24.9605 199.331 24.8798 199.644 24.7195C199.962 24.5593 200.224 24.3178 200.432 23.9951C200.643 23.6724 200.745 23.2629 200.74 22.7667ZM211.256 19.7514L209.717 20.0297C209.652 19.8329 209.549 19.6458 209.408 19.4683C209.271 19.2908 209.085 19.1456 208.85 19.0328C208.614 18.92 208.321 18.8643 207.968 18.8655C207.487 18.8673 207.086 18.9767 206.765 19.1938C206.444 19.407 206.284 19.6822 206.285 20.0194C206.286 20.311 206.395 20.5455 206.612 20.7227C206.828 20.9 207.177 21.0446 207.659 21.1564L209.046 21.4696C209.85 21.6523 210.449 21.9361 210.845 22.3211C211.24 22.706 211.439 23.2072 211.441 23.8246C211.443 24.3473 211.293 24.8138 210.991 25.224C210.694 25.6303 210.276 25.95 209.739 26.183C209.206 26.416 208.587 26.5338 207.883 26.5364C206.905 26.5399 206.107 26.3344 205.488 25.92C204.869 25.5018 204.488 24.9066 204.345 24.1344L205.987 23.8784C206.09 24.3061 206.302 24.6292 206.621 24.8477C206.94 25.0625 207.355 25.1689 207.866 25.1671C208.423 25.1651 208.868 25.0479 209.2 24.8157C209.533 24.5796 209.698 24.293 209.697 23.9559C209.696 23.6832 209.593 23.4544 209.388 23.2695C209.186 23.0846 208.877 22.9456 208.46 22.8524L206.982 22.5339C206.167 22.3512 205.563 22.058 205.172 21.6541C204.784 21.2502 204.589 20.7376 204.587 20.1164C204.585 19.6013 204.727 19.15 205.014 18.7626C205.3 18.3752 205.697 18.0726 206.203 17.8549C206.71 17.6333 207.291 17.5214 207.947 17.519C208.89 17.5156 209.633 17.7175 210.176 18.1246C210.719 18.5279 211.079 19.0702 211.256 19.7514ZM216.995 26.5034C216.15 26.5065 215.422 26.3178 214.811 25.9374C214.203 25.5533 213.736 25.0228 213.407 24.3459C213.079 23.6691 212.913 22.8931 212.91 22.0181C212.907 21.1318 213.071 20.349 213.402 19.6698C213.733 18.9867 214.2 18.4528 214.805 18.0681C215.41 17.6833 216.123 17.4894 216.945 17.4865C217.608 17.4841 218.199 17.605 218.719 17.8494C219.239 18.0899 219.659 18.4293 219.978 18.8676C220.302 19.3058 220.495 19.8183 220.558 20.4052L218.905 20.4112C218.812 20.0025 218.603 19.6509 218.276 19.3567C217.953 19.0624 217.52 18.9162 216.979 18.9182C216.505 18.9199 216.091 19.0464 215.736 19.2977C215.384 19.5452 215.111 19.8984 214.916 20.3575C214.72 20.8127 214.624 21.351 214.626 21.9722C214.628 22.6085 214.727 23.1574 214.922 23.6188C215.117 24.0802 215.391 24.4372 215.744 24.6897C216.101 24.9422 216.52 25.0676 217.001 25.0659C217.323 25.0647 217.614 25.0049 217.875 24.8866C218.14 24.7644 218.361 24.5912 218.538 24.3671C218.719 24.143 218.845 23.8736 218.916 23.5589L220.569 23.5529C220.511 24.1176 220.329 24.622 220.024 25.0663C219.718 25.5106 219.309 25.8606 218.794 26.1162C218.284 26.3718 217.684 26.5009 216.995 26.5034ZM227.911 22.6684L227.893 17.5605L229.597 17.5543L229.629 26.2816L227.959 26.2876L227.953 24.7763L227.862 24.7766C227.663 25.2432 227.342 25.6326 226.9 25.9448C226.462 26.2532 225.915 26.4086 225.26 26.411C224.699 26.413 224.203 26.2917 223.77 26.0471C223.341 25.7986 223.003 25.4305 222.755 24.9428C222.511 24.455 222.387 23.8513 222.385 23.1316L222.364 17.5805L224.063 17.5744L224.083 22.9209C224.085 23.5156 224.251 23.9885 224.582 24.3396C224.913 24.6907 225.342 24.8652 225.868 24.8633C226.186 24.8622 226.502 24.7815 226.816 24.6213C227.134 24.461 227.396 24.2196 227.603 23.8968C227.814 23.5741 227.917 23.1646 227.911 22.6684ZM235.954 17.5314L235.959 18.895L231.192 18.9122L231.187 17.5486L235.954 17.5314ZM232.458 15.4531L234.157 15.4469L234.186 23.7026C234.188 24.0321 234.238 24.28 234.337 24.4463C234.436 24.6089 234.563 24.7201 234.719 24.7802C234.878 24.8364 235.05 24.8642 235.236 24.8635C235.372 24.8631 235.492 24.8532 235.594 24.8338C235.696 24.8145 235.776 24.7991 235.832 24.7875L236.144 26.1898C236.046 26.2281 235.906 26.2664 235.724 26.305C235.543 26.3473 235.315 26.3708 235.043 26.3756C234.596 26.3848 234.179 26.3068 233.792 26.1415C233.405 25.9762 233.091 25.7198 232.852 25.3722C232.612 25.0246 232.491 24.5875 232.489 24.061L232.458 15.4531ZM238.984 26.3557C238.674 26.3568 238.406 26.2479 238.182 26.029C237.958 25.8064 237.845 25.5378 237.844 25.2234C237.843 24.9128 237.954 24.6473 238.176 24.4268C238.399 24.2025 238.666 24.0898 238.976 24.0887C239.287 24.0875 239.554 24.1983 239.779 24.421C240.003 24.6399 240.116 24.9046 240.117 25.2152C240.117 25.4236 240.065 25.615 239.96 25.7897C239.858 25.9605 239.722 26.0973 239.552 26.2002C239.382 26.3031 239.193 26.3549 238.984 26.3557Z" fill="#A6A8AB"/>
<rect width="1.87986" height="9.71259" rx="0.939928" transform="matrix(-0.704545 0.70966 0.70966 0.704545 251.783 16.5716)" fill="#87CB44"/>
<rect x="262.886" y="16.5939" width="1.87986" height="9.71259" rx="0.939928" transform="rotate(44.7928 262.886 16.5939)" fill="#87CB44"/>
</g>
<defs>
<filter id="filter0_d_734_11725" x="0.804688" y="0.592712" width="285.128" height="45.0016" filterUnits="userSpaceOnUse" color-interpolation-filters="sRGB">
<feFlood flood-opacity="0" result="BackgroundImageFix"/>
<feColorMatrix in="SourceAlpha" type="matrix" values="0 0 0 0 0 0 0 0 0 0 0 0 0 0 0 0 0 0 127 0" result="hardAlpha"/>
<feOffset dy="2"/>
<feGaussianBlur stdDeviation="2"/>
<feComposite in2="hardAlpha" operator="out"/>
<feColorMatrix type="matrix" values="0 0 0 0 0 0 0 0 0 0 0 0 0 0 0 0 0 0 0.25 0"/>
<feBlend mode="normal" in2="BackgroundImageFix" result="effect1_dropShadow_734_11725"/>
<feBlend mode="normal" in="SourceGraphic" in2="effect1_dropShadow_734_11725" result="shape"/>
</filter>
<clipPath id="clip0_734_11725">
<rect width="13.6" height="20" fill="white" transform="translate(18.8335 11.5438) rotate(-0.20722)"/>
</clipPath>
</defs>
</svg>
