<svg width="287" height="353" viewBox="0 0 287 353" fill="none" xmlns="http://www.w3.org/2000/svg">
<g filter="url(#filter0_d_1849_2577)">
<rect x="4.80469" y="0.637604" width="278" height="344" rx="10" fill="#FFEFEA" shape-rendering="crispEdges"/>
<g clip-path="url(#clip0_1849_2577)">
<g clip-path="url(#clip1_1849_2577)">
<path d="M189.305 73.6376C189.305 98.7666 168.934 119.138 143.805 119.138C118.676 119.138 98.3047 98.7666 98.3047 73.6376C98.3047 48.5086 118.676 28.1376 143.805 28.1376C168.934 28.1376 189.305 48.5086 189.305 73.6376Z" fill="white" stroke="black"/>
<circle cx="143.805" cy="73.6376" r="30.5" stroke="black"/>
<path d="M141 70V69.6613C141 67.0872 138.985 65 136.501 65C134.015 65 132 67.0872 132 69.6613V70" stroke="black" stroke-miterlimit="10"/>
<path d="M154 70V69.6613C154 67.0872 151.985 65 149.501 65C147.015 65 145 67.0872 145 69.6613V70" stroke="black" stroke-miterlimit="10"/>
<path d="M149 80V80.4064C149 83.4953 146.538 86 143.501 86C140.462 86 138 83.4953 138 80.4064V80" stroke="black" stroke-miterlimit="10"/>
<circle cx="143.805" cy="73.6376" r="41.5" stroke="black"/>
<path d="M190.07 50.77C190.07 43.72 185.8 38 180.54 38C175.28 38 171 43.72 171 50.77C171 56.4 173.73 61.19 177.51 62.88C178.21 63.19 178.65 63.9 178.63 64.66L177.39 105.84C177.36 106.75 178.09 107.49 178.99 107.49H182.32C183.23 107.49 183.95 106.74 183.92 105.84L182.64 64.51C182.61 63.77 183.05 63.12 183.71 62.8C187.41 61.05 190.06 56.33 190.06 50.77H190.07Z" fill="white" stroke="black" stroke-width="0.97" stroke-miterlimit="10"/>
<path d="M112.34 40L112.96 58.02C112.97 58.42 112.83 58.81 112.55 59.1L108.51 63.37L110.24 106.4C110.27 107.16 109.66 107.8 108.9 107.8H105.06C104.3 107.8 103.69 107.16 103.72 106.4L105.45 63.37L101.41 59.1C101.14 58.81 100.99 58.42 101 58.02L101.62 40" fill="white"/>
<path d="M112.34 40L112.96 58.02C112.97 58.42 112.83 58.81 112.55 59.1L108.51 63.37L110.24 106.4C110.27 107.16 109.66 107.8 108.9 107.8H105.06C104.3 107.8 103.69 107.16 103.72 106.4L105.45 63.37L101.41 59.1C101.14 58.81 100.99 58.42 101 58.02L101.62 40" stroke="black" stroke-width="0.97" stroke-miterlimit="10" stroke-linecap="round"/>
<path d="M105.441 40V56.09" stroke="black" stroke-width="0.97" stroke-miterlimit="10" stroke-linecap="round"/>
<path d="M108.831 40V56.09" stroke="black" stroke-width="0.97" stroke-miterlimit="10" stroke-linecap="round"/>
</g>
</g>
<path d="M46.1404 151.092H49.585L52.9018 157.356H53.0439L56.3606 151.092H59.8052L54.4998 160.496V165.638H51.4458V160.496L46.1404 151.092ZM64.0719 165.851C62.9687 165.851 62.0146 165.616 61.2097 165.148C60.4095 164.674 59.7916 164.016 59.356 163.173C58.9204 162.326 58.7026 161.343 58.7026 160.226C58.7026 159.099 58.9204 158.114 59.356 157.271C59.7916 156.424 60.4095 155.765 61.2097 155.297C62.0146 154.823 62.9687 154.586 64.0719 154.586C65.1751 154.586 66.1268 154.823 66.927 155.297C67.7319 155.765 68.3522 156.424 68.7878 157.271C69.2234 158.114 69.4412 159.099 69.4412 160.226C69.4412 161.343 69.2234 162.326 68.7878 163.173C68.3522 164.016 67.7319 164.674 66.927 165.148C66.1268 165.616 65.1751 165.851 64.0719 165.851ZM64.0861 163.507C64.588 163.507 65.007 163.365 65.3432 163.081C65.6794 162.792 65.9327 162.399 66.1032 161.902C66.2784 161.405 66.3659 160.839 66.3659 160.204C66.3659 159.57 66.2784 159.004 66.1032 158.507C65.9327 158.01 65.6794 157.617 65.3432 157.328C65.007 157.039 64.588 156.895 64.0861 156.895C63.5795 156.895 63.1533 157.039 62.8077 157.328C62.4668 157.617 62.2087 158.01 62.0336 158.507C61.8631 159.004 61.7779 159.57 61.7779 160.204C61.7779 160.839 61.8631 161.405 62.0336 161.902C62.2087 162.399 62.4668 162.792 62.8077 163.081C63.1533 163.365 63.5795 163.507 64.0861 163.507ZM78.4043 160.993V154.729H81.4299V165.638H78.525V163.656H78.4114C78.1652 164.295 77.7556 164.809 77.1827 165.197C76.6145 165.586 75.9209 165.78 75.1017 165.78C74.3726 165.78 73.731 165.614 73.177 165.282C72.623 164.951 72.1898 164.48 71.8773 163.869C71.5695 163.258 71.4133 162.527 71.4086 161.675V154.729H74.4341V161.135C74.4389 161.779 74.6117 162.288 74.9526 162.662C75.2935 163.036 75.7504 163.223 76.3233 163.223C76.6879 163.223 77.0288 163.14 77.3461 162.974C77.6633 162.804 77.919 162.553 78.1131 162.221C78.312 161.89 78.409 161.48 78.4043 160.993ZM83.85 165.638V154.729H86.7832V156.632H86.8968C87.0957 155.955 87.4295 155.443 87.8983 155.098C88.367 154.747 88.9068 154.572 89.5176 154.572C89.6691 154.572 89.8324 154.582 90.0076 154.601C90.1828 154.62 90.3367 154.646 90.4693 154.679V157.363C90.3272 157.321 90.1307 157.283 89.8798 157.25C89.6288 157.217 89.3992 157.2 89.1909 157.2C88.7458 157.2 88.3481 157.297 87.9977 157.491C87.652 157.681 87.3774 157.946 87.1738 158.287C86.975 158.628 86.8755 159.021 86.8755 159.466V165.638H83.85ZM101.591 165.851C100.488 165.851 99.5342 165.616 98.7292 165.148C97.929 164.674 97.3111 164.016 96.8755 163.173C96.4399 162.326 96.2221 161.343 96.2221 160.226C96.2221 159.099 96.4399 158.114 96.8755 157.271C97.3111 156.424 97.929 155.765 98.7292 155.297C99.5342 154.823 100.488 154.586 101.591 154.586C102.695 154.586 103.646 154.823 104.447 155.297C105.251 155.765 105.872 156.424 106.307 157.271C106.743 158.114 106.961 159.099 106.961 160.226C106.961 161.343 106.743 162.326 106.307 163.173C105.872 164.016 105.251 164.674 104.447 165.148C103.646 165.616 102.695 165.851 101.591 165.851ZM101.606 163.507C102.108 163.507 102.527 163.365 102.863 163.081C103.199 162.792 103.452 162.399 103.623 161.902C103.798 161.405 103.885 160.839 103.885 160.204C103.885 159.57 103.798 159.004 103.623 158.507C103.452 158.01 103.199 157.617 102.863 157.328C102.527 157.039 102.108 156.895 101.606 156.895C101.099 156.895 100.673 157.039 100.327 157.328C99.9863 157.617 99.7283 158.01 99.5531 158.507C99.3826 159.004 99.2974 159.57 99.2974 160.204C99.2974 160.839 99.3826 161.405 99.5531 161.902C99.7283 162.399 99.9863 162.792 100.327 163.081C100.673 163.365 101.099 163.507 101.606 163.507ZM108.928 165.638V154.729H111.861V156.632H111.975C112.174 155.955 112.508 155.443 112.976 155.098C113.445 154.747 113.985 154.572 114.596 154.572C114.747 154.572 114.911 154.582 115.086 154.601C115.261 154.62 115.415 154.646 115.547 154.679V157.363C115.405 157.321 115.209 157.283 114.958 157.25C114.707 157.217 114.477 157.2 114.269 157.2C113.824 157.2 113.426 157.297 113.076 157.491C112.73 157.681 112.456 157.946 112.252 158.287C112.053 158.628 111.954 159.021 111.954 159.466V165.638H108.928ZM120.624 165.815C119.795 165.815 119.045 165.602 118.372 165.176C117.705 164.745 117.174 164.113 116.781 163.28C116.393 162.442 116.199 161.414 116.199 160.197C116.199 158.947 116.4 157.908 116.803 157.079C117.205 156.246 117.74 155.623 118.408 155.211C119.08 154.795 119.816 154.586 120.617 154.586C121.227 154.586 121.736 154.691 122.144 154.899C122.556 155.103 122.887 155.358 123.138 155.666C123.394 155.969 123.588 156.267 123.72 156.561H123.813V151.092H126.831V165.638H123.848V163.89H123.72C123.578 164.193 123.377 164.494 123.117 164.792C122.861 165.086 122.527 165.33 122.115 165.524C121.708 165.718 121.211 165.815 120.624 165.815ZM121.583 163.407C122.07 163.407 122.482 163.275 122.818 163.01C123.159 162.74 123.42 162.363 123.6 161.881C123.784 161.398 123.877 160.832 123.877 160.183C123.877 159.534 123.787 158.971 123.607 158.493C123.427 158.014 123.166 157.645 122.825 157.385C122.485 157.124 122.07 156.994 121.583 156.994C121.085 156.994 120.666 157.129 120.325 157.399C119.985 157.669 119.727 158.043 119.551 158.521C119.376 158.999 119.289 159.553 119.289 160.183C119.289 160.818 119.376 161.379 119.551 161.866C119.731 162.349 119.989 162.728 120.325 163.003C120.666 163.273 121.085 163.407 121.583 163.407ZM134.29 165.851C133.168 165.851 132.202 165.623 131.393 165.169C130.588 164.71 129.967 164.061 129.532 163.223C129.096 162.38 128.878 161.383 128.878 160.233C128.878 159.111 129.096 158.126 129.532 157.278C129.967 156.431 130.581 155.77 131.371 155.297C132.167 154.823 133.099 154.586 134.17 154.586C134.889 154.586 135.559 154.702 136.18 154.934C136.805 155.162 137.349 155.505 137.813 155.964C138.282 156.424 138.646 157.001 138.907 157.697C139.167 158.389 139.297 159.198 139.297 160.126V160.957H130.086V159.082H136.449C136.449 158.647 136.355 158.261 136.165 157.925C135.976 157.588 135.713 157.326 135.377 157.136C135.046 156.942 134.66 156.845 134.219 156.845C133.76 156.845 133.353 156.952 132.998 157.165C132.647 157.373 132.373 157.655 132.174 158.01C131.975 158.36 131.873 158.751 131.868 159.182V160.964C131.868 161.504 131.968 161.97 132.167 162.363C132.37 162.756 132.657 163.059 133.026 163.273C133.395 163.486 133.833 163.592 134.34 163.592C134.676 163.592 134.984 163.545 135.263 163.45C135.543 163.355 135.782 163.213 135.981 163.024C136.18 162.835 136.331 162.603 136.435 162.328L139.233 162.513C139.091 163.185 138.8 163.772 138.36 164.274C137.924 164.771 137.361 165.159 136.67 165.439C135.983 165.713 135.19 165.851 134.29 165.851ZM141.272 165.638V154.729H144.205V156.632H144.319C144.518 155.955 144.851 155.443 145.32 155.098C145.789 154.747 146.329 154.572 146.939 154.572C147.091 154.572 147.254 154.582 147.43 154.601C147.605 154.62 147.759 154.646 147.891 154.679V157.363C147.749 157.321 147.553 157.283 147.302 157.25C147.051 157.217 146.821 157.2 146.613 157.2C146.168 157.2 145.77 157.297 145.42 157.491C145.074 157.681 144.799 157.946 144.596 158.287C144.397 158.628 144.297 159.021 144.297 159.466V165.638H141.272ZM157.11 159.331V165.638H154.084V151.092H157.025V156.653H157.153C157.399 156.009 157.796 155.505 158.346 155.14C158.895 154.771 159.584 154.586 160.412 154.586C161.17 154.586 161.831 154.752 162.394 155.084C162.962 155.41 163.403 155.881 163.715 156.497C164.032 157.108 164.189 157.839 164.184 158.692V165.638H161.158V159.231C161.163 158.559 160.992 158.036 160.647 157.662C160.306 157.288 159.828 157.101 159.212 157.101C158.8 157.101 158.436 157.188 158.118 157.363C157.806 157.539 157.56 157.794 157.38 158.131C157.205 158.462 157.115 158.862 157.11 159.331ZM169.676 165.844C168.98 165.844 168.359 165.723 167.815 165.481C167.27 165.235 166.839 164.873 166.522 164.395C166.21 163.912 166.053 163.31 166.053 162.591C166.053 161.985 166.165 161.476 166.387 161.064C166.61 160.652 166.913 160.32 167.296 160.069C167.68 159.818 168.115 159.629 168.603 159.501C169.096 159.373 169.612 159.283 170.151 159.231C170.786 159.165 171.297 159.104 171.686 159.047C172.074 158.985 172.356 158.895 172.531 158.777C172.706 158.658 172.794 158.483 172.794 158.251V158.209C172.794 157.759 172.651 157.411 172.367 157.165C172.088 156.918 171.69 156.795 171.174 156.795C170.63 156.795 170.196 156.916 169.874 157.157C169.552 157.394 169.339 157.693 169.235 158.052L166.437 157.825C166.579 157.162 166.858 156.589 167.275 156.106C167.692 155.619 168.229 155.245 168.887 154.984C169.55 154.719 170.317 154.586 171.188 154.586C171.794 154.586 172.374 154.657 172.928 154.8C173.487 154.942 173.982 155.162 174.413 155.46C174.848 155.758 175.192 156.142 175.443 156.611C175.694 157.075 175.819 157.631 175.819 158.28V165.638H172.95V164.125H172.865C172.689 164.466 172.455 164.766 172.161 165.027C171.868 165.282 171.515 165.484 171.103 165.631C170.691 165.773 170.215 165.844 169.676 165.844ZM170.542 163.756C170.987 163.756 171.38 163.668 171.721 163.493C172.062 163.313 172.329 163.071 172.524 162.768C172.718 162.465 172.815 162.122 172.815 161.738V160.581C172.72 160.642 172.59 160.699 172.424 160.751C172.263 160.799 172.081 160.844 171.877 160.886C171.674 160.924 171.47 160.96 171.267 160.993C171.063 161.021 170.878 161.047 170.713 161.071C170.357 161.123 170.047 161.206 169.782 161.319C169.517 161.433 169.311 161.587 169.164 161.781C169.017 161.97 168.944 162.207 168.944 162.491C168.944 162.903 169.093 163.218 169.392 163.436C169.695 163.649 170.078 163.756 170.542 163.756ZM187.243 157.839L184.473 158.01C184.426 157.773 184.324 157.56 184.168 157.371C184.012 157.176 183.806 157.023 183.55 156.909C183.299 156.791 182.998 156.731 182.648 156.731C182.179 156.731 181.784 156.831 181.462 157.03C181.14 157.224 180.979 157.484 180.979 157.811C180.979 158.071 181.083 158.291 181.291 158.471C181.5 158.651 181.857 158.796 182.364 158.905L184.338 159.302C185.399 159.52 186.19 159.871 186.71 160.354C187.231 160.836 187.492 161.471 187.492 162.257C187.492 162.972 187.281 163.599 186.86 164.139C186.443 164.679 185.87 165.1 185.141 165.403C184.416 165.702 183.581 165.851 182.634 165.851C181.19 165.851 180.039 165.55 179.182 164.949C178.33 164.343 177.83 163.519 177.683 162.477L180.659 162.321C180.749 162.761 180.967 163.097 181.313 163.329C181.658 163.557 182.101 163.67 182.641 163.67C183.171 163.67 183.597 163.568 183.919 163.365C184.246 163.157 184.412 162.889 184.416 162.562C184.412 162.288 184.296 162.063 184.068 161.888C183.841 161.708 183.491 161.57 183.017 161.476L181.128 161.099C180.063 160.886 179.27 160.517 178.749 159.991C178.233 159.466 177.975 158.796 177.975 157.981C177.975 157.281 178.164 156.677 178.543 156.17C178.926 155.664 179.464 155.273 180.155 154.998C180.851 154.724 181.665 154.586 182.598 154.586C183.976 154.586 185.06 154.878 185.851 155.46C186.646 156.042 187.11 156.836 187.243 157.839ZM194.083 165.638V151.092H197.108V156.561H197.2C197.333 156.267 197.525 155.969 197.776 155.666C198.031 155.358 198.363 155.103 198.77 154.899C199.182 154.691 199.693 154.586 200.304 154.586C201.1 154.586 201.834 154.795 202.506 155.211C203.178 155.623 203.716 156.246 204.118 157.079C204.521 157.908 204.722 158.947 204.722 160.197C204.722 161.414 204.525 162.442 204.132 163.28C203.744 164.113 203.214 164.745 202.541 165.176C201.874 165.602 201.126 165.815 200.297 165.815C199.71 165.815 199.21 165.718 198.798 165.524C198.391 165.33 198.057 165.086 197.797 164.792C197.537 164.494 197.338 164.193 197.2 163.89H197.066V165.638H194.083ZM197.044 160.183C197.044 160.832 197.134 161.398 197.314 161.881C197.494 162.363 197.754 162.74 198.095 163.01C198.436 163.275 198.851 163.407 199.338 163.407C199.831 163.407 200.247 163.273 200.588 163.003C200.929 162.728 201.187 162.349 201.362 161.866C201.542 161.379 201.632 160.818 201.632 160.183C201.632 159.553 201.545 158.999 201.369 158.521C201.194 158.043 200.936 157.669 200.595 157.399C200.254 157.129 199.835 156.994 199.338 156.994C198.846 156.994 198.429 157.124 198.088 157.385C197.752 157.645 197.494 158.014 197.314 158.493C197.134 158.971 197.044 159.534 197.044 160.183ZM211.712 165.851C210.59 165.851 209.624 165.623 208.814 165.169C208.01 164.71 207.389 164.061 206.954 163.223C206.518 162.38 206.3 161.383 206.3 160.233C206.3 159.111 206.518 158.126 206.954 157.278C207.389 156.431 208.002 155.77 208.793 155.297C209.589 154.823 210.521 154.586 211.591 154.586C212.311 154.586 212.981 154.702 213.601 154.934C214.226 155.162 214.771 155.505 215.235 155.964C215.704 156.424 216.068 157.001 216.329 157.697C216.589 158.389 216.719 159.198 216.719 160.126V160.957H207.508V159.082H213.871C213.871 158.647 213.777 158.261 213.587 157.925C213.398 157.588 213.135 157.326 212.799 157.136C212.467 156.942 212.081 156.845 211.641 156.845C211.182 156.845 210.775 156.952 210.42 157.165C210.069 157.373 209.795 157.655 209.596 158.01C209.397 158.36 209.295 158.751 209.29 159.182V160.964C209.29 161.504 209.39 161.97 209.589 162.363C209.792 162.756 210.079 163.059 210.448 163.273C210.817 163.486 211.255 163.592 211.762 163.592C212.098 163.592 212.406 163.545 212.685 163.45C212.965 163.355 213.204 163.213 213.403 163.024C213.601 162.835 213.753 162.603 213.857 162.328L216.655 162.513C216.513 163.185 216.222 163.772 215.782 164.274C215.346 164.771 214.783 165.159 214.091 165.439C213.405 165.713 212.612 165.851 211.712 165.851ZM223.665 165.851C222.543 165.851 221.577 165.623 220.768 165.169C219.963 164.71 219.342 164.061 218.907 163.223C218.471 162.38 218.253 161.383 218.253 160.233C218.253 159.111 218.471 158.126 218.907 157.278C219.342 156.431 219.956 155.77 220.746 155.297C221.542 154.823 222.474 154.586 223.545 154.586C224.264 154.586 224.934 154.702 225.555 154.934C226.18 155.162 226.724 155.505 227.188 155.964C227.657 156.424 228.021 157.001 228.282 157.697C228.542 158.389 228.672 159.198 228.672 160.126V160.957H219.461V159.082H225.824C225.824 158.647 225.73 158.261 225.54 157.925C225.351 157.588 225.088 157.326 224.752 157.136C224.421 156.942 224.035 156.845 223.594 156.845C223.135 156.845 222.728 156.952 222.373 157.165C222.022 157.373 221.748 157.655 221.549 158.01C221.35 158.36 221.248 158.751 221.243 159.182V160.964C221.243 161.504 221.343 161.97 221.542 162.363C221.745 162.756 222.032 163.059 222.401 163.273C222.77 163.486 223.208 163.592 223.715 163.592C224.051 163.592 224.359 163.545 224.638 163.45C224.918 163.355 225.157 163.213 225.356 163.024C225.555 162.835 225.706 162.603 225.81 162.328L228.608 162.513C228.466 163.185 228.175 163.772 227.735 164.274C227.299 164.771 226.736 165.159 226.045 165.439C225.358 165.713 224.565 165.851 223.665 165.851ZM233.672 159.331V165.638H230.647V154.729H233.53V156.653H233.658C233.9 156.019 234.305 155.517 234.873 155.148C235.441 154.773 236.13 154.586 236.939 154.586C237.697 154.586 238.358 154.752 238.921 155.084C239.484 155.415 239.922 155.889 240.235 156.504C240.547 157.115 240.704 157.844 240.704 158.692V165.638H237.678V159.231C237.683 158.564 237.512 158.043 237.167 157.669C236.821 157.29 236.345 157.101 235.739 157.101C235.332 157.101 234.972 157.188 234.66 157.363C234.352 157.539 234.11 157.794 233.935 158.131C233.765 158.462 233.677 158.862 233.672 159.331ZM53.913 181.839L51.1431 182.01C51.0958 181.773 50.994 181.56 50.8377 181.371C50.6815 181.176 50.4755 181.023 50.2198 180.909C49.9689 180.791 49.6682 180.731 49.3178 180.731C48.8491 180.731 48.4537 180.831 48.1317 181.03C47.8098 181.224 47.6488 181.484 47.6488 181.811C47.6488 182.071 47.753 182.291 47.9613 182.471C48.1696 182.651 48.5271 182.796 49.0337 182.905L51.0082 183.302C52.0688 183.52 52.8595 183.871 53.3803 184.354C53.9012 184.836 54.1616 185.471 54.1616 186.257C54.1616 186.972 53.9509 187.599 53.5295 188.139C53.1128 188.679 52.5399 189.1 51.8107 189.403C51.0863 189.702 50.2506 189.851 49.3036 189.851C47.8595 189.851 46.7089 189.55 45.8519 188.949C44.9996 188.343 44.5001 187.519 44.3533 186.477L47.3292 186.321C47.4192 186.761 47.637 187.097 47.9826 187.329C48.3282 187.557 48.771 187.67 49.3107 187.67C49.841 187.67 50.2672 187.568 50.5891 187.365C50.9158 187.157 51.0816 186.889 51.0863 186.562C51.0816 186.288 50.9656 186.063 50.7383 185.888C50.511 185.708 50.1606 185.57 49.6871 185.476L47.7979 185.099C46.7326 184.886 45.9395 184.517 45.4187 183.991C44.9026 183.466 44.6445 182.796 44.6445 181.981C44.6445 181.281 44.8339 180.677 45.2127 180.17C45.5962 179.664 46.1336 179.273 46.8249 178.998C47.521 178.724 48.3353 178.586 49.2681 178.586C50.646 178.586 51.7302 178.878 52.521 179.46C53.3164 180.042 53.7804 180.836 53.913 181.839ZM63.0625 184.993V178.729H66.0881V189.638H63.1832V187.656H63.0696C62.8234 188.295 62.4138 188.809 61.8409 189.197C61.2727 189.586 60.5791 189.78 59.7599 189.78C59.0308 189.78 58.3892 189.614 57.8352 189.282C57.2813 188.951 56.848 188.48 56.5355 187.869C56.2277 187.258 56.0715 186.527 56.0668 185.675V178.729H59.0923V185.135C59.0971 185.779 59.2699 186.288 59.6108 186.662C59.9517 187.036 60.4086 187.223 60.9815 187.223C61.3461 187.223 61.687 187.14 62.0043 186.974C62.3215 186.804 62.5772 186.553 62.7713 186.221C62.9702 185.89 63.0672 185.48 63.0625 184.993ZM73.4371 189.851C72.3197 189.851 71.3585 189.614 70.5536 189.14C69.7534 188.662 69.1379 187.999 68.707 187.152C68.2809 186.304 68.0678 185.329 68.0678 184.226C68.0678 183.108 68.2833 182.128 68.7141 181.285C69.1497 180.438 69.7676 179.777 70.5678 179.304C71.368 178.826 72.3197 178.586 73.4229 178.586C74.3746 178.586 75.208 178.759 75.9229 179.105C76.6379 179.451 77.2037 179.936 77.6204 180.561C78.0371 181.186 78.2667 181.92 78.3093 182.763H75.4542C75.3737 182.218 75.1606 181.78 74.815 181.449C74.4741 181.113 74.0266 180.944 73.4727 180.944C73.0039 180.944 72.5943 181.072 72.244 181.328C71.8983 181.579 71.6284 181.946 71.4343 182.429C71.2402 182.912 71.1431 183.497 71.1431 184.183C71.1431 184.879 71.2378 185.471 71.4272 185.959C71.6213 186.446 71.8936 186.818 72.244 187.074C72.5943 187.329 73.0039 187.457 73.4727 187.457C73.8183 187.457 74.1284 187.386 74.4031 187.244C74.6824 187.102 74.9121 186.896 75.092 186.626C75.2766 186.352 75.3974 186.023 75.4542 185.639H78.3093C78.262 186.472 78.0347 187.206 77.6275 187.841C77.225 188.47 76.6687 188.963 75.9585 189.318C75.2482 189.673 74.4078 189.851 73.4371 189.851ZM85.1754 189.851C84.058 189.851 83.0968 189.614 82.2919 189.14C81.4917 188.662 80.8762 187.999 80.4453 187.152C80.0192 186.304 79.8061 185.329 79.8061 184.226C79.8061 183.108 80.0215 182.128 80.4524 181.285C80.888 180.438 81.5059 179.777 82.3061 179.304C83.1063 178.826 84.058 178.586 85.1612 178.586C86.1129 178.586 86.9463 178.759 87.6612 179.105C88.3762 179.451 88.942 179.936 89.3587 180.561C89.7753 181.186 90.005 181.92 90.0476 182.763H87.1925C87.112 182.218 86.8989 181.78 86.5533 181.449C86.2124 181.113 85.7649 180.944 85.2109 180.944C84.7422 180.944 84.3326 181.072 83.9822 181.328C83.6366 181.579 83.3667 181.946 83.1726 182.429C82.9785 182.912 82.8814 183.497 82.8814 184.183C82.8814 184.879 82.9761 185.471 83.1655 185.959C83.3596 186.446 83.6319 186.818 83.9822 187.074C84.3326 187.329 84.7422 187.457 85.2109 187.457C85.5566 187.457 85.8667 187.386 86.1413 187.244C86.4207 187.102 86.6503 186.896 86.8303 186.626C87.0149 186.352 87.1357 186.023 87.1925 185.639H90.0476C90.0002 186.472 89.773 187.206 89.3658 187.841C88.9633 188.47 88.407 188.963 87.6967 189.318C86.9865 189.673 86.1461 189.851 85.1754 189.851ZM96.9563 189.851C95.8342 189.851 94.8683 189.623 94.0586 189.169C93.2537 188.71 92.6334 188.061 92.1978 187.223C91.7622 186.38 91.5444 185.383 91.5444 184.233C91.5444 183.111 91.7622 182.126 92.1978 181.278C92.6334 180.431 93.2466 179.77 94.0373 179.297C94.8327 178.823 95.7655 178.586 96.8356 178.586C97.5553 178.586 98.2253 178.702 98.8455 178.934C99.4705 179.162 100.015 179.505 100.479 179.964C100.948 180.424 101.312 181.001 101.573 181.697C101.833 182.389 101.963 183.198 101.963 184.126V184.957H92.7518V183.082H99.1154C99.1154 182.647 99.0207 182.261 98.8313 181.925C98.6419 181.588 98.3791 181.326 98.043 181.136C97.7115 180.942 97.3256 180.845 96.8853 180.845C96.426 180.845 96.0188 180.952 95.6637 181.165C95.3133 181.373 95.0387 181.655 94.8398 182.01C94.641 182.36 94.5392 182.751 94.5344 183.182V184.964C94.5344 185.504 94.6339 185.97 94.8327 186.363C95.0363 186.756 95.3228 187.059 95.6921 187.273C96.0614 187.486 96.4994 187.592 97.006 187.592C97.3422 187.592 97.65 187.545 97.9293 187.45C98.2087 187.355 98.4478 187.213 98.6467 187.024C98.8455 186.835 98.997 186.603 99.1012 186.328L101.9 186.513C101.757 187.185 101.466 187.772 101.026 188.274C100.59 188.771 100.027 189.159 99.3356 189.439C98.649 189.713 97.8559 189.851 96.9563 189.851ZM113.015 181.839L110.245 182.01C110.197 181.773 110.096 181.56 109.939 181.371C109.783 181.176 109.577 181.023 109.321 180.909C109.07 180.791 108.77 180.731 108.419 180.731C107.951 180.731 107.555 180.831 107.233 181.03C106.911 181.224 106.75 181.484 106.75 181.811C106.75 182.071 106.855 182.291 107.063 182.471C107.271 182.651 107.629 182.796 108.135 182.905L110.11 183.302C111.17 183.52 111.961 183.871 112.482 184.354C113.003 184.836 113.263 185.471 113.263 186.257C113.263 186.972 113.052 187.599 112.631 188.139C112.214 188.679 111.641 189.1 110.912 189.403C110.188 189.702 109.352 189.851 108.405 189.851C106.961 189.851 105.81 189.55 104.953 188.949C104.101 188.343 103.602 187.519 103.455 186.477L106.431 186.321C106.521 186.761 106.739 187.097 107.084 187.329C107.43 187.557 107.873 187.67 108.412 187.67C108.943 187.67 109.369 187.568 109.691 187.365C110.017 187.157 110.183 186.889 110.188 186.562C110.183 186.288 110.067 186.063 109.84 185.888C109.613 185.708 109.262 185.57 108.789 185.476L106.9 185.099C105.834 184.886 105.041 184.517 104.52 183.991C104.004 183.466 103.746 182.796 103.746 181.981C103.746 181.281 103.935 180.677 104.314 180.17C104.698 179.664 105.235 179.273 105.926 178.998C106.623 178.724 107.437 178.586 108.37 178.586C109.748 178.586 110.832 178.878 111.623 179.46C112.418 180.042 112.882 180.836 113.015 181.839ZM124.245 181.839L121.475 182.01C121.428 181.773 121.326 181.56 121.17 181.371C121.013 181.176 120.808 181.023 120.552 180.909C120.301 180.791 120 180.731 119.65 180.731C119.181 180.731 118.786 180.831 118.464 181.03C118.142 181.224 117.981 181.484 117.981 181.811C117.981 182.071 118.085 182.291 118.293 182.471C118.502 182.651 118.859 182.796 119.366 182.905L121.34 183.302C122.401 183.52 123.192 183.871 123.712 184.354C124.233 184.836 124.494 185.471 124.494 186.257C124.494 186.972 124.283 187.599 123.862 188.139C123.445 188.679 122.872 189.1 122.143 189.403C121.418 189.702 120.583 189.851 119.636 189.851C118.192 189.851 117.041 189.55 116.184 188.949C115.332 188.343 114.832 187.519 114.685 186.477L117.661 186.321C117.751 186.761 117.969 187.097 118.315 187.329C118.66 187.557 119.103 187.67 119.643 187.67C120.173 187.67 120.599 187.568 120.921 187.365C121.248 187.157 121.414 186.889 121.418 186.562C121.414 186.288 121.298 186.063 121.07 185.888C120.843 185.708 120.493 185.57 120.019 185.476L118.13 185.099C117.065 184.886 116.272 184.517 115.751 183.991C115.235 183.466 114.977 182.796 114.977 181.981C114.977 181.281 115.166 180.677 115.545 180.17C115.928 179.664 116.466 179.273 117.157 178.998C117.853 178.724 118.667 178.586 119.6 178.586C120.978 178.586 122.062 178.878 122.853 179.46C123.648 180.042 124.112 180.836 124.245 181.839ZM132.265 178.729V181.001H125.532V178.729H132.265ZM127.074 189.638V177.94C127.074 177.149 127.227 176.494 127.535 175.973C127.848 175.452 128.274 175.061 128.814 174.801C129.353 174.541 129.967 174.41 130.653 174.41C131.117 174.41 131.541 174.446 131.924 174.517C132.313 174.588 132.601 174.652 132.791 174.709L132.251 176.981C132.133 176.943 131.986 176.908 131.811 176.875C131.64 176.842 131.465 176.825 131.285 176.825C130.84 176.825 130.53 176.929 130.355 177.138C130.18 177.341 130.092 177.628 130.092 177.997V189.638H127.074ZM141.109 184.993V178.729H144.135V189.638H141.23V187.656H141.116C140.87 188.295 140.461 188.809 139.888 189.197C139.32 189.586 138.626 189.78 137.807 189.78C137.078 189.78 136.436 189.614 135.882 189.282C135.328 188.951 134.895 188.48 134.582 187.869C134.275 187.258 134.118 186.527 134.114 185.675V178.729H137.139V185.135C137.144 185.779 137.317 186.288 137.658 186.662C137.999 187.036 138.455 187.223 139.028 187.223C139.393 187.223 139.734 187.14 140.051 186.974C140.368 186.804 140.624 186.553 140.818 186.221C141.017 185.89 141.114 185.48 141.109 184.993ZM149.581 175.092V189.638H146.555V175.092H149.581ZM155.03 175.092V189.638H152.004V175.092H155.03ZM159.321 193.729C158.938 193.729 158.578 193.698 158.242 193.636C157.91 193.579 157.636 193.506 157.418 193.416L158.1 191.157C158.455 191.266 158.775 191.326 159.059 191.335C159.347 191.345 159.596 191.278 159.804 191.136C160.017 190.994 160.19 190.753 160.323 190.412L160.5 189.95L156.587 178.729H159.769L162.027 186.74H162.141L164.421 178.729H167.624L163.384 190.817C163.18 191.404 162.903 191.915 162.553 192.351C162.207 192.791 161.769 193.13 161.239 193.366C160.709 193.608 160.069 193.729 159.321 193.729ZM173.801 193.729V178.729H176.784V180.561H176.919C177.052 180.267 177.243 179.969 177.494 179.666C177.75 179.358 178.081 179.103 178.489 178.899C178.901 178.691 179.412 178.586 180.023 178.586C180.818 178.586 181.552 178.795 182.224 179.211C182.897 179.623 183.434 180.246 183.837 181.079C184.239 181.908 184.44 182.947 184.44 184.197C184.44 185.414 184.244 186.442 183.851 187.28C183.463 188.113 182.932 188.745 182.26 189.176C181.592 189.602 180.844 189.815 180.016 189.815C179.429 189.815 178.929 189.718 178.517 189.524C178.11 189.33 177.776 189.086 177.516 188.792C177.255 188.494 177.056 188.193 176.919 187.89H176.827V193.729H173.801ZM176.763 184.183C176.763 184.832 176.853 185.398 177.033 185.881C177.213 186.363 177.473 186.74 177.814 187.01C178.155 187.275 178.569 187.407 179.057 187.407C179.549 187.407 179.966 187.273 180.307 187.003C180.648 186.728 180.906 186.349 181.081 185.866C181.261 185.379 181.351 184.818 181.351 184.183C181.351 183.553 181.263 182.999 181.088 182.521C180.913 182.043 180.655 181.669 180.314 181.399C179.973 181.129 179.554 180.994 179.057 180.994C178.564 180.994 178.148 181.124 177.807 181.385C177.471 181.645 177.213 182.014 177.033 182.493C176.853 182.971 176.763 183.534 176.763 184.183ZM189.483 175.092V189.638H186.457V175.092H189.483ZM195.017 189.844C194.321 189.844 193.701 189.723 193.157 189.481C192.612 189.235 192.181 188.873 191.864 188.395C191.551 187.912 191.395 187.31 191.395 186.591C191.395 185.985 191.507 185.476 191.729 185.064C191.952 184.652 192.255 184.32 192.638 184.069C193.022 183.818 193.457 183.629 193.945 183.501C194.437 183.373 194.953 183.283 195.493 183.231C196.128 183.165 196.639 183.104 197.027 183.047C197.416 182.985 197.697 182.895 197.873 182.777C198.048 182.658 198.135 182.483 198.135 182.251V182.209C198.135 181.759 197.993 181.411 197.709 181.165C197.43 180.918 197.032 180.795 196.516 180.795C195.971 180.795 195.538 180.916 195.216 181.157C194.894 181.394 194.681 181.693 194.577 182.052L191.779 181.825C191.921 181.162 192.2 180.589 192.617 180.106C193.033 179.619 193.571 179.245 194.229 178.984C194.892 178.719 195.659 178.586 196.53 178.586C197.136 178.586 197.716 178.657 198.27 178.8C198.829 178.942 199.324 179.162 199.755 179.46C200.19 179.758 200.533 180.142 200.784 180.611C201.035 181.075 201.161 181.631 201.161 182.28V189.638H198.292V188.125H198.206C198.031 188.466 197.797 188.766 197.503 189.027C197.21 189.282 196.857 189.484 196.445 189.631C196.033 189.773 195.557 189.844 195.017 189.844ZM195.884 187.756C196.329 187.756 196.722 187.668 197.063 187.493C197.404 187.313 197.671 187.071 197.865 186.768C198.06 186.465 198.157 186.122 198.157 185.738V184.581C198.062 184.642 197.932 184.699 197.766 184.751C197.605 184.799 197.423 184.844 197.219 184.886C197.016 184.924 196.812 184.96 196.608 184.993C196.405 185.021 196.22 185.047 196.054 185.071C195.699 185.123 195.389 185.206 195.124 185.319C194.859 185.433 194.653 185.587 194.506 185.781C194.359 185.97 194.286 186.207 194.286 186.491C194.286 186.903 194.435 187.218 194.733 187.436C195.036 187.649 195.42 187.756 195.884 187.756ZM208.437 189.851C207.32 189.851 206.359 189.614 205.554 189.14C204.753 188.662 204.138 187.999 203.707 187.152C203.281 186.304 203.068 185.329 203.068 184.226C203.068 183.108 203.283 182.128 203.714 181.285C204.15 180.438 204.768 179.777 205.568 179.304C206.368 178.826 207.32 178.586 208.423 178.586C209.375 178.586 210.208 178.759 210.923 179.105C211.638 179.451 212.204 179.936 212.62 180.561C213.037 181.186 213.267 181.92 213.309 182.763H210.454C210.374 182.218 210.161 181.78 209.815 181.449C209.474 181.113 209.027 180.944 208.473 180.944C208.004 180.944 207.594 181.072 207.244 181.328C206.898 181.579 206.628 181.946 206.434 182.429C206.24 182.912 206.143 183.497 206.143 184.183C206.143 184.879 206.238 185.471 206.427 185.959C206.621 186.446 206.894 186.818 207.244 187.074C207.594 187.329 208.004 187.457 208.473 187.457C208.818 187.457 209.128 187.386 209.403 187.244C209.682 187.102 209.912 186.896 210.092 186.626C210.277 186.352 210.397 186.023 210.454 185.639H213.309C213.262 186.472 213.035 187.206 212.627 187.841C212.225 188.47 211.669 188.963 210.958 189.318C210.248 189.673 209.408 189.851 208.437 189.851ZM220.218 189.851C219.096 189.851 218.13 189.623 217.32 189.169C216.515 188.71 215.895 188.061 215.46 187.223C215.024 186.38 214.806 185.383 214.806 184.233C214.806 183.111 215.024 182.126 215.46 181.278C215.895 180.431 216.508 179.77 217.299 179.297C218.094 178.823 219.027 178.586 220.097 178.586C220.817 178.586 221.487 178.702 222.107 178.934C222.732 179.162 223.277 179.505 223.741 179.964C224.21 180.424 224.574 181.001 224.835 181.697C225.095 182.389 225.225 183.198 225.225 184.126V184.957H216.013V183.082H222.377C222.377 182.647 222.282 182.261 222.093 181.925C221.904 181.588 221.641 181.326 221.305 181.136C220.973 180.942 220.587 180.845 220.147 180.845C219.688 180.845 219.281 180.952 218.925 181.165C218.575 181.373 218.3 181.655 218.102 182.01C217.903 182.36 217.801 182.751 217.796 183.182V184.964C217.796 185.504 217.896 185.97 218.094 186.363C218.298 186.756 218.585 187.059 218.954 187.273C219.323 187.486 219.761 187.592 220.268 187.592C220.604 187.592 220.912 187.545 221.191 187.45C221.47 187.355 221.71 187.213 221.908 187.024C222.107 186.835 222.259 186.603 222.363 186.328L225.161 186.513C225.019 187.185 224.728 187.772 224.288 188.274C223.852 188.771 223.289 189.159 222.597 189.439C221.911 189.713 221.118 189.851 220.218 189.851ZM231.219 189.815C230.391 189.815 229.64 189.602 228.968 189.176C228.3 188.745 227.77 188.113 227.377 187.28C226.989 186.442 226.795 185.414 226.795 184.197C226.795 182.947 226.996 181.908 227.398 181.079C227.801 180.246 228.336 179.623 229.004 179.211C229.676 178.795 230.412 178.586 231.212 178.586C231.823 178.586 232.332 178.691 232.739 178.899C233.151 179.103 233.483 179.358 233.734 179.666C233.989 179.969 234.183 180.267 234.316 180.561H234.408V175.092H237.427V189.638H234.444V187.89H234.316C234.174 188.193 233.973 188.494 233.712 188.792C233.457 189.086 233.123 189.33 232.711 189.524C232.304 189.718 231.807 189.815 231.219 189.815ZM232.178 187.407C232.666 187.407 233.078 187.275 233.414 187.01C233.755 186.74 234.015 186.363 234.195 185.881C234.38 185.398 234.472 184.832 234.472 184.183C234.472 183.534 234.382 182.971 234.202 182.493C234.022 182.014 233.762 181.645 233.421 181.385C233.08 181.124 232.666 180.994 232.178 180.994C231.681 180.994 231.262 181.129 230.921 181.399C230.58 181.669 230.322 182.043 230.147 182.521C229.972 182.999 229.884 183.553 229.884 184.183C229.884 184.818 229.972 185.379 230.147 185.866C230.327 186.349 230.585 186.728 230.921 187.003C231.262 187.273 231.681 187.407 232.178 187.407ZM241.683 189.822C241.214 189.822 240.812 189.657 240.475 189.325C240.144 188.989 239.978 188.586 239.978 188.118C239.978 187.654 240.144 187.256 240.475 186.925C240.812 186.593 241.214 186.427 241.683 186.427C242.137 186.427 242.535 186.593 242.876 186.925C243.217 187.256 243.387 187.654 243.387 188.118C243.387 188.43 243.307 188.717 243.146 188.977C242.99 189.233 242.784 189.439 242.528 189.595C242.272 189.747 241.991 189.822 241.683 189.822Z" fill="black"/>
<path d="M35.9638 217.638V206.001H42.9411V207.251H37.3729V211.183H42.4183V212.433H37.3729V217.638H35.9638ZM48.0774 217.819C47.2895 217.819 46.5982 217.632 46.0036 217.257C45.4126 216.882 44.9505 216.357 44.6172 215.683C44.2876 215.009 44.1229 214.221 44.1229 213.319C44.1229 212.41 44.2876 211.617 44.6172 210.939C44.9505 210.261 45.4126 209.734 46.0036 209.359C46.5982 208.984 47.2895 208.797 48.0774 208.797C48.8653 208.797 49.5547 208.984 50.1456 209.359C50.7403 209.734 51.2024 210.261 51.532 210.939C51.8653 211.617 52.032 212.41 52.032 213.319C52.032 214.221 51.8653 215.009 51.532 215.683C51.2024 216.357 50.7403 216.882 50.1456 217.257C49.5547 217.632 48.8653 217.819 48.0774 217.819ZM48.0774 216.615C48.6759 216.615 49.1683 216.461 49.5547 216.155C49.9411 215.848 50.227 215.444 50.4126 214.944C50.5982 214.444 50.6911 213.903 50.6911 213.319C50.6911 212.736 50.5982 212.193 50.4126 211.689C50.227 211.185 49.9411 210.778 49.5547 210.467C49.1683 210.157 48.6759 210.001 48.0774 210.001C47.4789 210.001 46.9865 210.157 46.6001 210.467C46.2138 210.778 45.9278 211.185 45.7422 211.689C45.5566 212.193 45.4638 212.736 45.4638 213.319C45.4638 213.903 45.5566 214.444 45.7422 214.944C45.9278 215.444 46.2138 215.848 46.6001 216.155C46.9865 216.461 47.4789 216.615 48.0774 216.615ZM54.0788 217.638V208.91H55.3743V210.229H55.4652C55.6243 209.797 55.9122 209.446 56.3288 209.177C56.7455 208.908 57.2152 208.774 57.7379 208.774C57.8364 208.774 57.9595 208.776 58.1072 208.78C58.255 208.783 58.3667 208.789 58.4425 208.797V210.16C58.397 210.149 58.2929 210.132 58.13 210.109C57.9709 210.083 57.8023 210.069 57.6243 210.069C57.2 210.069 56.8213 210.158 56.4879 210.336C56.1584 210.511 55.897 210.753 55.7038 211.064C55.5144 211.371 55.4197 211.721 55.4197 212.115V217.638H54.0788ZM68.3274 208.91V210.047H63.8047V208.91H68.3274ZM65.1229 206.819H66.4638V215.138C66.4638 215.516 66.5187 215.8 66.6286 215.99C66.7422 216.175 66.8861 216.3 67.0604 216.365C67.2384 216.425 67.4259 216.456 67.6229 216.456C67.7706 216.456 67.8918 216.448 67.9865 216.433C68.0812 216.414 68.157 216.399 68.2138 216.388L68.4865 217.592C68.3956 217.626 68.2687 217.66 68.1058 217.694C67.9429 217.732 67.7365 217.751 67.4865 217.751C67.1077 217.751 66.7365 217.67 66.3729 217.507C66.013 217.344 65.7138 217.096 65.4751 216.763C65.2403 216.429 65.1229 216.009 65.1229 215.501V206.819ZM70.3445 217.638V208.91H71.6399V210.229H71.7308C71.8899 209.797 72.1778 209.446 72.5945 209.177C73.0111 208.908 73.4808 208.774 74.0036 208.774C74.102 208.774 74.2251 208.776 74.3729 208.78C74.5206 208.783 74.6323 208.789 74.7081 208.797V210.16C74.6626 210.149 74.5585 210.132 74.3956 210.109C74.2365 210.083 74.0679 210.069 73.8899 210.069C73.4657 210.069 73.0869 210.158 72.7536 210.336C72.424 210.511 72.1626 210.753 71.9695 211.064C71.7801 211.371 71.6854 211.721 71.6854 212.115V217.638H70.3445ZM78.8658 217.842C78.3127 217.842 77.8108 217.738 77.3601 217.53C76.9093 217.318 76.5514 217.013 76.2862 216.615C76.0211 216.213 75.8885 215.729 75.8885 215.16C75.8885 214.66 75.987 214.255 76.1839 213.944C76.3809 213.63 76.6442 213.384 76.9737 213.206C77.3033 213.028 77.6669 212.895 78.0646 212.808C78.4661 212.717 78.8696 212.645 79.2749 212.592C79.8052 212.524 80.2351 212.473 80.5646 212.439C80.898 212.401 81.1404 212.338 81.2919 212.251C81.4472 212.164 81.5249 212.013 81.5249 211.797V211.751C81.5249 211.191 81.3714 210.755 81.0646 210.444C80.7616 210.134 80.3014 209.979 79.6839 209.979C79.0438 209.979 78.5419 210.119 78.1783 210.399C77.8146 210.679 77.5589 210.979 77.4112 211.297L76.1385 210.842C76.3658 210.312 76.6688 209.899 77.0476 209.604C77.4302 209.304 77.8468 209.096 78.2976 208.979C78.7521 208.857 79.1991 208.797 79.6385 208.797C79.9188 208.797 80.2408 208.831 80.6044 208.899C80.9718 208.963 81.326 209.098 81.6669 209.302C82.0116 209.507 82.2976 209.816 82.5249 210.229C82.7521 210.641 82.8658 211.194 82.8658 211.888V217.638H81.5249V216.456H81.4567C81.3658 216.645 81.2143 216.848 81.0021 217.064C80.79 217.28 80.5078 217.463 80.1555 217.615C79.8033 217.766 79.3733 217.842 78.8658 217.842ZM79.0703 216.638C79.6006 216.638 80.0476 216.533 80.4112 216.325C80.7786 216.117 81.0552 215.848 81.2408 215.518C81.4302 215.189 81.5249 214.842 81.5249 214.479V213.251C81.468 213.319 81.343 213.382 81.1499 213.439C80.9605 213.492 80.7408 213.539 80.4908 213.581C80.2446 213.619 80.004 213.653 79.7692 213.683C79.5381 213.71 79.3506 213.732 79.2067 213.751C78.8582 213.797 78.5324 213.871 78.2294 213.973C77.9302 214.071 77.6877 214.221 77.5021 214.422C77.3203 214.619 77.2294 214.888 77.2294 215.229C77.2294 215.694 77.4018 216.047 77.7464 216.285C78.0949 216.52 78.5362 216.638 79.0703 216.638ZM88.8587 217.819C88.0405 217.819 87.3359 217.626 86.745 217.24C86.1541 216.854 85.6996 216.321 85.3814 215.643C85.0632 214.965 84.9041 214.191 84.9041 213.319C84.9041 212.433 85.067 211.651 85.3928 210.973C85.7223 210.291 86.1806 209.759 86.7678 209.376C87.3587 208.99 88.0481 208.797 88.8359 208.797C89.4496 208.797 90.0026 208.91 90.495 209.138C90.9875 209.365 91.3909 209.683 91.7053 210.092C92.0196 210.501 92.2147 210.979 92.2905 211.524H90.9496C90.8473 211.126 90.62 210.774 90.2678 210.467C89.9193 210.157 89.4496 210.001 88.8587 210.001C88.3359 210.001 87.8776 210.138 87.4837 210.41C87.0935 210.679 86.7886 211.06 86.5689 211.552C86.353 212.041 86.245 212.615 86.245 213.274C86.245 213.948 86.3511 214.535 86.5632 215.035C86.7791 215.535 87.0821 215.924 87.4723 216.2C87.8662 216.477 88.3284 216.615 88.8587 216.615C89.2071 216.615 89.5234 216.554 89.8075 216.433C90.0916 216.312 90.3321 216.138 90.5291 215.91C90.7261 215.683 90.8662 215.41 90.9496 215.092H92.2905C92.2147 215.607 92.0272 216.071 91.728 216.484C91.4325 216.893 91.0405 217.219 90.5518 217.461C90.067 217.7 89.5026 217.819 88.8587 217.819ZM95.5007 214.456L95.478 212.797H95.7507L99.5689 208.91H101.228L97.1598 213.024H97.0462L95.5007 214.456ZM94.2507 217.638V206.001H95.5916V217.638H94.2507ZM99.7962 217.638L96.3871 213.319L97.3416 212.388L101.501 217.638H99.7962ZM102.954 217.638V208.91H104.295V217.638H102.954ZM103.636 207.456C103.374 207.456 103.149 207.367 102.96 207.189C102.774 207.011 102.681 206.797 102.681 206.547C102.681 206.297 102.774 206.083 102.96 205.905C103.149 205.727 103.374 205.638 103.636 205.638C103.897 205.638 104.121 205.727 104.306 205.905C104.496 206.083 104.59 206.297 104.59 206.547C104.59 206.797 104.496 207.011 104.306 207.189C104.121 207.367 103.897 207.456 103.636 207.456ZM108.092 212.388V217.638H106.751V208.91H108.046V210.274H108.16C108.364 209.831 108.675 209.475 109.092 209.206C109.508 208.933 110.046 208.797 110.705 208.797C111.296 208.797 111.813 208.918 112.256 209.16C112.7 209.399 113.044 209.763 113.29 210.251C113.537 210.736 113.66 211.35 113.66 212.092V217.638H112.319V212.183C112.319 211.497 112.141 210.963 111.785 210.581C111.429 210.194 110.94 210.001 110.319 210.001C109.891 210.001 109.508 210.094 109.171 210.28C108.838 210.465 108.575 210.736 108.381 211.092C108.188 211.448 108.092 211.88 108.092 212.388ZM119.633 221.092C118.985 221.092 118.428 221.009 117.962 220.842C117.496 220.679 117.108 220.463 116.798 220.194C116.491 219.929 116.246 219.645 116.065 219.342L117.133 218.592C117.254 218.751 117.407 218.933 117.593 219.138C117.779 219.346 118.032 219.526 118.354 219.677C118.68 219.833 119.106 219.91 119.633 219.91C120.337 219.91 120.919 219.74 121.377 219.399C121.835 219.058 122.065 218.524 122.065 217.797V216.024H121.951C121.853 216.183 121.712 216.38 121.531 216.615C121.353 216.846 121.095 217.052 120.758 217.234C120.424 217.412 119.974 217.501 119.406 217.501C118.701 217.501 118.068 217.335 117.508 217.001C116.951 216.668 116.51 216.183 116.184 215.547C115.862 214.91 115.701 214.138 115.701 213.229C115.701 212.335 115.858 211.556 116.173 210.893C116.487 210.227 116.924 209.711 117.485 209.348C118.046 208.98 118.693 208.797 119.428 208.797C119.996 208.797 120.447 208.891 120.781 209.081C121.118 209.266 121.375 209.479 121.553 209.717C121.735 209.952 121.875 210.145 121.974 210.297H122.11V208.91H123.406V217.888C123.406 218.638 123.235 219.247 122.894 219.717C122.557 220.191 122.103 220.537 121.531 220.757C120.962 220.98 120.33 221.092 119.633 221.092ZM119.587 216.297C120.125 216.297 120.58 216.174 120.951 215.927C121.322 215.681 121.604 215.327 121.798 214.865C121.991 214.403 122.087 213.85 122.087 213.206C122.087 212.577 121.993 212.022 121.803 211.541C121.614 211.06 121.334 210.683 120.962 210.41C120.591 210.138 120.133 210.001 119.587 210.001C119.019 210.001 118.546 210.145 118.167 210.433C117.792 210.721 117.51 211.107 117.32 211.592C117.135 212.077 117.042 212.615 117.042 213.206C117.042 213.812 117.137 214.348 117.326 214.814C117.519 215.276 117.803 215.639 118.178 215.905C118.557 216.166 119.027 216.297 119.587 216.297ZM131.224 220.91C130.996 220.91 130.794 220.891 130.616 220.854C130.438 220.819 130.315 220.785 130.246 220.751L130.587 219.569C130.913 219.653 131.201 219.683 131.451 219.66C131.701 219.638 131.923 219.526 132.116 219.325C132.313 219.128 132.493 218.808 132.656 218.365L132.906 217.683L129.678 208.91H131.133L133.542 215.865H133.633L136.042 208.91H137.496L133.792 218.91C133.625 219.361 133.419 219.734 133.173 220.03C132.926 220.329 132.64 220.55 132.315 220.694C131.993 220.838 131.629 220.91 131.224 220.91ZM142.499 217.819C141.711 217.819 141.02 217.632 140.425 217.257C139.835 216.882 139.372 216.357 139.039 215.683C138.71 215.009 138.545 214.221 138.545 213.319C138.545 212.41 138.71 211.617 139.039 210.939C139.372 210.261 139.835 209.734 140.425 209.359C141.02 208.984 141.711 208.797 142.499 208.797C143.287 208.797 143.977 208.984 144.567 209.359C145.162 209.734 145.624 210.261 145.954 210.939C146.287 211.617 146.454 212.41 146.454 213.319C146.454 214.221 146.287 215.009 145.954 215.683C145.624 216.357 145.162 216.882 144.567 217.257C143.977 217.632 143.287 217.819 142.499 217.819ZM142.499 216.615C143.098 216.615 143.59 216.461 143.977 216.155C144.363 215.848 144.649 215.444 144.835 214.944C145.02 214.444 145.113 213.903 145.113 213.319C145.113 212.736 145.02 212.193 144.835 211.689C144.649 211.185 144.363 210.778 143.977 210.467C143.59 210.157 143.098 210.001 142.499 210.001C141.901 210.001 141.408 210.157 141.022 210.467C140.636 210.778 140.35 211.185 140.164 211.689C139.978 212.193 139.886 212.736 139.886 213.319C139.886 213.903 139.978 214.444 140.164 214.944C140.35 215.444 140.636 215.848 141.022 216.155C141.408 216.461 141.901 216.615 142.499 216.615ZM154.001 214.069V208.91H155.342V217.638H154.001V216.16H153.91C153.705 216.604 153.387 216.98 152.955 217.291C152.523 217.598 151.978 217.751 151.319 217.751C150.773 217.751 150.289 217.632 149.864 217.393C149.44 217.151 149.107 216.787 148.864 216.302C148.622 215.814 148.501 215.198 148.501 214.456V208.91H149.842V214.365C149.842 215.001 150.02 215.509 150.376 215.888C150.736 216.266 151.194 216.456 151.751 216.456C152.084 216.456 152.423 216.371 152.768 216.2C153.116 216.03 153.408 215.768 153.643 215.416C153.881 215.064 154.001 214.615 154.001 214.069ZM157.798 217.638V208.91H159.093V210.229H159.184C159.343 209.797 159.631 209.446 160.048 209.177C160.464 208.908 160.934 208.774 161.457 208.774C161.555 208.774 161.678 208.776 161.826 208.78C161.974 208.783 162.085 208.789 162.161 208.797V210.16C162.116 210.149 162.012 210.132 161.849 210.109C161.69 210.083 161.521 210.069 161.343 210.069C160.919 210.069 160.54 210.158 160.207 210.336C159.877 210.511 159.616 210.753 159.423 211.064C159.233 211.371 159.138 211.721 159.138 212.115V217.638H157.798ZM171.796 217.819C171.008 217.819 170.317 217.632 169.722 217.257C169.131 216.882 168.669 216.357 168.336 215.683C168.006 215.009 167.842 214.221 167.842 213.319C167.842 212.41 168.006 211.617 168.336 210.939C168.669 210.261 169.131 209.734 169.722 209.359C170.317 208.984 171.008 208.797 171.796 208.797C172.584 208.797 173.273 208.984 173.864 209.359C174.459 209.734 174.921 210.261 175.251 210.939C175.584 211.617 175.751 212.41 175.751 213.319C175.751 214.221 175.584 215.009 175.251 215.683C174.921 216.357 174.459 216.882 173.864 217.257C173.273 217.632 172.584 217.819 171.796 217.819ZM171.796 216.615C172.395 216.615 172.887 216.461 173.273 216.155C173.66 215.848 173.946 215.444 174.131 214.944C174.317 214.444 174.41 213.903 174.41 213.319C174.41 212.736 174.317 212.193 174.131 211.689C173.946 211.185 173.66 210.778 173.273 210.467C172.887 210.157 172.395 210.001 171.796 210.001C171.198 210.001 170.705 210.157 170.319 210.467C169.933 210.778 169.647 211.185 169.461 211.689C169.275 212.193 169.183 212.736 169.183 213.319C169.183 213.903 169.275 214.444 169.461 214.944C169.647 215.444 169.933 215.848 170.319 216.155C170.705 216.461 171.198 216.615 171.796 216.615ZM177.798 217.638V208.91H179.093V210.229H179.184C179.343 209.797 179.631 209.446 180.048 209.177C180.464 208.908 180.934 208.774 181.457 208.774C181.555 208.774 181.678 208.776 181.826 208.78C181.974 208.783 182.085 208.789 182.161 208.797V210.16C182.116 210.149 182.012 210.132 181.849 210.109C181.69 210.083 181.521 210.069 181.343 210.069C180.919 210.069 180.54 210.158 180.207 210.336C179.877 210.511 179.616 210.753 179.423 211.064C179.233 211.371 179.138 211.721 179.138 212.115V217.638H177.798ZM186.781 217.819C186.053 217.819 185.411 217.636 184.854 217.268C184.298 216.897 183.862 216.374 183.548 215.7C183.233 215.022 183.076 214.221 183.076 213.297C183.076 212.38 183.233 211.585 183.548 210.91C183.862 210.236 184.299 209.715 184.86 209.348C185.421 208.98 186.068 208.797 186.803 208.797C187.371 208.797 187.82 208.891 188.15 209.081C188.483 209.266 188.737 209.479 188.911 209.717C189.089 209.952 189.228 210.145 189.326 210.297H189.44V206.001H190.781V217.638H189.485V216.297H189.326C189.228 216.456 189.087 216.657 188.906 216.899C188.724 217.138 188.464 217.352 188.127 217.541C187.79 217.727 187.341 217.819 186.781 217.819ZM186.962 216.615C187.5 216.615 187.955 216.475 188.326 216.194C188.697 215.91 188.979 215.518 189.173 215.018C189.366 214.514 189.462 213.933 189.462 213.274C189.462 212.622 189.368 212.052 189.178 211.564C188.989 211.071 188.709 210.689 188.337 210.416C187.966 210.139 187.508 210.001 186.962 210.001C186.394 210.001 185.921 210.147 185.542 210.439C185.167 210.727 184.885 211.119 184.695 211.615C184.51 212.107 184.417 212.66 184.417 213.274C184.417 213.895 184.512 214.46 184.701 214.967C184.894 215.471 185.178 215.872 185.553 216.172C185.932 216.467 186.402 216.615 186.962 216.615ZM197.082 217.819C196.241 217.819 195.515 217.634 194.906 217.263C194.299 216.888 193.832 216.365 193.502 215.694C193.176 215.02 193.013 214.236 193.013 213.342C193.013 212.448 193.176 211.66 193.502 210.979C193.832 210.293 194.29 209.759 194.877 209.376C195.468 208.99 196.157 208.797 196.945 208.797C197.4 208.797 197.849 208.872 198.292 209.024C198.735 209.175 199.138 209.422 199.502 209.763C199.866 210.1 200.156 210.547 200.371 211.104C200.587 211.66 200.695 212.346 200.695 213.16V213.729H193.968V212.569H199.332C199.332 212.077 199.233 211.638 199.036 211.251C198.843 210.865 198.567 210.56 198.207 210.336C197.851 210.113 197.43 210.001 196.945 210.001C196.411 210.001 195.949 210.134 195.559 210.399C195.173 210.66 194.875 211.001 194.667 211.422C194.459 211.842 194.354 212.293 194.354 212.774V213.547C194.354 214.206 194.468 214.764 194.695 215.223C194.926 215.677 195.246 216.024 195.656 216.263C196.065 216.497 196.54 216.615 197.082 216.615C197.434 216.615 197.752 216.566 198.036 216.467C198.324 216.365 198.572 216.213 198.781 216.013C198.989 215.808 199.15 215.554 199.263 215.251L200.559 215.615C200.423 216.054 200.193 216.441 199.871 216.774C199.549 217.104 199.152 217.361 198.678 217.547C198.205 217.729 197.673 217.819 197.082 217.819ZM202.735 217.638V208.91H204.031V210.229H204.121C204.281 209.797 204.568 209.446 204.985 209.177C205.402 208.908 205.871 208.774 206.394 208.774C206.493 208.774 206.616 208.776 206.763 208.78C206.911 208.783 207.023 208.789 207.099 208.797V210.16C207.053 210.149 206.949 210.132 206.786 210.109C206.627 210.083 206.459 210.069 206.281 210.069C205.856 210.069 205.478 210.158 205.144 210.336C204.815 210.511 204.553 210.753 204.36 211.064C204.171 211.371 204.076 211.721 204.076 212.115V217.638H202.735ZM214.87 210.865L213.665 211.206C213.59 211.005 213.478 210.81 213.33 210.621C213.186 210.427 212.989 210.268 212.739 210.143C212.489 210.018 212.169 209.956 211.779 209.956C211.245 209.956 210.8 210.079 210.444 210.325C210.092 210.568 209.915 210.876 209.915 211.251C209.915 211.585 210.037 211.848 210.279 212.041C210.522 212.234 210.9 212.395 211.415 212.524L212.711 212.842C213.491 213.032 214.073 213.321 214.455 213.711C214.838 214.098 215.029 214.596 215.029 215.206C215.029 215.706 214.885 216.153 214.597 216.547C214.313 216.941 213.915 217.251 213.404 217.479C212.893 217.706 212.298 217.819 211.62 217.819C210.73 217.819 209.993 217.626 209.41 217.24C208.826 216.854 208.457 216.289 208.302 215.547L209.575 215.229C209.696 215.698 209.925 216.05 210.262 216.285C210.603 216.52 211.048 216.638 211.597 216.638C212.222 216.638 212.719 216.505 213.086 216.24C213.457 215.971 213.643 215.649 213.643 215.274C213.643 214.971 213.537 214.717 213.325 214.513C213.112 214.304 212.787 214.149 212.347 214.047L210.893 213.706C210.094 213.516 209.506 213.223 209.131 212.825C208.76 212.424 208.575 211.922 208.575 211.319C208.575 210.827 208.713 210.391 208.989 210.013C209.27 209.634 209.65 209.336 210.131 209.121C210.616 208.905 211.165 208.797 211.779 208.797C212.643 208.797 213.321 208.986 213.813 209.365C214.309 209.744 214.662 210.244 214.87 210.865ZM219.048 216.047L218.957 216.66C218.892 217.092 218.794 217.554 218.661 218.047C218.532 218.539 218.398 219.003 218.258 219.439C218.118 219.874 218.002 220.221 217.911 220.479H216.888C216.938 220.236 217.002 219.916 217.082 219.518C217.161 219.121 217.241 218.675 217.32 218.183C217.404 217.694 217.472 217.194 217.525 216.683L217.593 216.047H219.048ZM225.214 206.001H226.827L230.055 211.433H230.191L233.418 206.001H235.032L230.827 212.842V217.638H229.418V212.842L225.214 206.001ZM238.984 217.819C238.196 217.819 237.504 217.632 236.91 217.257C236.319 216.882 235.857 216.357 235.523 215.683C235.194 215.009 235.029 214.221 235.029 213.319C235.029 212.41 235.194 211.617 235.523 210.939C235.857 210.261 236.319 209.734 236.91 209.359C237.504 208.984 238.196 208.797 238.984 208.797C239.772 208.797 240.461 208.984 241.052 209.359C241.647 209.734 242.109 210.261 242.438 210.939C242.772 211.617 242.938 212.41 242.938 213.319C242.938 214.221 242.772 215.009 242.438 215.683C242.109 216.357 241.647 216.882 241.052 217.257C240.461 217.632 239.772 217.819 238.984 217.819ZM238.984 216.615C239.582 216.615 240.075 216.461 240.461 216.155C240.847 215.848 241.133 215.444 241.319 214.944C241.504 214.444 241.597 213.903 241.597 213.319C241.597 212.736 241.504 212.193 241.319 211.689C241.133 211.185 240.847 210.778 240.461 210.467C240.075 210.157 239.582 210.001 238.984 210.001C238.385 210.001 237.893 210.157 237.506 210.467C237.12 210.778 236.834 211.185 236.648 211.689C236.463 212.193 236.37 212.736 236.37 213.319C236.37 213.903 236.463 214.444 236.648 214.944C236.834 215.444 237.12 215.848 237.506 216.155C237.893 216.461 238.385 216.615 238.984 216.615ZM250.485 214.069V208.91H251.826V217.638H250.485V216.16H250.394C250.19 216.604 249.871 216.98 249.44 217.291C249.008 217.598 248.462 217.751 247.803 217.751C247.258 217.751 246.773 217.632 246.349 217.393C245.924 217.151 245.591 216.787 245.349 216.302C245.106 215.814 244.985 215.198 244.985 214.456V208.91H246.326V214.365C246.326 215.001 246.504 215.509 246.86 215.888C247.22 216.266 247.678 216.456 248.235 216.456C248.568 216.456 248.907 216.371 249.252 216.2C249.601 216.03 249.892 215.768 250.127 215.416C250.366 215.064 250.485 214.615 250.485 214.069ZM51.3665 236.819C50.5483 236.819 49.8438 236.626 49.2528 236.24C48.6619 235.854 48.2074 235.321 47.8892 234.643C47.571 233.965 47.4119 233.191 47.4119 232.319C47.4119 231.433 47.5748 230.651 47.9006 229.973C48.2301 229.291 48.6884 228.759 49.2756 228.376C49.8665 227.99 50.5559 227.797 51.3438 227.797C51.9574 227.797 52.5104 227.91 53.0028 228.138C53.4953 228.365 53.8987 228.683 54.2131 229.092C54.5275 229.501 54.7225 229.979 54.7983 230.524H53.4574C53.3551 230.126 53.1278 229.774 52.7756 229.467C52.4271 229.157 51.9574 229.001 51.3665 229.001C50.8438 229.001 50.3854 229.138 49.9915 229.41C49.6013 229.679 49.2964 230.06 49.0767 230.552C48.8608 231.041 48.7528 231.615 48.7528 232.274C48.7528 232.948 48.8589 233.535 49.071 234.035C49.2869 234.535 49.59 234.924 49.9801 235.2C50.3741 235.477 50.8362 235.615 51.3665 235.615C51.715 235.615 52.0312 235.554 52.3153 235.433C52.5994 235.312 52.84 235.138 53.0369 234.91C53.2339 234.683 53.3741 234.41 53.4574 234.092H54.7983C54.7225 234.607 54.535 235.071 54.2358 235.484C53.9403 235.893 53.5483 236.219 53.0597 236.461C52.5748 236.7 52.0104 236.819 51.3665 236.819ZM59.3267 236.842C58.7737 236.842 58.2718 236.738 57.821 236.53C57.3703 236.318 57.0123 236.013 56.7472 235.615C56.482 235.213 56.3494 234.729 56.3494 234.16C56.3494 233.66 56.4479 233.255 56.6449 232.944C56.8419 232.63 57.1051 232.384 57.4347 232.206C57.7642 232.028 58.1278 231.895 58.5256 231.808C58.9271 231.717 59.3305 231.645 59.7358 231.592C60.2661 231.524 60.696 231.473 61.0256 231.439C61.3589 231.401 61.6013 231.338 61.7528 231.251C61.9081 231.164 61.9858 231.013 61.9858 230.797V230.751C61.9858 230.191 61.8324 229.755 61.5256 229.444C61.2225 229.134 60.7623 228.979 60.1449 228.979C59.5047 228.979 59.0028 229.119 58.6392 229.399C58.2756 229.679 58.0199 229.979 57.8722 230.297L56.5994 229.842C56.8267 229.312 57.1297 228.899 57.5085 228.604C57.8911 228.304 58.3078 228.096 58.7585 227.979C59.2131 227.857 59.66 227.797 60.0994 227.797C60.3797 227.797 60.7017 227.831 61.0653 227.899C61.4328 227.963 61.7869 228.098 62.1278 228.302C62.4725 228.507 62.7585 228.816 62.9858 229.229C63.2131 229.641 63.3267 230.194 63.3267 230.888V236.638H61.9858V235.456H61.9176C61.8267 235.645 61.6752 235.848 61.4631 236.064C61.2509 236.28 60.9688 236.463 60.6165 236.615C60.2642 236.766 59.8343 236.842 59.3267 236.842ZM59.5312 235.638C60.0616 235.638 60.5085 235.533 60.8722 235.325C61.2396 235.117 61.5161 234.848 61.7017 234.518C61.8911 234.189 61.9858 233.842 61.9858 233.479V232.251C61.929 232.319 61.804 232.382 61.6108 232.439C61.4214 232.492 61.2017 232.539 60.9517 232.581C60.7055 232.619 60.465 232.653 60.2301 232.683C59.9991 232.71 59.8116 232.732 59.6676 232.751C59.3191 232.797 58.9934 232.871 58.6903 232.973C58.3911 233.071 58.1487 233.221 57.9631 233.422C57.7813 233.619 57.6903 233.888 57.6903 234.229C57.6903 234.694 57.8627 235.047 58.2074 235.285C58.5559 235.52 58.9972 235.638 59.5312 235.638ZM67.1151 231.388V236.638H65.7741V227.91H67.0696V229.274H67.1832C67.3878 228.831 67.6984 228.475 68.1151 228.206C68.5317 227.933 69.0696 227.797 69.7287 227.797C70.3196 227.797 70.8366 227.918 71.2798 228.16C71.723 228.399 72.0677 228.763 72.3139 229.251C72.5601 229.736 72.6832 230.35 72.6832 231.092V236.638H71.3423V231.183C71.3423 230.497 71.1643 229.963 70.8082 229.581C70.4522 229.194 69.9635 229.001 69.3423 229.001C68.9143 229.001 68.5317 229.094 68.1946 229.28C67.8613 229.465 67.598 229.736 67.4048 230.092C67.2116 230.448 67.1151 230.88 67.1151 231.388ZM86.7699 227.91L83.5426 236.638H82.179L78.9517 227.91H80.4062L82.8153 234.865H82.9062L85.3153 227.91H86.7699ZM88.5398 236.638V227.91H89.8807V236.638H88.5398ZM89.2216 226.456C88.9602 226.456 88.7348 226.367 88.5455 226.189C88.3598 226.011 88.267 225.797 88.267 225.547C88.267 225.297 88.3598 225.083 88.5455 224.905C88.7348 224.727 88.9602 224.638 89.2216 224.638C89.483 224.638 89.7064 224.727 89.892 224.905C90.0814 225.083 90.1761 225.297 90.1761 225.547C90.1761 225.797 90.0814 226.011 89.892 226.189C89.7064 226.367 89.483 226.456 89.2216 226.456ZM98.5185 229.865L97.3139 230.206C97.2382 230.005 97.1264 229.81 96.9787 229.621C96.8348 229.427 96.6378 229.268 96.3878 229.143C96.1378 229.018 95.8177 228.956 95.4276 228.956C94.8935 228.956 94.4484 229.079 94.0923 229.325C93.7401 229.568 93.5639 229.876 93.5639 230.251C93.5639 230.585 93.6851 230.848 93.9276 231.041C94.17 231.234 94.5488 231.395 95.0639 231.524L96.3594 231.842C97.1397 232.032 97.7211 232.321 98.1037 232.711C98.4863 233.098 98.6776 233.596 98.6776 234.206C98.6776 234.706 98.5336 235.153 98.2457 235.547C97.9616 235.941 97.5639 236.251 97.0526 236.479C96.5412 236.706 95.9465 236.819 95.2685 236.819C94.3783 236.819 93.6416 236.626 93.0582 236.24C92.4749 235.854 92.1056 235.289 91.9503 234.547L93.223 234.229C93.3442 234.698 93.5734 235.05 93.9105 235.285C94.2514 235.52 94.6965 235.638 95.2457 235.638C95.8707 235.638 96.367 235.505 96.7344 235.24C97.1056 234.971 97.2912 234.649 97.2912 234.274C97.2912 233.971 97.1851 233.717 96.973 233.513C96.7609 233.304 96.4351 233.149 95.9957 233.047L94.5412 232.706C93.742 232.516 93.1548 232.223 92.7798 231.825C92.4086 231.424 92.223 230.922 92.223 230.319C92.223 229.827 92.3613 229.391 92.6378 229.013C92.9181 228.634 93.2988 228.336 93.7798 228.121C94.2647 227.905 94.8139 227.797 95.4276 227.797C96.2912 227.797 96.9692 227.986 97.4616 228.365C97.9579 228.744 98.3101 229.244 98.5185 229.865ZM100.696 236.638V227.91H102.037V236.638H100.696ZM101.378 226.456C101.116 226.456 100.891 226.367 100.702 226.189C100.516 226.011 100.423 225.797 100.423 225.547C100.423 225.297 100.516 225.083 100.702 224.905C100.891 224.727 101.116 224.638 101.378 224.638C101.639 224.638 101.863 224.727 102.048 224.905C102.238 225.083 102.332 225.297 102.332 225.547C102.332 225.797 102.238 226.011 102.048 226.189C101.863 226.367 101.639 226.456 101.378 226.456ZM108.288 227.91V229.047H103.766V227.91H108.288ZM105.084 225.819H106.425V234.138C106.425 234.516 106.48 234.8 106.589 234.99C106.703 235.175 106.847 235.3 107.021 235.365C107.199 235.425 107.387 235.456 107.584 235.456C107.732 235.456 107.853 235.448 107.947 235.433C108.042 235.414 108.118 235.399 108.175 235.388L108.447 236.592C108.357 236.626 108.23 236.66 108.067 236.694C107.904 236.732 107.697 236.751 107.447 236.751C107.069 236.751 106.697 236.67 106.334 236.507C105.974 236.344 105.675 236.096 105.436 235.763C105.201 235.429 105.084 235.009 105.084 234.501V225.819ZM118.601 227.91V229.047H114.078V227.91H118.601ZM115.396 225.819H116.737V234.138C116.737 234.516 116.792 234.8 116.902 234.99C117.016 235.175 117.16 235.3 117.334 235.365C117.512 235.425 117.699 235.456 117.896 235.456C118.044 235.456 118.165 235.448 118.26 235.433C118.355 235.414 118.43 235.399 118.487 235.388L118.76 236.592C118.669 236.626 118.542 236.66 118.379 236.694C118.216 236.732 118.01 236.751 117.76 236.751C117.381 236.751 117.01 236.67 116.646 236.507C116.286 236.344 115.987 236.096 115.749 235.763C115.514 235.429 115.396 235.009 115.396 234.501V225.819ZM122.146 231.388V236.638H120.805V225.001H122.146V229.274H122.26C122.464 228.823 122.771 228.465 123.18 228.2C123.593 227.931 124.143 227.797 124.828 227.797C125.423 227.797 125.944 227.916 126.391 228.155C126.838 228.389 127.184 228.751 127.43 229.24C127.68 229.725 127.805 230.342 127.805 231.092V236.638H126.464V231.183C126.464 230.49 126.285 229.954 125.925 229.575C125.569 229.193 125.074 229.001 124.442 229.001C124.002 229.001 123.608 229.094 123.26 229.28C122.915 229.465 122.643 229.736 122.442 230.092C122.245 230.448 122.146 230.88 122.146 231.388ZM133.918 236.819C133.077 236.819 132.351 236.634 131.741 236.263C131.135 235.888 130.668 235.365 130.338 234.694C130.012 234.02 129.849 233.236 129.849 232.342C129.849 231.448 130.012 230.66 130.338 229.979C130.668 229.293 131.126 228.759 131.713 228.376C132.304 227.99 132.993 227.797 133.781 227.797C134.236 227.797 134.685 227.872 135.128 228.024C135.571 228.175 135.974 228.422 136.338 228.763C136.702 229.1 136.991 229.547 137.207 230.104C137.423 230.66 137.531 231.346 137.531 232.16V232.729H130.804V231.569H136.168C136.168 231.077 136.069 230.638 135.872 230.251C135.679 229.865 135.402 229.56 135.043 229.336C134.687 229.113 134.266 229.001 133.781 229.001C133.247 229.001 132.785 229.134 132.395 229.399C132.009 229.66 131.711 230.001 131.503 230.422C131.295 230.842 131.19 231.293 131.19 231.774V232.547C131.19 233.206 131.304 233.764 131.531 234.223C131.762 234.677 132.082 235.024 132.491 235.263C132.901 235.497 133.376 235.615 133.918 235.615C134.27 235.615 134.588 235.566 134.872 235.467C135.16 235.365 135.408 235.213 135.616 235.013C135.825 234.808 135.986 234.554 136.099 234.251L137.395 234.615C137.259 235.054 137.029 235.441 136.707 235.774C136.385 236.104 135.988 236.361 135.514 236.547C135.041 236.729 134.509 236.819 133.918 236.819ZM154.071 230.819C154.071 232.047 153.849 233.107 153.406 234.001C152.963 234.895 152.355 235.585 151.582 236.069C150.81 236.554 149.927 236.797 148.935 236.797C147.942 236.797 147.06 236.554 146.287 236.069C145.514 235.585 144.906 234.895 144.463 234.001C144.02 233.107 143.798 232.047 143.798 230.819C143.798 229.592 144.02 228.532 144.463 227.638C144.906 226.744 145.514 226.054 146.287 225.569C147.06 225.085 147.942 224.842 148.935 224.842C149.927 224.842 150.81 225.085 151.582 225.569C152.355 226.054 152.963 226.744 153.406 227.638C153.849 228.532 154.071 229.592 154.071 230.819ZM152.707 230.819C152.707 229.812 152.539 228.961 152.202 228.268C151.868 227.575 151.416 227.05 150.844 226.694C150.276 226.338 149.639 226.16 148.935 226.16C148.23 226.16 147.592 226.338 147.02 226.694C146.452 227.05 145.999 227.575 145.662 228.268C145.329 228.961 145.162 229.812 145.162 230.819C145.162 231.827 145.329 232.677 145.662 233.371C145.999 234.064 146.452 234.588 147.02 234.944C147.592 235.3 148.23 235.479 148.935 235.479C149.639 235.479 150.276 235.3 150.844 234.944C151.416 234.588 151.868 234.064 152.202 233.371C152.539 232.677 152.707 231.827 152.707 230.819ZM156.259 236.638V227.91H157.554V229.229H157.645C157.804 228.797 158.092 228.446 158.509 228.177C158.925 227.908 159.395 227.774 159.918 227.774C160.016 227.774 160.139 227.776 160.287 227.78C160.435 227.783 160.546 227.789 160.622 227.797V229.16C160.577 229.149 160.473 229.132 160.31 229.109C160.151 229.083 159.982 229.069 159.804 229.069C159.38 229.069 159.001 229.158 158.668 229.336C158.338 229.511 158.077 229.753 157.884 230.064C157.694 230.371 157.599 230.721 157.599 231.115V236.638H156.259ZM165.241 236.819C164.514 236.819 163.872 236.636 163.315 236.268C162.759 235.897 162.323 235.374 162.009 234.7C161.694 234.022 161.537 233.221 161.537 232.297C161.537 231.38 161.694 230.585 162.009 229.91C162.323 229.236 162.76 228.715 163.321 228.348C163.882 227.98 164.529 227.797 165.264 227.797C165.832 227.797 166.281 227.891 166.611 228.081C166.944 228.266 167.198 228.479 167.372 228.717C167.55 228.952 167.688 229.145 167.787 229.297H167.901V225.001H169.241V236.638H167.946V235.297H167.787C167.688 235.456 167.548 235.657 167.366 235.899C167.185 236.138 166.925 236.352 166.588 236.541C166.251 236.727 165.802 236.819 165.241 236.819ZM165.423 235.615C165.961 235.615 166.416 235.475 166.787 235.194C167.158 234.91 167.44 234.518 167.634 234.018C167.827 233.514 167.923 232.933 167.923 232.274C167.923 231.622 167.829 231.052 167.639 230.564C167.45 230.071 167.17 229.689 166.798 229.416C166.427 229.139 165.969 229.001 165.423 229.001C164.855 229.001 164.382 229.147 164.003 229.439C163.628 229.727 163.346 230.119 163.156 230.615C162.971 231.107 162.878 231.66 162.878 232.274C162.878 232.895 162.973 233.46 163.162 233.967C163.355 234.471 163.639 234.872 164.014 235.172C164.393 235.467 164.863 235.615 165.423 235.615ZM175.543 236.819C174.702 236.819 173.976 236.634 173.366 236.263C172.76 235.888 172.293 235.365 171.963 234.694C171.637 234.02 171.474 233.236 171.474 232.342C171.474 231.448 171.637 230.66 171.963 229.979C172.293 229.293 172.751 228.759 173.338 228.376C173.929 227.99 174.618 227.797 175.406 227.797C175.861 227.797 176.31 227.872 176.753 228.024C177.196 228.175 177.599 228.422 177.963 228.763C178.327 229.1 178.616 229.547 178.832 230.104C179.048 230.66 179.156 231.346 179.156 232.16V232.729H172.429V231.569H177.793C177.793 231.077 177.694 230.638 177.497 230.251C177.304 229.865 177.027 229.56 176.668 229.336C176.312 229.113 175.891 229.001 175.406 229.001C174.872 229.001 174.41 229.134 174.02 229.399C173.634 229.66 173.336 230.001 173.128 230.422C172.92 230.842 172.815 231.293 172.815 231.774V232.547C172.815 233.206 172.929 233.764 173.156 234.223C173.387 234.677 173.707 235.024 174.116 235.263C174.526 235.497 175.001 235.615 175.543 235.615C175.895 235.615 176.213 235.566 176.497 235.467C176.785 235.365 177.033 235.213 177.241 235.013C177.45 234.808 177.611 234.554 177.724 234.251L179.02 234.615C178.884 235.054 178.654 235.441 178.332 235.774C178.01 236.104 177.613 236.361 177.139 236.547C176.666 236.729 176.134 236.819 175.543 236.819ZM181.196 236.638V227.91H182.491V229.229H182.582C182.741 228.797 183.029 228.446 183.446 228.177C183.863 227.908 184.332 227.774 184.855 227.774C184.954 227.774 185.077 227.776 185.224 227.78C185.372 227.783 185.484 227.789 185.56 227.797V229.16C185.514 229.149 185.41 229.132 185.247 229.109C185.088 229.083 184.92 229.069 184.741 229.069C184.317 229.069 183.938 229.158 183.605 229.336C183.276 229.511 183.014 229.753 182.821 230.064C182.632 230.371 182.537 230.721 182.537 231.115V236.638H181.196ZM193.331 229.865L192.126 230.206C192.051 230.005 191.939 229.81 191.791 229.621C191.647 229.427 191.45 229.268 191.2 229.143C190.95 229.018 190.63 228.956 190.24 228.956C189.706 228.956 189.261 229.079 188.905 229.325C188.553 229.568 188.376 229.876 188.376 230.251C188.376 230.585 188.498 230.848 188.74 231.041C188.982 231.234 189.361 231.395 189.876 231.524L191.172 231.842C191.952 232.032 192.534 232.321 192.916 232.711C193.299 233.098 193.49 233.596 193.49 234.206C193.49 234.706 193.346 235.153 193.058 235.547C192.774 235.941 192.376 236.251 191.865 236.479C191.354 236.706 190.759 236.819 190.081 236.819C189.191 236.819 188.454 236.626 187.871 236.24C187.287 235.854 186.918 235.289 186.763 234.547L188.036 234.229C188.157 234.698 188.386 235.05 188.723 235.285C189.064 235.52 189.509 235.638 190.058 235.638C190.683 235.638 191.179 235.505 191.547 235.24C191.918 234.971 192.104 234.649 192.104 234.274C192.104 233.971 191.998 233.717 191.786 233.513C191.573 233.304 191.248 233.149 190.808 233.047L189.354 232.706C188.554 232.516 187.967 232.223 187.592 231.825C187.221 231.424 187.036 230.922 187.036 230.319C187.036 229.827 187.174 229.391 187.45 229.013C187.731 228.634 188.111 228.336 188.592 228.121C189.077 227.905 189.626 227.797 190.24 227.797C191.104 227.797 191.782 227.986 192.274 228.365C192.77 228.744 193.123 229.244 193.331 229.865ZM200.009 239.91V227.91H201.304V229.297H201.463C201.562 229.145 201.698 228.952 201.872 228.717C202.05 228.479 202.304 228.266 202.634 228.081C202.967 227.891 203.418 227.797 203.986 227.797C204.721 227.797 205.368 227.98 205.929 228.348C206.49 228.715 206.927 229.236 207.241 229.91C207.556 230.585 207.713 231.38 207.713 232.297C207.713 233.221 207.556 234.022 207.241 234.7C206.927 235.374 206.491 235.897 205.935 236.268C205.378 236.636 204.736 236.819 204.009 236.819C203.448 236.819 202.999 236.727 202.662 236.541C202.325 236.352 202.065 236.138 201.884 235.899C201.702 235.657 201.562 235.456 201.463 235.297H201.349V239.91H200.009ZM201.327 232.274C201.327 232.933 201.423 233.514 201.616 234.018C201.81 234.518 202.092 234.91 202.463 235.194C202.834 235.475 203.289 235.615 203.827 235.615C204.387 235.615 204.855 235.467 205.23 235.172C205.609 234.872 205.893 234.471 206.082 233.967C206.276 233.46 206.372 232.895 206.372 232.274C206.372 231.66 206.277 231.107 206.088 230.615C205.902 230.119 205.62 229.727 205.241 229.439C204.866 229.147 204.395 229.001 203.827 229.001C203.281 229.001 202.823 229.139 202.452 229.416C202.08 229.689 201.8 230.071 201.611 230.564C201.421 231.052 201.327 231.622 201.327 232.274ZM212.327 236.842C211.774 236.842 211.272 236.738 210.821 236.53C210.37 236.318 210.012 236.013 209.747 235.615C209.482 235.213 209.349 234.729 209.349 234.16C209.349 233.66 209.448 233.255 209.645 232.944C209.842 232.63 210.105 232.384 210.435 232.206C210.764 232.028 211.128 231.895 211.526 231.808C211.927 231.717 212.33 231.645 212.736 231.592C213.266 231.524 213.696 231.473 214.026 231.439C214.359 231.401 214.601 231.338 214.753 231.251C214.908 231.164 214.986 231.013 214.986 230.797V230.751C214.986 230.191 214.832 229.755 214.526 229.444C214.223 229.134 213.762 228.979 213.145 228.979C212.505 228.979 212.003 229.119 211.639 229.399C211.276 229.679 211.02 229.979 210.872 230.297L209.599 229.842C209.827 229.312 210.13 228.899 210.509 228.604C210.891 228.304 211.308 228.096 211.759 227.979C212.213 227.857 212.66 227.797 213.099 227.797C213.38 227.797 213.702 227.831 214.065 227.899C214.433 227.963 214.787 228.098 215.128 228.302C215.473 228.507 215.759 228.816 215.986 229.229C216.213 229.641 216.327 230.194 216.327 230.888V236.638H214.986V235.456H214.918C214.827 235.645 214.675 235.848 214.463 236.064C214.251 236.28 213.969 236.463 213.616 236.615C213.264 236.766 212.834 236.842 212.327 236.842ZM212.531 235.638C213.062 235.638 213.509 235.533 213.872 235.325C214.24 235.117 214.516 234.848 214.702 234.518C214.891 234.189 214.986 233.842 214.986 233.479V232.251C214.929 232.319 214.804 232.382 214.611 232.439C214.421 232.492 214.202 232.539 213.952 232.581C213.705 232.619 213.465 232.653 213.23 232.683C212.999 232.71 212.812 232.732 212.668 232.751C212.319 232.797 211.993 232.871 211.69 232.973C211.391 233.071 211.149 233.221 210.963 233.422C210.781 233.619 210.69 233.888 210.69 234.229C210.69 234.694 210.863 235.047 211.207 235.285C211.556 235.52 211.997 235.638 212.531 235.638ZM222.297 240.092C221.649 240.092 221.092 240.009 220.626 239.842C220.161 239.679 219.772 239.463 219.462 239.194C219.155 238.929 218.911 238.645 218.729 238.342L219.797 237.592C219.918 237.751 220.071 237.933 220.257 238.138C220.443 238.346 220.696 238.526 221.018 238.677C221.344 238.833 221.77 238.91 222.297 238.91C223.001 238.91 223.583 238.74 224.041 238.399C224.5 238.058 224.729 237.524 224.729 236.797V235.024H224.615C224.517 235.183 224.376 235.38 224.195 235.615C224.017 235.846 223.759 236.052 223.422 236.234C223.089 236.412 222.638 236.501 222.07 236.501C221.365 236.501 220.732 236.335 220.172 236.001C219.615 235.668 219.174 235.183 218.848 234.547C218.526 233.91 218.365 233.138 218.365 232.229C218.365 231.335 218.522 230.556 218.837 229.893C219.151 229.227 219.589 228.711 220.149 228.348C220.71 227.98 221.357 227.797 222.092 227.797C222.661 227.797 223.111 227.891 223.445 228.081C223.782 228.266 224.039 228.479 224.217 228.717C224.399 228.952 224.539 229.145 224.638 229.297H224.774V227.91H226.07V236.888C226.07 237.638 225.899 238.247 225.558 238.717C225.221 239.191 224.767 239.537 224.195 239.757C223.626 239.98 222.994 240.092 222.297 240.092ZM222.251 235.297C222.789 235.297 223.244 235.174 223.615 234.927C223.986 234.681 224.268 234.327 224.462 233.865C224.655 233.403 224.751 232.85 224.751 232.206C224.751 231.577 224.657 231.022 224.467 230.541C224.278 230.06 223.998 229.683 223.626 229.41C223.255 229.138 222.797 229.001 222.251 229.001C221.683 229.001 221.21 229.145 220.831 229.433C220.456 229.721 220.174 230.107 219.984 230.592C219.799 231.077 219.706 231.615 219.706 232.206C219.706 232.812 219.801 233.348 219.99 233.814C220.183 234.276 220.467 234.639 220.842 234.905C221.221 235.166 221.691 235.297 222.251 235.297ZM232.183 236.819C231.342 236.819 230.617 236.634 230.007 236.263C229.401 235.888 228.933 235.365 228.604 234.694C228.278 234.02 228.115 233.236 228.115 232.342C228.115 231.448 228.278 230.66 228.604 229.979C228.933 229.293 229.392 228.759 229.979 228.376C230.57 227.99 231.259 227.797 232.047 227.797C232.501 227.797 232.95 227.872 233.393 228.024C233.837 228.175 234.24 228.422 234.604 228.763C234.967 229.1 235.257 229.547 235.473 230.104C235.689 230.66 235.797 231.346 235.797 232.16V232.729H229.07V231.569H234.433C234.433 231.077 234.335 230.638 234.138 230.251C233.945 229.865 233.668 229.56 233.308 229.336C232.952 229.113 232.532 229.001 232.047 229.001C231.513 229.001 231.051 229.134 230.661 229.399C230.274 229.66 229.977 230.001 229.768 230.422C229.56 230.842 229.456 231.293 229.456 231.774V232.547C229.456 233.206 229.57 233.764 229.797 234.223C230.028 234.677 230.348 235.024 230.757 235.263C231.166 235.497 231.642 235.615 232.183 235.615C232.536 235.615 232.854 235.566 233.138 235.467C233.426 235.365 233.674 235.213 233.882 235.013C234.09 234.808 234.251 234.554 234.365 234.251L235.661 234.615C235.524 235.054 235.295 235.441 234.973 235.774C234.651 236.104 234.253 236.361 233.78 236.547C233.306 236.729 232.774 236.819 232.183 236.819ZM238.814 236.729C238.534 236.729 238.293 236.628 238.092 236.427C237.892 236.227 237.791 235.986 237.791 235.706C237.791 235.425 237.892 235.185 238.092 234.984C238.293 234.783 238.534 234.683 238.814 234.683C239.094 234.683 239.335 234.783 239.536 234.984C239.736 235.185 239.837 235.425 239.837 235.706C239.837 235.891 239.789 236.062 239.695 236.217C239.604 236.372 239.481 236.497 239.325 236.592C239.174 236.683 239.003 236.729 238.814 236.729Z" fill="black"/>
<g filter="url(#filter1_d_1849_2577)">
<rect x="73.8047" y="264.638" width="140" height="48" rx="10" fill="white" fill-opacity="0.15" shape-rendering="crispEdges"/>
<rect x="74.8047" y="265.638" width="138" height="46" rx="9" stroke="#FFB300" stroke-width="2" shape-rendering="crispEdges"/>
<path d="M94.8729 284.53L94.8729 282.501L104.43 282.501L104.43 284.53L100.867 284.53L100.867 294.138L98.4354 294.138L98.4354 284.53L94.8729 284.53ZM105.052 294.138L105.052 285.41L107.398 285.41L107.398 286.933L107.489 286.933C107.648 286.391 107.915 285.982 108.29 285.706C108.665 285.425 109.097 285.285 109.586 285.285C109.707 285.285 109.838 285.293 109.978 285.308C110.118 285.323 110.241 285.344 110.347 285.371L110.347 287.518C110.234 287.484 110.076 287.454 109.876 287.427C109.675 287.401 109.491 287.388 109.325 287.388C108.969 287.388 108.65 287.465 108.37 287.621C108.094 287.772 107.874 287.984 107.711 288.257C107.552 288.53 107.472 288.844 107.472 289.2L107.472 294.138L105.052 294.138ZM113.837 294.302C113.281 294.302 112.784 294.206 112.349 294.013C111.913 293.816 111.568 293.526 111.315 293.143C111.065 292.757 110.94 292.276 110.94 291.7C110.94 291.215 111.029 290.808 111.207 290.479C111.385 290.149 111.627 289.884 111.934 289.683C112.241 289.482 112.589 289.331 112.979 289.229C113.373 289.126 113.786 289.054 114.218 289.013C114.726 288.96 115.135 288.91 115.445 288.865C115.756 288.816 115.981 288.744 116.121 288.649C116.262 288.554 116.332 288.414 116.332 288.229L116.332 288.194C116.332 287.835 116.218 287.556 115.991 287.359C115.767 287.162 115.449 287.064 115.036 287.064C114.601 287.064 114.254 287.16 113.996 287.354C113.739 287.543 113.568 287.782 113.485 288.069L111.246 287.888C111.36 287.357 111.584 286.899 111.917 286.513C112.25 286.122 112.68 285.823 113.207 285.615C113.737 285.403 114.351 285.297 115.048 285.297C115.532 285.297 115.996 285.354 116.44 285.467C116.887 285.581 117.282 285.757 117.627 285.996C117.976 286.234 118.25 286.541 118.451 286.916C118.652 287.287 118.752 287.732 118.752 288.251L118.752 294.138L116.457 294.138L116.457 292.927L116.388 292.927C116.248 293.2 116.061 293.441 115.826 293.649C115.591 293.854 115.309 294.014 114.979 294.132C114.65 294.246 114.269 294.302 113.837 294.302ZM114.531 292.632C114.887 292.632 115.201 292.562 115.474 292.422C115.746 292.278 115.96 292.085 116.116 291.842C116.271 291.6 116.349 291.325 116.349 291.018L116.349 290.092C116.273 290.141 116.169 290.187 116.036 290.229C115.907 290.266 115.762 290.302 115.599 290.336C115.436 290.367 115.273 290.395 115.11 290.422C114.947 290.444 114.799 290.465 114.667 290.484C114.383 290.526 114.135 290.592 113.923 290.683C113.71 290.774 113.546 290.897 113.428 291.052C113.311 291.204 113.252 291.393 113.252 291.621C113.252 291.95 113.371 292.202 113.61 292.376C113.853 292.547 114.159 292.632 114.531 292.632ZM124.573 294.308C123.679 294.308 122.91 294.119 122.266 293.74C121.626 293.357 121.134 292.827 120.789 292.149C120.448 291.471 120.278 290.691 120.278 289.808C120.278 288.914 120.45 288.13 120.795 287.456C121.143 286.778 121.638 286.249 122.278 285.871C122.918 285.488 123.679 285.297 124.562 285.297C125.323 285.297 125.99 285.435 126.562 285.711C127.134 285.988 127.586 286.376 127.92 286.876C128.253 287.376 128.437 287.963 128.471 288.638L126.187 288.638C126.122 288.202 125.952 287.852 125.675 287.586C125.403 287.318 125.045 287.183 124.602 287.183C124.227 287.183 123.899 287.285 123.619 287.49C123.342 287.691 123.126 287.984 122.971 288.371C122.816 288.757 122.738 289.225 122.738 289.774C122.738 290.331 122.814 290.804 122.965 291.194C123.121 291.585 123.338 291.882 123.619 292.086C123.899 292.291 124.227 292.393 124.602 292.393C124.878 292.393 125.126 292.336 125.346 292.223C125.569 292.109 125.753 291.944 125.897 291.729C126.045 291.509 126.141 291.246 126.187 290.939L128.471 290.939C128.433 291.605 128.251 292.193 127.925 292.7C127.603 293.204 127.158 293.598 126.59 293.882C126.022 294.166 125.35 294.308 124.573 294.308ZM132.214 291.626L132.219 288.723L132.572 288.723L135.367 285.41L138.146 285.41L134.39 289.797L133.816 289.797L132.214 291.626ZM130.021 294.138L130.021 282.501L132.441 282.501L132.441 294.138L130.021 294.138ZM135.475 294.138L132.907 290.336L134.521 288.626L138.31 294.138L135.475 294.138ZM146.979 294.308C146.097 294.308 145.334 294.121 144.69 293.746C144.049 293.367 143.555 292.84 143.207 292.166C142.858 291.488 142.684 290.702 142.684 289.808C142.684 288.907 142.858 288.119 143.207 287.444C143.555 286.766 144.049 286.24 144.69 285.865C145.334 285.486 146.097 285.297 146.979 285.297C147.862 285.297 148.623 285.486 149.263 285.865C149.907 286.24 150.404 286.766 150.752 287.444C151.101 288.119 151.275 288.907 151.275 289.808C151.275 290.702 151.101 291.488 150.752 292.166C150.404 292.84 149.907 293.367 149.263 293.746C148.623 294.121 147.862 294.308 146.979 294.308ZM146.991 292.433C147.392 292.433 147.728 292.319 147.996 292.092C148.265 291.861 148.468 291.547 148.604 291.149C148.745 290.751 148.815 290.299 148.815 289.791C148.815 289.283 148.745 288.831 148.604 288.433C148.468 288.035 148.265 287.721 147.996 287.49C147.728 287.259 147.392 287.143 146.991 287.143C146.585 287.143 146.245 287.259 145.968 287.49C145.695 287.721 145.489 288.035 145.349 288.433C145.212 288.831 145.144 289.283 145.144 289.791C145.144 290.299 145.212 290.751 145.349 291.149C145.489 291.547 145.695 291.861 145.968 292.092C146.245 292.319 146.585 292.433 146.991 292.433ZM152.849 294.138L152.849 285.41L155.195 285.41L155.195 286.933L155.286 286.933C155.445 286.391 155.712 285.982 156.087 285.706C156.462 285.425 156.894 285.285 157.383 285.285C157.504 285.285 157.635 285.293 157.775 285.308C157.915 285.323 158.038 285.344 158.144 285.371L158.144 287.518C158.031 287.484 157.873 287.454 157.673 287.427C157.472 287.401 157.288 287.388 157.121 287.388C156.765 287.388 156.447 287.465 156.167 287.621C155.89 287.772 155.671 287.984 155.508 288.257C155.349 288.53 155.269 288.844 155.269 289.2L155.269 294.138L152.849 294.138ZM162.205 294.28C161.542 294.28 160.942 294.109 160.404 293.768C159.87 293.424 159.446 292.918 159.131 292.251C158.821 291.581 158.665 290.759 158.665 289.785C158.665 288.785 158.826 287.954 159.148 287.291C159.47 286.624 159.898 286.126 160.433 285.797C160.97 285.463 161.559 285.297 162.2 285.297C162.688 285.297 163.095 285.38 163.421 285.547C163.751 285.71 164.016 285.914 164.217 286.16C164.421 286.403 164.576 286.641 164.683 286.876L164.756 286.876L164.756 282.501L167.171 282.501L167.171 294.138L164.785 294.138L164.785 292.74L164.683 292.74C164.569 292.982 164.408 293.223 164.2 293.461C163.995 293.696 163.728 293.891 163.398 294.047C163.073 294.202 162.675 294.28 162.205 294.28ZM162.972 292.354C163.362 292.354 163.692 292.247 163.961 292.035C164.234 291.819 164.442 291.518 164.586 291.132C164.734 290.746 164.808 290.293 164.808 289.774C164.808 289.255 164.736 288.804 164.592 288.422C164.448 288.039 164.239 287.744 163.967 287.535C163.694 287.327 163.362 287.223 162.972 287.223C162.575 287.223 162.239 287.331 161.967 287.547C161.694 287.763 161.487 288.062 161.347 288.444C161.207 288.827 161.137 289.27 161.137 289.774C161.137 290.282 161.207 290.73 161.347 291.121C161.491 291.507 161.698 291.81 161.967 292.03C162.239 292.246 162.575 292.354 162.972 292.354ZM173.138 294.308C172.241 294.308 171.468 294.126 170.82 293.763C170.176 293.395 169.68 292.876 169.332 292.206C168.983 291.532 168.809 290.734 168.809 289.814C168.809 288.916 168.983 288.128 169.332 287.45C169.68 286.772 170.171 286.244 170.803 285.865C171.44 285.486 172.186 285.297 173.042 285.297C173.618 285.297 174.154 285.389 174.65 285.575C175.15 285.757 175.585 286.032 175.957 286.399C176.332 286.766 176.623 287.229 176.832 287.785C177.04 288.338 177.144 288.986 177.144 289.729L177.144 290.393L169.775 290.393L169.775 288.893L174.866 288.893C174.866 288.545 174.79 288.236 174.638 287.967C174.487 287.698 174.277 287.488 174.008 287.336C173.743 287.181 173.434 287.104 173.082 287.104C172.714 287.104 172.388 287.189 172.104 287.359C171.824 287.526 171.604 287.751 171.445 288.035C171.286 288.316 171.205 288.628 171.201 288.973L171.201 290.399C171.201 290.831 171.281 291.204 171.44 291.518C171.603 291.833 171.832 292.075 172.127 292.246C172.423 292.416 172.773 292.501 173.178 292.501C173.447 292.501 173.693 292.463 173.917 292.388C174.14 292.312 174.332 292.198 174.491 292.047C174.65 291.895 174.771 291.71 174.854 291.49L177.093 291.638C176.979 292.175 176.746 292.645 176.394 293.047C176.046 293.444 175.595 293.755 175.042 293.979C174.493 294.198 173.858 294.308 173.138 294.308ZM178.724 294.138L178.724 285.41L181.07 285.41L181.07 286.933L181.161 286.933C181.32 286.391 181.587 285.982 181.962 285.706C182.337 285.425 182.769 285.285 183.258 285.285C183.379 285.285 183.51 285.293 183.65 285.308C183.79 285.323 183.913 285.344 184.019 285.371L184.019 287.518C183.906 287.484 183.748 287.454 183.548 287.427C183.347 287.401 183.163 287.388 182.996 287.388C182.64 287.388 182.322 287.465 182.042 287.621C181.765 287.772 181.546 287.984 181.383 288.257C181.224 288.53 181.144 288.844 181.144 289.2L181.144 294.138L178.724 294.138ZM192.532 287.899L190.316 288.035C190.278 287.846 190.197 287.675 190.072 287.524C189.947 287.369 189.782 287.246 189.577 287.155C189.377 287.06 189.136 287.013 188.856 287.013C188.481 287.013 188.165 287.092 187.907 287.251C187.649 287.407 187.521 287.615 187.521 287.876C187.521 288.085 187.604 288.261 187.771 288.405C187.937 288.549 188.223 288.664 188.629 288.751L190.208 289.069C191.057 289.244 191.689 289.524 192.106 289.91C192.522 290.297 192.731 290.804 192.731 291.433C192.731 292.005 192.562 292.507 192.225 292.939C191.892 293.371 191.433 293.708 190.85 293.95C190.271 294.189 189.602 294.308 188.844 294.308C187.689 294.308 186.769 294.068 186.083 293.586C185.401 293.102 185.002 292.443 184.884 291.609L187.265 291.484C187.337 291.836 187.511 292.105 187.788 292.291C188.064 292.473 188.418 292.564 188.85 292.564C189.274 292.564 189.615 292.482 189.873 292.319C190.134 292.153 190.267 291.939 190.271 291.677C190.267 291.458 190.174 291.278 189.992 291.138C189.81 290.994 189.53 290.884 189.151 290.808L187.64 290.507C186.788 290.336 186.153 290.041 185.737 289.621C185.324 289.2 185.117 288.664 185.117 288.013C185.117 287.452 185.269 286.969 185.572 286.564C185.879 286.158 186.308 285.846 186.862 285.626C187.418 285.407 188.07 285.297 188.816 285.297C189.918 285.297 190.786 285.53 191.418 285.996C192.055 286.461 192.426 287.096 192.532 287.899Z" fill="#FFB300"/>
</g>
</g>
<defs>
<filter id="filter0_d_1849_2577" x="0.804688" y="0.637604" width="286" height="352" filterUnits="userSpaceOnUse" color-interpolation-filters="sRGB">
<feFlood flood-opacity="0" result="BackgroundImageFix"/>
<feColorMatrix in="SourceAlpha" type="matrix" values="0 0 0 0 0 0 0 0 0 0 0 0 0 0 0 0 0 0 127 0" result="hardAlpha"/>
<feOffset dy="4"/>
<feGaussianBlur stdDeviation="2"/>
<feComposite in2="hardAlpha" operator="out"/>
<feColorMatrix type="matrix" values="0 0 0 0 0 0 0 0 0 0 0 0 0 0 0 0 0 0 0.25 0"/>
<feBlend mode="normal" in2="BackgroundImageFix" result="effect1_dropShadow_1849_2577"/>
<feBlend mode="normal" in="SourceGraphic" in2="effect1_dropShadow_1849_2577" result="shape"/>
</filter>
<filter id="filter1_d_1849_2577" x="53.8047" y="244.638" width="180" height="88" filterUnits="userSpaceOnUse" color-interpolation-filters="sRGB">
<feFlood flood-opacity="0" result="BackgroundImageFix"/>
<feColorMatrix in="SourceAlpha" type="matrix" values="0 0 0 0 0 0 0 0 0 0 0 0 0 0 0 0 0 0 127 0" result="hardAlpha"/>
<feOffset dy="2"/>
<feGaussianBlur stdDeviation="1"/>
<feComposite in2="hardAlpha" operator="out"/>
<feColorMatrix type="matrix" values="0 0 0 0 0 0 0 0 0 0 0 0 0 0 0 0 0 0 0.25 0"/>
<feBlend mode="normal" in2="BackgroundImageFix" result="effect1_dropShadow_1849_2577"/>
<feBlend mode="normal" in="SourceGraphic" in2="effect1_dropShadow_1849_2577" result="shape"/>
</filter>
<clipPath id="clip0_1849_2577">
<rect width="126" height="98" fill="white" transform="translate(80.8047 24.6376)"/>
</clipPath>
<clipPath id="clip1_1849_2577">
<rect width="95" height="98" fill="white" transform="translate(95.8047 24.6376)"/>
</clipPath>
</defs>
</svg>
