<svg width="42" height="42" viewBox="0 0 42 42" fill="none" xmlns="http://www.w3.org/2000/svg">
<rect width="42" height="42" rx="21" fill="#ABF0D4"/>
<path d="M10.1399 12.4399V16.19C11.6782 15.3232 15.4228 13.4594 20.1694 13.482C25.2702 13.507 28.949 15.5086 30.4469 16.4355L30.5101 12.8106C30.5228 12.0365 30.2091 11.2925 29.6372 10.7639C28.6378 9.83956 26.8819 8.48681 24.4504 7.68017C23.2638 7.28687 21.9152 7.02133 20.4174 7.00129C15.6986 6.93616 12.4044 9.32101 10.9344 10.6487C10.4258 11.1071 10.1399 11.761 10.1399 12.4424V12.4399Z" stroke="black" stroke-width="1.16667" stroke-miterlimit="10"/>
<path d="M13.877 14.5943C14.8991 13.482 16.5665 11.8136 18.4565 10.5586C20.7109 9.06052 22.8463 8.19376 24.4505 7.68272" stroke="black" stroke-width="1.16667" stroke-miterlimit="10"/>
<path d="M22.1582 13.5647L29.0377 10.2429" stroke="black" stroke-width="1.16667" stroke-miterlimit="10"/>
<path d="M10.1956 18.3795C10.1956 18.2567 10.1399 16.19 10.1399 16.19C11.6782 15.2932 15.2634 13.482 20.1694 13.482C25.3562 13.482 28.9339 15.5061 30.4469 16.4355V18.7327C29.488 17.891 25.9027 15.2306 20.2251 15.1229C14.9295 15.0201 11.2709 17.5728 10.1956 18.377V18.3795Z" stroke="black" stroke-width="1.16667" stroke-miterlimit="10"/>
<path d="M10.3525 15.9745C10.5803 15.0226 11.7694 13.1889 12.6271 11.8336C14.1326 9.44875 16.9461 7.73026 18.0214 7.15158" stroke="black" stroke-width="1.16667" stroke-miterlimit="10"/>
<path d="M30.2616 17.9827C31.2677 19.6679 31.8452 21.6328 31.8452 23.73C31.8452 29.9741 26.734 35.0348 20.4277 35.0348C14.1213 35.0348 9.0127 29.9741 9.0127 23.73C9.0127 21.6802 9.56239 19.7603 10.5256 18.1025" stroke="black" stroke-width="1.16667" stroke-miterlimit="10"/>
<path d="M30.978 19.7243C31.0589 19.7193 31.1425 19.7168 31.226 19.7168C33.4837 19.7168 35.3133 21.4634 35.3133 23.6186C35.3133 25.7738 33.4837 27.5203 31.226 27.5203" stroke="black" stroke-width="1.16667" stroke-miterlimit="10"/>
<path d="M9.66013 27.5203C7.52848 27.4106 5.8335 25.7078 5.8335 23.6211C5.8335 21.5343 7.64475 19.7168 9.87975 19.7168" stroke="black" stroke-width="1.16667" stroke-miterlimit="10"/>
<circle cx="18.0834" cy="22.1666" r="1.16667" fill="black"/>
<circle cx="22.7502" cy="22.1666" r="1.16667" fill="black"/>
</svg>
