<svg width="49" height="39" viewBox="0 0 49 39" fill="none" xmlns="http://www.w3.org/2000/svg">
<path d="M41.4087 4.39133C32.9962 1.77887 23.0844 0.501048 14.7784 4.36187C5.52428 8.66397 0.643078 20.1488 1.28603 29.545C1.52225 32.9986 2.1231 36.7591 6.3925 36.5417C11.8083 36.266 16.9573 34.9366 21.3814 31.8614C31.0297 25.1552 36.1634 14.149 47.715 9.70159C48.114 9.54699 48.2715 8.9785 48.0659 8.64416C46.5725 6.20664 44.1084 5.2913 41.4087 4.39133C40.4119 4.06 39.8995 5.54939 40.8916 5.88053C43.1079 6.61925 45.3635 7.34417 46.61 9.37832C46.727 9.02584 46.8439 8.67337 46.9609 8.32089C38.6814 11.5085 33.2616 18.0111 27.4922 24.1967C24.5494 27.3523 21.3512 30.4751 17.376 32.4338C14.9879 33.6114 12.4283 34.2369 9.78912 34.608C8.26134 34.823 4.99524 35.4011 3.98531 34.1438C3.38985 33.4036 3.12808 31.3571 3.00448 30.3931C1.81023 21.0828 7.01332 9.23197 16.3822 5.36948C24.1331 2.17358 33.1813 3.48531 40.8916 5.879C41.8943 6.19217 42.4098 4.70291 41.4087 4.39133Z" fill="black"/>
<path d="M42.1359 6.99159C32.866 6.44361 23.4057 9.03029 16.2174 14.8303C10.1266 19.7445 4.43571 26.7684 3.28152 34.4447C3.13167 35.4408 4.77199 35.4983 4.91991 34.5082C6.00863 27.2737 11.5958 20.595 17.3167 15.9805C24.1739 10.448 33.2183 8.03213 42.0505 8.55547C43.1054 8.61477 43.1891 7.05389 42.1359 6.99159Z" fill="black"/>
<path d="M26.2213 2.12306C22.518 4.29205 20.0895 8.85556 19.446 12.8621C19.2873 13.8535 20.921 13.9109 21.0777 12.9255C21.6276 9.50197 23.8147 5.34918 26.9741 3.49973C27.8686 2.97536 27.1257 1.59297 26.2213 2.12306Z" fill="black"/>
<path d="M11.3499 7.11889C9.46828 11.3572 8.63867 15.9206 10.2694 20.3234C10.6133 21.2504 12.1961 20.9118 11.8481 19.9709C10.302 15.7956 11.1058 11.6017 12.8851 7.59271C13.2949 6.66799 11.7578 6.20172 11.3499 7.11889Z" fill="black"/>
<path d="M27.8761 10.4098C31.6375 9.96374 36.522 11.4486 39.8797 12.988C40.8211 13.419 41.7314 12.0962 40.7822 11.6603C36.9822 9.91656 31.7981 8.36587 27.5206 8.87366C26.4708 8.9979 26.8311 10.5343 27.8761 10.4098Z" fill="black"/>
<path d="M7.5425 27.6094C13.5685 25.0142 20.7551 24.4137 27.1843 25.5728C28.2116 25.7588 28.7395 24.2535 27.7026 24.0671C20.8198 22.8251 13.2457 23.4321 6.78566 26.2132C5.8152 26.6305 6.57526 28.0269 7.5425 27.6094Z" fill="black"/>
<path d="M16.0077 17.3366C21.1547 15.7035 28.8521 16.9644 33.7922 18.7166C34.7853 19.0685 35.2989 17.5553 34.3105 17.2052C29.0536 15.3409 21.1056 14.0592 15.6517 15.7906C14.6509 16.1072 14.9953 17.6574 16.0077 17.3366Z" fill="black"/>
</svg>
