<svg width="42" height="42" viewBox="0 0 42 42" fill="none" xmlns="http://www.w3.org/2000/svg">
<rect width="42" height="42" rx="21" fill="#FFDBD0"/>
<g clip-path="url(#clip0_2359_949)">
<path d="M9.65989 26.4701C7.52824 26.3604 5.83325 24.6576 5.83325 22.5709C5.83325 20.4841 7.64451 18.6666 9.87951 18.6666" stroke="black" stroke-width="1.16667" stroke-miterlimit="10"/>
<path d="M32.8863 26.4701C35.0179 26.3604 36.7129 24.6576 36.7129 22.5709C36.7129 20.4841 34.9016 18.6666 32.6666 18.6666" stroke="black" stroke-width="1.16667" stroke-miterlimit="10"/>
<circle cx="18.6667" cy="24.5" r="1.16667" fill="black"/>
<circle cx="23.3334" cy="24.5" r="1.16667" fill="black"/>
<circle cx="21.0001" cy="23.3333" r="12.25" stroke="black" stroke-width="1.16667"/>
<path d="M24.5157 12.6029C22.4296 11.1107 17.6865 11.5455 14.8304 12.9008C14.4758 13.0686 12.9495 13.7928 12.8441 14.8352C12.8249 15.0283 12.765 15.6167 13.3952 15.8843C13.9079 16.1027 14.622 16.0028 14.7753 15.9842C15.2401 15.9189 15.5732 15.7698 15.8248 15.6553C16.407 15.3917 16.5915 15.1574 16.7617 15.196C16.9078 15.2307 16.8096 15.4117 16.9821 15.7206C17.0636 15.8684 17.1858 16.0867 17.4805 16.2132C17.9381 16.4115 18.748 16.3543 19.1913 16.1147C19.5459 15.9229 19.4285 15.7432 19.9077 15.4583C20.1282 15.3265 20.9323 15.0057 21.215 14.9977C21.6727 14.9883 22.1269 14.9416 22.7499 15.1666C23.6633 15.1974 22.7231 16.0281 23.6025 15.883C24.5681 15.7246 24.9946 15.1335 25.0928 14.9977C25.5912 14.3094 25.9564 13.8762 25.3502 13.349L24.5157 12.6029Z" fill="#010101" stroke="#010101" stroke-width="1.16667" stroke-miterlimit="10"/>
<path d="M17.4843 12.6029C19.5704 11.1107 24.3135 11.5455 27.1696 12.9008C27.5242 13.0686 29.0505 13.7928 29.1559 14.8352C29.1751 15.0283 29.235 15.6167 28.6048 15.8843C28.0921 16.1027 27.378 16.0028 27.2247 15.9842C26.7599 15.9189 26.4268 15.7698 26.1752 15.6553C25.593 15.3917 25.4085 15.1574 25.2383 15.196C25.0922 15.2307 25.1904 15.4117 25.0179 15.7206C24.9364 15.8684 24.8142 16.0867 24.5195 16.2132C24.0619 16.4115 23.252 16.3543 22.8087 16.1147C22.4541 15.9229 22.5715 15.7432 22.0923 15.4583C21.8718 15.3265 21.2828 14.8432 21.0001 14.8352C20.5424 14.8259 19.8731 15.4304 19.2501 15.6553C18.9201 15.6567 19.2769 16.0281 18.3975 15.883C17.4319 15.7246 17.0054 15.1335 16.9072 14.9977C16.4088 14.3094 16.0436 13.8762 16.6498 13.349L17.4843 12.6029Z" fill="#010101" stroke="#010101" stroke-width="1.16667" stroke-miterlimit="10"/>
<path d="M24.4999 11.6666C23.0798 13.5839 20.405 12.0712 18.0095 10.3067C17.7112 10.0881 16.4318 9.1442 16.3418 7.78566C16.3268 7.53407 16.2761 6.76892 16.8051 6.41844C17.2347 6.13389 17.8331 6.26402 17.9626 6.29004C18.3528 6.37506 18.6323 6.56939 18.8424 6.71687C19.3301 7.0604 19.4858 7.36577 19.6284 7.31546C19.7503 7.27035 19.6697 7.03438 19.8141 6.63185C19.8835 6.43926 19.9848 6.15471 20.2306 5.98988C20.6151 5.73136 21.2942 5.80597 21.6656 6.11827C21.9639 6.36639 21.8645 6.60235 22.2659 6.97365C22.4517 7.14542 22.6299 7.30678 22.8662 7.31719C23.2508 7.32934 23.3596 6.92681 23.8849 6.63358C23.9186 6.6145 24.6277 6.23105 25.3668 6.42017C26.1754 6.62664 26.5355 7.397 26.6162 7.57398C27.0364 8.471 26.8019 9.57796 26.2935 10.265L24.4999 11.6666Z" fill="#010101" stroke="#010101" stroke-width="1.16667" stroke-miterlimit="10"/>
<path d="M9.33325 18.6666C11.686 19.5586 15.5942 20.7503 20.5963 20.9656C25.9539 21.1971 30.1979 20.2101 32.6666 19.4617" stroke="black" stroke-width="1.16667" stroke-miterlimit="10"/>
<path d="M10.5 16.3333C12.6348 17.2672 16.1001 18.4661 20.525 18.644C25.3624 18.8396 28.6399 17.7669 30.9167 16.9166" stroke="black" stroke-width="1.16667" stroke-miterlimit="10"/>
</g>
<defs>
<clipPath id="clip0_2359_949">
<rect width="32.6667" height="32.6667" fill="white" transform="translate(4.66675 4.66666)"/>
</clipPath>
</defs>
</svg>
