<svg width="36" height="37" viewBox="0 0 36 37" fill="none" xmlns="http://www.w3.org/2000/svg">
<rect y="0.0629883" width="36" height="36" rx="18" fill="#ABF0D4"/>
<path d="M8.69116 10.7257V13.9401C10.0097 13.1972 13.2194 11.5997 17.2879 11.619C21.66 11.6405 24.8133 13.3561 26.0972 14.1506L26.1514 11.0435C26.1622 10.38 25.8933 9.74231 25.4032 9.28924C24.5465 8.49692 23.0415 7.33741 20.9573 6.64601C19.9402 6.30889 18.7843 6.08129 17.5004 6.06411C13.4558 6.00828 10.6321 8.05244 9.37213 9.19047C8.93623 9.58341 8.69116 10.1438 8.69116 10.7279V10.7257Z" stroke="black" stroke-miterlimit="10"/>
<path d="M11.8943 12.5724C12.7704 11.619 14.1996 10.189 15.8196 9.11321C17.7519 7.82917 19.5823 7.08623 20.9573 6.64819" stroke="black" stroke-miterlimit="10"/>
<path d="M18.9924 11.6899L24.8891 8.84265" stroke="black" stroke-miterlimit="10"/>
<path d="M8.73887 15.8168C8.73887 15.7116 8.69116 13.9402 8.69116 13.9402C10.0097 13.1715 13.0828 11.619 17.2879 11.619C21.7337 11.619 24.8003 13.354 26.0972 14.1506V16.1196C25.2752 15.3981 22.2022 13.1178 17.3356 13.0255C12.7965 12.9374 9.66057 15.1254 8.73887 15.8147V15.8168Z" stroke="black" stroke-miterlimit="10"/>
<path d="M8.87329 13.7555C9.06847 12.9396 10.0878 11.3678 10.823 10.2062C12.1133 8.162 14.5249 6.689 15.4466 6.19299" stroke="black" stroke-miterlimit="10"/>
<path d="M25.9385 15.4768C26.8008 16.9213 27.2958 18.6055 27.2958 20.403C27.2958 25.7551 22.9148 30.0929 17.5094 30.0929C12.1039 30.0929 7.7251 25.7551 7.7251 20.403C7.7251 18.6461 8.19626 17.0005 9.02189 15.5795" stroke="black" stroke-miterlimit="10"/>
<path d="M26.5525 16.9695C26.6218 16.9653 26.6934 16.9631 26.765 16.9631C28.7002 16.9631 30.2684 18.4602 30.2684 20.3075C30.2684 22.1548 28.7002 23.6518 26.765 23.6518" stroke="black" stroke-miterlimit="10"/>
<path d="M8.27997 23.6518C6.45284 23.5578 5 22.0983 5 20.3096C5 18.521 6.55251 16.9631 8.46822 16.9631" stroke="black" stroke-miterlimit="10"/>
<circle cx="15.5" cy="19.063" r="1" fill="black"/>
<circle cx="19.5" cy="19.063" r="1" fill="black"/>
</svg>
