<svg width="152" height="186" viewBox="0 0 152 186" fill="none" xmlns="http://www.w3.org/2000/svg">
<g clip-path="url(#clip0_1446_10184)">
<g clip-path="url(#clip1_1446_10184)">
<rect x="19.5" y="37" width="112" height="107" rx="15" fill="#FEA386"/>
<g clip-path="url(#clip2_1446_10184)">
<path d="M39.1937 90.7076L39.1937 90.7075C39.2713 83.6317 40.9256 75.9242 46.0019 70.6018C50.7173 65.6572 57.2374 63.187 63.4719 60.8249C64.2968 60.5124 65.1166 60.2018 65.9267 59.8875C66.9945 59.4384 67.7446 58.8851 68.2046 58.1715C68.6632 57.4599 68.8533 56.5579 68.7411 55.3716C68.5752 53.6869 67.8862 52.1727 66.8409 50.8406L66.6723 50.7648L66.727 50.6979C66.723 50.693 66.7191 50.6882 66.7151 50.6833C66.4826 50.3989 66.5589 50.0631 66.7392 49.8575C66.913 49.6593 67.2254 49.5317 67.5311 49.6695C67.5312 49.6695 67.5313 49.6696 67.5314 49.6696L39.1937 90.7076ZM39.1937 90.7076C39.1184 97.8587 40.2522 105.866 43.8832 112.191L43.8832 112.191C47.5792 118.621 54.6382 122.261 61.4499 124.369C75.2452 128.638 91.0284 126.925 103.078 118.757L102.938 118.55M39.1937 90.7076L102.938 118.55M102.938 118.55L103.078 118.757C108.898 114.812 113.359 109.281 114.951 102.314C116.583 95.1645 115.305 87.4965 112.46 80.834C109.593 74.1181 104.889 68.0664 98.6597 64.1268M102.938 118.55L98.6597 64.1268M98.6597 64.1268C95.5035 62.1291 91.9958 60.7028 88.3223 60.0053M98.6597 64.1268L70.5836 49.0299C70.5912 48.9863 70.5992 48.9425 70.6074 48.8987L70.8735 48.8389C70.8789 48.8116 70.8844 48.7842 70.89 48.7567M88.3223 60.0053C88.3223 60.0053 88.3224 60.0053 88.3224 60.0053L88.2755 60.2509L88.3221 60.0052C88.3222 60.0053 88.3222 60.0053 88.3223 60.0053ZM88.3223 60.0053C87.3819 59.8253 86.4253 59.7729 85.4915 59.7226L85.4734 59.7216C84.54 59.6712 83.6298 59.6222 82.7469 59.4559L82.7469 59.4559C82.2955 59.371 82.0043 59.1975 81.8104 58.9811C81.6141 58.7619 81.4986 58.4777 81.4371 58.1409C81.3754 57.8027 81.3706 57.4259 81.3851 57.0345C81.391 56.8739 81.4007 56.703 81.4104 56.5322C81.4232 56.3068 81.4361 56.0817 81.4401 55.8811L81.4401 55.8805C81.4659 54.4512 81.4917 53.0219 81.5183 51.5884L81.5858 51.5362L81.5198 51.507C81.5216 51.4111 81.5234 51.3151 81.5252 51.219C81.5318 50.9264 81.3307 50.729 81.1284 50.6442C80.9307 50.5615 80.6613 50.5546 80.4569 50.7154C80.4564 50.7158 80.456 50.7161 80.4555 50.7165L80.2001 50.9141L80.1932 50.911L80.1931 50.9195L78.3119 52.375L76.6398 53.6688C76.1536 53.1379 75.6674 52.6075 75.1815 52.0772C74.1304 50.9304 73.0802 49.7844 72.0321 48.6369L72.0447 48.576L71.9881 48.5887C71.9362 48.5318 71.8842 48.4749 71.8323 48.418C71.6561 48.2248 71.3997 48.1402 71.1625 48.1839C70.9146 48.2294 70.7043 48.4133 70.6452 48.7064C70.6451 48.7068 70.645 48.7072 70.6449 48.7076L70.89 48.7567M70.89 48.7567C70.9666 48.3743 71.4082 48.3239 71.6477 48.5866C71.6675 48.6083 71.6873 48.6301 71.7072 48.6518L70.89 48.7567ZM70.4416 50.9797C70.5265 51.0179 70.6114 51.0562 70.6964 51.0944C70.6674 50.4822 70.7019 49.8833 70.7982 49.2644L70.4552 51.26C70.4492 51.1663 70.4447 51.0729 70.4416 50.9797ZM70.4416 50.9797C70.1335 50.841 69.8255 50.7023 69.5176 50.5636L69.5155 50.5627L69.5149 50.5624C68.8959 50.2837 68.2769 50.005 67.6568 49.726M70.4416 50.9797L67.6568 49.726M69.0615 51.8402C69.7913 53.2747 70.1859 54.867 70.1093 56.5139C70.0539 57.7385 69.6721 58.6767 69.0198 59.4216C68.3728 60.1605 67.4746 60.6922 66.4152 61.1351C66.37 61.1542 66.3247 61.1682 66.2799 61.1773C65.4848 61.4848 64.6793 61.789 63.8685 62.0953C60.8335 63.2416 57.7242 64.416 54.8124 65.8943C51.0848 67.7868 47.7066 70.166 45.2637 73.5909L69.0615 51.8402ZM69.0615 51.8402C69.5786 52.0731 70.0957 52.3059 70.6136 52.5389L70.6146 52.5459L70.6202 52.5419C70.726 52.5895 70.8318 52.6371 70.9376 52.6847C71.1659 52.7884 71.4188 52.7436 71.6006 52.6218C71.7867 52.497 71.9266 52.2708 71.885 51.9958C71.8688 51.8881 71.8545 51.781 71.8423 51.6743L71.8978 51.6349L71.8347 51.6066C71.7891 51.1826 71.7747 50.7658 71.7918 50.3493C72.0908 50.6756 72.3897 51.0017 72.6885 51.3278C73.8061 52.5472 74.9228 53.7657 76.037 54.9862C76.2313 55.2024 76.6215 55.3801 76.9629 55.113C76.9632 55.1128 76.9635 55.1125 76.9638 55.1123L77.5234 54.6793L77.5717 54.6868L77.5477 54.6606L79.1082 53.4531L80.1525 52.6451C80.1442 52.9214 80.1355 53.1984 80.1267 53.4757C80.0793 54.9666 80.0316 56.4693 80.0664 57.9557M69.0615 51.8402L81.6833 60.5919C81.6831 60.5918 81.6829 60.5918 81.6828 60.5917C81.0556 60.3691 80.6463 60.0148 80.398 59.5451C80.1553 59.0861 80.0791 58.5402 80.0664 57.9557M80.0664 57.9557C80.0664 57.9556 80.0664 57.9554 80.0664 57.9553L80.3164 57.9499L80.0664 57.9557ZM67.6568 49.726L67.5925 49.6468L67.5625 49.6836L67.6568 49.726ZM40.9809 97.6947C41.8262 104.691 43.8593 112.313 49.5575 116.852L49.4017 117.048L40.9809 97.6947ZM40.9809 97.6947C40.0041 89.5826 40.3924 80.4223 45.2637 73.5909L40.9809 97.6947ZM70.8566 52.3741C70.9179 52.4017 70.9793 52.4293 71.0407 52.4569L70.8566 52.3741Z" fill="white" stroke="white" stroke-width="0.5"/>
<path d="M78.657 70.6388L78.657 70.6387C78.6555 70.4106 78.7501 70.2373 78.8844 70.1199C78.8861 70.1152 78.8878 70.1105 78.8895 70.1059C78.9525 69.9374 79.087 69.8021 79.2816 69.7332L79.2822 69.733C88.4678 66.5123 98.8968 68.9173 105.004 76.7318C110.516 83.7831 111.138 94.5138 108.713 102.823C106.234 111.322 98.5755 116.756 90.2802 118.71L90.2801 118.71C87.8294 119.286 85.316 119.613 82.8032 119.726M78.657 70.6388L82.792 119.476M78.657 70.6388L78.8976 103.614M78.657 70.6388L78.8976 103.614M82.8032 119.726L82.792 119.476M82.8032 119.726C82.8033 119.726 82.8035 119.726 82.8037 119.726L82.792 119.476M82.8032 119.726C82.1514 119.756 81.477 119.775 80.8811 119.601C80.2661 119.421 79.7414 119.039 79.3871 118.301M82.792 119.476C81.4782 119.537 80.2568 119.535 79.6123 118.192M79.3871 118.301L79.6123 118.192M79.3871 118.301C79.1539 117.817 79.0578 117.291 79.0165 116.776C78.9862 116.398 78.9848 116.011 78.9835 115.646C78.9831 115.519 78.9827 115.395 78.981 115.274L78.981 115.273C78.9689 113.937 78.9614 112.608 78.9548 111.274M79.3871 118.301C79.387 118.3 79.3869 118.3 79.3869 118.3L79.6123 118.192M79.6123 118.192L78.9548 111.274M78.9548 111.274C78.9548 111.274 78.9548 111.274 78.9548 111.274L79.2048 111.272M78.9548 111.274L79.231 115.271C79.2189 113.935 79.2114 112.606 79.2048 111.272M78.9548 111.274C78.9548 111.274 78.9548 111.273 78.9548 111.273L79.2048 111.272M78.9548 111.274C78.9324 108.718 78.9145 106.169 78.8976 103.614M79.2048 111.272C79.1824 108.716 79.1644 106.167 79.1476 103.612L78.8976 103.614M79.365 69.9689C79.392 69.9594 79.419 69.95 79.446 69.9406L79.365 69.9689ZM79.365 69.9689C79.2059 70.0252 79.125 70.1398 79.1046 70.2657L79.365 69.9689ZM78.8976 103.614L78.8976 103.614M78.8976 103.614L78.8976 103.614M85.7729 118.378C87.9827 118.115 90.1702 117.693 92.2884 117.021C100.214 114.523 106.59 108.629 108.183 100.303C109.746 92.1389 108.94 82.5761 103.116 76.1819L79.9627 101.855L80.2127 101.853C80.2127 101.853 80.2127 101.853 80.2127 101.853C80.1762 96.6347 80.138 91.4176 80.0998 86.2006L80.0998 86.1974C80.0625 81.1006 80.0252 76.0038 79.9894 70.9061C88.0496 68.1767 97.1175 69.9656 102.931 76.3502L102.932 76.3503C108.679 82.661 109.494 92.128 107.937 100.256C106.365 108.473 100.071 114.306 92.2132 116.783L92.2129 116.783C90.113 117.448 87.9414 117.868 85.7433 118.13M85.7729 118.378L85.7438 118.13C85.7436 118.13 85.7435 118.13 85.7433 118.13M85.7729 118.378C85.6936 118.388 85.6141 118.397 85.5344 118.407C84.6012 118.517 83.6405 118.63 82.7015 118.626L85.7433 118.13M85.7729 118.378L85.7433 118.13" fill="white" stroke="white" stroke-width="0.5"/>
<path d="M74.1418 116.82L74.1418 116.818C74.2897 111.385 74.4362 105.952 74.5827 100.519L74.5831 100.503C74.7298 95.0651 74.8764 89.6269 75.0244 84.1889L75.0286 84.0364C75.0998 81.4226 75.171 78.8088 75.2412 76.2004L75.2412 76.1999C75.2546 75.6688 75.2697 75.1366 75.2849 74.6039C75.3077 73.8036 75.3306 73.0022 75.3474 72.2013C75.35 72.0824 75.354 71.9594 75.3581 71.8337C75.3701 71.4682 75.3828 71.0796 75.365 70.6986C75.341 70.182 75.261 69.6528 75.0383 69.161C74.7661 68.5545 74.3717 68.1725 73.8846 67.9434C73.4074 67.719 72.8576 67.6492 72.2854 67.6311C69.621 67.5382 66.862 67.8617 64.266 68.3742L64.2658 68.3743C55.9169 70.0287 48.0256 75.1458 45.2313 83.5514C42.4875 91.7966 42.7359 102.597 48.0169 109.855C53.8476 117.875 64.2032 120.615 73.4873 117.708C73.6848 117.647 73.8247 117.516 73.8907 117.346C73.8929 117.341 73.895 117.335 73.897 117.329C74.0341 117.215 74.1339 117.045 74.1418 116.82ZM72.8065 116.518C64.6617 118.972 55.6309 116.872 50.0602 110.283C44.54 103.753 44.0587 94.3074 45.8889 86.2182L45.889 86.2181C47.7801 77.846 54.6072 72.178 62.7721 70.0877C64.908 69.5425 67.1004 69.2291 69.3051 69.0829L69.3061 69.0828C69.5066 69.0687 69.7078 69.0518 69.9087 69.035C70.6303 68.9746 71.3496 68.9144 72.0323 68.9797C73.0472 69.079 73.5083 69.3776 73.7427 69.7741C73.9943 70.1996 74.0289 70.7982 74.0264 71.6181L74.0264 71.6183C74.02 74.7598 73.9079 77.902 73.7958 81.0462C73.7418 82.5613 73.6878 84.0768 73.6455 85.5928L73.6455 85.593C73.504 90.8164 73.3622 96.0375 73.2205 101.259C73.0825 106.344 72.9444 111.43 72.8065 116.518ZM73.0397 116.446C73.0395 116.446 73.0393 116.446 73.0391 116.446L73.0587 116.44C73.0581 116.461 73.0576 116.481 73.057 116.501L73.0397 116.446Z" fill="white" stroke="white" stroke-width="0.5"/>
<path d="M85.8191 111.312C85.3488 110.593 83.4186 109.455 82.8979 110.546C82.9721 110.682 82.9885 110.845 82.9404 111.015C82.9404 111.015 82.9403 111.016 82.9403 111.016L85.8191 111.312ZM85.8191 111.312C86.3899 112.182 86.0573 114.104 85.2341 114.721L85.8191 111.312ZM82.8224 111.465C82.6239 112.28 82.4968 113.17 82.6867 113.912C82.8333 114.472 83.2144 114.77 83.6629 114.863C84.1236 114.958 84.6627 114.836 85.0843 114.521C85.4216 114.268 85.693 113.708 85.803 113.069C85.913 112.43 85.8452 111.808 85.6101 111.45L85.6098 111.449C85.5025 111.285 85.2851 111.073 85.0021 110.874C84.7219 110.677 84.3981 110.507 84.0927 110.416C83.7805 110.322 83.5285 110.322 83.359 110.405C83.2097 110.477 83.0634 110.645 83.0265 111.048L82.9337 111.04C82.8953 111.178 82.8577 111.321 82.8224 111.465ZM82.8224 111.465C82.938 111.366 83.0112 111.221 83.0266 111.047L82.9338 111.039L82.8224 111.465ZM81.6302 110.72L81.6301 110.72C81.4441 111.375 81.2037 112.54 81.2396 113.622C81.2575 114.162 81.3449 114.701 81.557 115.147C81.7722 115.601 82.1194 115.965 82.645 116.127C83.4209 116.366 84.3137 116.325 85.0848 116.03C85.8568 115.735 86.5298 115.176 86.825 114.362L86.8251 114.362C87.161 113.432 87.2753 112.517 87.0722 111.684C86.8675 110.844 86.3465 110.113 85.4623 109.551L85.4621 109.551C84.7986 109.13 83.9264 108.95 83.1823 109.123C82.8068 109.21 82.4567 109.389 82.188 109.68C81.995 109.889 81.8508 110.149 81.7674 110.459C81.7079 110.529 81.6601 110.615 81.6302 110.72Z" fill="white" stroke="white" stroke-width="0.5"/>
<path d="M86.147 108.36C85.1551 108.576 84.1132 108.298 83.2897 107.738C82.4665 107.178 81.8341 106.318 81.6884 105.337L86.147 108.36ZM86.147 108.36C86.9699 108.182 87.6023 107.66 87.8803 106.859C88.3041 105.657 88.5005 103.951 88.1265 102.688C88.1266 102.688 88.1266 102.688 88.1266 102.688L88.1241 102.689L86.147 108.36ZM81.7445 102.836C81.9309 101.974 82.3465 101.131 83.186 100.759L81.7445 102.836ZM81.7445 102.836C81.5567 103.704 81.5865 104.652 81.6884 105.337L81.7445 102.836ZM85.7525 102.275C86.2297 102.506 86.6368 102.827 86.8795 103.195C87.0543 103.856 87.0494 104.921 86.7704 105.778C86.6266 106.219 86.4184 106.578 86.151 106.801C85.8942 107.015 85.5671 107.117 85.134 107.023L85.1334 107.023C84.77 106.945 84.329 106.762 83.9424 106.509C83.5522 106.254 83.2484 105.947 83.1174 105.639C82.9731 105.288 82.9636 104.784 82.9616 104.346C82.9621 103.819 83.0019 103.205 83.1885 102.723C83.2807 102.485 83.4039 102.292 83.5637 102.156C83.7201 102.024 83.9244 101.935 84.2033 101.922L84.2035 101.922C84.6779 101.9 85.2417 102.029 85.7525 102.275ZM88.0055 102.454C87.5729 101.779 86.772 101.203 85.9106 100.866C85.0162 100.517 83.9933 100.401 83.186 100.759L88.0055 102.454Z" fill="white" stroke="white" stroke-width="0.5"/>
<path d="M83.3422 95.9366C83.1955 95.2793 83.09 94.6254 83.0424 93.9588L83.0424 93.9581C83.0328 93.8298 83.0188 93.6949 83.0041 93.554C82.9811 93.3322 82.9564 93.0954 82.9454 92.8456C82.9276 92.44 82.9549 92.1036 83.0576 91.9028L83.0583 91.9014C83.4003 91.2218 84.186 91.0417 85.1064 91.2059C86.0187 91.3686 86.9274 91.8538 87.3434 92.3141L87.3436 92.3142C87.8837 92.911 87.9031 93.471 87.8552 94.3136L87.8552 94.3149C87.8479 94.4545 87.8502 94.6238 87.8532 94.7974C87.8535 94.8169 87.8539 94.8365 87.8542 94.8562C87.8571 95.0151 87.86 95.1799 87.8579 95.3431C87.8556 95.5266 87.8469 95.7014 87.8258 95.8551C87.8044 96.0115 87.7722 96.13 87.7317 96.2094L87.7313 96.2102C87.5698 96.53 87.2966 96.7097 86.9332 96.7897C86.5611 96.8716 86.1047 96.8452 85.618 96.7482C84.7709 96.5793 83.894 96.2093 83.3422 95.9366ZM87.3034 98.1519C87.8466 98.0577 88.342 97.8257 88.6877 97.3799C89.0355 96.9325 89.1532 96.2826 89.1961 95.6773C89.225 95.2692 89.221 94.8412 89.2175 94.4768C89.2159 94.3012 89.2143 94.1404 89.2167 94.0037C89.2376 93.025 89.0944 92.1398 88.332 91.3839C87.6933 90.7499 86.6771 90.2055 85.6237 89.9494C84.5743 89.6943 83.4319 89.7129 82.5742 90.282C82.1047 90.5926 81.8345 91.0786 81.6908 91.6242C81.5476 92.1683 81.5246 92.7909 81.5628 93.4096C81.6343 94.5664 81.9243 95.7635 82.1043 96.5069C82.1166 96.5579 82.1285 96.6068 82.1397 96.6534C82.1861 96.8538 82.3061 97.0038 82.4767 97.0761C82.5552 97.1095 82.6369 97.1232 82.7168 97.1221C83.4083 97.4678 84.4931 97.9017 85.5712 98.0985C86.161 98.2063 86.763 98.2457 87.3034 98.1519Z" fill="white" stroke="white" stroke-width="0.5"/>
<path d="M91.2741 97.6079L91.2739 97.6081C90.8351 98.2039 90.4614 99.2989 90.3529 100.356C90.2983 100.889 90.309 101.429 90.421 101.905C90.5328 102.38 90.7509 102.813 91.1276 103.097L91.1279 103.098C91.7965 103.601 92.9215 104.035 94.0035 104.132C95.0754 104.227 96.2124 103.996 96.7612 103.031C97.2515 102.169 97.4328 100.923 97.3294 99.7349C97.2341 98.64 96.8918 97.5412 96.2689 96.8084C96.226 96.737 96.1665 96.6725 96.0916 96.618C96.0259 96.5566 95.9536 96.5113 95.8778 96.4825C94.3352 95.5954 92.2935 96.2265 91.2741 97.6079ZM93.5165 97.5573C94.1116 97.3216 94.7449 97.3247 95.248 97.6693C95.6037 98.0472 95.804 98.6509 95.8914 99.334C95.9804 100.03 95.9468 100.765 95.874 101.326C95.8082 101.825 95.6315 102.193 95.3686 102.426C95.1097 102.655 94.7355 102.781 94.2131 102.734C93.9 102.704 93.5341 102.66 93.1858 102.579C92.8337 102.497 92.5207 102.383 92.3005 102.225L92.3003 102.225C91.9037 101.941 91.7263 101.364 91.7318 100.665C91.7371 99.9776 91.9202 99.2535 92.1476 98.7808L92.1476 98.7806C92.3986 98.2581 92.9187 97.7939 93.5165 97.5573Z" fill="white" stroke="white" stroke-width="0.5"/>
<path d="M92.533 106.122C92.1723 106.136 91.8288 106.255 91.5395 106.512C90.5142 106.836 89.816 107.718 89.4489 108.715C89.0653 109.756 89.0227 110.971 89.3692 111.931C89.731 112.942 90.5368 113.565 91.4525 113.806C92.3638 114.045 93.393 113.911 94.2332 113.405C95.9553 112.37 96.684 110.05 95.7598 108.234C95.4462 107.616 94.6769 106.871 93.8463 106.454C93.4279 106.244 92.9722 106.105 92.533 106.122ZM92.2914 107.667C92.3559 107.628 92.4106 107.578 92.4541 107.52C92.4918 107.504 92.5415 107.494 92.6078 107.494C92.7383 107.493 92.9025 107.531 93.0825 107.599C93.4424 107.733 93.7924 107.958 93.9226 108.064L93.9226 108.064L93.9242 108.066C94.2707 108.344 94.5453 108.724 94.6916 109.139L94.6917 109.14C95.1241 110.361 94.4785 111.839 93.3046 112.388C92.0117 112.989 90.5969 112.238 90.526 110.821C90.4958 110.192 90.5791 109.491 90.8304 108.913C91.0464 108.417 91.3794 108.023 91.8654 107.824C91.8756 107.824 91.8857 107.824 91.896 107.824C92.0382 107.821 92.1761 107.769 92.2914 107.667Z" fill="white" stroke="white" stroke-width="0.5"/>
<path d="M100.97 104.017C100.777 104.018 100.614 104.092 100.503 104.22C99.0003 104.808 97.7707 106.113 97.4894 107.758L97.4894 107.758C97.3119 108.802 97.6519 109.566 98.2924 110.059C98.914 110.538 99.7902 110.74 100.666 110.754C101.596 110.769 102.326 110.342 102.828 109.706C103.326 109.076 103.602 108.243 103.652 107.417C103.701 106.593 103.526 105.749 103.089 105.105C102.644 104.45 101.937 104.014 100.971 104.017L100.97 104.017ZM99.1939 106.977C99.642 106.202 100.348 105.682 101.203 105.394C101.226 105.387 101.248 105.378 101.269 105.369C101.476 105.4 101.637 105.477 101.764 105.582C101.935 105.723 102.062 105.927 102.148 106.179C102.321 106.689 102.306 107.34 102.198 107.849C102.143 108.102 102.079 108.368 101.981 108.61C101.882 108.853 101.756 109.052 101.588 109.184L101.587 109.185C101.378 109.351 101.106 109.422 100.795 109.429C100.483 109.436 100.156 109.379 99.8567 109.312L99.8562 109.312C99.5249 109.239 99.2948 109.115 99.1388 108.969C98.9841 108.823 98.8908 108.645 98.8489 108.441C98.7633 108.025 98.8935 107.493 99.1936 106.978L99.1939 106.977Z" fill="white" stroke="white" stroke-width="0.5"/>
<path d="M87.1227 78.9138C85.1999 78.3537 82.8341 78.9282 82.1193 81.0637L82.1193 81.0637C81.5477 82.7712 82.0653 84.9626 83.4212 86.1887L83.4214 86.1889C85.1446 87.744 88.0716 87.6755 89.291 85.4849L89.291 85.4849C89.9064 84.3792 89.9958 83.0051 89.6436 81.787C89.2911 80.5679 88.4872 79.4753 87.2817 78.9619L87.2817 78.9619C87.2274 78.9388 87.1743 78.9231 87.1227 78.9138ZM84.8083 80.1812C85.4301 80.0003 86.1589 80.0332 86.8198 80.2236C87.6267 80.606 88.1878 81.4251 88.4105 82.3609C88.6412 83.3305 88.4966 84.3772 87.9343 85.1186C87.3731 85.8564 86.5405 86.0486 85.7237 85.8671C84.8981 85.6837 84.1187 85.1217 83.7203 84.3956L83.7203 84.3955C83.2352 83.5122 83.0744 82.371 83.4164 81.4398C83.6677 80.7596 84.1816 80.3634 84.8083 80.1812Z" fill="white" stroke="white" stroke-width="0.5"/>
<path d="M81.6747 72.1917C81.5927 72.3677 81.5252 72.5602 81.4742 72.7705L81.474 72.7712C81.4279 72.9638 81.4635 73.1435 81.5649 73.2842C81.5522 73.8416 81.6184 74.3699 81.8042 74.8409C82.127 75.6597 82.7962 76.2689 83.9281 76.567L83.9918 76.3252C85.9476 76.8424 88.7967 76.8929 89.5521 74.5558C90.2554 72.3756 88.8225 71.3058 86.881 70.9291M81.6747 72.1917L83.9279 76.5669C84.9266 76.831 86.1695 76.9812 87.2722 76.7558C88.3852 76.5283 89.3771 75.9099 89.79 74.6326L89.79 74.6325C90.1631 73.476 89.9782 72.5673 89.3966 71.9016C88.8305 71.2539 87.9228 70.8766 86.9286 70.6837L86.881 70.9291M81.6747 72.1917C81.6805 72.1564 81.6866 72.1211 81.6928 72.0858M81.6747 72.1917L81.6928 72.0858M86.881 70.9291C85.4281 70.647 83.5181 70.5602 82.4426 71.5522L86.9286 70.6837M86.881 70.9291L86.9286 70.6837M86.9286 70.6837C85.9612 70.4959 84.769 70.3875 83.7354 70.6329C83.0771 70.7893 82.4748 71.0928 82.0417 71.6111C82.0257 71.6188 82.0099 71.6272 81.9943 71.6364C81.8399 71.7275 81.7284 71.8823 81.6928 72.0858M86.9286 70.6837L81.6928 72.0858M83.0859 74.2935C82.9018 73.8657 82.8813 73.3164 82.9715 72.6466C83.1904 72.3396 83.5706 72.1021 84.0728 71.9482C84.7636 71.7367 85.627 71.7051 86.4248 71.8511C87.228 71.998 87.9215 72.3165 88.3092 72.7631C88.4994 72.9823 88.6151 73.2307 88.6407 73.5102C88.6664 73.7908 88.603 74.1226 88.4013 74.5094C88.0699 75.1413 87.4634 75.4312 86.7422 75.5209C86.017 75.6111 85.2125 75.4921 84.5619 75.3377L84.5616 75.3377C83.716 75.1379 83.2898 74.7669 83.0859 74.2935Z" fill="white" stroke="white" stroke-width="0.5"/>
<path d="M91.7897 87.4307C91.8291 87.1914 91.8675 86.9554 91.8973 86.7312C93.1232 86.3314 94.6821 86.2073 95.8721 86.4854C96.6311 86.6645 97.0362 87.3442 97.2005 88.2506C97.3635 89.15 97.2687 90.189 97.0988 90.9114C97.0334 91.1873 96.9358 91.3736 96.823 91.5022C96.7113 91.6295 96.5733 91.7135 96.4049 91.7678C96.0505 91.8821 95.5912 91.8591 95.0222 91.8215L95.0217 91.8214C94.3162 91.7763 93.6005 91.6926 92.948 91.4893L92.9477 91.4892C92.4358 91.3302 92.1149 91.0716 91.9119 90.7592C91.7055 90.4415 91.6074 90.047 91.5815 89.5971C91.5557 89.147 91.6031 88.6581 91.674 88.1634C91.7069 87.9334 91.7445 87.7051 91.7816 87.4799C91.7843 87.4635 91.787 87.4471 91.7897 87.4307ZM90.5305 86.5496C90.5383 86.5706 90.5473 86.5915 90.5572 86.612C90.5276 86.8259 90.4924 87.0503 90.456 87.2816C90.3243 88.12 90.1783 89.0491 90.2362 89.8928C90.2748 90.4565 90.4042 91.0047 90.6988 91.4846C90.9957 91.9679 91.4502 92.3651 92.1096 92.6397C92.8019 92.9291 94.0237 93.2472 95.2009 93.2962C95.7903 93.3208 96.3825 93.2786 96.8973 93.1226C97.4132 92.9663 97.8692 92.6897 98.1515 92.2341L98.1518 92.2337C98.4277 91.7866 98.4995 91.1913 98.5154 90.6378C98.5235 90.3562 98.5171 90.0731 98.5106 89.8113L98.5098 89.7777C98.5036 89.5263 98.4979 89.2985 98.5041 89.1003C98.5063 89.0395 98.5088 88.9772 98.5113 88.9138C98.5282 88.4851 98.5473 88.0032 98.4958 87.538C98.4361 86.9999 98.2799 86.455 97.8967 86.0067C97.4861 85.524 96.9387 85.3083 96.3861 85.206C95.9452 85.1243 95.4772 85.1117 95.0563 85.1003C94.9573 85.0976 94.8609 85.095 94.7681 85.0916L94.768 85.0916C93.44 85.0437 92.1527 85.1407 90.8909 85.6778L90.8909 85.6778L90.89 85.6783C90.4903 85.8504 90.4222 86.2607 90.5305 86.5496Z" fill="white" stroke="white" stroke-width="0.5"/>
<path d="M91.6373 82.4455C92.2565 83.0552 93.3576 83.4308 94.4174 83.488C95.4718 83.5449 96.5931 83.2908 97.1922 82.511L97.1924 82.5108C97.7502 81.7829 97.9703 80.7072 97.9137 79.6824C97.8612 78.73 97.5667 77.7666 97.02 77.1181C96.9835 77.0628 96.937 77.0113 96.8806 76.9654C96.8357 76.921 96.7875 76.8844 96.7368 76.8558C96.0211 76.3293 95.1313 75.9387 94.2558 75.8788C93.3139 75.8144 92.3856 76.1354 91.7466 77.0721L91.7464 77.0725C91.2744 77.7671 90.9071 78.7585 90.8212 79.7426C90.7356 80.7237 90.9271 81.7461 91.6373 82.4455ZM91.6373 82.4455L91.8128 82.2674M91.6373 82.4455L91.8128 82.2674M91.8128 82.2674C90.5406 81.0146 91.0581 78.53 91.9532 77.213L97.0886 77.646C97.8769 78.9657 97.8875 81.1928 96.994 82.3587C95.9463 83.7222 92.9339 83.3714 91.8128 82.2674ZM96.0203 78.0032C96.0219 78.0045 96.0236 78.0057 96.0252 78.0069C96.3355 78.3517 96.5128 78.9436 96.5507 79.6059C96.5896 80.2837 96.4786 80.9734 96.2736 81.4295C96.1528 81.6974 95.9091 81.8937 95.5677 82.0156C95.2249 82.138 94.8012 82.1779 94.3645 82.1404C93.9288 82.1031 93.4948 81.9901 93.1354 81.8203C92.772 81.6486 92.5088 81.4306 92.3794 81.1987C92.1542 80.7931 92.1055 80.2597 92.1798 79.6988C92.2537 79.1412 92.4457 78.5855 92.6664 78.1605L92.6666 78.1602C93.0289 77.4598 93.5724 77.2153 94.1615 77.233C94.7725 77.2514 95.4499 77.5554 96.0173 78.0009L96.0172 78.0009L96.0203 78.0032Z" fill="white" stroke="white" stroke-width="0.5"/>
<path d="M102.277 80.251C101.616 80.0197 101.171 80.1275 100.886 80.3862C100.578 80.6661 100.39 81.1805 100.388 81.8724C100.388 81.8724 100.388 81.8725 100.388 81.8725L100.138 81.8718L102.277 80.251ZM102.277 80.251C102.285 80.2551 102.293 80.2591 102.3 80.263C102.3 80.2629 102.3 80.2628 102.3 80.2627L102.277 80.251ZM99.1498 80.7665L99.1497 80.7668C98.9988 81.3884 98.8955 82.274 98.9817 83.1129C99.0669 83.9411 99.3445 84.7908 100.022 85.2497C100.646 85.6737 101.616 85.9848 102.511 85.9804C103.406 85.9759 104.314 85.6487 104.65 84.6948L104.65 84.6947C105.337 82.7443 105.003 80.2406 103.017 79.1279C102.972 79.0965 102.923 79.0698 102.868 79.0486C102.817 79.0244 102.766 79.0068 102.716 78.9955C101.974 78.7517 101.22 78.7308 100.58 78.9909C99.8912 79.2711 99.37 79.8638 99.1498 80.7665Z" fill="white" stroke="white" stroke-width="0.5"/>
<path d="M104.619 97.39C104.626 97.3247 104.632 97.2612 104.638 97.1992C104.68 96.7803 104.715 96.4324 104.662 96.1206C104.606 95.7911 104.451 95.5047 104.042 95.2575L104.042 95.2571C103.609 94.9933 103.105 94.8079 102.605 94.7262L102.604 94.726C101.869 94.6035 101.245 94.7394 100.833 95.0672C100.43 95.3878 100.189 95.9256 100.28 96.7081L100.28 96.7083C100.31 96.9712 100.351 97.2306 100.392 97.4961C100.401 97.5536 100.41 97.6114 100.419 97.6696C100.469 97.9935 100.517 98.3262 100.542 98.6686C100.575 99.0853 100.621 99.3776 100.741 99.606C100.851 99.814 101.035 99.9928 101.398 100.147C101.891 100.273 102.495 100.387 103.037 100.349C103.613 100.308 104.06 100.102 104.271 99.6146L104.271 99.6143C104.402 99.3099 104.473 98.9442 104.519 98.5523C104.547 98.3168 104.563 98.0925 104.58 97.87C104.592 97.7102 104.604 97.5513 104.619 97.39ZM104.619 97.39C104.619 97.3899 104.619 97.3898 104.619 97.3897L104.868 97.4139L104.619 97.39ZM102.97 93.4232C102.12 93.257 101.203 93.3315 100.449 93.698C99.6869 94.0686 99.0972 94.737 98.9328 95.7278L102.97 93.4232Z" fill="white" stroke="white" stroke-width="0.5"/>
<path d="M93.7229 71.1589C93.6292 71.0895 93.5207 71.0442 93.4139 71.0252C93.2602 70.9978 93.0873 71.0176 92.94 71.1093C92.7857 71.2052 92.6821 71.3664 92.6572 71.5719C92.6439 71.6818 92.6274 71.8015 92.6102 71.9262C92.5808 72.1388 92.5494 72.3662 92.5285 72.5853C92.4945 72.94 92.4826 73.3133 92.5447 73.6638C92.6656 74.3699 93.2489 74.6702 93.7094 74.9073C93.7334 74.9196 93.757 74.9318 93.7802 74.9439L93.8953 74.7219M93.7229 71.1589L93.2453 71.2655C93.0804 71.2802 92.9316 71.386 92.9054 71.6019C92.891 71.7209 92.874 71.8443 92.8565 71.9704C92.7816 72.5121 92.6995 73.1053 92.791 73.6209C92.8901 74.2015 93.3647 74.4473 93.8484 74.6976C93.864 74.7057 93.8797 74.7138 93.8953 74.7219M93.7229 71.1589C94.9099 71.0681 96.2173 71.3296 97.0697 72.3182L97.0702 72.3188C97.3962 72.6992 97.6699 73.2389 97.7716 73.7952C97.8734 74.3517 97.8078 74.9605 97.4009 75.4305M93.7229 71.1589L97.4009 75.4305M93.8953 74.7219C93.9734 74.7626 94.06 74.8094 94.1533 74.8599C95.0211 75.3293 96.477 76.1168 97.2119 75.2669M93.8953 74.7219L93.7798 74.9437C93.8524 74.9815 93.9347 75.026 94.0249 75.0749C94.4117 75.2843 94.9435 75.5722 95.4734 75.7425C96.1166 75.9493 96.8872 76.0244 97.4009 75.4305M97.2119 75.2669L97.4009 75.4305M97.2119 75.2669L97.401 75.4304C97.4009 75.4305 97.4009 75.4305 97.4009 75.4305M97.2119 75.2669L97.4009 75.4305M93.9099 72.4886C94.4949 72.4487 95.0625 72.5077 95.5536 72.7865L95.555 72.7873C95.7952 72.9215 96.0797 73.1779 96.2728 73.4784C96.4682 73.7826 96.5403 74.0826 96.4541 74.3293L96.4538 74.3303C96.4326 74.3917 96.4052 74.4229 96.3797 74.4415C96.3524 74.4615 96.3109 74.4788 96.2461 74.4856C96.1084 74.5001 95.9142 74.4625 95.6815 74.3798C95.3383 74.2579 94.994 74.0713 94.7332 73.9299C94.6397 73.8792 94.5569 73.8344 94.4888 73.8004C94.223 73.6646 94.0761 73.5559 93.9914 73.4306C93.9118 73.3128 93.8652 73.1466 93.8844 72.8448L93.8844 72.8448L93.8845 72.843C93.8912 72.7253 93.8998 72.6072 93.9099 72.4886Z" fill="white" stroke="white" stroke-width="0.5"/>
<path d="M100.863 89.5856C100.865 89.5917 100.868 89.5978 100.871 89.6038C100.605 90.1243 100.63 90.6921 100.842 91.1922C101.109 91.8236 101.675 92.3582 102.341 92.5992L102.342 92.5996C102.956 92.8186 103.845 92.9823 104.672 92.9131C105.492 92.8445 106.326 92.5373 106.701 91.7371C106.986 91.1308 106.99 90.3206 106.773 89.6166C106.557 88.9138 106.098 88.2508 105.389 88.0115L105.388 88.0114C104.563 87.7348 103.402 87.8022 102.609 87.9286L102.609 87.9286L102.608 87.9287C101.881 88.0471 101.277 88.349 100.898 89.0421L100.898 89.0421L100.896 89.0446C100.799 89.2271 100.791 89.4184 100.863 89.5856ZM102.357 89.5338C102.35 89.4872 102.338 89.4427 102.321 89.4005C102.485 89.2921 102.713 89.2285 102.994 89.1995C103.326 89.1651 103.674 89.1839 103.983 89.2007C104.081 89.206 104.174 89.2111 104.262 89.2143C104.597 89.2262 104.835 89.2718 105.013 89.3702C105.18 89.4627 105.319 89.6165 105.423 89.9036C105.541 90.2322 105.621 90.6182 105.555 90.9025C105.507 91.1061 105.408 91.2409 105.278 91.3357C105.143 91.4343 104.962 91.4982 104.745 91.5318C104.305 91.5996 103.784 91.5338 103.369 91.4684L103.368 91.4684C103.017 91.4136 102.524 91.2065 102.229 90.9216C102.083 90.7813 102.007 90.6427 101.992 90.5145C101.979 90.3954 102.014 90.2402 102.189 90.0468C102.329 89.8953 102.384 89.7128 102.357 89.5338Z" fill="white" stroke="white" stroke-width="0.5"/>
<path d="M67.4661 72.4687C67.4595 72.4759 67.453 72.4832 67.4465 72.4905L67.4463 72.4908C67.3327 72.6195 67.2005 72.6874 67.0674 72.7105C66.5199 73.9992 66.7313 75.6434 67.9755 76.4235M67.4661 72.4687C67.1231 73.0663 66.973 73.7911 67.0547 74.4659C67.1408 75.1768 67.4811 75.8184 68.108 76.2116M67.4661 72.4687C67.486 72.434 67.5066 72.3997 67.5278 72.3659L70.9119 71.7373M67.4661 72.4687C67.805 72.0982 68.3834 71.8329 69.0208 71.731C69.6697 71.6273 70.3287 71.7013 70.791 71.9562M68.108 76.2116C68.1079 76.2115 68.1078 76.2115 68.1077 76.2114L67.9755 76.4235M68.108 76.2116C68.1081 76.2116 68.1082 76.2117 68.1083 76.2117L67.9755 76.4235M68.108 76.2116C68.9195 76.7174 69.9586 76.7145 70.5632 76.0155M67.9755 76.4235C68.8538 76.9712 70.0411 77.0013 70.7523 76.179M70.7523 76.179L70.5632 76.0155M70.7523 76.179C71.5149 75.2972 72.0515 72.3678 70.9119 71.7373M70.7523 76.179L70.5633 76.0155C70.5632 76.0155 70.5632 76.0155 70.5632 76.0155M70.5632 76.0155C70.724 75.8295 70.8878 75.5152 71.0227 75.1207C71.1561 74.7307 71.2549 74.2815 71.2965 73.8404C71.3384 73.3975 71.3213 72.976 71.233 72.6363C71.1441 72.2945 70.9926 72.0678 70.791 71.9562M70.9119 71.7373L70.7911 71.9563C70.7911 71.9562 70.7911 71.9562 70.791 71.9562M70.9119 71.7373L70.7908 71.9561C70.7909 71.9561 70.791 71.9562 70.791 71.9562M66.4212 71.6213C66.376 71.6731 66.3402 71.728 66.3136 71.7848C65.1927 73.6204 65.5091 76.1963 67.4427 77.3784L67.4429 77.3786C68.8287 78.2233 70.7332 78.085 71.7482 76.6791L71.7483 76.6789C72.0954 76.1973 72.2776 75.6387 72.389 75.0812C72.4746 74.6528 72.5209 74.2092 72.5642 73.7947C72.5768 73.6739 72.5891 73.5556 72.6021 73.4408C72.6061 73.406 72.6103 73.371 72.6144 73.336C72.6628 72.9254 72.7128 72.5019 72.646 72.1172C72.5689 71.6734 72.3397 71.2853 71.8421 70.9773L71.842 70.9772C71.0377 70.48 69.9992 70.2869 69.0129 70.389C68.0269 70.4911 67.0614 70.8918 66.4216 71.6208L66.4216 71.6208L66.4212 71.6213Z" fill="white" stroke="white" stroke-width="0.5"/>
<path d="M65.072 84.2064C64.8488 83.6122 64.7975 82.9268 64.8287 82.2589C64.8601 81.5886 64.9756 80.9192 65.0987 80.3488L65.0989 80.3479C65.3003 79.43 65.8647 78.7403 66.8157 78.485L65.072 84.2064ZM65.072 84.2064C65.103 84.2895 65.1462 84.3611 65.1988 84.4207C65.6526 85.0883 66.4748 85.6417 67.35 85.9522C68.2544 86.2731 69.2786 86.3566 70.0735 85.9771L70.0737 85.9769C70.9225 85.5704 71.3138 84.6858 71.4661 83.7906C71.6196 82.8885 71.5432 81.9117 71.3984 81.2138L71.3984 81.2137C71.1995 80.2564 70.5131 79.4514 69.6633 78.9496C68.8132 78.4477 67.7668 78.2293 66.8158 78.485L65.072 84.2064ZM66.303 83.6666C66.1929 83.3389 66.1669 82.975 66.1832 82.5889C66.1967 82.2707 66.2378 81.953 66.2789 81.635C66.2915 81.5372 66.3042 81.4394 66.316 81.3416L66.3161 81.341C66.3723 80.868 66.4661 80.4597 66.6608 80.1764C66.8396 79.9162 67.1199 79.7376 67.6323 79.755C69.1048 79.8113 70.088 80.812 70.1723 82.2123C70.1965 82.6654 70.1998 83.2971 70.0637 83.8359C69.9262 84.3804 69.6712 84.7481 69.2356 84.8338C68.757 84.9256 68.1439 84.831 67.5719 84.5941C67.0346 84.3716 66.5698 84.0386 66.303 83.6666Z" fill="white" stroke="white" stroke-width="0.5"/>
<path d="M65.4835 95.3641C64.7716 94.7266 64.5737 93.8968 64.5555 92.9682L65.3164 95.55M65.4835 95.3641L65.3161 95.5498C65.3162 95.5498 65.3163 95.5499 65.3164 95.55M65.4835 95.3641C66.7428 96.4995 69.3401 97.2562 70.8754 96.2473L65.4835 95.3641ZM65.3164 95.55C64.5304 94.8459 64.3244 93.9331 64.3055 92.9731L64.3055 92.9729C64.3031 92.8434 64.2968 92.6919 64.2899 92.5261C64.2746 92.1593 64.2563 91.7228 64.2711 91.3015C64.2924 90.6924 64.382 90.0352 64.6908 89.5761L64.691 89.5758C65.0106 89.102 65.4963 88.8431 66.0384 88.7247C66.5771 88.607 67.1858 88.6242 67.7851 88.7115C68.876 88.8705 69.986 89.2694 70.693 89.5906C70.775 89.5888 70.859 89.602 70.9398 89.6347C71.1092 89.7031 71.2369 89.8459 71.2944 90.0444L71.2951 90.0469L71.2951 90.0469C71.6874 91.4577 71.9212 92.8931 71.882 94.3765C71.8644 95.1215 71.7999 95.9394 71.0126 96.4563C70.1682 97.0111 69.0587 97.0667 68.0257 96.8547C66.9899 96.6421 65.9836 96.1514 65.3164 95.55ZM67.7806 90.0645C68.6498 90.2052 69.5598 90.5502 70.11 90.798C70.259 91.3404 70.4325 92.0067 70.5432 92.6761C70.6785 93.4939 70.7118 94.2725 70.5243 94.8238L70.5242 94.8242C70.4019 95.1856 70.1579 95.4005 69.8318 95.5169C69.4953 95.637 69.0681 95.6517 68.608 95.585C67.6814 95.4507 66.729 95.004 66.3221 94.6362L66.3218 94.6359C66.0287 94.3718 65.8721 94.1244 65.7814 93.8586C65.6881 93.5852 65.659 93.2781 65.6443 92.8786L65.6442 92.878C65.6406 92.7849 65.6352 92.6805 65.6293 92.5683C65.616 92.3107 65.6005 92.0116 65.599 91.7116C65.5968 91.2719 65.6268 90.892 65.7119 90.6818C65.8451 90.3546 66.1008 90.1646 66.4573 90.0707C66.8237 89.9741 67.2845 89.9841 67.7806 90.0645Z" fill="white" stroke="white" stroke-width="0.5"/>
<path d="M62.1102 89.4066L62.1107 89.4059C62.5267 88.7971 62.8663 87.6921 62.9427 86.6315C62.9812 86.0974 62.9544 85.5582 62.8282 85.0854C62.7023 84.6133 62.4713 84.187 62.086 83.9129C61.4059 83.4277 60.2627 83.0327 59.1743 82.9722C58.0968 82.9123 56.9616 83.179 56.4468 84.156L56.4467 84.1562C55.9884 85.0276 55.8481 86.2814 55.9895 87.4667C56.1201 88.5615 56.4979 89.6538 57.1484 90.3624C57.1929 90.43 57.2529 90.4902 57.327 90.5406C57.3965 90.6017 57.4722 90.6456 57.5509 90.6723C59.1194 91.5061 61.1303 90.8299 62.1102 89.4066ZM57.6907 84.9042C57.8862 84.6211 58.2028 84.4187 58.7334 84.3645C59.0024 84.3377 59.4432 84.3697 59.8819 84.4544C60.3282 84.5406 60.7166 84.6709 60.9079 84.8099L60.9079 84.8099L60.9094 84.811C61.3223 85.1064 61.5197 85.6488 61.5493 86.2963C61.5786 86.9377 61.439 87.6272 61.2414 88.1348C61.0254 88.687 60.5279 89.2121 59.9345 89.5028C59.3583 89.7849 58.728 89.8308 58.1925 89.5134C58.1922 89.5131 58.1918 89.5127 58.1914 89.5123L58.1911 89.5121C57.8035 89.1526 57.5886 88.6095 57.478 87.9883C57.368 87.3698 57.3669 86.7072 57.3801 86.1397L57.3801 86.1392C57.391 85.6165 57.4869 85.1994 57.6907 84.9042Z" fill="white" stroke="white" stroke-width="0.5"/>
<path d="M60.5933 79.5419C60.4891 79.6309 60.3625 79.6562 60.2042 79.6322C59.9852 79.599 59.7211 79.4696 59.4468 79.272C59.1767 79.0775 58.9169 78.8315 58.7089 78.5932C58.4966 78.3501 58.3551 78.1344 58.3029 78.0032L58.3029 78.0031C57.857 76.8838 58.3282 75.4892 59.3399 74.8311L59.3399 74.8311C59.9723 74.4195 60.709 74.3634 61.2973 74.6003C61.8784 74.8343 62.3288 75.3587 62.3977 76.154L62.3977 76.1549C62.4539 76.7772 62.3987 77.4817 62.1698 78.0716C61.9764 78.5698 61.6657 78.9732 61.201 79.1936C61.1836 79.1928 61.166 79.1926 61.1483 79.1933C60.9795 79.1995 60.8206 79.2764 60.7 79.421C60.6585 79.4566 60.6227 79.4971 60.5933 79.5419ZM60.5483 80.9316C60.9098 80.908 61.2506 80.7784 61.5316 80.5109C62.5438 80.15 63.2126 79.2515 63.548 78.2469C63.8987 77.1964 63.9026 75.9831 63.5278 75.0289C62.764 73.0826 60.372 72.6637 58.7492 73.6215L58.7489 73.6217C56.9753 74.6721 56.2422 77.0768 57.2552 78.9161L57.2553 78.9162C57.5852 79.5149 58.3792 80.2385 59.2236 80.6341C59.6488 80.8333 60.1094 80.9603 60.5483 80.9316Z" fill="white" stroke="white" stroke-width="0.5"/>
<path d="M53.8819 80.2967C53.4695 81.0828 52.7785 81.6374 51.9357 81.9541C51.9116 81.963 51.8885 81.9729 51.8663 81.9838C51.6226 81.9557 51.4397 81.8696 51.2997 81.7517C51.1152 81.5964 50.9839 81.3676 50.9008 81.0844C50.7327 80.5119 50.7812 79.7824 50.9098 79.2365C51.0527 78.6368 51.3252 78.2929 51.6733 78.1116C52.0315 77.925 52.5139 77.8871 53.1169 77.996C53.7822 78.1166 54.0763 78.4384 54.1729 78.8144C54.2768 79.2186 54.1697 79.7505 53.8821 80.2963L53.8819 80.2967ZM54.8143 77.3023C54.2522 76.8373 53.454 76.6291 52.6226 76.5879C51.6355 76.5374 50.8877 76.8495 50.3642 77.4259C49.8495 77.9928 49.5755 78.7888 49.4692 79.6685C49.3637 80.534 49.5176 81.4509 49.9612 82.1547C50.4116 82.8692 51.157 83.3543 52.1863 83.3297L52.1869 83.3297C52.3886 83.3244 52.5559 83.2411 52.6657 83.1017C54.139 82.4586 55.3147 81.1276 55.55 79.4805L55.55 79.4799C55.6872 78.5032 55.3929 77.7808 54.8143 77.3023Z" fill="white" stroke="white" stroke-width="0.5"/>
<path d="M66.743 107.887C65.5245 107.42 64.6831 106.349 64.2897 105.139C63.8964 103.929 63.9394 102.547 64.5272 101.428L66.743 107.887ZM66.743 107.887C66.781 107.902 66.8183 107.913 66.855 107.921L66.743 107.887ZM67.8277 100.924C68.6715 100.982 69.5211 101.438 70.0099 102.157C70.5505 102.954 70.8024 104.04 70.6132 104.976C70.4487 105.78 69.9683 106.273 69.3429 106.529C68.7291 106.781 67.9662 106.806 67.2242 106.638C66.426 106.31 65.8382 105.57 65.5545 104.694C65.2644 103.8 65.3048 102.801 65.731 102.024L65.731 102.024C66.1853 101.195 66.9923 100.865 67.8277 100.924ZM66.8833 107.929C67.8994 108.18 68.9921 108.137 69.9112 107.749C70.837 107.358 71.583 106.616 71.8782 105.492C72.3395 103.754 71.7022 101.594 70.2673 100.456L66.8833 107.929ZM70.2673 100.456C68.4738 99.0318 65.6573 99.2745 64.5272 101.428L70.2673 100.456Z" fill="white" stroke="white" stroke-width="0.5"/>
<path d="M72.5867 114.587L72.5866 114.588C72.5575 114.793 72.4506 114.951 72.2963 115.045C72.286 115.051 72.2757 115.057 72.2652 115.063C71.8467 115.599 71.2481 115.923 70.5899 116.1C69.5609 116.378 68.3633 116.309 67.3983 116.156L67.3981 116.156C66.3902 115.996 65.475 115.641 64.8934 115.007C64.2969 114.356 64.088 113.453 64.4181 112.298L72.5867 114.587ZM72.5867 114.587C72.5907 114.559 72.5945 114.531 72.5983 114.503M72.5867 114.587L72.5983 114.503M72.5983 114.503C72.6794 114.318 72.7442 114.116 72.7901 113.894L72.7901 113.894C72.8318 113.693 72.7857 113.509 72.6746 113.368C72.6681 112.818 72.5859 112.298 72.3891 111.838C72.0428 111.029 71.3576 110.439 70.2156 110.176L70.2153 110.176C69.2103 109.945 67.9614 109.836 66.8654 110.096C65.7593 110.359 64.7861 111.008 64.4181 112.298L72.5983 114.503ZM71.3026 114.097C71.0588 114.524 70.6183 114.756 70.0743 114.87C69.3542 115.022 68.5083 114.952 67.8649 114.867L67.864 114.867C67.3562 114.802 66.8291 114.718 66.3916 114.526L66.3913 114.526C65.8876 114.305 65.6658 113.892 65.6405 113.428C65.6146 112.951 65.7995 112.429 66.1135 112.054L66.1135 112.054C66.5283 111.557 67.109 111.333 67.7653 111.27C68.4251 111.207 69.1402 111.31 69.7884 111.449L69.7888 111.45C70.6305 111.629 71.0235 111.999 71.2062 112.461C71.3777 112.895 71.3803 113.447 71.3026 114.097Z" fill="white" stroke="white" stroke-width="0.5"/>
<path d="M62.9158 95.5099C62.6046 95.0358 62.1387 94.653 61.4717 94.4L61.4716 94.4C60.7666 94.1321 59.5357 93.8549 58.358 93.8442C57.7684 93.8388 57.1783 93.9 56.6687 94.0714C56.1583 94.2432 55.7109 94.5323 55.4412 94.9932C55.1732 95.4497 55.1206 96.0466 55.1238 96.5996C55.1254 96.8809 55.1419 97.1635 55.1576 97.4248L55.159 97.4492C55.1743 97.7041 55.1882 97.9353 55.1884 98.1368L55.4384 98.1366L55.1884 98.1366C55.1884 98.1997 55.1881 98.2643 55.1878 98.3302C55.1861 98.7574 55.1842 99.2369 55.2507 99.6978C55.3281 100.234 55.5012 100.773 55.896 101.21C56.2782 101.636 56.7613 101.834 57.2528 101.929C57.6856 102.012 58.1433 102.018 58.5564 102.024C58.6057 102.025 58.6544 102.025 58.7024 102.026L58.7025 102.026C60.1393 102.049 61.5531 101.946 62.9054 101.312L62.9067 101.311C63.2948 101.126 63.3593 100.717 63.2515 100.43C63.2421 100.404 63.2311 100.379 63.2186 100.355C63.2407 100.142 63.268 99.9184 63.2961 99.688C63.3983 98.8513 63.5115 97.924 63.4275 97.0877C63.371 96.5251 63.2248 95.9806 62.9158 95.5099ZM61.9676 99.5397C61.9369 99.7879 61.9066 100.034 61.8842 100.27L61.8826 100.285C60.7206 100.701 59.4625 100.743 58.1838 100.68C57.5118 100.647 57.1217 100.395 56.886 100.038C56.6394 99.6643 56.5385 99.1411 56.5311 98.531L56.5311 98.5299C56.5278 98.3339 56.5167 98.1118 56.5055 97.8894C56.4968 97.7144 56.488 97.5393 56.483 97.3768C56.4712 96.9866 56.4782 96.6181 56.5393 96.3023L56.5395 96.3016C56.633 95.81 56.8226 95.5874 57.0612 95.467C57.3267 95.333 57.6942 95.3021 58.2006 95.3002L58.201 95.3002C58.9755 95.296 59.7907 95.3473 60.5307 95.523C61.0835 95.6572 61.438 95.8998 61.6691 96.2002C61.9032 96.5046 62.0276 96.8905 62.0786 97.3375C62.1296 97.7853 62.1053 98.2786 62.0549 98.785C62.0301 99.0332 61.9995 99.2813 61.9691 99.5271L61.9676 99.5397Z" fill="white" stroke="white" stroke-width="0.5"/>
<path d="M57.0811 110.069C56.5096 109.429 56.177 108.429 56.1002 107.442C56.0176 106.382 56.2239 105.258 56.8333 104.539L56.8338 104.538L56.8338 104.538C57.4618 103.801 58.6073 103.554 59.6779 103.62C60.7517 103.687 61.8637 104.076 62.4567 104.747L62.4567 104.747C63.083 105.456 63.2608 106.443 63.1854 107.393C63.1098 108.345 62.7776 109.302 62.3306 109.992L57.0811 110.069ZM57.0811 110.069C57.1194 110.123 57.1676 110.173 57.2255 110.218C57.2699 110.259 57.3171 110.292 57.3663 110.318C58.086 110.817 58.9837 111.184 59.8592 111.226C60.7991 111.27 61.7202 110.937 62.3304 109.992L57.0811 110.069ZM57.5077 106.206C57.58 105.861 57.7021 105.587 57.8635 105.41C58.0477 105.209 58.3432 105.066 58.717 104.994C59.0883 104.923 59.5158 104.927 59.9348 104.999C60.354 105.071 60.7529 105.21 61.0694 105.399C61.3883 105.59 61.6034 105.819 61.694 106.063C61.856 106.5 61.8846 107.034 61.8093 107.574C61.7342 108.113 61.5582 108.64 61.3303 109.055C60.9829 109.684 60.454 109.903 59.8711 109.88C59.2757 109.857 58.6229 109.577 58.0891 109.188C57.9321 109.032 57.7865 108.778 57.6717 108.45C57.5556 108.119 57.4775 107.731 57.4474 107.336C57.4174 106.942 57.436 106.548 57.5077 106.206Z" fill="white" stroke="white" stroke-width="0.5"/>
<path d="M49.2101 102.746C48.5495 104.705 49.0162 107.238 51.0194 108.271C51.0635 108.3 51.1125 108.324 51.1661 108.342C51.216 108.365 51.2661 108.38 51.3158 108.39C52.0476 108.608 52.7899 108.617 53.4175 108.355C54.094 108.074 54.6049 107.492 54.8164 106.604C55.0026 105.838 54.9244 104.969 54.8575 104.225C54.8509 104.152 54.8444 104.08 54.8383 104.01L54.8382 104.008C54.7746 103.313 54.5744 102.617 53.9329 102.141L53.9329 102.141L53.9312 102.14C53.3044 101.683 52.2996 101.387 51.3795 101.412C50.4634 101.437 49.5304 101.791 49.2101 102.746ZM51.6669 107.096C50.4662 106.5 50.1733 105.177 50.3506 103.831L50.3507 103.83C50.4153 103.331 50.6246 103.092 50.8893 102.972C51.1787 102.841 51.5801 102.831 52.0573 102.903C52.3509 102.948 52.631 102.994 52.8712 103.09C53.1041 103.184 53.2787 103.318 53.3809 103.531C53.5018 103.787 53.5589 104.154 53.58 104.559C53.5971 104.886 53.5903 105.215 53.5843 105.505C53.583 105.571 53.5816 105.635 53.5807 105.696C53.5671 106.318 53.3627 106.755 53.0573 106.992C52.7572 107.225 52.3049 107.308 51.698 107.106L51.6974 107.106C51.6872 107.102 51.677 107.099 51.6669 107.096Z" fill="white" stroke="white" stroke-width="0.5"/>
<path d="M52.2634 85.9272C52.3197 85.9401 52.371 85.9581 52.4177 85.9803C52.8823 86.154 53.2563 86.3994 53.5377 86.7346C53.8231 87.0746 54.0004 87.492 54.0912 87.9857C54.0912 87.9859 54.0913 87.9861 54.0913 87.9864L53.8454 88.0315C53.9024 88.3317 53.9355 88.6321 53.9686 88.9325C54.0084 89.2937 54.0482 89.6549 54.1294 90.0151L52.2634 85.9272ZM52.2634 85.9272C51.7363 85.8062 51.0464 85.691 50.3682 85.7018C49.6962 85.7125 48.9956 85.8475 48.4859 86.2661L52.2634 85.9272Z" fill="white" stroke="white" stroke-width="0.5"/>
<path d="M61.6429 115.484L61.6428 115.485C61.6245 115.691 61.5255 115.855 61.3709 115.953C61.2241 116.046 61.0508 116.065 60.8979 116.038C60.7955 116.019 60.6907 115.977 60.5983 115.913C59.4114 116.05 58.0838 115.831 57.1969 114.86L57.1968 114.86C56.8596 114.49 56.5685 113.96 56.4502 113.407C56.3318 112.853 56.381 112.243 56.7798 111.761L56.7801 111.761L56.7801 111.761C57.2767 111.163 58.0492 111.217 58.6983 111.403C59.2353 111.558 59.7778 111.828 60.1726 112.025C60.2635 112.07 60.3466 112.111 60.42 112.146L61.6429 115.484ZM61.6429 115.484C61.6525 115.371 61.6651 115.247 61.6782 115.119C61.6998 114.907 61.7227 114.682 61.7363 114.466C61.7585 114.112 61.7593 113.74 61.6901 113.395M61.6429 115.484L61.6901 113.395M61.6901 113.395C61.5496 112.684 60.9584 112.403 60.4882 112.179C60.4652 112.168 60.4425 112.157 60.4201 112.146L61.6901 113.395Z" fill="white" stroke="white" stroke-width="0.5"/>
<path d="M51.3311 97.8426C51.3389 97.8887 51.3517 97.9328 51.3687 97.9747C51.2095 98.0892 50.9863 98.1653 50.7106 98.2094C50.301 98.275 49.8507 98.2582 49.501 98.2451C49.4865 98.2445 49.4721 98.244 49.458 98.2435C49.0899 98.2277 48.8559 98.2019 48.6786 98.1185C48.5201 98.044 48.3815 97.9099 48.2518 97.6031L48.2516 97.6027C48.1194 97.2914 48.0304 96.9044 48.0799 96.6103C48.1161 96.4037 48.2071 96.2661 48.3296 96.1676C48.4576 96.0646 48.6335 95.9941 48.8493 95.9525C49.2858 95.8683 49.8106 95.9148 50.2349 95.9615C50.583 96.0003 51.0895 96.1876 51.4022 96.4615C51.5565 96.5967 51.6405 96.7325 51.6609 96.8591C51.6797 96.9756 51.6521 97.13 51.484 97.3285C51.3494 97.4831 51.3014 97.6666 51.3311 97.8426ZM52.8134 97.7657C52.8086 97.7549 52.8035 97.7443 52.7982 97.7339C53.0342 97.2251 53.0043 96.6791 52.7993 96.1974C52.5365 95.5798 51.9854 95.0598 51.3283 94.8206L51.3275 94.8202C50.7028 94.5954 49.7895 94.452 48.9465 94.545C48.1115 94.6371 47.2667 94.9734 46.912 95.7879C46.6418 96.4037 46.6614 97.2138 46.8993 97.9111C47.1369 98.6072 47.6159 99.2555 48.3314 99.4758C49.1732 99.7372 50.316 99.6232 51.1116 99.4692C51.8207 99.3359 52.4421 99.0183 52.7928 98.3081L52.7931 98.3076C52.8843 98.1218 52.886 97.9307 52.8134 97.7657Z" fill="white" stroke="white" stroke-width="0.5"/>
</g>
</g>
<path fill-rule="evenodd" clip-rule="evenodd" d="M131.359 9.20742C131.041 6.16226 128.363 4.30854 124.28 4.04373C110.757 3.24928 102.91 13.4445 94.2927 21.283C90.4181 24.8385 85.6356 28.7033 80.109 31.9491C80.1315 31.6471 80.1136 31.4121 80.0024 31.2134C78.6767 28.83 74.0632 30.4717 73.5329 30.8958C73.3813 31.022 73.1837 31.3185 72.9916 31.7256C69.588 29.2922 60.6685 23.989 59.4811 22.5015C47.3909 7.45926 13.4008 13.0737 20.4534 27.4793C21.7409 31.9215 30.2626 38.0155 48.9569 38.452C47.3224 39.006 45.6636 39.7678 43.9712 40.8257C18.1742 56.9134 33.7075 64.5064 35.2373 63.2429C41.1401 65.0727 55.0785 57.3577 57.8374 54.6489C62.3641 50.1806 70.6247 42.3205 72.5101 36.093C72.6617 36.5726 72.908 37.0233 73.2779 37.4111C70.8976 41.4421 66.938 53.2115 62.3981 58.1177C60.0647 60.6865 49.1678 77.6081 46.8877 83.6457C40.6305 100.117 44.2363 108.644 46.5164 115.635C49.274 115.979 51.9515 116.244 52.4556 114.734C44.8728 88.0411 59.3754 74.9861 70.0076 55.6811C70.5645 54.6444 75.2543 43.8796 75.5851 38.575C76.092 38.6728 76.6043 38.6943 77.0914 38.642C77.5376 43.6868 85.114 58.0273 85.5974 59.177C100.498 95.4564 82.3629 107.479 93.8695 119.554C94.2937 121.064 99.5169 118.283 101.691 117.939C97.5943 106.989 100.731 81.8145 95.2256 65.6886C96.7897 66.8815 98.7376 68.2019 100.816 69.2396C101.86 69.7527 107.063 71.7895 110.603 71.6348C110.593 71.6394 110.583 71.6445 110.573 71.6495C112.907 72.0732 116.194 70.7229 117.255 67.0155C118.288 63.4141 117.148 57.5615 114.471 51.8415C109.274 40.8252 99.4112 39.2363 91.1391 37.4886C89.5488 37.1472 87.8637 36.7167 86.1084 36.1164C90.312 37.0678 96.0306 37.6589 102.752 36.853C115.664 35.2907 131.413 24.4066 131.281 12.5431C131.572 12.0662 131.546 11.007 131.36 9.2065L131.359 9.20742ZM24.0592 23.6659C24.0587 23.6622 24.0578 23.6585 24.0573 23.6548C32.4563 18.4117 49.9278 21.6153 56.6179 25.7045C64.5656 30.5699 68.7641 32.3653 72.5813 32.8362C72.505 33.1061 72.4407 33.3916 72.3933 33.6862C63.7237 33.5247 56.3991 34.7799 45.4825 33.9134C37.2104 33.2777 24.8817 29.7823 24.0596 23.6649L24.0592 23.6659ZM72.3093 34.7629C72.3093 34.7909 72.3102 34.8194 72.3111 34.8474C69.8316 35.8438 67.398 36.3018 64.9773 36.545C67.5919 35.9397 70.3265 35.2838 72.3093 34.7629ZM53.4096 52.0536C48.4583 55.8748 42.0445 59.4134 35.1026 59.5139C36.4297 53.6792 44.5162 44.551 54.7885 42.3875C60.0316 41.2879 64.6892 40.9001 67.9788 39.7724C60.3744 46.1601 55.1033 50.763 53.4096 52.0536ZM97.3421 43.7648C108.171 46.9486 116.552 61.9743 113.328 68.8931C107.958 69.6049 102.749 66.199 98.6939 62.9638C87.111 53.7278 80.8883 38.3809 79.9643 35.9613C79.9643 35.9608 79.9643 35.9599 79.9643 35.9594C82.243 41.4044 89.0621 41.3434 97.3421 43.7648ZM104.13 31.2391C96.0564 33.3314 88.5962 33.2273 83.7727 32.9978C91.3124 31.0238 102.758 22.6663 106.383 19.0047C108.716 16.648 117.359 10.3984 125.313 9.86877C125.652 9.8472 125.954 9.8238 126.232 9.80773C126.236 9.87428 126.239 9.92293 126.241 9.94817C126.957 16.648 118.844 27.3995 104.13 31.2391Z" fill="#87CB44"/>
<path d="M89.0744 173.872H70.4256C68.5337 173.872 67 175.442 67 177.379V180.955C67 182.892 68.5337 184.462 70.4256 184.462H89.0744C90.9663 184.462 92.5 182.892 92.5 180.955V177.379C92.5 175.442 90.9663 173.872 89.0744 173.872Z" fill="white" stroke="black" stroke-width="1.4" stroke-miterlimit="10"/>
<path d="M74.9656 146.184C74.9656 146.301 75.1027 146.362 75.1925 146.287C75.8148 145.768 76.6198 145.454 77.4973 145.454C79.4745 145.454 81.0767 147.041 81.0767 148.999C81.0767 149.087 81.1791 149.135 81.2468 149.079C81.8754 148.556 82.6852 148.242 83.5706 148.242C85.5698 148.242 87.1909 149.848 87.1909 151.828V152.305C87.1909 152.393 87.2933 152.441 87.361 152.385C87.9203 151.925 88.6434 151.652 89.4311 151.669C91.1499 151.706 92.5 153.151 92.5 154.855V162.663C92.5 163.373 92.3598 164.076 92.0888 164.733L89.9337 169.954C89.6627 170.611 89.5225 171.314 89.5225 172.024V173.872C89.513 173.872 89.5051 173.872 89.4957 173.872H70.4316V173.266C70.4316 171.901 69.9164 170.584 68.9869 169.576L60.5018 160.374C59.076 158.826 59.1847 156.428 60.7475 155.014C62.3103 153.602 64.7318 153.71 66.1591 155.258L67.6384 156.855C67.7266 156.95 67.8857 156.888 67.8857 156.76V138.044C67.8857 136.108 69.4706 134.538 71.4257 134.538C73.3808 134.538 74.9656 136.108 74.9656 138.044L74.9688 146.183L74.9656 146.184Z" fill="white" stroke="black" stroke-width="1.4" stroke-miterlimit="10"/>
</g>
<defs>
<clipPath id="clip0_1446_10184">
<rect width="151" height="186" fill="white" transform="translate(0.5)"/>
</clipPath>
<clipPath id="clip1_1446_10184">
<rect x="19.5" y="37" width="112" height="107" rx="15" fill="white"/>
</clipPath>
<clipPath id="clip2_1446_10184">
<rect width="91" height="86" fill="white" transform="translate(31.5 47)"/>
</clipPath>
</defs>
</svg>
