<svg width="228" height="150" viewBox="0 0 228 150" fill="none" xmlns="http://www.w3.org/2000/svg">
<mask id="path-1-outside-1_1449_10388" maskUnits="userSpaceOnUse" x="130.152" y="58.3928" width="94" height="88" fill="black">
<rect fill="white" x="130.152" y="58.3928" width="94" height="88"/>
<path d="M131.152 104.969C132.516 97.2557 133.716 89.5114 135.068 81.7946C136.129 75.738 137.293 69.6966 138.482 63.6614C138.694 62.5791 139.126 61.5029 139.664 60.5429C139.967 60.0018 140.708 59.372 141.225 59.3934C141.73 59.4148 142.51 60.1363 142.646 60.6805C143.338 63.4872 144.091 66.3091 144.409 69.1738C145.694 80.7582 146.843 92.3547 148.013 103.951C148.878 112.515 149.631 121.088 150.569 129.642C150.977 133.378 151.715 137.081 152.323 140.796C152.401 141.285 152.598 141.752 152.74 142.229C152.888 142.257 153.036 142.287 153.184 142.315C153.738 140.361 154.439 138.438 154.82 136.448C156.541 127.456 158.165 118.449 159.834 109.448C161.18 102.199 162.519 94.9504 163.91 87.7106C164.119 86.6222 164.497 85.546 164.954 84.5371C165.701 82.8891 167.14 82.7821 168.011 84.4331C168.997 86.3042 169.798 88.3068 170.43 90.3308C172.272 96.2467 173.98 102.206 175.764 108.14C175.949 108.757 176.309 109.32 176.777 110.311C177.409 109.308 177.963 108.623 178.308 107.843C179.393 105.382 180.379 102.878 181.449 100.411C181.873 99.4356 182.339 98.4603 182.931 97.5889C183.805 96.3048 185.096 96.2284 186.091 97.4361C186.79 98.286 187.334 99.2827 187.839 100.273C189.508 103.56 191.906 105.217 195.789 105.116C204.199 104.899 212.618 105.049 221.03 105.052C221.484 105.052 221.974 104.972 222.376 105.122C222.678 105.235 223.041 105.648 223.053 105.942C223.065 106.244 222.748 106.73 222.464 106.837C222.016 107.009 221.475 106.951 220.973 106.951C212.255 106.957 203.537 106.889 194.821 106.987C191.265 107.027 188.749 105.511 186.95 102.554C186.191 101.31 185.505 100.023 184.561 98.3533C183.799 100.001 183.17 101.291 182.599 102.612C181.752 104.569 180.987 106.562 180.113 108.504C179.72 109.378 179.227 110.228 178.646 110.986C177.364 112.659 175.668 112.601 174.857 110.674C173.66 107.828 172.698 104.875 171.773 101.921C170.3 97.219 168.945 92.477 167.518 87.7595C167.331 87.1358 167.004 86.558 166.553 85.5276C166.166 86.8545 165.81 87.7687 165.634 88.7165C163.92 98.0689 162.287 107.44 160.521 116.783C159.057 124.524 157.475 132.244 155.882 139.961C155.616 141.242 155.138 142.517 154.524 143.666C154.191 144.29 153.342 145.024 152.755 144.999C152.196 144.975 151.352 144.116 151.189 143.48C150.466 140.63 149.701 137.753 149.386 134.84C147.856 120.568 146.511 106.275 145.014 92.0001C144.1 83.2927 143.051 74.6006 142.029 65.9086C141.89 64.7254 141.539 63.5666 141.285 62.3957C141.134 62.3834 140.983 62.3682 140.828 62.3559C140.426 63.8816 139.912 65.3888 139.643 66.9389C138.113 75.8114 136.707 84.7083 135.128 93.5746C134.351 97.9405 133.45 102.285 132.546 106.626"/>
</mask>
<path d="M131.152 104.969C132.516 97.2557 133.716 89.5114 135.068 81.7946C136.129 75.738 137.293 69.6966 138.482 63.6614C138.694 62.5791 139.126 61.5029 139.664 60.5429C139.967 60.0018 140.708 59.372 141.225 59.3934C141.73 59.4148 142.51 60.1363 142.646 60.6805C143.338 63.4872 144.091 66.3091 144.409 69.1738C145.694 80.7582 146.843 92.3547 148.013 103.951C148.878 112.515 149.631 121.088 150.569 129.642C150.977 133.378 151.715 137.081 152.323 140.796C152.401 141.285 152.598 141.752 152.74 142.229C152.888 142.257 153.036 142.287 153.184 142.315C153.738 140.361 154.439 138.438 154.82 136.448C156.541 127.456 158.165 118.449 159.834 109.448C161.18 102.199 162.519 94.9504 163.91 87.7106C164.119 86.6222 164.497 85.546 164.954 84.5371C165.701 82.8891 167.14 82.7821 168.011 84.4331C168.997 86.3042 169.798 88.3068 170.43 90.3308C172.272 96.2467 173.98 102.206 175.764 108.14C175.949 108.757 176.309 109.32 176.777 110.311C177.409 109.308 177.963 108.623 178.308 107.843C179.393 105.382 180.379 102.878 181.449 100.411C181.873 99.4356 182.339 98.4603 182.931 97.5889C183.805 96.3048 185.096 96.2284 186.091 97.4361C186.79 98.286 187.334 99.2827 187.839 100.273C189.508 103.56 191.906 105.217 195.789 105.116C204.199 104.899 212.618 105.049 221.03 105.052C221.484 105.052 221.974 104.972 222.376 105.122C222.678 105.235 223.041 105.648 223.053 105.942C223.065 106.244 222.748 106.73 222.464 106.837C222.016 107.009 221.475 106.951 220.973 106.951C212.255 106.957 203.537 106.889 194.821 106.987C191.265 107.027 188.749 105.511 186.95 102.554C186.191 101.31 185.505 100.023 184.561 98.3533C183.799 100.001 183.17 101.291 182.599 102.612C181.752 104.569 180.987 106.562 180.113 108.504C179.72 109.378 179.227 110.228 178.646 110.986C177.364 112.659 175.668 112.601 174.857 110.674C173.66 107.828 172.698 104.875 171.773 101.921C170.3 97.219 168.945 92.477 167.518 87.7595C167.331 87.1358 167.004 86.558 166.553 85.5276C166.166 86.8545 165.81 87.7687 165.634 88.7165C163.92 98.0689 162.287 107.44 160.521 116.783C159.057 124.524 157.475 132.244 155.882 139.961C155.616 141.242 155.138 142.517 154.524 143.666C154.191 144.29 153.342 145.024 152.755 144.999C152.196 144.975 151.352 144.116 151.189 143.48C150.466 140.63 149.701 137.753 149.386 134.84C147.856 120.568 146.511 106.275 145.014 92.0001C144.1 83.2927 143.051 74.6006 142.029 65.9086C141.89 64.7254 141.539 63.5666 141.285 62.3957C141.134 62.3834 140.983 62.3682 140.828 62.3559C140.426 63.8816 139.912 65.3888 139.643 66.9389C138.113 75.8114 136.707 84.7083 135.128 93.5746C134.351 97.9405 133.45 102.285 132.546 106.626" fill="#87CB44"/>
<path d="M135.068 81.7946L134.28 81.6565L134.28 81.6566L135.068 81.7946ZM138.482 63.6614L139.267 63.816L139.267 63.815L138.482 63.6614ZM139.664 60.5429L140.362 60.9342L140.363 60.9332L139.664 60.5429ZM141.225 59.3934L141.259 58.5941L141.258 58.594L141.225 59.3934ZM142.646 60.6805L143.423 60.4889L143.422 60.4864L142.646 60.6805ZM144.409 69.1738L143.614 69.262L143.614 69.262L144.409 69.1738ZM148.013 103.951L147.218 104.032L147.218 104.032L148.013 103.951ZM150.569 129.642L151.364 129.555L151.364 129.555L150.569 129.642ZM152.323 140.796L153.112 140.669L153.112 140.666L152.323 140.796ZM152.74 142.229L151.973 142.458L152.113 142.927L152.594 143.016L152.74 142.229ZM153.184 142.315L153.038 143.102L153.755 143.235L153.954 142.533L153.184 142.315ZM154.82 136.448L155.606 136.598L155.606 136.598L154.82 136.448ZM159.834 109.448L159.048 109.302L159.048 109.303L159.834 109.448ZM163.91 87.7106L164.696 87.8615L164.696 87.8612L163.91 87.7106ZM164.954 84.5371L164.225 84.2068L164.225 84.2072L164.954 84.5371ZM168.011 84.4331L168.719 84.0602L168.719 84.0599L168.011 84.4331ZM170.43 90.3308L171.194 90.093L171.194 90.0923L170.43 90.3308ZM175.764 108.14L176.531 107.911L176.531 107.91L175.764 108.14ZM176.777 110.311L176.054 110.653L176.677 111.97L177.454 110.737L176.777 110.311ZM178.308 107.843L179.039 108.167L179.04 108.166L178.308 107.843ZM181.449 100.411L180.716 100.092L180.716 100.092L181.449 100.411ZM182.931 97.5889L182.27 97.1388L182.27 97.139L182.931 97.5889ZM186.091 97.4361L186.709 96.9281L186.709 96.9274L186.091 97.4361ZM187.839 100.273L188.552 99.911L188.552 99.9099L187.839 100.273ZM195.789 105.116L195.769 104.316H195.768L195.789 105.116ZM221.03 105.052L221.03 105.852H221.03V105.052ZM222.376 105.122L222.656 104.373L222.655 104.373L222.376 105.122ZM223.053 105.942L223.853 105.91L223.853 105.909L223.053 105.942ZM222.464 106.837L222.182 106.089L222.178 106.09L222.464 106.837ZM220.973 106.951V106.151L220.972 106.151L220.973 106.951ZM194.821 106.987L194.83 107.787H194.83L194.821 106.987ZM186.95 102.554L187.633 102.138L187.633 102.137L186.95 102.554ZM184.561 98.3533L185.258 97.9596L184.49 96.6013L183.835 98.0175L184.561 98.3533ZM182.599 102.612L183.333 102.93L182.599 102.612ZM180.113 108.504L179.383 108.175L179.383 108.176L180.113 108.504ZM178.646 110.986L179.281 111.473L179.281 111.473L178.646 110.986ZM174.857 110.674L174.12 110.985L174.12 110.985L174.857 110.674ZM171.773 101.921L171.009 102.16L171.009 102.16L171.773 101.921ZM167.518 87.7595L166.752 87.9898L166.752 87.9912L167.518 87.7595ZM166.553 85.5276L167.286 85.2071L166.403 83.1868L165.785 85.3036L166.553 85.5276ZM165.634 88.7165L164.847 88.5709L164.847 88.5722L165.634 88.7165ZM160.521 116.783L161.307 116.932L161.307 116.932L160.521 116.783ZM155.882 139.961L156.665 140.124L156.665 140.123L155.882 139.961ZM154.524 143.666L153.818 143.29L153.818 143.29L154.524 143.666ZM152.755 144.999L152.72 145.799L152.722 145.799L152.755 144.999ZM151.189 143.48L150.413 143.677L150.414 143.679L151.189 143.48ZM149.386 134.84L148.591 134.925L148.591 134.926L149.386 134.84ZM145.014 92.0001L145.809 91.9166L145.809 91.9166L145.014 92.0001ZM142.029 65.9086L141.234 66.002L141.234 66.002L142.029 65.9086ZM141.285 62.3957L142.067 62.2261L141.941 61.6461L141.35 61.5983L141.285 62.3957ZM140.828 62.3559L140.892 61.5584L140.225 61.5056L140.055 62.152L140.828 62.3559ZM139.643 66.9389L138.855 66.8021L138.855 66.8029L139.643 66.9389ZM135.128 93.5746L134.341 93.4344L134.341 93.4344L135.128 93.5746ZM131.94 105.109C132.622 101.247 133.264 97.3782 133.904 93.5138C134.543 89.6479 135.181 85.7866 135.856 81.9326L134.28 81.6566C133.603 85.5194 132.965 89.3886 132.325 93.2525C131.685 97.1178 131.045 100.978 130.364 104.83L131.94 105.109ZM135.856 81.9327C136.916 75.8844 138.079 69.8496 139.267 63.816L137.697 63.5069C136.508 69.5437 135.343 75.5915 134.28 81.6565L135.856 81.9327ZM139.267 63.815C139.459 62.8316 139.857 61.8353 140.362 60.9342L138.966 60.1517C138.395 61.1706 137.928 62.3267 137.697 63.5079L139.267 63.815ZM140.363 60.9332C140.453 60.7718 140.636 60.5579 140.853 60.3901C140.958 60.3089 141.053 60.2528 141.127 60.2204C141.206 60.1854 141.225 60.194 141.192 60.1927L141.258 58.594C140.709 58.5713 140.203 58.8701 139.875 59.1243C139.516 59.4012 139.178 59.7729 138.966 60.1527L140.363 60.9332ZM141.191 60.1926C141.15 60.1909 141.171 60.1826 141.26 60.2306C141.339 60.2735 141.436 60.3421 141.534 60.4318C141.632 60.521 141.717 60.6182 141.78 60.7086C141.846 60.8042 141.867 60.8625 141.87 60.8746L143.422 60.4864C143.299 59.9964 142.942 59.5503 142.613 59.2499C142.436 59.0886 142.235 58.9387 142.021 58.8234C141.818 58.7131 141.552 58.6065 141.259 58.5941L141.191 60.1926ZM141.869 60.8721C142.568 63.7033 143.303 66.4627 143.614 69.262L145.204 69.0857C144.879 66.1555 144.109 63.271 143.423 60.4889L141.869 60.8721ZM143.614 69.262C144.898 80.8414 146.047 92.4329 147.218 104.032L148.809 103.871C147.639 92.2766 146.49 80.6749 145.204 69.0856L143.614 69.262ZM147.218 104.032C148.081 112.579 148.836 121.173 149.773 129.729L151.364 129.555C150.427 121.003 149.676 112.451 148.809 103.871L147.218 104.032ZM149.773 129.729C150.185 133.493 150.931 137.247 151.533 140.925L153.112 140.666C152.498 136.915 151.769 133.263 151.364 129.555L149.773 129.729ZM151.533 140.922C151.582 141.227 151.665 141.512 151.746 141.763C151.835 142.038 151.904 142.226 151.973 142.458L153.507 142.001C153.434 141.756 153.333 141.472 153.269 141.271C153.196 141.046 153.142 140.853 153.112 140.669L151.533 140.922ZM152.594 143.016C152.663 143.029 152.734 143.043 152.808 143.057C152.882 143.072 152.96 143.087 153.038 143.102L153.331 141.528C153.261 141.516 153.191 141.502 153.116 141.487C153.043 141.473 152.965 141.457 152.886 141.443L152.594 143.016ZM153.954 142.533C154.485 140.659 155.217 138.631 155.606 136.598L154.035 136.298C153.662 138.245 152.991 140.064 152.415 142.097L153.954 142.533ZM155.606 136.598C157.327 127.604 158.953 118.59 160.621 109.594L159.048 109.303C157.377 118.309 155.755 127.309 154.035 136.298L155.606 136.598ZM160.621 109.594C161.967 102.344 163.306 95.0983 164.696 87.8615L163.125 87.5597C161.733 94.8025 160.393 102.054 159.048 109.302L160.621 109.594ZM164.696 87.8612C164.89 86.8499 165.245 85.8347 165.683 84.8669L164.225 84.2072C163.75 85.2572 163.348 86.3945 163.125 87.56L164.696 87.8612ZM165.682 84.8673C165.993 84.1816 166.336 84.0536 166.473 84.0471C166.598 84.0413 166.941 84.1204 167.303 84.8064L168.719 84.0599C168.21 83.0949 167.398 82.402 166.398 82.4489C165.412 82.4952 164.661 83.2446 164.225 84.2068L165.682 84.8673ZM167.303 84.806C168.263 86.628 169.047 88.5846 169.666 90.5692L171.194 90.0923C170.549 88.029 169.73 85.9805 168.719 84.0602L167.303 84.806ZM169.666 90.5685C171.507 96.4812 173.21 102.421 174.998 108.37L176.531 107.91C174.751 101.99 173.037 96.0123 171.194 90.093L169.666 90.5685ZM174.998 108.369C175.111 108.748 175.274 109.095 175.449 109.444C175.632 109.807 175.825 110.168 176.054 110.653L177.501 109.968C177.261 109.463 177.04 109.047 176.879 108.726C176.712 108.393 176.602 108.149 176.531 107.911L174.998 108.369ZM177.454 110.737C177.766 110.243 178.04 109.854 178.318 109.434C178.585 109.031 178.839 108.62 179.039 108.167L177.576 107.52C177.431 107.847 177.237 108.168 176.983 108.552C176.74 108.92 176.421 109.375 176.101 109.884L177.454 110.737ZM179.04 108.166C180.109 105.741 181.145 103.123 182.183 100.729L180.716 100.092C179.613 102.633 178.677 105.023 177.576 107.52L179.04 108.166ZM182.183 100.729C182.601 99.7665 183.043 98.8467 183.593 98.0389L182.27 97.139C181.634 98.0738 181.144 99.1046 180.716 100.092L182.183 100.729ZM183.593 98.039C183.935 97.5362 184.272 97.3891 184.507 97.377C184.739 97.3651 185.086 97.474 185.474 97.9447L186.709 96.9274C186.102 96.1904 185.306 95.7338 184.425 95.7791C183.547 95.8244 182.802 96.3575 182.27 97.1388L183.593 98.039ZM185.473 97.944C186.112 98.7218 186.624 99.6511 187.126 100.637L188.552 99.9099C188.044 98.9142 187.467 97.8502 186.709 96.9281L185.473 97.944ZM187.126 100.636C188.005 102.367 189.109 103.732 190.559 104.642C192.013 105.556 193.747 105.969 195.81 105.916L195.768 104.316C193.949 104.364 192.542 103.999 191.41 103.288C190.272 102.573 189.342 101.466 188.552 99.911L187.126 100.636ZM195.81 105.916C204.206 105.699 212.598 105.849 221.03 105.852L221.031 104.252C212.637 104.249 204.192 104.099 195.769 104.316L195.81 105.916ZM221.03 105.852C221.164 105.852 221.297 105.846 221.41 105.841C221.53 105.836 221.63 105.831 221.726 105.831C221.924 105.83 222.032 105.848 222.097 105.872L222.655 104.373C222.318 104.247 221.98 104.23 221.718 104.231C221.585 104.232 221.452 104.238 221.34 104.243C221.222 104.248 221.123 104.252 221.03 104.252V105.852ZM222.096 105.872C222.077 105.865 222.087 105.865 222.119 105.89C222.148 105.913 222.182 105.944 222.212 105.98C222.243 106.017 222.261 106.046 222.268 106.06C222.271 106.067 222.269 106.064 222.266 106.053C222.262 106.042 222.256 106.015 222.254 105.975L223.853 105.909C223.836 105.498 223.607 105.152 223.435 104.948C223.249 104.729 222.977 104.493 222.656 104.373L222.096 105.872ZM222.254 105.974C222.253 105.939 222.256 105.918 222.257 105.913C222.258 105.908 222.258 105.911 222.254 105.922C222.245 105.946 222.228 105.983 222.201 106.024C222.174 106.065 222.147 106.095 222.13 106.112C222.121 106.12 222.119 106.12 222.124 106.117C222.129 106.114 222.148 106.101 222.182 106.089L222.745 107.586C223.119 107.445 223.387 107.133 223.538 106.902C223.69 106.67 223.868 106.303 223.853 105.91L222.254 105.974ZM222.178 106.09C222.077 106.129 221.934 106.153 221.717 106.158C221.459 106.165 221.303 106.151 220.973 106.151V107.751C221.145 107.751 221.51 107.765 221.76 107.758C222.051 107.75 222.402 107.717 222.749 107.585L222.178 106.09ZM220.972 106.151C212.263 106.157 203.533 106.089 194.812 106.187L194.83 107.787C203.54 107.689 212.246 107.757 220.973 107.751L220.972 106.151ZM194.813 106.187C193.154 106.206 191.781 105.862 190.625 105.2C189.466 104.536 188.478 103.526 187.633 102.138L186.267 102.97C187.222 104.539 188.391 105.765 189.829 106.588C191.27 107.413 192.932 107.808 194.83 107.787L194.813 106.187ZM187.633 102.137C186.883 100.908 186.214 99.6516 185.258 97.9596L183.865 98.7469C184.795 100.394 185.499 101.712 186.267 102.971L187.633 102.137ZM183.835 98.0175C183.082 99.6455 182.441 100.962 181.864 102.294L183.333 102.93C183.899 101.621 184.516 100.357 185.287 98.689L183.835 98.0175ZM181.864 102.294C180.991 104.312 180.263 106.221 179.383 108.175L180.842 108.832C181.71 106.904 182.513 104.825 183.333 102.93L181.864 102.294ZM179.383 108.176C179.012 109 178.55 109.796 178.011 110.5L179.281 111.473C179.904 110.66 180.427 109.756 180.843 108.832L179.383 108.176ZM178.011 110.5C177.46 111.218 176.947 111.403 176.629 111.382C176.345 111.362 175.928 111.156 175.595 110.364L174.12 110.985C174.597 112.119 175.433 112.905 176.521 112.978C177.575 113.049 178.55 112.427 179.281 111.473L178.011 110.5ZM175.595 110.364C174.413 107.555 173.461 104.633 172.536 101.682L171.009 102.16C171.935 105.116 172.906 108.101 174.12 110.985L175.595 110.364ZM172.536 101.682C171.064 96.9818 169.717 92.2642 168.284 87.5278L166.752 87.9912C168.174 92.6898 169.536 97.4561 171.009 102.16L172.536 101.682ZM168.284 87.5292C168.174 87.1618 168.026 86.82 167.861 86.462C167.692 86.0938 167.508 85.714 167.286 85.2071L165.82 85.8482C166.049 86.3717 166.254 86.7959 166.407 87.1301C166.566 87.4746 166.675 87.7335 166.752 87.9898L168.284 87.5292ZM165.785 85.3036C165.425 86.5394 165.032 87.5734 164.847 88.5709L166.421 88.862C166.587 87.9639 166.908 87.1697 167.321 85.7517L165.785 85.3036ZM164.847 88.5722C163.131 97.9356 161.5 107.292 159.735 116.634L161.307 116.932C163.073 107.587 164.708 98.2022 166.421 88.8607L164.847 88.5722ZM159.735 116.634C158.272 124.368 156.692 132.082 155.098 139.799L156.665 140.123C158.259 132.406 159.842 124.68 161.307 116.932L159.735 116.634ZM155.099 139.798C154.849 140.999 154.399 142.202 153.818 143.29L155.23 144.043C155.877 142.832 156.382 141.485 156.665 140.124L155.099 139.798ZM153.818 143.29C153.713 143.487 153.497 143.745 153.239 143.948C153.114 144.047 152.999 144.117 152.905 144.159C152.804 144.204 152.769 144.199 152.788 144.2L152.722 145.799C153.311 145.823 153.864 145.493 154.23 145.204C154.628 144.89 155.002 144.469 155.23 144.043L153.818 143.29ZM152.79 144.2C152.831 144.202 152.803 144.21 152.702 144.151C152.61 144.097 152.499 144.012 152.385 143.9C152.14 143.657 151.995 143.405 151.963 143.281L150.414 143.679C150.545 144.19 150.904 144.686 151.261 145.038C151.449 145.224 151.664 145.397 151.893 145.531C152.112 145.659 152.399 145.785 152.72 145.799L152.79 144.2ZM151.964 143.283C151.237 140.415 150.489 137.599 150.182 134.754L148.591 134.926C148.913 137.908 149.695 140.846 150.413 143.677L151.964 143.283ZM150.182 134.754C148.651 120.474 147.308 106.213 145.809 91.9166L144.218 92.0835C145.713 106.337 147.062 120.662 148.591 134.925L150.182 134.754ZM145.809 91.9166C144.895 83.2028 143.845 74.5037 142.824 65.8152L141.234 66.002C142.257 74.6976 143.305 83.3826 144.218 92.0835L145.809 91.9166ZM142.824 65.8152C142.679 64.5838 142.302 63.3092 142.067 62.2261L140.503 62.5653C140.776 63.8241 141.101 64.867 141.234 66.002L142.824 65.8152ZM141.35 61.5983C141.279 61.5925 141.207 61.586 141.13 61.5791C141.054 61.5722 140.974 61.565 140.892 61.5584L140.765 63.1534C140.837 63.1591 140.909 63.1656 140.986 63.1725C141.061 63.1793 141.14 63.1866 141.221 63.1931L141.35 61.5983ZM140.055 62.152C139.673 63.6012 139.131 65.2094 138.855 66.8021L140.431 67.0758C140.693 65.5683 141.18 64.1619 141.602 62.5599L140.055 62.152ZM138.855 66.8029C137.321 75.6964 135.92 84.5647 134.341 93.4344L135.916 93.7148C137.494 84.8519 138.905 75.9263 140.431 67.0749L138.855 66.8029ZM134.341 93.4344C133.566 97.7871 132.667 102.121 131.763 106.463L133.329 106.79C134.233 102.449 135.136 98.0939 135.916 93.7148L134.341 93.4344Z" fill="#87CB44" mask="url(#path-1-outside-1_1449_10388)"/>
<path d="M112.359 63.2308C111.617 58.7697 109.201 45.0618 109.864 40.4805C110.397 36.807 112.073 33.6115 115.348 31.3058C116.673 30.3709 118.253 29.7607 119.723 29.0152C120.047 28.8528 120.398 28.7506 120.74 28.6184C120.305 27.6654 120.213 27.6324 119.273 27.8308C118.543 27.9871 117.893 27.8217 117.403 27.3137C116.959 26.8478 116.436 26.7215 115.761 26.8147C114.787 26.95 113.82 26.9349 113.08 26.2345C112.067 25.2756 112.116 23.8116 113.204 22.6182C113.413 22.3867 113.666 22.1883 113.894 21.9748C114.692 21.2263 114.544 20.2914 113.65 19.7082C112.791 19.1461 111.873 18.5749 111.244 17.8144C110.07 16.3955 110.951 14.4145 112.745 14.1559C113.345 14.0687 113.271 13.708 113.179 13.3292C112.874 12.0787 112.649 10.8251 113.071 9.5265C113.684 7.64467 116.044 6.7699 117.727 7.83707C118.161 8.11363 118.555 8.46835 118.873 8.85614C119.745 9.9173 119.726 9.93233 121.245 9.99847C121.396 9.18982 121.507 8.37215 121.704 7.56651C121.978 6.43922 122.456 5.3961 123.476 4.62954C124.949 3.52329 127.253 3.92911 128.131 5.42315C128.822 6.60456 129.105 7.88516 129.136 9.2289C129.148 9.74595 129.308 9.91129 129.881 9.83012C130.359 9.76399 130.852 9.83313 131.212 9.73994C132.115 9.09663 132.941 8.30001 133.936 7.84609C135.751 7.0164 137.769 8.23688 137.929 10.0856C138.04 11.3723 137.707 12.5988 137.257 13.8162C137.211 13.9425 137.174 14.0718 137.122 14.2401C137.285 14.2912 137.415 14.3423 137.547 14.3724C139.239 14.7481 140.021 16.5548 138.918 17.8715C138.293 18.617 137.402 19.2543 136.503 19.7142C135.014 20.4778 134.756 21.3255 135.837 22.4889C136.145 22.8226 136.41 23.2224 136.583 23.6342C137.341 25.4169 136.034 27.1093 133.951 27.0792C133.585 27.0732 133.212 26.95 132.855 26.9951C132.414 27.0522 131.884 27.1183 131.57 27.3708C130.843 27.957 130.088 28.1524 129.237 27.8698C128.695 27.6895 128.412 27.8338 128.298 28.2396C145.949 30.8189 142.397 45.9456 141.777 49.7814C141.183 53.476 135.852 83.45 134.645 90.8661" stroke="#87CB44" stroke-width="3" stroke-miterlimit="10"/>
<path d="M124.136 58.8239C127.47 52.804 131.607 48.756 137.916 47.3122C149.903 44.5677 161.196 53.2634 161.362 65.3838C161.505 75.8037 157.477 84.7172 151.107 92.7209C144.435 101.103 136.086 107.601 126.729 112.824C125.51 113.504 123.328 113.811 122.229 113.191C107.734 105.017 95.0763 94.8568 89.2904 78.7749C87.4476 73.6499 86.7667 67.7106 87.2297 62.2813C87.8833 54.5909 94.3621 48.7679 101.827 47.2793C109.898 45.6685 117.079 48.5531 121.772 55.3009C122.441 56.2644 123.083 57.2518 124.136 58.8239Z" fill="#FEA386"/>
<path d="M101.703 98.0111L101.703 98.0108C101.752 97.8172 101.801 97.6235 101.85 97.4297C102.582 94.5248 103.318 91.6016 104.224 88.7311M101.703 98.0111L101.479 109.393L101.964 109.513C102.626 106.821 103.485 101.508 104.152 96.9698C104.486 94.6961 104.772 92.6086 104.963 91.1289C105.058 90.3897 105.13 89.7993 105.171 89.4125C105.192 89.2218 105.206 89.0711 105.212 88.9755C105.213 88.951 105.214 88.9254 105.214 88.9011V88.9001C105.214 88.8849 105.215 88.8369 105.206 88.7843C105.203 88.7682 105.198 88.7402 105.186 88.7068C105.178 88.6809 105.153 88.6097 105.091 88.5378C105.019 88.4538 104.869 88.343 104.658 88.3651C104.484 88.3833 104.38 88.483 104.348 88.5171C104.279 88.5887 104.249 88.6649 104.246 88.6723C104.235 88.6967 104.228 88.7181 104.224 88.7311M101.703 98.0111C101.237 99.8631 100.793 101.699 100.349 103.532C99.8533 105.583 99.3579 107.631 98.8331 109.695L98.833 109.695C98.7648 109.964 98.6401 110.234 98.4806 110.532C98.4289 110.629 98.37 110.734 98.3086 110.844C98.2672 110.918 98.2247 110.994 98.1824 111.071L101.703 98.0111ZM104.224 88.7311L104.701 88.8816L104.224 88.7314C104.224 88.7313 104.224 88.7312 104.224 88.7311ZM96.6063 104.882C95.9234 101.028 95.2812 97.1665 94.6402 93.3013L94.5652 92.8495C93.9493 89.1356 93.3329 85.4188 92.6814 81.7081L92.1889 81.7946L92.6814 81.7081C91.6166 75.6462 90.4489 69.6008 89.2575 63.5646C89.0331 62.4206 88.5779 61.2946 88.0177 60.298M88.0177 60.298C88.0179 60.2982 88.018 60.2984 88.0181 60.2986L87.5819 60.5429L88.0177 60.298Z" fill="#87CB44" stroke="#87CB44"/>
<mask id="path-6-outside-2_1449_10388" maskUnits="userSpaceOnUse" x="93.6429" y="59.6517" width="44" height="87" fill="black">
<rect fill="white" x="93.6429" y="59.6517" width="44" height="87"/>
<path d="M136.188 89.5422C134.447 98.7574 132.796 107.991 131.007 117.197C129.524 124.825 127.921 132.431 126.307 140.035C126.037 141.297 125.553 142.553 124.931 143.686C124.594 144.3 123.733 145.023 123.139 144.999C122.572 144.975 121.717 144.129 121.552 143.502C120.82 140.694 120.044 137.86 119.726 134.989C118.176 120.926 116.812 106.843 115.296 92.7776C114.37 84.198 113.307 75.6334 112.272 67.0689C112.131 65.903 111.775 64.7613 111.518 63.6075C111.365 63.5955 111.212 63.5804 111.055 63.5684C110.648 65.0716 110.127 66.5568 109.854 68.0841C108.304 76.8264 106.879 85.5928 105.28 94.329C104.26 99.8992 103.031 105.43 101.855 110.97C101.702 111.693 101.358 112.395 101.009 113.058C100.136 114.718 98.6347 114.926 97.5225 113.407C96.7658 112.374 96.1377 111.148 95.8283 109.916C94.5047 104.665 94.3239 95.769 95.1144 98.8237C96.104 102.656 97.017 106.509 98.0158 110.337C98.1843 110.985 98.6133 111.57 98.9227 112.184C99.1218 112.184 99.321 112.184 99.5201 112.184C100.108 109.976 100.847 107.798 101.254 105.56C102.636 97.9591 103.852 90.3284 105.222 82.7249C106.297 76.7571 107.477 70.8044 108.681 64.8577C108.895 63.7913 109.333 62.7309 109.879 61.785C110.185 61.2517 110.936 60.6312 111.46 60.6523C111.971 60.6733 112.762 61.3843 112.9 61.9205C113.601 64.686 114.364 67.4665 114.686 70.2893C115.988 81.7036 117.152 93.1301 118.338 104.556C119.214 112.995 119.977 121.442 120.927 129.871C121.34 133.552 122.088 137.2 122.704 140.86C122.783 141.342 122.983 141.803 123.127 142.273C123.277 142.3 123.427 142.33 123.577 142.357C124.138 140.432 124.848 138.538 125.234 136.576C126.978 127.717 128.623 118.842 130.314 109.973C131.678 102.83 133.035 95.6877 134.444 88.5541"/>
</mask>
<path d="M136.188 89.5422C134.447 98.7574 132.796 107.991 131.007 117.197C129.524 124.825 127.921 132.431 126.307 140.035C126.037 141.297 125.553 142.553 124.931 143.686C124.594 144.3 123.733 145.023 123.139 144.999C122.572 144.975 121.717 144.129 121.552 143.502C120.82 140.694 120.044 137.86 119.726 134.989C118.176 120.926 116.812 106.843 115.296 92.7776C114.37 84.198 113.307 75.6334 112.272 67.0689C112.131 65.903 111.775 64.7613 111.518 63.6075C111.365 63.5955 111.212 63.5804 111.055 63.5684C110.648 65.0716 110.127 66.5568 109.854 68.0841C108.304 76.8264 106.879 85.5928 105.28 94.329C104.26 99.8992 103.031 105.43 101.855 110.97C101.702 111.693 101.358 112.395 101.009 113.058C100.136 114.718 98.6347 114.926 97.5225 113.407C96.7658 112.374 96.1377 111.148 95.8283 109.916C94.5047 104.665 94.3239 95.769 95.1144 98.8237C96.104 102.656 97.017 106.509 98.0158 110.337C98.1843 110.985 98.6133 111.57 98.9227 112.184C99.1218 112.184 99.321 112.184 99.5201 112.184C100.108 109.976 100.847 107.798 101.254 105.56C102.636 97.9591 103.852 90.3284 105.222 82.7249C106.297 76.7571 107.477 70.8044 108.681 64.8577C108.895 63.7913 109.333 62.7309 109.879 61.785C110.185 61.2517 110.936 60.6312 111.46 60.6523C111.971 60.6733 112.762 61.3843 112.9 61.9205C113.601 64.686 114.364 67.4665 114.686 70.2893C115.988 81.7036 117.152 93.1301 118.338 104.556C119.214 112.995 119.977 121.442 120.927 129.871C121.34 133.552 122.088 137.2 122.704 140.86C122.783 141.342 122.983 141.803 123.127 142.273C123.277 142.3 123.427 142.33 123.577 142.357C124.138 140.432 124.848 138.538 125.234 136.576C126.978 127.717 128.623 118.842 130.314 109.973C131.678 102.83 133.035 95.6877 134.444 88.5541" fill="#87CB44"/>
<path d="M131.007 117.197L131.792 117.35L131.792 117.35L131.007 117.197ZM126.307 140.035L127.089 140.202L127.089 140.201L126.307 140.035ZM124.931 143.686L124.23 143.301L124.23 143.301L124.931 143.686ZM123.139 144.999L123.105 145.799L123.106 145.799L123.139 144.999ZM121.552 143.502L120.778 143.704L120.778 143.706L121.552 143.502ZM119.726 134.989L118.931 135.076L118.931 135.077L119.726 134.989ZM115.296 92.7776L116.091 92.6918L116.091 92.6918L115.296 92.7776ZM112.272 67.0689L111.477 67.1649L111.477 67.1649L112.272 67.0689ZM111.518 63.6075L112.299 63.4334L112.17 62.8563L111.581 62.81L111.518 63.6075ZM111.055 63.5684L111.117 62.7707L110.456 62.7198L110.283 63.3591L111.055 63.5684ZM109.854 68.0841L109.067 67.9435L109.067 67.9444L109.854 68.0841ZM105.28 94.329L106.067 94.4732L106.067 94.4731L105.28 94.329ZM101.855 110.97L101.072 110.804L101.072 110.804L101.855 110.97ZM101.009 113.058L100.301 112.685L100.301 112.685L101.009 113.058ZM97.5225 113.407L96.8771 113.88L96.8772 113.88L97.5225 113.407ZM95.8283 109.916L96.6042 109.721L96.604 109.72L95.8283 109.916ZM95.1144 98.8237L95.889 98.6236L95.8889 98.6233L95.1144 98.8237ZM98.0158 110.337L98.79 110.136L98.7899 110.136L98.0158 110.337ZM98.9227 112.184L98.2082 112.544L98.4298 112.984H98.9227V112.184ZM99.5201 112.184V112.984H100.135L100.293 112.39L99.5201 112.184ZM101.254 105.56L102.041 105.703L102.041 105.703L101.254 105.56ZM105.222 82.7249L104.435 82.583L104.435 82.5831L105.222 82.7249ZM108.681 64.8577L109.465 65.0165L109.465 65.0154L108.681 64.8577ZM109.879 61.785L110.572 62.1845L110.572 62.1835L109.879 61.785ZM111.46 60.6523L111.493 59.8529L111.492 59.8529L111.46 60.6523ZM112.9 61.9205L113.675 61.7238L113.674 61.7213L112.9 61.9205ZM114.686 70.2893L113.891 70.3798L113.891 70.3799L114.686 70.2893ZM118.338 104.556L117.542 104.639L117.542 104.639L118.338 104.556ZM120.927 129.871L121.722 129.781L121.722 129.781L120.927 129.871ZM122.704 140.86L123.493 140.73L123.493 140.727L122.704 140.86ZM123.127 142.273L122.362 142.507L122.505 142.974L122.984 143.06L123.127 142.273ZM123.577 142.357L123.435 143.145L124.144 143.273L124.345 142.581L123.577 142.357ZM125.234 136.576L126.019 136.731L126.019 136.731L125.234 136.576ZM130.314 109.973L129.528 109.823L129.528 109.823L130.314 109.973ZM135.401 89.3937C133.659 98.6215 132.011 107.838 130.221 117.044L131.792 117.35C133.581 108.143 135.236 98.8933 136.974 89.6906L135.401 89.3937ZM130.221 117.044C128.74 124.665 127.139 132.265 125.524 139.869L127.089 140.201C128.704 132.597 130.308 124.985 131.792 117.35L130.221 117.044ZM125.524 139.868C125.272 141.048 124.818 142.231 124.23 143.301L125.632 144.071C126.289 142.876 126.802 141.546 127.089 140.202L125.524 139.868ZM124.23 143.301C124.125 143.493 123.906 143.746 123.644 143.948C123.518 144.045 123.399 144.115 123.302 144.157C123.199 144.202 123.158 144.199 123.171 144.2L123.106 145.799C123.692 145.822 124.246 145.503 124.619 145.217C125.02 144.909 125.401 144.493 125.633 144.071L124.23 143.301ZM123.173 144.2C123.207 144.202 123.175 144.207 123.071 144.148C122.977 144.095 122.864 144.01 122.749 143.9C122.499 143.66 122.356 143.414 122.325 143.298L120.778 143.706C120.913 144.217 121.28 144.708 121.641 145.054C121.831 145.236 122.048 145.407 122.279 145.538C122.5 145.664 122.787 145.785 123.105 145.799L123.173 144.2ZM122.326 143.3C121.589 140.473 120.832 137.701 120.521 134.901L118.931 135.077C119.257 138.018 120.051 140.916 120.778 143.704L122.326 143.3ZM120.521 134.901C118.97 120.83 117.61 106.779 116.091 92.6918L114.5 92.8634C116.014 106.907 117.381 121.023 118.931 135.076L120.521 134.901ZM116.091 92.6918C115.165 84.1056 114.101 75.5338 113.066 66.9729L111.477 67.1649C112.513 75.733 113.576 84.2904 114.5 92.8634L116.091 92.6918ZM113.066 66.9729C112.919 65.7576 112.536 64.4971 112.299 63.4334L110.737 63.7817C111.015 65.0255 111.342 66.0485 111.477 67.1649L113.066 66.9729ZM111.581 62.81C111.509 62.8043 111.436 62.7979 111.358 62.791C111.281 62.7843 111.2 62.7771 111.117 62.7707L110.994 64.366C111.067 64.3716 111.14 64.378 111.218 64.3849C111.294 64.3915 111.374 64.3987 111.455 64.4051L111.581 62.81ZM110.283 63.3591C109.897 64.7841 109.347 66.3725 109.067 67.9435L110.642 68.2247C110.907 66.741 111.399 65.3591 111.827 63.7777L110.283 63.3591ZM109.067 67.9444C107.512 76.7082 106.093 85.4452 104.493 94.185L106.067 94.4731C107.666 85.7403 109.096 76.9446 110.642 68.2238L109.067 67.9444ZM104.493 94.1849C103.476 99.7405 102.251 105.254 101.072 110.804L102.637 111.136C103.812 105.606 105.044 100.058 106.067 94.4732L104.493 94.1849ZM101.072 110.804C100.944 111.408 100.65 112.023 100.301 112.685L101.717 113.431C102.067 112.767 102.459 111.978 102.637 111.136L101.072 110.804ZM100.301 112.685C99.9362 113.379 99.5322 113.6 99.2666 113.629C99.0213 113.657 98.6187 113.55 98.1679 112.934L96.8772 113.88C97.5386 114.783 98.4426 115.331 99.4443 115.219C100.426 115.11 101.209 114.396 101.717 113.43L100.301 112.685ZM98.168 112.935C97.4599 111.968 96.8838 110.834 96.6042 109.721L95.0524 110.111C95.3916 111.461 96.0717 112.78 96.8771 113.88L98.168 112.935ZM96.604 109.72C95.9604 107.167 95.5883 103.689 95.4778 101.219C95.4217 99.9668 95.4369 99.0492 95.4974 98.6493C95.5139 98.5397 95.5231 98.5495 95.495 98.6082C95.4857 98.6277 95.4172 98.776 95.237 98.8876C95.1327 98.9523 94.9952 99.0012 94.8359 99.0006C94.6803 99 94.5544 98.9524 94.4676 98.9029C94.3163 98.8166 94.2491 98.7061 94.2434 98.6971C94.2276 98.6724 94.227 98.6653 94.238 98.692C94.2594 98.7441 94.2943 98.848 94.3399 99.0241L95.8889 98.6233C95.8357 98.4175 95.7793 98.233 95.7173 98.0823C95.6865 98.0077 95.646 97.9207 95.5922 97.8365C95.5486 97.7681 95.4454 97.6186 95.2601 97.5129C95.1563 97.4538 95.0138 97.4013 94.8421 97.4006C94.6668 97.3999 94.5137 97.4536 94.3943 97.5276C94.1839 97.6579 94.0872 97.8435 94.0516 97.9178C93.971 98.0864 93.9355 98.2766 93.9153 98.4102C93.8287 98.9832 93.8236 100.045 93.8794 101.291C93.9925 103.818 94.3726 107.414 95.0525 110.111L96.604 109.72ZM94.3398 99.0237C95.3144 102.797 96.2524 106.747 97.2417 110.539L98.7899 110.136C97.7816 106.27 96.8937 102.514 95.889 98.6236L94.3398 99.0237ZM97.2416 110.539C97.3512 110.96 97.539 111.338 97.7153 111.659C97.9118 112.016 98.0586 112.247 98.2082 112.544L99.6372 111.824C99.4774 111.507 99.255 111.138 99.1175 110.888C98.9599 110.601 98.8489 110.362 98.79 110.136L97.2416 110.539ZM98.9227 112.984C98.9231 112.984 98.9235 112.984 98.9239 112.984C98.9243 112.984 98.9246 112.984 98.925 112.984C98.9254 112.984 98.9258 112.984 98.9262 112.984C98.9266 112.984 98.927 112.984 98.9274 112.984C98.9278 112.984 98.9281 112.984 98.9285 112.984C98.9289 112.984 98.9293 112.984 98.9297 112.984C98.9301 112.984 98.9305 112.984 98.9309 112.984C98.9313 112.984 98.9316 112.984 98.932 112.984C98.9324 112.984 98.9328 112.984 98.9332 112.984C98.9336 112.984 98.934 112.984 98.9344 112.984C98.9348 112.984 98.9351 112.984 98.9355 112.984C98.9359 112.984 98.9363 112.984 98.9367 112.984C98.9371 112.984 98.9375 112.984 98.9379 112.984C98.9383 112.984 98.9386 112.984 98.939 112.984C98.9394 112.984 98.9398 112.984 98.9402 112.984C98.9406 112.984 98.941 112.984 98.9414 112.984C98.9418 112.984 98.9421 112.984 98.9425 112.984C98.9429 112.984 98.9433 112.984 98.9437 112.984C98.9441 112.984 98.9445 112.984 98.9449 112.984C98.9453 112.984 98.9456 112.984 98.946 112.984C98.9464 112.984 98.9468 112.984 98.9472 112.984C98.9476 112.984 98.948 112.984 98.9484 112.984C98.9488 112.984 98.9491 112.984 98.9495 112.984C98.9499 112.984 98.9503 112.984 98.9507 112.984C98.9511 112.984 98.9515 112.984 98.9519 112.984C98.9523 112.984 98.9526 112.984 98.953 112.984C98.9534 112.984 98.9538 112.984 98.9542 112.984C98.9546 112.984 98.955 112.984 98.9554 112.984C98.9558 112.984 98.9561 112.984 98.9565 112.984C98.9569 112.984 98.9573 112.984 98.9577 112.984C98.9581 112.984 98.9585 112.984 98.9589 112.984C98.9593 112.984 98.9596 112.984 98.96 112.984C98.9604 112.984 98.9608 112.984 98.9612 112.984C98.9616 112.984 98.962 112.984 98.9624 112.984C98.9628 112.984 98.9631 112.984 98.9635 112.984C98.9639 112.984 98.9643 112.984 98.9647 112.984C98.9651 112.984 98.9655 112.984 98.9659 112.984C98.9663 112.984 98.9666 112.984 98.967 112.984C98.9674 112.984 98.9678 112.984 98.9682 112.984C98.9686 112.984 98.969 112.984 98.9694 112.984C98.9698 112.984 98.9701 112.984 98.9705 112.984C98.9709 112.984 98.9713 112.984 98.9717 112.984C98.9721 112.984 98.9725 112.984 98.9729 112.984C98.9733 112.984 98.9736 112.984 98.974 112.984C98.9744 112.984 98.9748 112.984 98.9752 112.984C98.9756 112.984 98.976 112.984 98.9764 112.984C98.9768 112.984 98.9772 112.984 98.9775 112.984C98.9779 112.984 98.9783 112.984 98.9787 112.984C98.9791 112.984 98.9795 112.984 98.9799 112.984C98.9803 112.984 98.9807 112.984 98.981 112.984C98.9814 112.984 98.9818 112.984 98.9822 112.984C98.9826 112.984 98.983 112.984 98.9834 112.984C98.9838 112.984 98.9842 112.984 98.9845 112.984C98.9849 112.984 98.9853 112.984 98.9857 112.984C98.9861 112.984 98.9865 112.984 98.9869 112.984C98.9873 112.984 98.9877 112.984 98.988 112.984C98.9884 112.984 98.9888 112.984 98.9892 112.984C98.9896 112.984 98.99 112.984 98.9904 112.984C98.9908 112.984 98.9912 112.984 98.9915 112.984C98.9919 112.984 98.9923 112.984 98.9927 112.984C98.9931 112.984 98.9935 112.984 98.9939 112.984C98.9943 112.984 98.9947 112.984 98.995 112.984C98.9954 112.984 98.9958 112.984 98.9962 112.984C98.9966 112.984 98.997 112.984 98.9974 112.984C98.9978 112.984 98.9982 112.984 98.9985 112.984C98.9989 112.984 98.9993 112.984 98.9997 112.984C99.0001 112.984 99.0005 112.984 99.0009 112.984C99.0013 112.984 99.0017 112.984 99.002 112.984C99.0024 112.984 99.0028 112.984 99.0032 112.984C99.0036 112.984 99.004 112.984 99.0044 112.984C99.0048 112.984 99.0052 112.984 99.0055 112.984C99.0059 112.984 99.0063 112.984 99.0067 112.984C99.0071 112.984 99.0075 112.984 99.0079 112.984C99.0083 112.984 99.0087 112.984 99.009 112.984C99.0094 112.984 99.0098 112.984 99.0102 112.984C99.0106 112.984 99.011 112.984 99.0114 112.984C99.0118 112.984 99.0122 112.984 99.0125 112.984C99.0129 112.984 99.0133 112.984 99.0137 112.984C99.0141 112.984 99.0145 112.984 99.0149 112.984C99.0153 112.984 99.0157 112.984 99.016 112.984C99.0164 112.984 99.0168 112.984 99.0172 112.984C99.0176 112.984 99.018 112.984 99.0184 112.984C99.0188 112.984 99.0192 112.984 99.0195 112.984C99.0199 112.984 99.0203 112.984 99.0207 112.984C99.0211 112.984 99.0215 112.984 99.0219 112.984C99.0223 112.984 99.0227 112.984 99.023 112.984C99.0234 112.984 99.0238 112.984 99.0242 112.984C99.0246 112.984 99.025 112.984 99.0254 112.984C99.0258 112.984 99.0262 112.984 99.0265 112.984C99.0269 112.984 99.0273 112.984 99.0277 112.984C99.0281 112.984 99.0285 112.984 99.0289 112.984C99.0293 112.984 99.0297 112.984 99.03 112.984C99.0304 112.984 99.0308 112.984 99.0312 112.984C99.0316 112.984 99.032 112.984 99.0324 112.984C99.0328 112.984 99.0332 112.984 99.0335 112.984C99.0339 112.984 99.0343 112.984 99.0347 112.984C99.0351 112.984 99.0355 112.984 99.0359 112.984C99.0363 112.984 99.0367 112.984 99.037 112.984C99.0374 112.984 99.0378 112.984 99.0382 112.984C99.0386 112.984 99.039 112.984 99.0394 112.984C99.0398 112.984 99.0402 112.984 99.0406 112.984C99.0409 112.984 99.0413 112.984 99.0417 112.984C99.0421 112.984 99.0425 112.984 99.0429 112.984C99.0433 112.984 99.0437 112.984 99.0441 112.984C99.0444 112.984 99.0448 112.984 99.0452 112.984C99.0456 112.984 99.046 112.984 99.0464 112.984C99.0468 112.984 99.0472 112.984 99.0476 112.984C99.0479 112.984 99.0483 112.984 99.0487 112.984C99.0491 112.984 99.0495 112.984 99.0499 112.984C99.0503 112.984 99.0507 112.984 99.0511 112.984C99.0514 112.984 99.0518 112.984 99.0522 112.984C99.0526 112.984 99.053 112.984 99.0534 112.984C99.0538 112.984 99.0542 112.984 99.0546 112.984C99.0549 112.984 99.0553 112.984 99.0557 112.984C99.0561 112.984 99.0565 112.984 99.0569 112.984C99.0573 112.984 99.0577 112.984 99.0581 112.984C99.0584 112.984 99.0588 112.984 99.0592 112.984C99.0596 112.984 99.06 112.984 99.0604 112.984C99.0608 112.984 99.0612 112.984 99.0616 112.984C99.0619 112.984 99.0623 112.984 99.0627 112.984C99.0631 112.984 99.0635 112.984 99.0639 112.984C99.0643 112.984 99.0647 112.984 99.0651 112.984C99.0654 112.984 99.0658 112.984 99.0662 112.984C99.0666 112.984 99.067 112.984 99.0674 112.984C99.0678 112.984 99.0682 112.984 99.0686 112.984C99.0689 112.984 99.0693 112.984 99.0697 112.984C99.0701 112.984 99.0705 112.984 99.0709 112.984C99.0713 112.984 99.0717 112.984 99.0721 112.984C99.0724 112.984 99.0728 112.984 99.0732 112.984C99.0736 112.984 99.074 112.984 99.0744 112.984C99.0748 112.984 99.0752 112.984 99.0756 112.984C99.0759 112.984 99.0763 112.984 99.0767 112.984C99.0771 112.984 99.0775 112.984 99.0779 112.984C99.0783 112.984 99.0787 112.984 99.0791 112.984C99.0794 112.984 99.0798 112.984 99.0802 112.984C99.0806 112.984 99.081 112.984 99.0814 112.984C99.0818 112.984 99.0822 112.984 99.0826 112.984C99.0829 112.984 99.0833 112.984 99.0837 112.984C99.0841 112.984 99.0845 112.984 99.0849 112.984C99.0853 112.984 99.0857 112.984 99.0861 112.984C99.0864 112.984 99.0868 112.984 99.0872 112.984C99.0876 112.984 99.088 112.984 99.0884 112.984C99.0888 112.984 99.0892 112.984 99.0896 112.984C99.0899 112.984 99.0903 112.984 99.0907 112.984C99.0911 112.984 99.0915 112.984 99.0919 112.984C99.0923 112.984 99.0927 112.984 99.0931 112.984C99.0934 112.984 99.0938 112.984 99.0942 112.984C99.0946 112.984 99.095 112.984 99.0954 112.984C99.0958 112.984 99.0962 112.984 99.0966 112.984C99.0969 112.984 99.0973 112.984 99.0977 112.984C99.0981 112.984 99.0985 112.984 99.0989 112.984C99.0993 112.984 99.0997 112.984 99.1001 112.984C99.1004 112.984 99.1008 112.984 99.1012 112.984C99.1016 112.984 99.102 112.984 99.1024 112.984C99.1028 112.984 99.1032 112.984 99.1036 112.984C99.1039 112.984 99.1043 112.984 99.1047 112.984C99.1051 112.984 99.1055 112.984 99.1059 112.984C99.1063 112.984 99.1067 112.984 99.1071 112.984C99.1075 112.984 99.1078 112.984 99.1082 112.984C99.1086 112.984 99.109 112.984 99.1094 112.984C99.1098 112.984 99.1102 112.984 99.1106 112.984C99.111 112.984 99.1113 112.984 99.1117 112.984C99.1121 112.984 99.1125 112.984 99.1129 112.984C99.1133 112.984 99.1137 112.984 99.1141 112.984C99.1145 112.984 99.1148 112.984 99.1152 112.984C99.1156 112.984 99.116 112.984 99.1164 112.984C99.1168 112.984 99.1172 112.984 99.1176 112.984C99.118 112.984 99.1183 112.984 99.1187 112.984C99.1191 112.984 99.1195 112.984 99.1199 112.984C99.1203 112.984 99.1207 112.984 99.1211 112.984C99.1215 112.984 99.1218 112.984 99.1222 112.984C99.1226 112.984 99.123 112.984 99.1234 112.984C99.1238 112.984 99.1242 112.984 99.1246 112.984C99.125 112.984 99.1253 112.984 99.1257 112.984C99.1261 112.984 99.1265 112.984 99.1269 112.984C99.1273 112.984 99.1277 112.984 99.1281 112.984C99.1285 112.984 99.1288 112.984 99.1292 112.984C99.1296 112.984 99.13 112.984 99.1304 112.984C99.1308 112.984 99.1312 112.984 99.1316 112.984C99.132 112.984 99.1323 112.984 99.1327 112.984C99.1331 112.984 99.1335 112.984 99.1339 112.984C99.1343 112.984 99.1347 112.984 99.1351 112.984C99.1355 112.984 99.1358 112.984 99.1362 112.984C99.1366 112.984 99.137 112.984 99.1374 112.984C99.1378 112.984 99.1382 112.984 99.1386 112.984C99.139 112.984 99.1393 112.984 99.1397 112.984C99.1401 112.984 99.1405 112.984 99.1409 112.984C99.1413 112.984 99.1417 112.984 99.1421 112.984C99.1425 112.984 99.1428 112.984 99.1432 112.984C99.1436 112.984 99.144 112.984 99.1444 112.984C99.1448 112.984 99.1452 112.984 99.1456 112.984C99.146 112.984 99.1463 112.984 99.1467 112.984C99.1471 112.984 99.1475 112.984 99.1479 112.984C99.1483 112.984 99.1487 112.984 99.1491 112.984C99.1495 112.984 99.1498 112.984 99.1502 112.984C99.1506 112.984 99.151 112.984 99.1514 112.984C99.1518 112.984 99.1522 112.984 99.1526 112.984C99.153 112.984 99.1533 112.984 99.1537 112.984C99.1541 112.984 99.1545 112.984 99.1549 112.984C99.1553 112.984 99.1557 112.984 99.1561 112.984C99.1565 112.984 99.1568 112.984 99.1572 112.984C99.1576 112.984 99.158 112.984 99.1584 112.984C99.1588 112.984 99.1592 112.984 99.1596 112.984C99.16 112.984 99.1603 112.984 99.1607 112.984C99.1611 112.984 99.1615 112.984 99.1619 112.984C99.1623 112.984 99.1627 112.984 99.1631 112.984C99.1635 112.984 99.1638 112.984 99.1642 112.984C99.1646 112.984 99.165 112.984 99.1654 112.984C99.1658 112.984 99.1662 112.984 99.1666 112.984C99.167 112.984 99.1673 112.984 99.1677 112.984C99.1681 112.984 99.1685 112.984 99.1689 112.984C99.1693 112.984 99.1697 112.984 99.1701 112.984C99.1705 112.984 99.1708 112.984 99.1712 112.984C99.1716 112.984 99.172 112.984 99.1724 112.984C99.1728 112.984 99.1732 112.984 99.1736 112.984C99.174 112.984 99.1744 112.984 99.1747 112.984C99.1751 112.984 99.1755 112.984 99.1759 112.984C99.1763 112.984 99.1767 112.984 99.1771 112.984C99.1775 112.984 99.1779 112.984 99.1782 112.984C99.1786 112.984 99.179 112.984 99.1794 112.984C99.1798 112.984 99.1802 112.984 99.1806 112.984C99.181 112.984 99.1814 112.984 99.1817 112.984C99.1821 112.984 99.1825 112.984 99.1829 112.984C99.1833 112.984 99.1837 112.984 99.1841 112.984C99.1845 112.984 99.1849 112.984 99.1852 112.984C99.1856 112.984 99.186 112.984 99.1864 112.984C99.1868 112.984 99.1872 112.984 99.1876 112.984C99.188 112.984 99.1884 112.984 99.1887 112.984C99.1891 112.984 99.1895 112.984 99.1899 112.984C99.1903 112.984 99.1907 112.984 99.1911 112.984C99.1915 112.984 99.1919 112.984 99.1922 112.984C99.1926 112.984 99.193 112.984 99.1934 112.984C99.1938 112.984 99.1942 112.984 99.1946 112.984C99.195 112.984 99.1954 112.984 99.1957 112.984C99.1961 112.984 99.1965 112.984 99.1969 112.984C99.1973 112.984 99.1977 112.984 99.1981 112.984C99.1985 112.984 99.1989 112.984 99.1992 112.984C99.1996 112.984 99.2 112.984 99.2004 112.984C99.2008 112.984 99.2012 112.984 99.2016 112.984C99.202 112.984 99.2024 112.984 99.2027 112.984C99.2031 112.984 99.2035 112.984 99.2039 112.984C99.2043 112.984 99.2047 112.984 99.2051 112.984C99.2055 112.984 99.2059 112.984 99.2062 112.984C99.2066 112.984 99.207 112.984 99.2074 112.984C99.2078 112.984 99.2082 112.984 99.2086 112.984C99.209 112.984 99.2094 112.984 99.2097 112.984C99.2101 112.984 99.2105 112.984 99.2109 112.984C99.2113 112.984 99.2117 112.984 99.2121 112.984C99.2125 112.984 99.2129 112.984 99.2132 112.984C99.2136 112.984 99.214 112.984 99.2144 112.984C99.2148 112.984 99.2152 112.984 99.2156 112.984C99.216 112.984 99.2164 112.984 99.2167 112.984C99.2171 112.984 99.2175 112.984 99.2179 112.984C99.2183 112.984 99.2187 112.984 99.2191 112.984C99.2195 112.984 99.2199 112.984 99.2202 112.984C99.2206 112.984 99.221 112.984 99.2214 112.984C99.2218 112.984 99.2222 112.984 99.2226 112.984C99.223 112.984 99.2234 112.984 99.2237 112.984C99.2241 112.984 99.2245 112.984 99.2249 112.984C99.2253 112.984 99.2257 112.984 99.2261 112.984C99.2265 112.984 99.2269 112.984 99.2272 112.984C99.2276 112.984 99.228 112.984 99.2284 112.984C99.2288 112.984 99.2292 112.984 99.2296 112.984C99.23 112.984 99.2304 112.984 99.2307 112.984C99.2311 112.984 99.2315 112.984 99.2319 112.984C99.2323 112.984 99.2327 112.984 99.2331 112.984C99.2335 112.984 99.2339 112.984 99.2342 112.984C99.2346 112.984 99.235 112.984 99.2354 112.984C99.2358 112.984 99.2362 112.984 99.2366 112.984C99.237 112.984 99.2374 112.984 99.2377 112.984C99.2381 112.984 99.2385 112.984 99.2389 112.984C99.2393 112.984 99.2397 112.984 99.2401 112.984C99.2405 112.984 99.2409 112.984 99.2412 112.984C99.2416 112.984 99.242 112.984 99.2424 112.984C99.2428 112.984 99.2432 112.984 99.2436 112.984C99.244 112.984 99.2444 112.984 99.2448 112.984C99.2451 112.984 99.2455 112.984 99.2459 112.984C99.2463 112.984 99.2467 112.984 99.2471 112.984C99.2475 112.984 99.2479 112.984 99.2483 112.984C99.2486 112.984 99.249 112.984 99.2494 112.984C99.2498 112.984 99.2502 112.984 99.2506 112.984C99.251 112.984 99.2514 112.984 99.2518 112.984C99.2521 112.984 99.2525 112.984 99.2529 112.984C99.2533 112.984 99.2537 112.984 99.2541 112.984C99.2545 112.984 99.2549 112.984 99.2553 112.984C99.2556 112.984 99.256 112.984 99.2564 112.984C99.2568 112.984 99.2572 112.984 99.2576 112.984C99.258 112.984 99.2584 112.984 99.2588 112.984C99.2591 112.984 99.2595 112.984 99.2599 112.984C99.2603 112.984 99.2607 112.984 99.2611 112.984C99.2615 112.984 99.2619 112.984 99.2623 112.984C99.2626 112.984 99.263 112.984 99.2634 112.984C99.2638 112.984 99.2642 112.984 99.2646 112.984C99.265 112.984 99.2654 112.984 99.2658 112.984C99.2661 112.984 99.2665 112.984 99.2669 112.984C99.2673 112.984 99.2677 112.984 99.2681 112.984C99.2685 112.984 99.2689 112.984 99.2693 112.984C99.2696 112.984 99.27 112.984 99.2704 112.984C99.2708 112.984 99.2712 112.984 99.2716 112.984C99.272 112.984 99.2724 112.984 99.2728 112.984C99.2731 112.984 99.2735 112.984 99.2739 112.984C99.2743 112.984 99.2747 112.984 99.2751 112.984C99.2755 112.984 99.2759 112.984 99.2763 112.984C99.2766 112.984 99.277 112.984 99.2774 112.984C99.2778 112.984 99.2782 112.984 99.2786 112.984C99.279 112.984 99.2794 112.984 99.2798 112.984C99.2801 112.984 99.2805 112.984 99.2809 112.984C99.2813 112.984 99.2817 112.984 99.2821 112.984C99.2825 112.984 99.2829 112.984 99.2833 112.984C99.2836 112.984 99.284 112.984 99.2844 112.984C99.2848 112.984 99.2852 112.984 99.2856 112.984C99.286 112.984 99.2864 112.984 99.2868 112.984C99.2871 112.984 99.2875 112.984 99.2879 112.984C99.2883 112.984 99.2887 112.984 99.2891 112.984C99.2895 112.984 99.2899 112.984 99.2903 112.984C99.2906 112.984 99.291 112.984 99.2914 112.984C99.2918 112.984 99.2922 112.984 99.2926 112.984C99.293 112.984 99.2934 112.984 99.2938 112.984C99.2941 112.984 99.2945 112.984 99.2949 112.984C99.2953 112.984 99.2957 112.984 99.2961 112.984C99.2965 112.984 99.2969 112.984 99.2973 112.984C99.2976 112.984 99.298 112.984 99.2984 112.984C99.2988 112.984 99.2992 112.984 99.2996 112.984C99.3 112.984 99.3004 112.984 99.3008 112.984C99.3011 112.984 99.3015 112.984 99.3019 112.984C99.3023 112.984 99.3027 112.984 99.3031 112.984C99.3035 112.984 99.3039 112.984 99.3043 112.984C99.3046 112.984 99.305 112.984 99.3054 112.984C99.3058 112.984 99.3062 112.984 99.3066 112.984C99.307 112.984 99.3074 112.984 99.3078 112.984C99.3081 112.984 99.3085 112.984 99.3089 112.984C99.3093 112.984 99.3097 112.984 99.3101 112.984C99.3105 112.984 99.3109 112.984 99.3113 112.984C99.3117 112.984 99.312 112.984 99.3124 112.984C99.3128 112.984 99.3132 112.984 99.3136 112.984C99.314 112.984 99.3144 112.984 99.3148 112.984C99.3152 112.984 99.3155 112.984 99.3159 112.984C99.3163 112.984 99.3167 112.984 99.3171 112.984C99.3175 112.984 99.3179 112.984 99.3183 112.984C99.3187 112.984 99.319 112.984 99.3194 112.984C99.3198 112.984 99.3202 112.984 99.3206 112.984C99.321 112.984 99.3214 112.984 99.3218 112.984C99.3222 112.984 99.3225 112.984 99.3229 112.984C99.3233 112.984 99.3237 112.984 99.3241 112.984C99.3245 112.984 99.3249 112.984 99.3253 112.984C99.3257 112.984 99.326 112.984 99.3264 112.984C99.3268 112.984 99.3272 112.984 99.3276 112.984C99.328 112.984 99.3284 112.984 99.3288 112.984C99.3292 112.984 99.3295 112.984 99.3299 112.984C99.3303 112.984 99.3307 112.984 99.3311 112.984C99.3315 112.984 99.3319 112.984 99.3323 112.984C99.3327 112.984 99.333 112.984 99.3334 112.984C99.3338 112.984 99.3342 112.984 99.3346 112.984C99.335 112.984 99.3354 112.984 99.3358 112.984C99.3362 112.984 99.3365 112.984 99.3369 112.984C99.3373 112.984 99.3377 112.984 99.3381 112.984C99.3385 112.984 99.3389 112.984 99.3393 112.984C99.3397 112.984 99.34 112.984 99.3404 112.984C99.3408 112.984 99.3412 112.984 99.3416 112.984C99.342 112.984 99.3424 112.984 99.3428 112.984C99.3432 112.984 99.3435 112.984 99.3439 112.984C99.3443 112.984 99.3447 112.984 99.3451 112.984C99.3455 112.984 99.3459 112.984 99.3463 112.984C99.3467 112.984 99.347 112.984 99.3474 112.984C99.3478 112.984 99.3482 112.984 99.3486 112.984C99.349 112.984 99.3494 112.984 99.3498 112.984C99.3502 112.984 99.3505 112.984 99.3509 112.984C99.3513 112.984 99.3517 112.984 99.3521 112.984C99.3525 112.984 99.3529 112.984 99.3533 112.984C99.3537 112.984 99.354 112.984 99.3544 112.984C99.3548 112.984 99.3552 112.984 99.3556 112.984C99.356 112.984 99.3564 112.984 99.3568 112.984C99.3572 112.984 99.3575 112.984 99.3579 112.984C99.3583 112.984 99.3587 112.984 99.3591 112.984C99.3595 112.984 99.3599 112.984 99.3603 112.984C99.3607 112.984 99.361 112.984 99.3614 112.984C99.3618 112.984 99.3622 112.984 99.3626 112.984C99.363 112.984 99.3634 112.984 99.3638 112.984C99.3642 112.984 99.3645 112.984 99.3649 112.984C99.3653 112.984 99.3657 112.984 99.3661 112.984C99.3665 112.984 99.3669 112.984 99.3673 112.984C99.3677 112.984 99.368 112.984 99.3684 112.984C99.3688 112.984 99.3692 112.984 99.3696 112.984C99.37 112.984 99.3704 112.984 99.3708 112.984C99.3712 112.984 99.3715 112.984 99.3719 112.984C99.3723 112.984 99.3727 112.984 99.3731 112.984C99.3735 112.984 99.3739 112.984 99.3743 112.984C99.3747 112.984 99.375 112.984 99.3754 112.984C99.3758 112.984 99.3762 112.984 99.3766 112.984C99.377 112.984 99.3774 112.984 99.3778 112.984C99.3782 112.984 99.3786 112.984 99.3789 112.984C99.3793 112.984 99.3797 112.984 99.3801 112.984C99.3805 112.984 99.3809 112.984 99.3813 112.984C99.3817 112.984 99.3821 112.984 99.3824 112.984C99.3828 112.984 99.3832 112.984 99.3836 112.984C99.384 112.984 99.3844 112.984 99.3848 112.984C99.3852 112.984 99.3856 112.984 99.3859 112.984C99.3863 112.984 99.3867 112.984 99.3871 112.984C99.3875 112.984 99.3879 112.984 99.3883 112.984C99.3887 112.984 99.3891 112.984 99.3894 112.984C99.3898 112.984 99.3902 112.984 99.3906 112.984C99.391 112.984 99.3914 112.984 99.3918 112.984C99.3922 112.984 99.3926 112.984 99.3929 112.984C99.3933 112.984 99.3937 112.984 99.3941 112.984C99.3945 112.984 99.3949 112.984 99.3953 112.984C99.3957 112.984 99.3961 112.984 99.3964 112.984C99.3968 112.984 99.3972 112.984 99.3976 112.984C99.398 112.984 99.3984 112.984 99.3988 112.984C99.3992 112.984 99.3996 112.984 99.3999 112.984C99.4003 112.984 99.4007 112.984 99.4011 112.984C99.4015 112.984 99.4019 112.984 99.4023 112.984C99.4027 112.984 99.4031 112.984 99.4034 112.984C99.4038 112.984 99.4042 112.984 99.4046 112.984C99.405 112.984 99.4054 112.984 99.4058 112.984C99.4062 112.984 99.4066 112.984 99.4069 112.984C99.4073 112.984 99.4077 112.984 99.4081 112.984C99.4085 112.984 99.4089 112.984 99.4093 112.984C99.4097 112.984 99.4101 112.984 99.4104 112.984C99.4108 112.984 99.4112 112.984 99.4116 112.984C99.412 112.984 99.4124 112.984 99.4128 112.984C99.4132 112.984 99.4136 112.984 99.4139 112.984C99.4143 112.984 99.4147 112.984 99.4151 112.984C99.4155 112.984 99.4159 112.984 99.4163 112.984C99.4167 112.984 99.4171 112.984 99.4174 112.984C99.4178 112.984 99.4182 112.984 99.4186 112.984C99.419 112.984 99.4194 112.984 99.4198 112.984C99.4202 112.984 99.4206 112.984 99.4209 112.984C99.4213 112.984 99.4217 112.984 99.4221 112.984C99.4225 112.984 99.4229 112.984 99.4233 112.984C99.4237 112.984 99.4241 112.984 99.4244 112.984C99.4248 112.984 99.4252 112.984 99.4256 112.984C99.426 112.984 99.4264 112.984 99.4268 112.984C99.4272 112.984 99.4276 112.984 99.4279 112.984C99.4283 112.984 99.4287 112.984 99.4291 112.984C99.4295 112.984 99.4299 112.984 99.4303 112.984C99.4307 112.984 99.4311 112.984 99.4314 112.984C99.4318 112.984 99.4322 112.984 99.4326 112.984C99.433 112.984 99.4334 112.984 99.4338 112.984C99.4342 112.984 99.4346 112.984 99.4349 112.984C99.4353 112.984 99.4357 112.984 99.4361 112.984C99.4365 112.984 99.4369 112.984 99.4373 112.984C99.4377 112.984 99.4381 112.984 99.4384 112.984C99.4388 112.984 99.4392 112.984 99.4396 112.984C99.44 112.984 99.4404 112.984 99.4408 112.984C99.4412 112.984 99.4416 112.984 99.4419 112.984C99.4423 112.984 99.4427 112.984 99.4431 112.984C99.4435 112.984 99.4439 112.984 99.4443 112.984C99.4447 112.984 99.4451 112.984 99.4454 112.984C99.4458 112.984 99.4462 112.984 99.4466 112.984C99.447 112.984 99.4474 112.984 99.4478 112.984C99.4482 112.984 99.4486 112.984 99.449 112.984C99.4493 112.984 99.4497 112.984 99.4501 112.984C99.4505 112.984 99.4509 112.984 99.4513 112.984C99.4517 112.984 99.4521 112.984 99.4525 112.984C99.4528 112.984 99.4532 112.984 99.4536 112.984C99.454 112.984 99.4544 112.984 99.4548 112.984C99.4552 112.984 99.4556 112.984 99.456 112.984C99.4563 112.984 99.4567 112.984 99.4571 112.984C99.4575 112.984 99.4579 112.984 99.4583 112.984C99.4587 112.984 99.4591 112.984 99.4595 112.984C99.4598 112.984 99.4602 112.984 99.4606 112.984C99.461 112.984 99.4614 112.984 99.4618 112.984C99.4622 112.984 99.4626 112.984 99.463 112.984C99.4633 112.984 99.4637 112.984 99.4641 112.984C99.4645 112.984 99.4649 112.984 99.4653 112.984C99.4657 112.984 99.4661 112.984 99.4665 112.984C99.4668 112.984 99.4672 112.984 99.4676 112.984C99.468 112.984 99.4684 112.984 99.4688 112.984C99.4692 112.984 99.4696 112.984 99.47 112.984C99.4703 112.984 99.4707 112.984 99.4711 112.984C99.4715 112.984 99.4719 112.984 99.4723 112.984C99.4727 112.984 99.4731 112.984 99.4735 112.984C99.4738 112.984 99.4742 112.984 99.4746 112.984C99.475 112.984 99.4754 112.984 99.4758 112.984C99.4762 112.984 99.4766 112.984 99.477 112.984C99.4773 112.984 99.4777 112.984 99.4781 112.984C99.4785 112.984 99.4789 112.984 99.4793 112.984C99.4797 112.984 99.4801 112.984 99.4805 112.984C99.4808 112.984 99.4812 112.984 99.4816 112.984C99.482 112.984 99.4824 112.984 99.4828 112.984C99.4832 112.984 99.4836 112.984 99.484 112.984C99.4843 112.984 99.4847 112.984 99.4851 112.984C99.4855 112.984 99.4859 112.984 99.4863 112.984C99.4867 112.984 99.4871 112.984 99.4875 112.984C99.4878 112.984 99.4882 112.984 99.4886 112.984C99.489 112.984 99.4894 112.984 99.4898 112.984C99.4902 112.984 99.4906 112.984 99.491 112.984C99.4913 112.984 99.4917 112.984 99.4921 112.984C99.4925 112.984 99.4929 112.984 99.4933 112.984C99.4937 112.984 99.4941 112.984 99.4945 112.984C99.4948 112.984 99.4952 112.984 99.4956 112.984C99.496 112.984 99.4964 112.984 99.4968 112.984C99.4972 112.984 99.4976 112.984 99.498 112.984C99.4983 112.984 99.4987 112.984 99.4991 112.984C99.4995 112.984 99.4999 112.984 99.5003 112.984C99.5007 112.984 99.5011 112.984 99.5015 112.984C99.5018 112.984 99.5022 112.984 99.5026 112.984C99.503 112.984 99.5034 112.984 99.5038 112.984C99.5042 112.984 99.5046 112.984 99.505 112.984C99.5053 112.984 99.5057 112.984 99.5061 112.984C99.5065 112.984 99.5069 112.984 99.5073 112.984C99.5077 112.984 99.5081 112.984 99.5085 112.984C99.5088 112.984 99.5092 112.984 99.5096 112.984C99.51 112.984 99.5104 112.984 99.5108 112.984C99.5112 112.984 99.5116 112.984 99.512 112.984C99.5124 112.984 99.5127 112.984 99.5131 112.984C99.5135 112.984 99.5139 112.984 99.5143 112.984C99.5147 112.984 99.5151 112.984 99.5155 112.984C99.5159 112.984 99.5162 112.984 99.5166 112.984C99.517 112.984 99.5174 112.984 99.5178 112.984C99.5182 112.984 99.5186 112.984 99.519 112.984C99.5194 112.984 99.5197 112.984 99.5201 112.984V111.384C99.5197 111.384 99.5194 111.384 99.519 111.384C99.5186 111.384 99.5182 111.384 99.5178 111.384C99.5174 111.384 99.517 111.384 99.5166 111.384C99.5162 111.384 99.5159 111.384 99.5155 111.384C99.5151 111.384 99.5147 111.384 99.5143 111.384C99.5139 111.384 99.5135 111.384 99.5131 111.384C99.5127 111.384 99.5124 111.384 99.512 111.384C99.5116 111.384 99.5112 111.384 99.5108 111.384C99.5104 111.384 99.51 111.384 99.5096 111.384C99.5092 111.384 99.5088 111.384 99.5085 111.384C99.5081 111.384 99.5077 111.384 99.5073 111.384C99.5069 111.384 99.5065 111.384 99.5061 111.384C99.5057 111.384 99.5053 111.384 99.505 111.384C99.5046 111.384 99.5042 111.384 99.5038 111.384C99.5034 111.384 99.503 111.384 99.5026 111.384C99.5022 111.384 99.5018 111.384 99.5015 111.384C99.5011 111.384 99.5007 111.384 99.5003 111.384C99.4999 111.384 99.4995 111.384 99.4991 111.384C99.4987 111.384 99.4983 111.384 99.498 111.384C99.4976 111.384 99.4972 111.384 99.4968 111.384C99.4964 111.384 99.496 111.384 99.4956 111.384C99.4952 111.384 99.4948 111.384 99.4945 111.384C99.4941 111.384 99.4937 111.384 99.4933 111.384C99.4929 111.384 99.4925 111.384 99.4921 111.384C99.4917 111.384 99.4913 111.384 99.491 111.384C99.4906 111.384 99.4902 111.384 99.4898 111.384C99.4894 111.384 99.489 111.384 99.4886 111.384C99.4882 111.384 99.4878 111.384 99.4875 111.384C99.4871 111.384 99.4867 111.384 99.4863 111.384C99.4859 111.384 99.4855 111.384 99.4851 111.384C99.4847 111.384 99.4843 111.384 99.484 111.384C99.4836 111.384 99.4832 111.384 99.4828 111.384C99.4824 111.384 99.482 111.384 99.4816 111.384C99.4812 111.384 99.4808 111.384 99.4805 111.384C99.4801 111.384 99.4797 111.384 99.4793 111.384C99.4789 111.384 99.4785 111.384 99.4781 111.384C99.4777 111.384 99.4773 111.384 99.477 111.384C99.4766 111.384 99.4762 111.384 99.4758 111.384C99.4754 111.384 99.475 111.384 99.4746 111.384C99.4742 111.384 99.4738 111.384 99.4735 111.384C99.4731 111.384 99.4727 111.384 99.4723 111.384C99.4719 111.384 99.4715 111.384 99.4711 111.384C99.4707 111.384 99.4703 111.384 99.47 111.384C99.4696 111.384 99.4692 111.384 99.4688 111.384C99.4684 111.384 99.468 111.384 99.4676 111.384C99.4672 111.384 99.4668 111.384 99.4665 111.384C99.4661 111.384 99.4657 111.384 99.4653 111.384C99.4649 111.384 99.4645 111.384 99.4641 111.384C99.4637 111.384 99.4633 111.384 99.463 111.384C99.4626 111.384 99.4622 111.384 99.4618 111.384C99.4614 111.384 99.461 111.384 99.4606 111.384C99.4602 111.384 99.4598 111.384 99.4595 111.384C99.4591 111.384 99.4587 111.384 99.4583 111.384C99.4579 111.384 99.4575 111.384 99.4571 111.384C99.4567 111.384 99.4563 111.384 99.456 111.384C99.4556 111.384 99.4552 111.384 99.4548 111.384C99.4544 111.384 99.454 111.384 99.4536 111.384C99.4532 111.384 99.4528 111.384 99.4525 111.384C99.4521 111.384 99.4517 111.384 99.4513 111.384C99.4509 111.384 99.4505 111.384 99.4501 111.384C99.4497 111.384 99.4493 111.384 99.449 111.384C99.4486 111.384 99.4482 111.384 99.4478 111.384C99.4474 111.384 99.447 111.384 99.4466 111.384C99.4462 111.384 99.4458 111.384 99.4454 111.384C99.4451 111.384 99.4447 111.384 99.4443 111.384C99.4439 111.384 99.4435 111.384 99.4431 111.384C99.4427 111.384 99.4423 111.384 99.4419 111.384C99.4416 111.384 99.4412 111.384 99.4408 111.384C99.4404 111.384 99.44 111.384 99.4396 111.384C99.4392 111.384 99.4388 111.384 99.4384 111.384C99.4381 111.384 99.4377 111.384 99.4373 111.384C99.4369 111.384 99.4365 111.384 99.4361 111.384C99.4357 111.384 99.4353 111.384 99.4349 111.384C99.4346 111.384 99.4342 111.384 99.4338 111.384C99.4334 111.384 99.433 111.384 99.4326 111.384C99.4322 111.384 99.4318 111.384 99.4314 111.384C99.4311 111.384 99.4307 111.384 99.4303 111.384C99.4299 111.384 99.4295 111.384 99.4291 111.384C99.4287 111.384 99.4283 111.384 99.4279 111.384C99.4276 111.384 99.4272 111.384 99.4268 111.384C99.4264 111.384 99.426 111.384 99.4256 111.384C99.4252 111.384 99.4248 111.384 99.4244 111.384C99.4241 111.384 99.4237 111.384 99.4233 111.384C99.4229 111.384 99.4225 111.384 99.4221 111.384C99.4217 111.384 99.4213 111.384 99.4209 111.384C99.4206 111.384 99.4202 111.384 99.4198 111.384C99.4194 111.384 99.419 111.384 99.4186 111.384C99.4182 111.384 99.4178 111.384 99.4174 111.384C99.4171 111.384 99.4167 111.384 99.4163 111.384C99.4159 111.384 99.4155 111.384 99.4151 111.384C99.4147 111.384 99.4143 111.384 99.4139 111.384C99.4136 111.384 99.4132 111.384 99.4128 111.384C99.4124 111.384 99.412 111.384 99.4116 111.384C99.4112 111.384 99.4108 111.384 99.4104 111.384C99.4101 111.384 99.4097 111.384 99.4093 111.384C99.4089 111.384 99.4085 111.384 99.4081 111.384C99.4077 111.384 99.4073 111.384 99.4069 111.384C99.4066 111.384 99.4062 111.384 99.4058 111.384C99.4054 111.384 99.405 111.384 99.4046 111.384C99.4042 111.384 99.4038 111.384 99.4034 111.384C99.4031 111.384 99.4027 111.384 99.4023 111.384C99.4019 111.384 99.4015 111.384 99.4011 111.384C99.4007 111.384 99.4003 111.384 99.3999 111.384C99.3996 111.384 99.3992 111.384 99.3988 111.384C99.3984 111.384 99.398 111.384 99.3976 111.384C99.3972 111.384 99.3968 111.384 99.3964 111.384C99.3961 111.384 99.3957 111.384 99.3953 111.384C99.3949 111.384 99.3945 111.384 99.3941 111.384C99.3937 111.384 99.3933 111.384 99.3929 111.384C99.3926 111.384 99.3922 111.384 99.3918 111.384C99.3914 111.384 99.391 111.384 99.3906 111.384C99.3902 111.384 99.3898 111.384 99.3894 111.384C99.3891 111.384 99.3887 111.384 99.3883 111.384C99.3879 111.384 99.3875 111.384 99.3871 111.384C99.3867 111.384 99.3863 111.384 99.3859 111.384C99.3856 111.384 99.3852 111.384 99.3848 111.384C99.3844 111.384 99.384 111.384 99.3836 111.384C99.3832 111.384 99.3828 111.384 99.3824 111.384C99.3821 111.384 99.3817 111.384 99.3813 111.384C99.3809 111.384 99.3805 111.384 99.3801 111.384C99.3797 111.384 99.3793 111.384 99.3789 111.384C99.3786 111.384 99.3782 111.384 99.3778 111.384C99.3774 111.384 99.377 111.384 99.3766 111.384C99.3762 111.384 99.3758 111.384 99.3754 111.384C99.375 111.384 99.3747 111.384 99.3743 111.384C99.3739 111.384 99.3735 111.384 99.3731 111.384C99.3727 111.384 99.3723 111.384 99.3719 111.384C99.3715 111.384 99.3712 111.384 99.3708 111.384C99.3704 111.384 99.37 111.384 99.3696 111.384C99.3692 111.384 99.3688 111.384 99.3684 111.384C99.368 111.384 99.3677 111.384 99.3673 111.384C99.3669 111.384 99.3665 111.384 99.3661 111.384C99.3657 111.384 99.3653 111.384 99.3649 111.384C99.3645 111.384 99.3642 111.384 99.3638 111.384C99.3634 111.384 99.363 111.384 99.3626 111.384C99.3622 111.384 99.3618 111.384 99.3614 111.384C99.361 111.384 99.3607 111.384 99.3603 111.384C99.3599 111.384 99.3595 111.384 99.3591 111.384C99.3587 111.384 99.3583 111.384 99.3579 111.384C99.3575 111.384 99.3572 111.384 99.3568 111.384C99.3564 111.384 99.356 111.384 99.3556 111.384C99.3552 111.384 99.3548 111.384 99.3544 111.384C99.354 111.384 99.3537 111.384 99.3533 111.384C99.3529 111.384 99.3525 111.384 99.3521 111.384C99.3517 111.384 99.3513 111.384 99.3509 111.384C99.3505 111.384 99.3502 111.384 99.3498 111.384C99.3494 111.384 99.349 111.384 99.3486 111.384C99.3482 111.384 99.3478 111.384 99.3474 111.384C99.347 111.384 99.3467 111.384 99.3463 111.384C99.3459 111.384 99.3455 111.384 99.3451 111.384C99.3447 111.384 99.3443 111.384 99.3439 111.384C99.3435 111.384 99.3432 111.384 99.3428 111.384C99.3424 111.384 99.342 111.384 99.3416 111.384C99.3412 111.384 99.3408 111.384 99.3404 111.384C99.34 111.384 99.3397 111.384 99.3393 111.384C99.3389 111.384 99.3385 111.384 99.3381 111.384C99.3377 111.384 99.3373 111.384 99.3369 111.384C99.3365 111.384 99.3362 111.384 99.3358 111.384C99.3354 111.384 99.335 111.384 99.3346 111.384C99.3342 111.384 99.3338 111.384 99.3334 111.384C99.333 111.384 99.3327 111.384 99.3323 111.384C99.3319 111.384 99.3315 111.384 99.3311 111.384C99.3307 111.384 99.3303 111.384 99.3299 111.384C99.3295 111.384 99.3292 111.384 99.3288 111.384C99.3284 111.384 99.328 111.384 99.3276 111.384C99.3272 111.384 99.3268 111.384 99.3264 111.384C99.326 111.384 99.3257 111.384 99.3253 111.384C99.3249 111.384 99.3245 111.384 99.3241 111.384C99.3237 111.384 99.3233 111.384 99.3229 111.384C99.3225 111.384 99.3222 111.384 99.3218 111.384C99.3214 111.384 99.321 111.384 99.3206 111.384C99.3202 111.384 99.3198 111.384 99.3194 111.384C99.319 111.384 99.3187 111.384 99.3183 111.384C99.3179 111.384 99.3175 111.384 99.3171 111.384C99.3167 111.384 99.3163 111.384 99.3159 111.384C99.3155 111.384 99.3152 111.384 99.3148 111.384C99.3144 111.384 99.314 111.384 99.3136 111.384C99.3132 111.384 99.3128 111.384 99.3124 111.384C99.312 111.384 99.3117 111.384 99.3113 111.384C99.3109 111.384 99.3105 111.384 99.3101 111.384C99.3097 111.384 99.3093 111.384 99.3089 111.384C99.3085 111.384 99.3081 111.384 99.3078 111.384C99.3074 111.384 99.307 111.384 99.3066 111.384C99.3062 111.384 99.3058 111.384 99.3054 111.384C99.305 111.384 99.3046 111.384 99.3043 111.384C99.3039 111.384 99.3035 111.384 99.3031 111.384C99.3027 111.384 99.3023 111.384 99.3019 111.384C99.3015 111.384 99.3011 111.384 99.3008 111.384C99.3004 111.384 99.3 111.384 99.2996 111.384C99.2992 111.384 99.2988 111.384 99.2984 111.384C99.298 111.384 99.2976 111.384 99.2973 111.384C99.2969 111.384 99.2965 111.384 99.2961 111.384C99.2957 111.384 99.2953 111.384 99.2949 111.384C99.2945 111.384 99.2941 111.384 99.2938 111.384C99.2934 111.384 99.293 111.384 99.2926 111.384C99.2922 111.384 99.2918 111.384 99.2914 111.384C99.291 111.384 99.2906 111.384 99.2903 111.384C99.2899 111.384 99.2895 111.384 99.2891 111.384C99.2887 111.384 99.2883 111.384 99.2879 111.384C99.2875 111.384 99.2871 111.384 99.2868 111.384C99.2864 111.384 99.286 111.384 99.2856 111.384C99.2852 111.384 99.2848 111.384 99.2844 111.384C99.284 111.384 99.2836 111.384 99.2833 111.384C99.2829 111.384 99.2825 111.384 99.2821 111.384C99.2817 111.384 99.2813 111.384 99.2809 111.384C99.2805 111.384 99.2801 111.384 99.2798 111.384C99.2794 111.384 99.279 111.384 99.2786 111.384C99.2782 111.384 99.2778 111.384 99.2774 111.384C99.277 111.384 99.2766 111.384 99.2763 111.384C99.2759 111.384 99.2755 111.384 99.2751 111.384C99.2747 111.384 99.2743 111.384 99.2739 111.384C99.2735 111.384 99.2731 111.384 99.2728 111.384C99.2724 111.384 99.272 111.384 99.2716 111.384C99.2712 111.384 99.2708 111.384 99.2704 111.384C99.27 111.384 99.2696 111.384 99.2693 111.384C99.2689 111.384 99.2685 111.384 99.2681 111.384C99.2677 111.384 99.2673 111.384 99.2669 111.384C99.2665 111.384 99.2661 111.384 99.2658 111.384C99.2654 111.384 99.265 111.384 99.2646 111.384C99.2642 111.384 99.2638 111.384 99.2634 111.384C99.263 111.384 99.2626 111.384 99.2623 111.384C99.2619 111.384 99.2615 111.384 99.2611 111.384C99.2607 111.384 99.2603 111.384 99.2599 111.384C99.2595 111.384 99.2591 111.384 99.2588 111.384C99.2584 111.384 99.258 111.384 99.2576 111.384C99.2572 111.384 99.2568 111.384 99.2564 111.384C99.256 111.384 99.2556 111.384 99.2553 111.384C99.2549 111.384 99.2545 111.384 99.2541 111.384C99.2537 111.384 99.2533 111.384 99.2529 111.384C99.2525 111.384 99.2521 111.384 99.2518 111.384C99.2514 111.384 99.251 111.384 99.2506 111.384C99.2502 111.384 99.2498 111.384 99.2494 111.384C99.249 111.384 99.2486 111.384 99.2483 111.384C99.2479 111.384 99.2475 111.384 99.2471 111.384C99.2467 111.384 99.2463 111.384 99.2459 111.384C99.2455 111.384 99.2451 111.384 99.2448 111.384C99.2444 111.384 99.244 111.384 99.2436 111.384C99.2432 111.384 99.2428 111.384 99.2424 111.384C99.242 111.384 99.2416 111.384 99.2412 111.384C99.2409 111.384 99.2405 111.384 99.2401 111.384C99.2397 111.384 99.2393 111.384 99.2389 111.384C99.2385 111.384 99.2381 111.384 99.2377 111.384C99.2374 111.384 99.237 111.384 99.2366 111.384C99.2362 111.384 99.2358 111.384 99.2354 111.384C99.235 111.384 99.2346 111.384 99.2342 111.384C99.2339 111.384 99.2335 111.384 99.2331 111.384C99.2327 111.384 99.2323 111.384 99.2319 111.384C99.2315 111.384 99.2311 111.384 99.2307 111.384C99.2304 111.384 99.23 111.384 99.2296 111.384C99.2292 111.384 99.2288 111.384 99.2284 111.384C99.228 111.384 99.2276 111.384 99.2272 111.384C99.2269 111.384 99.2265 111.384 99.2261 111.384C99.2257 111.384 99.2253 111.384 99.2249 111.384C99.2245 111.384 99.2241 111.384 99.2237 111.384C99.2234 111.384 99.223 111.384 99.2226 111.384C99.2222 111.384 99.2218 111.384 99.2214 111.384C99.221 111.384 99.2206 111.384 99.2202 111.384C99.2199 111.384 99.2195 111.384 99.2191 111.384C99.2187 111.384 99.2183 111.384 99.2179 111.384C99.2175 111.384 99.2171 111.384 99.2167 111.384C99.2164 111.384 99.216 111.384 99.2156 111.384C99.2152 111.384 99.2148 111.384 99.2144 111.384C99.214 111.384 99.2136 111.384 99.2132 111.384C99.2129 111.384 99.2125 111.384 99.2121 111.384C99.2117 111.384 99.2113 111.384 99.2109 111.384C99.2105 111.384 99.2101 111.384 99.2097 111.384C99.2094 111.384 99.209 111.384 99.2086 111.384C99.2082 111.384 99.2078 111.384 99.2074 111.384C99.207 111.384 99.2066 111.384 99.2062 111.384C99.2059 111.384 99.2055 111.384 99.2051 111.384C99.2047 111.384 99.2043 111.384 99.2039 111.384C99.2035 111.384 99.2031 111.384 99.2027 111.384C99.2024 111.384 99.202 111.384 99.2016 111.384C99.2012 111.384 99.2008 111.384 99.2004 111.384C99.2 111.384 99.1996 111.384 99.1992 111.384C99.1989 111.384 99.1985 111.384 99.1981 111.384C99.1977 111.384 99.1973 111.384 99.1969 111.384C99.1965 111.384 99.1961 111.384 99.1957 111.384C99.1954 111.384 99.195 111.384 99.1946 111.384C99.1942 111.384 99.1938 111.384 99.1934 111.384C99.193 111.384 99.1926 111.384 99.1922 111.384C99.1919 111.384 99.1915 111.384 99.1911 111.384C99.1907 111.384 99.1903 111.384 99.1899 111.384C99.1895 111.384 99.1891 111.384 99.1887 111.384C99.1884 111.384 99.188 111.384 99.1876 111.384C99.1872 111.384 99.1868 111.384 99.1864 111.384C99.186 111.384 99.1856 111.384 99.1852 111.384C99.1849 111.384 99.1845 111.384 99.1841 111.384C99.1837 111.384 99.1833 111.384 99.1829 111.384C99.1825 111.384 99.1821 111.384 99.1817 111.384C99.1814 111.384 99.181 111.384 99.1806 111.384C99.1802 111.384 99.1798 111.384 99.1794 111.384C99.179 111.384 99.1786 111.384 99.1782 111.384C99.1779 111.384 99.1775 111.384 99.1771 111.384C99.1767 111.384 99.1763 111.384 99.1759 111.384C99.1755 111.384 99.1751 111.384 99.1747 111.384C99.1744 111.384 99.174 111.384 99.1736 111.384C99.1732 111.384 99.1728 111.384 99.1724 111.384C99.172 111.384 99.1716 111.384 99.1712 111.384C99.1708 111.384 99.1705 111.384 99.1701 111.384C99.1697 111.384 99.1693 111.384 99.1689 111.384C99.1685 111.384 99.1681 111.384 99.1677 111.384C99.1673 111.384 99.167 111.384 99.1666 111.384C99.1662 111.384 99.1658 111.384 99.1654 111.384C99.165 111.384 99.1646 111.384 99.1642 111.384C99.1638 111.384 99.1635 111.384 99.1631 111.384C99.1627 111.384 99.1623 111.384 99.1619 111.384C99.1615 111.384 99.1611 111.384 99.1607 111.384C99.1603 111.384 99.16 111.384 99.1596 111.384C99.1592 111.384 99.1588 111.384 99.1584 111.384C99.158 111.384 99.1576 111.384 99.1572 111.384C99.1568 111.384 99.1565 111.384 99.1561 111.384C99.1557 111.384 99.1553 111.384 99.1549 111.384C99.1545 111.384 99.1541 111.384 99.1537 111.384C99.1533 111.384 99.153 111.384 99.1526 111.384C99.1522 111.384 99.1518 111.384 99.1514 111.384C99.151 111.384 99.1506 111.384 99.1502 111.384C99.1498 111.384 99.1495 111.384 99.1491 111.384C99.1487 111.384 99.1483 111.384 99.1479 111.384C99.1475 111.384 99.1471 111.384 99.1467 111.384C99.1463 111.384 99.146 111.384 99.1456 111.384C99.1452 111.384 99.1448 111.384 99.1444 111.384C99.144 111.384 99.1436 111.384 99.1432 111.384C99.1428 111.384 99.1425 111.384 99.1421 111.384C99.1417 111.384 99.1413 111.384 99.1409 111.384C99.1405 111.384 99.1401 111.384 99.1397 111.384C99.1393 111.384 99.139 111.384 99.1386 111.384C99.1382 111.384 99.1378 111.384 99.1374 111.384C99.137 111.384 99.1366 111.384 99.1362 111.384C99.1358 111.384 99.1355 111.384 99.1351 111.384C99.1347 111.384 99.1343 111.384 99.1339 111.384C99.1335 111.384 99.1331 111.384 99.1327 111.384C99.1323 111.384 99.132 111.384 99.1316 111.384C99.1312 111.384 99.1308 111.384 99.1304 111.384C99.13 111.384 99.1296 111.384 99.1292 111.384C99.1288 111.384 99.1285 111.384 99.1281 111.384C99.1277 111.384 99.1273 111.384 99.1269 111.384C99.1265 111.384 99.1261 111.384 99.1257 111.384C99.1253 111.384 99.125 111.384 99.1246 111.384C99.1242 111.384 99.1238 111.384 99.1234 111.384C99.123 111.384 99.1226 111.384 99.1222 111.384C99.1218 111.384 99.1215 111.384 99.1211 111.384C99.1207 111.384 99.1203 111.384 99.1199 111.384C99.1195 111.384 99.1191 111.384 99.1187 111.384C99.1183 111.384 99.118 111.384 99.1176 111.384C99.1172 111.384 99.1168 111.384 99.1164 111.384C99.116 111.384 99.1156 111.384 99.1152 111.384C99.1148 111.384 99.1145 111.384 99.1141 111.384C99.1137 111.384 99.1133 111.384 99.1129 111.384C99.1125 111.384 99.1121 111.384 99.1117 111.384C99.1113 111.384 99.111 111.384 99.1106 111.384C99.1102 111.384 99.1098 111.384 99.1094 111.384C99.109 111.384 99.1086 111.384 99.1082 111.384C99.1078 111.384 99.1075 111.384 99.1071 111.384C99.1067 111.384 99.1063 111.384 99.1059 111.384C99.1055 111.384 99.1051 111.384 99.1047 111.384C99.1043 111.384 99.1039 111.384 99.1036 111.384C99.1032 111.384 99.1028 111.384 99.1024 111.384C99.102 111.384 99.1016 111.384 99.1012 111.384C99.1008 111.384 99.1004 111.384 99.1001 111.384C99.0997 111.384 99.0993 111.384 99.0989 111.384C99.0985 111.384 99.0981 111.384 99.0977 111.384C99.0973 111.384 99.0969 111.384 99.0966 111.384C99.0962 111.384 99.0958 111.384 99.0954 111.384C99.095 111.384 99.0946 111.384 99.0942 111.384C99.0938 111.384 99.0934 111.384 99.0931 111.384C99.0927 111.384 99.0923 111.384 99.0919 111.384C99.0915 111.384 99.0911 111.384 99.0907 111.384C99.0903 111.384 99.0899 111.384 99.0896 111.384C99.0892 111.384 99.0888 111.384 99.0884 111.384C99.088 111.384 99.0876 111.384 99.0872 111.384C99.0868 111.384 99.0864 111.384 99.0861 111.384C99.0857 111.384 99.0853 111.384 99.0849 111.384C99.0845 111.384 99.0841 111.384 99.0837 111.384C99.0833 111.384 99.0829 111.384 99.0826 111.384C99.0822 111.384 99.0818 111.384 99.0814 111.384C99.081 111.384 99.0806 111.384 99.0802 111.384C99.0798 111.384 99.0794 111.384 99.0791 111.384C99.0787 111.384 99.0783 111.384 99.0779 111.384C99.0775 111.384 99.0771 111.384 99.0767 111.384C99.0763 111.384 99.0759 111.384 99.0756 111.384C99.0752 111.384 99.0748 111.384 99.0744 111.384C99.074 111.384 99.0736 111.384 99.0732 111.384C99.0728 111.384 99.0724 111.384 99.0721 111.384C99.0717 111.384 99.0713 111.384 99.0709 111.384C99.0705 111.384 99.0701 111.384 99.0697 111.384C99.0693 111.384 99.0689 111.384 99.0686 111.384C99.0682 111.384 99.0678 111.384 99.0674 111.384C99.067 111.384 99.0666 111.384 99.0662 111.384C99.0658 111.384 99.0654 111.384 99.0651 111.384C99.0647 111.384 99.0643 111.384 99.0639 111.384C99.0635 111.384 99.0631 111.384 99.0627 111.384C99.0623 111.384 99.0619 111.384 99.0616 111.384C99.0612 111.384 99.0608 111.384 99.0604 111.384C99.06 111.384 99.0596 111.384 99.0592 111.384C99.0588 111.384 99.0584 111.384 99.0581 111.384C99.0577 111.384 99.0573 111.384 99.0569 111.384C99.0565 111.384 99.0561 111.384 99.0557 111.384C99.0553 111.384 99.0549 111.384 99.0546 111.384C99.0542 111.384 99.0538 111.384 99.0534 111.384C99.053 111.384 99.0526 111.384 99.0522 111.384C99.0518 111.384 99.0514 111.384 99.0511 111.384C99.0507 111.384 99.0503 111.384 99.0499 111.384C99.0495 111.384 99.0491 111.384 99.0487 111.384C99.0483 111.384 99.0479 111.384 99.0476 111.384C99.0472 111.384 99.0468 111.384 99.0464 111.384C99.046 111.384 99.0456 111.384 99.0452 111.384C99.0448 111.384 99.0444 111.384 99.0441 111.384C99.0437 111.384 99.0433 111.384 99.0429 111.384C99.0425 111.384 99.0421 111.384 99.0417 111.384C99.0413 111.384 99.0409 111.384 99.0406 111.384C99.0402 111.384 99.0398 111.384 99.0394 111.384C99.039 111.384 99.0386 111.384 99.0382 111.384C99.0378 111.384 99.0374 111.384 99.037 111.384C99.0367 111.384 99.0363 111.384 99.0359 111.384C99.0355 111.384 99.0351 111.384 99.0347 111.384C99.0343 111.384 99.0339 111.384 99.0335 111.384C99.0332 111.384 99.0328 111.384 99.0324 111.384C99.032 111.384 99.0316 111.384 99.0312 111.384C99.0308 111.384 99.0304 111.384 99.03 111.384C99.0297 111.384 99.0293 111.384 99.0289 111.384C99.0285 111.384 99.0281 111.384 99.0277 111.384C99.0273 111.384 99.0269 111.384 99.0265 111.384C99.0262 111.384 99.0258 111.384 99.0254 111.384C99.025 111.384 99.0246 111.384 99.0242 111.384C99.0238 111.384 99.0234 111.384 99.023 111.384C99.0227 111.384 99.0223 111.384 99.0219 111.384C99.0215 111.384 99.0211 111.384 99.0207 111.384C99.0203 111.384 99.0199 111.384 99.0195 111.384C99.0192 111.384 99.0188 111.384 99.0184 111.384C99.018 111.384 99.0176 111.384 99.0172 111.384C99.0168 111.384 99.0164 111.384 99.016 111.384C99.0157 111.384 99.0153 111.384 99.0149 111.384C99.0145 111.384 99.0141 111.384 99.0137 111.384C99.0133 111.384 99.0129 111.384 99.0125 111.384C99.0122 111.384 99.0118 111.384 99.0114 111.384C99.011 111.384 99.0106 111.384 99.0102 111.384C99.0098 111.384 99.0094 111.384 99.009 111.384C99.0087 111.384 99.0083 111.384 99.0079 111.384C99.0075 111.384 99.0071 111.384 99.0067 111.384C99.0063 111.384 99.0059 111.384 99.0055 111.384C99.0052 111.384 99.0048 111.384 99.0044 111.384C99.004 111.384 99.0036 111.384 99.0032 111.384C99.0028 111.384 99.0024 111.384 99.002 111.384C99.0017 111.384 99.0013 111.384 99.0009 111.384C99.0005 111.384 99.0001 111.384 98.9997 111.384C98.9993 111.384 98.9989 111.384 98.9985 111.384C98.9982 111.384 98.9978 111.384 98.9974 111.384C98.997 111.384 98.9966 111.384 98.9962 111.384C98.9958 111.384 98.9954 111.384 98.995 111.384C98.9947 111.384 98.9943 111.384 98.9939 111.384C98.9935 111.384 98.9931 111.384 98.9927 111.384C98.9923 111.384 98.9919 111.384 98.9915 111.384C98.9912 111.384 98.9908 111.384 98.9904 111.384C98.99 111.384 98.9896 111.384 98.9892 111.384C98.9888 111.384 98.9884 111.384 98.988 111.384C98.9877 111.384 98.9873 111.384 98.9869 111.384C98.9865 111.384 98.9861 111.384 98.9857 111.384C98.9853 111.384 98.9849 111.384 98.9845 111.384C98.9842 111.384 98.9838 111.384 98.9834 111.384C98.983 111.384 98.9826 111.384 98.9822 111.384C98.9818 111.384 98.9814 111.384 98.981 111.384C98.9807 111.384 98.9803 111.384 98.9799 111.384C98.9795 111.384 98.9791 111.384 98.9787 111.384C98.9783 111.384 98.9779 111.384 98.9775 111.384C98.9772 111.384 98.9768 111.384 98.9764 111.384C98.976 111.384 98.9756 111.384 98.9752 111.384C98.9748 111.384 98.9744 111.384 98.974 111.384C98.9736 111.384 98.9733 111.384 98.9729 111.384C98.9725 111.384 98.9721 111.384 98.9717 111.384C98.9713 111.384 98.9709 111.384 98.9705 111.384C98.9701 111.384 98.9698 111.384 98.9694 111.384C98.969 111.384 98.9686 111.384 98.9682 111.384C98.9678 111.384 98.9674 111.384 98.967 111.384C98.9666 111.384 98.9663 111.384 98.9659 111.384C98.9655 111.384 98.9651 111.384 98.9647 111.384C98.9643 111.384 98.9639 111.384 98.9635 111.384C98.9631 111.384 98.9628 111.384 98.9624 111.384C98.962 111.384 98.9616 111.384 98.9612 111.384C98.9608 111.384 98.9604 111.384 98.96 111.384C98.9596 111.384 98.9593 111.384 98.9589 111.384C98.9585 111.384 98.9581 111.384 98.9577 111.384C98.9573 111.384 98.9569 111.384 98.9565 111.384C98.9561 111.384 98.9558 111.384 98.9554 111.384C98.955 111.384 98.9546 111.384 98.9542 111.384C98.9538 111.384 98.9534 111.384 98.953 111.384C98.9526 111.384 98.9523 111.384 98.9519 111.384C98.9515 111.384 98.9511 111.384 98.9507 111.384C98.9503 111.384 98.9499 111.384 98.9495 111.384C98.9491 111.384 98.9488 111.384 98.9484 111.384C98.948 111.384 98.9476 111.384 98.9472 111.384C98.9468 111.384 98.9464 111.384 98.946 111.384C98.9456 111.384 98.9453 111.384 98.9449 111.384C98.9445 111.384 98.9441 111.384 98.9437 111.384C98.9433 111.384 98.9429 111.384 98.9425 111.384C98.9421 111.384 98.9418 111.384 98.9414 111.384C98.941 111.384 98.9406 111.384 98.9402 111.384C98.9398 111.384 98.9394 111.384 98.939 111.384C98.9386 111.384 98.9383 111.384 98.9379 111.384C98.9375 111.384 98.9371 111.384 98.9367 111.384C98.9363 111.384 98.9359 111.384 98.9355 111.384C98.9351 111.384 98.9348 111.384 98.9344 111.384C98.934 111.384 98.9336 111.384 98.9332 111.384C98.9328 111.384 98.9324 111.384 98.932 111.384C98.9316 111.384 98.9313 111.384 98.9309 111.384C98.9305 111.384 98.9301 111.384 98.9297 111.384C98.9293 111.384 98.9289 111.384 98.9285 111.384C98.9281 111.384 98.9278 111.384 98.9274 111.384C98.927 111.384 98.9266 111.384 98.9262 111.384C98.9258 111.384 98.9254 111.384 98.925 111.384C98.9246 111.384 98.9243 111.384 98.9239 111.384C98.9235 111.384 98.9231 111.384 98.9227 111.384V112.984ZM100.293 112.39C100.862 110.253 101.627 107.981 102.041 105.703L100.467 105.416C100.067 107.615 99.3544 109.699 98.7471 111.978L100.293 112.39ZM102.041 105.703C102.733 101.897 103.383 98.0853 104.031 94.2776C104.679 90.4684 105.325 86.6639 106.009 82.8667L104.435 82.5831C103.749 86.3894 103.102 90.202 102.454 94.0092C101.806 97.8178 101.157 101.621 100.467 105.417L102.041 105.703ZM106.009 82.8667C107.083 76.9075 108.261 70.9615 109.465 65.0165L107.897 64.6989C106.692 70.6473 105.511 76.6067 104.435 82.583L106.009 82.8667ZM109.465 65.0154C109.659 64.0503 110.061 63.0712 110.572 62.1845L109.186 61.3854C108.606 62.3905 108.131 63.5322 107.897 64.7L109.465 65.0154ZM110.572 62.1835C110.663 62.0267 110.848 61.8163 111.068 61.6501C111.175 61.5699 111.272 61.5139 111.349 61.4811C111.431 61.446 111.454 61.4527 111.428 61.4516L111.492 59.8529C110.947 59.831 110.441 60.1199 110.107 60.3714C109.745 60.6435 109.401 61.01 109.185 61.3864L110.572 62.1835ZM111.427 61.4516C111.392 61.4501 111.418 61.4441 111.509 61.4919C111.59 61.535 111.689 61.6031 111.789 61.6916C111.888 61.7796 111.974 61.8752 112.037 61.9634C112.068 62.007 112.09 62.0444 112.105 62.074C112.113 62.0885 112.118 62.1 112.121 62.1082C112.124 62.1165 112.125 62.1203 112.125 62.1197L113.674 61.7213C113.548 61.2312 113.183 60.7895 112.851 60.4948C112.672 60.336 112.468 60.1889 112.254 60.076C112.048 59.9677 111.783 59.8649 111.493 59.8529L111.427 61.4516ZM112.124 62.1172C112.832 64.9079 113.577 67.6243 113.891 70.3798L115.481 70.1987C115.151 67.3087 114.37 64.4641 113.675 61.7238L112.124 62.1172ZM113.891 70.3799C115.193 81.7892 116.356 93.2104 117.542 104.639L119.134 104.474C117.948 93.0497 116.783 81.6181 115.481 70.1986L113.891 70.3799ZM117.542 104.639C118.417 113.06 119.182 121.529 120.132 129.96L121.722 129.781C120.772 121.354 120.012 112.929 119.134 104.474L117.542 104.639ZM120.132 129.96C120.549 133.67 121.305 137.37 121.915 140.993L123.493 140.727C122.871 137.029 122.132 133.434 121.722 129.781L120.132 129.96ZM121.915 140.991C121.965 141.294 122.05 141.576 122.132 141.823C122.222 142.096 122.292 142.279 122.362 142.507L123.892 142.039C123.817 141.797 123.715 141.515 123.65 141.319C123.577 141.098 123.523 140.909 123.493 140.73L121.915 140.991ZM122.984 143.06C123.055 143.073 123.126 143.087 123.202 143.101C123.276 143.115 123.355 143.13 123.435 143.145L123.719 141.57C123.649 141.557 123.577 141.544 123.502 141.529C123.427 141.515 123.348 141.5 123.269 141.486L122.984 143.06ZM124.345 142.581C124.882 140.737 125.625 138.736 126.019 136.731L124.45 136.422C124.072 138.339 123.393 140.128 122.809 142.134L124.345 142.581ZM126.019 136.731C127.763 127.868 129.41 118.986 131.1 110.123L129.528 109.823C127.836 118.698 126.192 127.565 124.45 136.422L126.019 136.731ZM131.1 110.123C132.464 102.979 133.82 95.8396 135.229 88.7091L133.659 88.399C132.249 95.5358 130.892 102.681 129.528 109.823L131.1 110.123Z" fill="#87CB44" mask="url(#path-6-outside-2_1449_10388)"/>
<path d="M109.75 40.4805C110.285 36.807 111.967 33.6115 115.253 31.3058C116.583 30.3709 118.169 29.7607 119.644 29.0152C119.968 28.8528 120.321 28.7506 120.664 28.6184C120.228 27.6654 120.135 27.6324 119.192 27.8308C118.46 27.9871 117.807 27.8217 117.316 27.3137C116.87 26.8478 116.345 26.7215 115.668 26.8147C114.691 26.95 113.72 26.9349 112.978 26.2345C111.961 25.2756 112.01 23.8116 113.102 22.6182C113.312 22.3867 113.565 22.1883 113.794 21.9748C114.595 21.2263 114.446 20.2914 113.55 19.7082C112.687 19.1461 111.766 18.5749 111.135 17.8144C109.957 16.3955 110.841 14.4145 112.641 14.1559C113.244 14.0687 113.17 13.708 113.077 13.3292C112.771 12.0787 112.545 10.8251 112.969 9.5265C113.584 7.64467 115.952 6.7699 117.64 7.83707C118.076 8.11363 118.472 8.46835 118.79 8.85614C119.665 9.9173 119.647 9.93233 121.171 9.99847C121.323 9.18982 121.434 8.37215 121.632 7.56651C121.907 6.43922 122.386 5.3961 123.41 4.62954C124.887 3.52329 127.2 3.92911 128.081 5.42315C128.774 6.60456 129.058 7.88516 129.089 9.2289C129.102 9.74595 129.262 9.91129 129.837 9.83012C130.317 9.76399 130.811 9.83313 131.173 9.73994C132.079 9.09663 132.908 8.30001 133.906 7.84609C135.727 7.0164 137.752 8.23688 137.913 10.0856C138.025 11.3723 137.691 12.5988 137.239 13.8162C137.193 13.9425 137.156 14.0718 137.103 14.2401C137.267 14.2912 137.397 14.3423 137.53 14.3724C139.227 14.7481 140.013 16.5548 138.906 17.8715C138.278 18.617 137.385 19.2543 136.482 19.7142C134.988 20.4778 134.729 21.3255 135.814 22.4889C136.123 22.8226 136.389 23.2224 136.562 23.6342C137.323 25.4169 136.012 27.1093 133.922 27.0792C133.554 27.0732 133.18 26.95 132.821 26.9951C132.379 27.0522 131.847 27.1183 131.532 27.3708C130.802 27.957 130.045 28.1524 129.191 27.8698C128.647 27.6895 128.363 27.8338 128.248 28.2396C145.961 30.8189 142.396 45.9456 141.775 49.7814C141.178 53.476 135.829 83.45 134.617 90.8661" stroke="#87CB44" stroke-width="3" stroke-miterlimit="10"/>
</svg>
