<svg width="98" height="32" viewBox="0 0 98 32" fill="none" xmlns="http://www.w3.org/2000/svg">
<path d="M25.4507 5.44749C25.7009 5.44749 25.945 5.50959 26.1827 5.62756C26.4142 5.74554 26.6207 5.89456 26.8085 6.06221C26.9899 6.23606 27.1338 6.40992 27.2402 6.5962C27.3466 6.78247 27.4029 6.9377 27.4029 7.05568C27.4029 7.17365 27.3653 7.25437 27.2903 7.27921C27.2152 7.31026 27.1088 7.31646 26.9774 7.30405C26.846 7.29163 26.6896 7.26679 26.5081 7.22954C26.3267 7.19228 26.1264 7.17365 25.9137 7.17365C25.4444 7.17365 24.875 7.21712 24.1867 7.31026C23.4984 7.40339 22.7538 7.52758 21.9341 7.69523C21.1207 7.86287 20.2635 8.05536 19.3624 8.2851C18.4677 8.50863 17.5729 8.76321 16.6781 9.0302V9.06125C16.6781 9.17302 16.6343 9.40897 16.5405 9.7691C16.4466 10.1292 16.3402 10.5825 16.2214 11.1289C16.5655 11.0171 16.9034 10.9178 17.2413 10.8185C17.5729 10.7253 17.8858 10.6446 18.1673 10.5763C18.4489 10.508 18.7054 10.4583 18.9244 10.4273C19.1497 10.39 19.3312 10.3776 19.4688 10.3776C19.5877 10.39 19.7066 10.4211 19.8192 10.4832C19.9318 10.5452 20.032 10.6136 20.1258 10.6943C20.2197 10.775 20.2885 10.8619 20.3448 10.9613C20.4011 11.0544 20.4262 11.1475 20.4262 11.2407C20.4262 11.3214 20.3949 11.3711 20.3323 11.4021C20.2697 11.427 20.2009 11.4394 20.1133 11.4394C20.0257 11.4394 19.9318 11.427 19.8255 11.4083C19.7191 11.3897 19.619 11.3773 19.5314 11.3773C19.3562 11.3773 19.1434 11.4145 18.8869 11.4828C18.6304 11.5511 18.3425 11.6505 18.0234 11.7747C17.7043 11.8989 17.3664 12.0417 17.0035 12.2031C16.6468 12.3645 16.2839 12.5322 15.9335 12.6998C15.8522 13.1904 15.7896 13.7119 15.7333 14.2584C15.6832 14.8048 15.6582 15.3698 15.6582 15.9535C15.6582 16.8165 15.702 17.5989 15.7896 18.2943C15.8772 18.9898 15.9711 19.5796 16.0774 20.0764C16.1838 20.5669 16.2839 20.9519 16.3715 21.2313C16.4654 21.5107 16.5092 21.6535 16.5092 21.6783C16.5092 21.728 16.4341 21.7839 16.2902 21.846C16.1463 21.9081 15.9961 21.9391 15.8397 21.9391C15.5143 21.9391 15.2265 21.815 14.9762 21.5604C14.7259 21.312 14.5006 20.9891 14.3129 20.5979C14.1252 20.2068 13.9688 19.7659 13.8436 19.2878C13.7185 18.8035 13.6184 18.3316 13.537 17.8597C13.462 17.394 13.4056 16.9594 13.3744 16.5558C13.3431 16.1522 13.3306 15.8355 13.3306 15.6058C13.3306 15.0345 13.3431 14.4881 13.3744 13.9789C13.1741 14.0783 13.0052 14.159 12.8738 14.2149C12.7424 14.2708 12.6485 14.2956 12.5985 14.2956C12.5046 14.2956 12.4045 14.2646 12.2919 14.2025C12.1792 14.1404 12.0791 14.0721 11.9853 13.9851C11.8914 13.8982 11.8163 13.8051 11.76 13.6995C11.6974 13.594 11.6662 13.4884 11.6662 13.3891C11.6662 13.24 11.8414 13.0538 12.1918 12.8302C12.5422 12.6067 12.9927 12.3832 13.537 12.1534C13.5996 11.694 13.6684 11.2717 13.7498 10.893C13.8311 10.5142 13.9187 10.1913 14.0063 9.91812C13.2054 10.21 12.4608 10.5142 11.7663 10.8247C11.0717 11.1351 10.4648 11.4518 9.9517 11.7685C9.43236 12.0851 9.0319 12.4018 8.73782 12.7123C8.44373 13.0227 8.29982 13.3208 8.29982 13.6002C8.29982 13.6933 8.27479 13.7678 8.23099 13.8361C8.18719 13.9044 8.13713 13.9417 8.08082 13.9665C8.0245 13.9851 7.97444 13.9789 7.93064 13.9417C7.88684 13.9044 7.86182 13.8361 7.86182 13.7244C7.86182 13.1407 8.05579 12.5757 8.44999 12.0292C8.83793 11.4828 9.36353 10.9613 10.0205 10.4583C10.6775 9.96158 11.4472 9.49589 12.3169 9.05504C13.1866 8.6204 14.1127 8.21059 15.0826 7.83804C16.0524 7.46549 17.041 7.13019 18.0484 6.83215C19.0496 6.5341 20.0132 6.28574 20.9392 6.08704C21.859 5.88835 22.71 5.73312 23.4922 5.62135C24.2743 5.50959 24.9251 5.4537 25.4507 5.4537" fill="black"/>
<path d="M30.1875 14.3515C29.9873 14.3515 29.7995 14.4198 29.6431 14.5626C29.4804 14.7054 29.3365 14.8917 29.2176 15.1214C29.0987 15.3512 28.9924 15.6182 28.911 15.9224C28.8297 16.2267 28.7671 16.5433 28.7296 16.8724C29.0549 17.0152 29.3303 17.0463 29.568 16.9718C29.7995 16.8973 29.9935 16.7669 30.1437 16.5806C30.2939 16.3943 30.4065 16.1708 30.4753 15.9162C30.5441 15.6616 30.5817 15.4133 30.5817 15.1835C30.5817 14.9538 30.5504 14.7551 30.4816 14.5936C30.4127 14.4322 30.3189 14.3515 30.1875 14.3515ZM33.047 17.0214C33.0783 16.9531 33.1158 16.9035 33.1534 16.8786C33.1909 16.8538 33.2347 16.8476 33.2723 16.8662C33.3098 16.8786 33.3411 16.9159 33.3661 16.9656C33.3849 17.0152 33.3786 17.0835 33.3536 17.1642C33.3348 17.2139 33.291 17.3505 33.2347 17.5616C33.1721 17.779 33.0845 18.0335 32.9657 18.3316C32.8468 18.6296 32.7029 18.9401 32.5277 19.2754C32.3525 19.6045 32.1397 19.9149 31.8957 20.1943C31.6517 20.4738 31.3701 20.7097 31.051 20.8898C30.7319 21.0698 30.3752 21.163 29.981 21.163C29.4554 21.163 28.9799 21.0574 28.5606 20.8463C28.1414 20.6352 27.7847 20.362 27.4969 20.0329C27.2091 19.7038 26.9901 19.3375 26.8337 18.9401C26.6835 18.5427 26.6084 18.1515 26.6084 17.7727C26.6084 17.2822 26.6647 16.8041 26.7773 16.3446C26.89 15.8852 27.0276 15.4691 27.1903 15.0842C27.353 14.6992 27.5282 14.3701 27.7159 14.0907C27.9036 13.8113 28.0726 13.6002 28.2227 13.4574C28.3729 13.327 28.5731 13.2276 28.8172 13.1655C29.0612 13.0972 29.3052 13.0662 29.5555 13.06C29.8058 13.06 30.0373 13.0662 30.2626 13.0972C30.4878 13.1283 30.6568 13.1717 30.7819 13.2338C31.0134 13.3456 31.2074 13.5567 31.3513 13.8734C31.4952 14.19 31.5703 14.5626 31.5703 14.9848C31.5703 15.7796 31.4014 16.3819 31.0697 16.7855C30.7381 17.1953 30.3189 17.394 29.8246 17.394C29.6431 17.394 29.4491 17.3754 29.2552 17.3319C29.0549 17.2946 28.8797 17.245 28.7171 17.1953C28.6858 17.5678 28.7171 17.9342 28.8109 18.2943C28.9048 18.6545 29.0237 18.9773 29.1863 19.2568C29.3428 19.5362 29.5242 19.7659 29.7307 19.946C29.9372 20.1198 30.1499 20.213 30.3627 20.213C30.6881 20.213 30.9759 20.1385 31.2262 19.9956C31.4765 19.8528 31.708 19.6666 31.9019 19.443C32.1022 19.2195 32.2649 18.9773 32.4025 18.7165C32.5402 18.4558 32.6528 18.2074 32.7529 17.9714C32.8468 17.7355 32.9219 17.5306 32.9657 17.3505C33.0095 17.1767 33.047 17.0649 33.0658 17.0276L33.047 17.0214Z" fill="black"/>
<path d="M44.8977 13.0041C45.1104 13.0041 45.3232 13.0041 45.5359 13.0165C45.7487 13.0289 45.9426 13.0661 46.1241 13.1345C46.2993 13.2028 46.4432 13.3207 46.5558 13.4884C46.6685 13.656 46.7248 13.892 46.7248 14.2024C46.7248 14.5129 46.706 14.8171 46.6622 15.1152C46.6247 15.4132 46.5558 15.674 46.4745 15.8975C46.3869 16.1211 46.2743 16.3074 46.1429 16.4502C46.0052 16.593 45.8425 16.6613 45.6485 16.6613C45.2606 16.6613 44.9415 16.5992 44.6912 16.475C44.4409 16.3508 44.3095 16.2018 44.3095 16.0279C44.3095 15.9472 44.322 15.8168 44.3471 15.6368C44.3721 15.4567 44.4034 15.2766 44.4284 15.0966C44.4659 14.8854 44.516 14.6557 44.5661 14.4011C44.2344 15.0779 43.9341 15.7423 43.6713 16.4067C43.5587 16.6985 43.446 17.0028 43.3397 17.3132C43.227 17.6237 43.1269 17.9342 43.0331 18.2508C42.9392 18.5613 42.8641 18.8718 42.7953 19.1698C42.7265 19.474 42.6889 19.7597 42.6827 20.0267C42.7202 20.2999 42.764 20.5296 42.8141 20.7159C42.8579 20.9022 42.9017 21.0574 42.9455 21.1754C42.983 21.2933 43.0205 21.3927 43.0456 21.4672C43.0706 21.5417 43.0831 21.61 43.0831 21.6721C43.0831 21.7404 43.0205 21.8087 42.9017 21.877C42.7828 21.9453 42.6263 21.9639 42.4386 21.9391C42.2509 21.9143 42.0507 21.8273 41.8379 21.6721C41.6252 21.5231 41.425 21.2623 41.2373 20.896C41.0495 20.5296 40.8931 20.0329 40.7742 19.412C40.6553 18.791 40.5928 17.99 40.5928 17.0152C40.5928 16.6302 40.6053 16.2204 40.6303 15.7796C40.6553 15.3387 40.6991 14.9289 40.7492 14.5501C40.8055 14.1714 40.8806 13.8609 40.9682 13.6063C41.0621 13.358 41.1684 13.2276 41.2998 13.2276C41.8192 13.2276 42.1946 13.3394 42.4324 13.5691C42.6701 13.7926 42.789 14.072 42.789 14.3887C42.789 14.5377 42.7765 14.7054 42.7452 14.8792C42.7139 15.0531 42.6764 15.2456 42.6389 15.4505C42.6013 15.6554 42.5638 15.8789 42.5325 16.1211C42.5012 16.3632 42.4887 16.624 42.4887 16.9034C42.4887 17.4561 42.5012 17.9466 42.5325 18.3688C42.5951 18.0397 42.6764 17.6734 42.789 17.2822C42.9017 16.891 43.0268 16.4936 43.1645 16.0962C43.3021 15.6989 43.446 15.3139 43.6025 14.9413C43.7589 14.5688 43.9153 14.2397 44.0655 13.9541C44.2157 13.6684 44.3658 13.4387 44.5035 13.2586C44.6474 13.0848 44.7788 12.9916 44.8977 12.9916" fill="black"/>
<path d="M58.7075 14.3515C58.5073 14.3515 58.3196 14.4198 58.1631 14.5626C58.0004 14.7054 57.8565 14.8917 57.7376 15.1214C57.6188 15.3512 57.5124 15.6182 57.431 15.9224C57.3497 16.2267 57.2871 16.5433 57.2496 16.8724C57.575 17.0152 57.8503 17.0463 58.088 16.9718C58.3196 16.8973 58.5135 16.7669 58.6637 16.5806C58.8139 16.3943 58.9265 16.1708 58.9953 15.9162C59.0642 15.6616 59.1017 15.4133 59.1017 15.1835C59.1017 14.9538 59.0704 14.7551 59.0016 14.5936C58.9328 14.4322 58.8389 14.3515 58.7075 14.3515ZM61.567 17.0214C61.5983 16.9531 61.6358 16.9035 61.6734 16.8786C61.7109 16.8538 61.7547 16.8476 61.7923 16.8662C61.8298 16.8786 61.8611 16.9159 61.8861 16.9656C61.9049 17.0152 61.8986 17.0835 61.8736 17.1642C61.8548 17.2139 61.811 17.3505 61.7547 17.5616C61.6922 17.779 61.6046 18.0335 61.4857 18.3316C61.3668 18.6296 61.2229 18.9401 61.0477 19.2754C60.8725 19.6045 60.6597 19.9149 60.4157 20.1943C60.1717 20.4738 59.8901 20.7097 59.571 20.8898C59.2519 21.0698 58.8952 21.163 58.501 21.163C57.9754 21.163 57.4999 21.0574 57.0806 20.8463C56.6614 20.6352 56.3048 20.362 56.0169 20.0329C55.7291 19.7038 55.5101 19.3375 55.3537 18.9401C55.2035 18.5427 55.1284 18.1515 55.1284 17.7727C55.1284 17.2822 55.1847 16.8041 55.2974 16.3446C55.41 15.8852 55.5476 15.4691 55.7103 15.0842C55.873 14.6992 56.0482 14.3701 56.2359 14.0907C56.4236 13.8113 56.5926 13.6002 56.7428 13.4574C56.8929 13.327 57.0932 13.2276 57.3372 13.1655C57.5812 13.0972 57.8252 13.0662 58.0755 13.06C58.3258 13.06 58.5573 13.0662 58.7826 13.0972C59.0078 13.1283 59.1768 13.1717 59.3019 13.2338C59.5334 13.3456 59.7274 13.5567 59.8713 13.8734C60.0152 14.19 60.0903 14.5626 60.0903 14.9848C60.0903 15.7796 59.9214 16.3819 59.5898 16.7855C59.2581 17.1953 58.8389 17.394 58.3446 17.394C58.1631 17.394 57.9692 17.3754 57.7752 17.3319C57.575 17.2946 57.3998 17.245 57.2371 17.1953C57.2058 17.5678 57.2371 17.9342 57.3309 18.2943C57.4248 18.6545 57.5437 18.9773 57.7064 19.2568C57.8628 19.5362 58.0442 19.7659 58.2507 19.946C58.4572 20.1198 58.67 20.213 58.8827 20.213C59.2081 20.213 59.4959 20.1385 59.7462 19.9956C59.9965 19.8528 60.228 19.6666 60.422 19.443C60.6222 19.2195 60.7849 18.9773 60.9225 18.7165C61.0602 18.4558 61.1728 18.2074 61.2729 17.9714C61.3668 17.7355 61.4419 17.5306 61.4857 17.3505C61.5295 17.1767 61.567 17.0649 61.5858 17.0276L61.567 17.0214Z" fill="black"/>
<path d="M75.9457 20.5917C75.9832 20.6414 76.0145 20.7531 76.0396 20.9146C76.0583 21.0822 76.0646 21.2561 76.0646 21.4362C76.0646 21.6162 76.0396 21.7839 75.9958 21.9329C75.9582 22.0819 75.8894 22.1626 75.7955 22.1751C75.7142 22.1875 75.6016 22.113 75.4639 21.9577C75.32 21.8025 75.126 21.6411 74.8757 21.4672C74.6254 21.2933 74.3188 21.1505 73.9434 21.0201C73.568 20.896 73.105 20.8649 72.5606 20.9394C72.1977 20.9891 71.8973 21.045 71.6533 21.1009C71.4155 21.1567 71.2216 21.2188 71.0651 21.2871C70.9212 21.3865 70.7773 21.4672 70.6271 21.5231C70.477 21.579 70.3205 21.6038 70.1578 21.6038C69.9826 21.6038 69.8137 21.4982 69.6385 21.2933C69.4633 21.0884 69.3319 20.8587 69.238 20.6041C69.1442 20.3558 69.1004 20.126 69.1066 19.9149C69.1192 19.71 69.2255 19.6044 69.4383 19.6044C69.6698 19.6044 69.9076 19.5237 70.1391 19.3561C70.3706 19.1884 70.6021 18.9711 70.8211 18.7103C71.0464 18.4433 71.2654 18.1329 71.4844 17.7851C71.7034 17.4312 71.9161 17.0711 72.1288 16.6985C72.3416 16.326 72.5481 15.9596 72.7546 15.5871C72.9548 15.2207 73.1613 14.8792 73.3615 14.5688C72.8672 14.6185 72.3478 14.6495 71.8035 14.6495C71.2591 14.6495 70.7585 14.5998 70.2892 14.4881C69.8763 14.3949 69.5697 14.3018 69.3757 14.1962C69.1817 14.0907 69.0941 14.0037 69.1066 13.9292C69.1192 13.8609 69.2318 13.8175 69.4383 13.7988C69.6448 13.7864 69.9326 13.8237 70.2955 13.9106C70.6584 13.9913 71.0714 14.0162 71.5344 13.9789C71.9974 13.9416 72.4292 13.8858 72.8359 13.805C73.3114 13.7119 73.7932 13.5939 74.2813 13.4449L74.2938 13.4573C74.4753 13.3269 74.6442 13.2586 74.7944 13.2586C74.8257 13.2586 74.882 13.3021 74.9696 13.3952C75.0572 13.4884 75.1448 13.5939 75.2449 13.7243C75.3388 13.8547 75.4326 14.0037 75.5265 14.159C75.6203 14.3204 75.6892 14.4632 75.733 14.5936C75.7768 14.724 75.7955 14.8358 75.7768 14.9227C75.7642 15.0158 75.6954 15.0593 75.589 15.0593C75.3075 15.0593 75.0259 15.2394 74.7443 15.5933C74.4628 15.9472 74.1812 16.3943 73.8934 16.9221C73.6055 17.4498 73.3052 18.0149 73.0048 18.611C72.6982 19.2071 72.3791 19.7473 72.0475 20.2192C72.1288 20.2005 72.2102 20.1819 72.2853 20.1757C72.3604 20.1633 72.448 20.1509 72.5356 20.1322C73.0299 20.0701 73.4616 20.0329 73.8245 20.0142C74.1874 19.9956 74.5066 20.0018 74.7756 20.0391C75.0447 20.0763 75.2699 20.1322 75.4514 20.2192C75.6328 20.3061 75.7955 20.4241 75.9394 20.5731" fill="black"/>
<path d="M89.1923 17.1519C89.2236 17.0587 89.2612 16.9966 89.2987 16.9656C89.3362 16.9283 89.38 16.9221 89.4176 16.9345C89.4551 16.9469 89.4864 16.978 89.5115 17.0277C89.5302 17.0711 89.5365 17.127 89.524 17.1891C89.4927 17.3071 89.4364 17.4996 89.3488 17.7541C89.2612 18.0087 89.1548 18.2943 89.0296 18.611C88.9045 18.9277 88.7606 19.2568 88.6042 19.5921C88.4477 19.9274 88.285 20.2378 88.1098 20.511C87.9346 20.7904 87.7594 21.014 87.578 21.1878C87.3965 21.3617 87.2151 21.4548 87.0461 21.4548H87.0148C86.5205 21.4548 86.1201 21.2996 85.8322 20.9953C85.5382 20.6911 85.3129 20.3123 85.1627 19.8715C85.0126 19.4306 84.9124 18.9711 84.8686 18.493C84.8248 18.0149 84.7998 17.5989 84.7998 17.2512C84.7998 16.8166 84.8061 16.444 84.8248 16.1335C84.8374 15.8231 84.8624 15.5623 84.8874 15.3512C84.9125 15.1401 84.9312 14.9662 84.95 14.8296C84.9625 14.693 84.975 14.5812 84.975 14.4881C84.975 14.3267 85.0751 14.2335 85.2691 14.2087C85.4693 14.1839 85.6883 14.2087 85.9324 14.2894C86.1764 14.3701 86.3954 14.4881 86.5956 14.6433C86.7958 14.7986 86.8897 14.9724 86.8897 15.1649C86.8897 15.3077 86.8897 15.4629 86.8772 15.6306C86.8647 15.8045 86.8584 15.9845 86.8459 16.1708C86.8334 16.3633 86.8271 16.5496 86.8146 16.7358C86.8021 16.9221 86.8021 17.096 86.8021 17.2574C86.8021 18.0708 86.8647 18.7352 86.9898 19.2506C87.115 19.7659 87.2464 20.1633 87.3778 20.4551C87.4779 20.4055 87.5905 20.2937 87.7219 20.1261C87.8471 19.9522 87.9784 19.7597 88.1098 19.5362C88.2412 19.3127 88.3664 19.0767 88.4915 18.8283C88.6104 18.58 88.723 18.3378 88.8232 18.1143C88.9233 17.8907 89.0109 17.6921 89.0734 17.5182C89.1423 17.3443 89.1798 17.2264 89.2048 17.1581M87.4841 12.4515C87.4841 12.6812 87.409 12.8427 87.2651 12.9296C87.1212 13.0165 86.9335 13.0476 86.7208 13.0351C86.5018 13.0227 86.264 12.9668 86.0074 12.8737C85.7509 12.7806 85.5131 12.675 85.2941 12.5446C85.0751 12.4142 84.8937 12.2776 84.7498 12.1286C84.6059 11.9858 84.5308 11.843 84.5308 11.7126C84.5308 11.5201 84.5683 11.3773 84.6434 11.2779C84.7185 11.1786 84.8186 11.1041 84.95 11.0606C85.0751 11.0172 85.2253 10.9923 85.4005 10.9861C85.5757 10.9861 85.7572 10.9799 85.9449 10.9799C86.1263 10.9799 86.314 11.0296 86.5018 11.1289C86.6895 11.2283 86.8584 11.3525 87.0023 11.5077C87.1462 11.6567 87.2714 11.8181 87.359 11.992C87.4529 12.1659 87.4967 12.3211 87.4967 12.4577L87.4841 12.4515Z" fill="black"/>
<path d="M28.1105 25.7578V26.3104H27.3096V28.3781H26.7026V23.8267H28.2106V24.3793H27.3096V25.7578H28.1105Z" fill="black"/>
<path d="M44.5854 23.8267H43.9722V28.3781H44.5854V23.8267Z" fill="black"/>
<path d="M31.0889 27.9372H31.3392C31.4706 27.9372 31.5332 27.8689 31.5332 27.7261V25.3915C31.5332 25.2486 31.4581 25.1803 31.3142 25.1803H31.0826C30.9387 25.1803 30.8699 25.2486 30.8699 25.3915V27.7261C30.8699 27.8689 30.945 27.9372 31.0889 27.9372ZM30.97 28.3781C30.5758 28.3781 30.3818 28.1732 30.3818 27.7572V25.3604C30.3818 24.9444 30.5758 24.7395 30.9638 24.7395H31.433C31.821 24.7395 32.015 24.9506 32.015 25.3604V27.7572C32.015 28.167 31.821 28.3781 31.4268 28.3781H30.97Z" fill="black"/>
<path d="M34.9678 27.9372H35.2181C35.3495 27.9372 35.4121 27.8689 35.4121 27.7261V25.3915C35.4121 25.2486 35.337 25.1803 35.1931 25.1803H34.9615C34.8176 25.1803 34.7488 25.2486 34.7488 25.3915V27.7261C34.7488 27.8689 34.8239 27.9372 34.9678 27.9372ZM34.8489 28.3781C34.4547 28.3781 34.2607 28.1732 34.2607 27.7572V25.3604C34.2607 24.9444 34.4547 24.7395 34.8427 24.7395H35.3119C35.6999 24.7395 35.8939 24.9506 35.8939 25.3604V27.7572C35.8939 28.167 35.6999 28.3781 35.3057 28.3781H34.8489Z" fill="black"/>
<path d="M38.6536 27.9372H39.0228C39.1542 27.9372 39.2167 27.8813 39.2167 27.7758V25.4411C39.2167 25.2673 39.1416 25.1803 38.9977 25.1803H38.6598V27.9372H38.6536ZM38.1655 28.3781V24.7333H39.0165C39.4733 24.7333 39.7048 24.9692 39.7048 25.4349V27.8503C39.7048 28.2042 39.5108 28.3781 39.1229 28.3781H38.1718H38.1655Z" fill="black"/>
<path d="M47.9453 26.4967V24.7395H48.4334V28.3781H47.9453V27.6516L47.4197 25.9937V28.3781H46.9316V24.7395H47.4197L47.9453 26.4967Z" fill="black"/>
<path d="M51.2175 27.9372H51.5867C51.7181 27.9372 51.7807 27.8813 51.7807 27.7758V25.4411C51.7807 25.2673 51.7056 25.1803 51.5617 25.1803H51.2238V27.9372H51.2175ZM50.7295 28.3781V24.7333H51.5805C52.0372 24.7333 52.2687 24.9692 52.2687 25.4349V27.8503C52.2687 28.2042 52.0748 28.3781 51.6868 28.3781H50.7357H50.7295Z" fill="black"/>
<path d="M56.1168 24.7395V27.6889C56.1168 28.1483 55.9228 28.3781 55.5286 28.3781H55.1156C54.7277 28.3781 54.5337 28.1483 54.5337 27.6826V24.7333H55.0218V27.6951C55.0218 27.8565 55.0906 27.931 55.2345 27.931H55.4347C55.5661 27.931 55.635 27.8503 55.635 27.6951V24.7333H56.123L56.1168 24.7395Z" fill="black"/>
<path d="M59.3516 25.7143V25.3977C59.3516 25.2549 59.2828 25.1804 59.1389 25.1804H59.0638C58.9261 25.1804 58.8573 25.2549 58.8573 25.3977V26C58.8573 26.0683 58.8698 26.1117 58.8948 26.1366C58.9199 26.1614 58.9637 26.1925 59.0262 26.2297L59.4893 26.4781C59.5894 26.534 59.6645 26.5774 59.7083 26.6147C59.7521 26.6457 59.7833 26.683 59.8084 26.7327C59.8334 26.7761 59.8459 26.863 59.8459 26.9934V27.7696C59.8459 28.1794 59.6519 28.3843 59.2577 28.3843H58.9574C58.5695 28.3843 58.3755 28.1608 58.3755 27.7137V27.5336H58.8635V27.7323C58.8635 27.8751 58.9386 27.9435 59.0825 27.9435H59.1701C59.3015 27.9435 59.3641 27.8751 59.3641 27.7323V27.1114C59.3641 27.0431 59.3516 26.9997 59.3266 26.9748C59.3015 26.95 59.2577 26.9189 59.1952 26.8817L58.7322 26.6209C58.632 26.565 58.5569 26.5215 58.5131 26.4843C58.4693 26.447 58.4318 26.3974 58.413 26.3415C58.3943 26.2794 58.3817 26.2049 58.3817 26.1117V25.3666C58.3817 24.9506 58.5757 24.7457 58.9637 24.7457H59.2703C59.6582 24.7457 59.8522 24.9568 59.8522 25.3666V25.7206H59.3641L59.3516 25.7143Z" fill="black"/>
<path d="M62.8559 25.1803V28.3781H62.3678V25.1803H61.9048V24.7395H63.3252V25.1803H62.8559Z" fill="black"/>
<path d="M65.9285 26.4905H66.2476C66.3915 26.4905 66.4666 26.4035 66.4666 26.2297V25.4411C66.4666 25.2673 66.3915 25.1803 66.2476 25.1803H65.9285V26.4967V26.4905ZM65.4404 24.7333H66.3978C66.7732 24.7333 66.9547 24.9444 66.9547 25.3542V26.2545C66.9547 26.5712 66.8608 26.7761 66.6668 26.8568L67.0047 28.3719H66.5417L66.2226 26.9003H65.9285V28.3719H65.4404V24.7271V24.7333Z" fill="black"/>
<path d="M70.1141 28.3781H69.6261V27.0369L69.0254 24.7395H69.5072L69.8701 26.3166H69.8889L70.2205 24.7395H70.7023L70.1141 27.0369V28.3781Z" fill="black"/>
<path d="M74.7192 26.7016H89.5362" stroke="black" stroke-width="0.384369" stroke-miterlimit="2.61"/>
<path d="M7.86182 26.7016H22.685" stroke="black" stroke-width="0.384369" stroke-miterlimit="2.61"/>
</svg>
