<svg width="296" height="25" viewBox="0 0 296 25" fill="none" xmlns="http://www.w3.org/2000/svg">
<path d="M0.383678 15.6974C0.609614 16.3987 0.862937 17.1412 1.16419 17.8562C1.56813 18.7981 2.08847 19.7262 2.77313 20.6888C3.86173 22.2219 4.88187 23.1982 6.08002 23.8582C6.66198 24.1813 7.16862 24.3532 7.65473 24.3944C8.94873 24.5044 10.0647 24.1538 11.0506 23.315C12.1118 22.4144 12.8992 21.5688 13.5291 20.6406C13.8509 20.1663 14.1316 19.7194 14.3712 19.2794C14.7067 18.6675 15.0079 18.035 15.2613 17.4987C15.4187 17.1618 15.5488 16.7975 15.6515 16.5018C15.7405 16.2406 15.8227 15.9656 15.9117 15.6287C15.9802 15.3606 16.0418 15.0787 16.1034 14.7693C16.1171 14.7074 16.1308 14.6387 16.1445 14.5768C16.1924 14.343 16.2403 14.1093 16.2403 13.8755C16.2403 13.7587 16.2472 13.6349 16.254 13.518C16.2677 13.1605 16.2814 12.7893 16.1719 12.4318C16.1445 12.3355 16.1308 12.2393 16.1171 12.143C16.1034 12.0468 16.0965 11.9643 16.0692 11.8818C15.898 11.3317 15.6857 10.8642 15.4256 10.4517C14.9532 9.70235 14.3507 9.07672 13.6318 8.59546C13.5633 8.54733 13.488 8.50608 13.4127 8.45796C13.3785 8.43733 13.3442 8.41671 13.31 8.39608L13.2689 8.36858C13.0841 8.25858 12.2214 7.77045 11.6805 7.68107L11.167 7.5917L11.6805 7.54357C12.4336 7.46794 13.9536 6.36793 14.3507 5.73542C14.8299 4.95853 15.0079 4.27102 14.9121 3.56976C14.8915 3.48726 14.8573 3.33601 14.7888 3.30163C14.7615 3.28788 14.7341 3.28788 14.693 3.30163L12.8718 4.18852L12.8787 4.07165C12.9677 2.75163 12.5158 1.06723 12.0639 1.01223C11.7284 0.984726 11.5983 1.1291 11.5162 1.34911C11.4957 1.40411 11.4751 1.45911 11.4614 1.51411C11.4203 1.63786 11.3724 1.76849 11.3176 1.89224C10.9959 2.60037 10.6535 3.28101 9.96202 3.72789L9.87302 3.78289L9.85248 3.67976C9.64708 2.52475 9.02404 1.26661 8.25723 0.455344C8.22984 0.427843 8.18191 0.414093 8.1203 0.414093C8.05183 0.414093 7.99706 0.441593 7.98336 0.455344C7.2234 1.37661 6.77837 2.38725 6.31965 3.72789L6.27857 3.85164L6.20326 3.74164C6.08002 3.56289 5.94993 3.41851 5.81985 3.28101C5.65553 3.10226 5.49806 2.93725 5.38167 2.71038C5.10781 2.19474 4.88872 1.74786 4.74494 1.25973C4.64909 0.936601 4.49162 0.819724 4.21091 0.86785C3.77273 1.17723 3.58102 1.66536 3.43725 2.13974C3.33455 2.4835 3.30031 2.85475 3.27293 3.24663C3.25923 3.41851 3.24554 3.59726 3.225 3.77602L3.21131 3.86539L3.12915 3.83102C3.08807 3.81727 3.05384 3.80352 3.01276 3.78977C2.9306 3.76227 2.85529 3.73477 2.77997 3.69351C2.48557 3.52851 2.17063 3.34976 1.85569 3.15726C1.71876 3.07476 1.54759 3.04038 1.4449 3.08851C1.39012 3.10913 1.35589 3.15038 1.3422 3.21226C1.37643 5.56354 3.29347 7.01419 4.57378 7.41982L4.77917 7.48169L4.57378 7.55045C3.54679 7.88732 2.04055 8.71921 1.16419 9.95673C0.397371 11.043 0.0139631 12.1293 0.00027001 13.2568C-0.00657655 14.068 0.116662 14.8862 0.383678 15.6974ZM9.92094 5.15104C9.97571 5.02041 9.98941 4.93103 9.99625 4.85541C10.0031 4.78666 10.0099 4.72478 10.051 4.6629C10.1126 4.57353 10.2838 4.4429 10.4481 4.31915C10.5029 4.2779 10.5577 4.23665 10.6056 4.20227C10.989 3.89977 11.5162 3.12288 11.7695 2.75163C11.8791 2.58662 11.9064 2.55225 11.927 2.5385L12.0023 2.47662L12.0365 2.566C12.2899 3.22601 12.283 3.92039 12.0091 4.46353L12.0023 4.47728L11.9886 4.48415C11.6874 4.71103 11.3313 4.80728 10.9616 4.91041C10.6535 4.99291 10.3386 5.08228 10.0236 5.24041L9.85248 5.32979L9.92094 5.15104ZM9.46907 6.74606C9.85932 6.23043 10.229 5.92792 10.6672 5.76292C11.434 5.47417 12.2282 5.18541 12.9882 4.91041C13.31 4.79353 13.6318 4.67665 13.9536 4.55978L14.0768 4.51165L14.0426 4.64228C13.7687 5.65979 12.9471 6.16855 12.2077 6.56043C11.6326 6.86981 11.0712 7.02106 10.5097 7.02106C10.1743 7.02106 9.83878 6.96606 9.5033 6.85606L9.4143 6.82856L9.46907 6.74606ZM6.94269 4.58728C7.03854 3.63164 7.33294 2.76538 7.82589 2.01599C7.89436 1.91286 8.03814 1.67911 8.13399 1.49348L8.18876 1.38348L8.25038 1.49348C8.31885 1.61036 8.36677 1.72036 8.40785 1.80974C8.42839 1.85786 8.44893 1.89911 8.46947 1.94036C8.85288 2.69663 9.25682 3.60414 9.28421 4.6079C9.30475 5.43979 9.02404 6.1273 8.4147 6.69793L8.33254 6.78043C8.15453 6.95919 8.09291 7.01419 8.02444 7.01419C7.99021 7.01419 7.94913 7.01419 7.68212 6.70481C7.1207 6.09292 6.86737 5.37791 6.94269 4.58728ZM4.14929 2.38725L4.19721 2.27037L4.26568 2.3735C4.36153 2.51787 4.45738 2.66225 4.54639 2.79975C4.75179 3.11601 4.94349 3.41851 5.16943 3.70039C5.39536 3.97539 5.65553 4.23665 5.90201 4.49103C6.01155 4.60103 6.12795 4.7179 6.23749 4.82791L6.25803 4.84853V4.87603C6.25803 4.95853 6.26488 5.15791 6.27857 5.25416L6.29911 5.41916L6.16902 5.31604C5.90201 5.10979 5.55968 4.98603 5.18997 4.84853C4.82025 4.7179 4.44369 4.57353 4.14929 4.34665L4.12875 4.3329L4.10821 4.2504C3.99182 3.65914 3.86858 3.04726 4.14929 2.38725ZM4.43684 6.66356C3.45094 6.19605 2.45819 5.63229 2.16378 4.3879L2.14324 4.29165L2.2391 4.3054C2.26648 4.3054 2.31441 4.32602 2.65674 4.48415C3.26608 4.75916 4.52585 5.33666 5.23789 5.52917C5.88832 5.70792 6.40181 6.0998 6.7099 6.67043L6.74414 6.73918L6.67567 6.76668C6.35388 6.90419 6.02525 6.97294 5.68977 6.97294C5.27897 6.97294 4.86818 6.86981 4.43684 6.66356ZM2.51981 9.80548C3.34139 9.03547 4.08767 8.58171 4.87502 8.36858C7.37402 7.68795 9.42114 7.77732 11.9475 8.69171C12.7143 8.96672 13.4127 9.4961 14.1384 10.3486C14.5218 10.8024 14.8162 11.3249 15.0148 11.8886C15.2202 12.4868 15.2955 13.133 15.2407 13.9168C15.227 14.1024 15.186 14.2812 15.1449 14.4599C15.1312 14.5218 15.1175 14.5837 15.1038 14.6455L15.0764 14.783C15.0285 14.9962 14.9874 15.2162 14.9258 15.4293C14.8231 15.7799 14.7135 16.1787 14.5698 16.5499C14.3849 17.0381 14.2069 17.4368 14.022 17.8081C13.7002 18.4475 13.4195 18.9631 13.132 19.4306C12.5089 20.455 11.838 21.2938 11.0849 21.995C10.5988 22.4488 9.92779 23.0057 9.08566 23.2944C8.77757 23.3975 8.45578 23.4525 8.1203 23.4525C7.88067 23.4525 7.63419 23.425 7.37402 23.37C6.10741 23.1088 5.26528 22.2219 4.52585 21.445C3.86858 20.7506 3.27977 19.9325 2.67728 18.8669C2.21856 18.0556 1.8283 17.21 1.52021 16.3643C1.2395 15.5806 1.04779 14.838 0.945096 14.1024C0.91771 13.9305 0.91771 13.7587 0.910863 13.6074C0.910863 13.5455 0.910863 13.4905 0.904016 13.4424C0.890323 12.0261 1.41751 10.8367 2.51981 9.80548Z" fill="#393939"/>
<path d="M8.32561 10.4242C8.03805 10.4036 7.74365 10.7542 7.74365 11.0705C7.7505 11.4417 8.01751 12.2255 8.29138 12.2324C8.56524 12.2461 8.82541 11.4142 8.82541 11.0705C8.82541 10.7749 8.66109 10.4517 8.32561 10.4242Z" fill="#393939"/>
<path d="M11.3994 11.0017C11.0845 10.9811 10.7627 11.3317 10.7627 11.648C10.7695 12.0192 11.0639 12.803 11.3652 12.8099C11.6664 12.8236 11.954 11.9917 11.954 11.648C11.9472 11.3592 11.7623 11.0292 11.3994 11.0017Z" fill="#393939"/>
<path d="M4.92237 11.0018C4.60743 10.9812 4.28564 11.3318 4.28564 11.648C4.29249 12.0193 4.58689 12.8031 4.88814 12.8099C5.18939 12.8237 5.47695 11.9918 5.47695 11.648C5.47695 11.3593 5.29209 11.0293 4.92237 11.0018Z" fill="#393939"/>
<path d="M9.57862 13.7174C9.26368 13.6967 8.94189 14.0474 8.94189 14.3636C8.94874 14.7349 9.24314 15.5186 9.54439 15.5255C9.84564 15.5393 10.1332 14.7074 10.1332 14.3636C10.1263 14.068 9.94149 13.7449 9.57862 13.7174Z" fill="#393939"/>
<path d="M6.98329 14.3568C6.97645 14.068 6.79844 13.7449 6.42872 13.7174C6.11378 13.6968 5.79199 14.0474 5.79199 14.3637C5.79884 14.7349 6.09324 15.5187 6.39449 15.5256C6.69574 15.5393 6.98329 14.7074 6.98329 14.3568Z" fill="#393939"/>
<path d="M12.7549 15.1612C12.44 15.1406 12.1182 15.4912 12.1182 15.8074C12.125 16.1787 12.4194 16.9625 12.7207 16.9693C13.0219 16.9831 13.3095 16.1512 13.3095 15.8074C13.3026 15.5118 13.1246 15.1887 12.7549 15.1612Z" fill="#393939"/>
<path d="M3.48488 15.1611C3.16993 15.1405 2.84814 15.4911 2.84814 15.8074C2.85499 16.1787 3.14939 16.9624 3.45064 16.9693C3.75189 16.983 4.03945 16.1511 4.03945 15.8074C4.0326 15.5118 3.85459 15.1886 3.48488 15.1611Z" fill="#393939"/>
<path d="M7.01075 16.9694C6.69581 16.9487 6.37402 17.2994 6.37402 17.6156C6.38087 17.9869 6.67527 18.7706 6.97652 18.7775C7.27777 18.7913 7.56533 17.9594 7.56533 17.6156C7.55848 17.32 7.37362 16.9969 7.01075 16.9694Z" fill="#393939"/>
<path d="M9.55763 16.9693C9.24269 16.9487 8.9209 17.2993 8.9209 17.6156C8.92775 17.9868 9.22215 18.7706 9.5234 18.7774C9.82465 18.7912 10.1122 17.9593 10.1122 17.6156C10.1054 17.3199 9.92734 16.9968 9.55763 16.9693Z" fill="#393939"/>
<path d="M8.27735 19.7675C7.96241 19.7469 7.64062 20.0975 7.64062 20.4138C7.64747 20.785 7.94187 21.5688 8.24312 21.5757C8.54437 21.5894 8.83193 20.7575 8.83193 20.4138C8.82508 20.125 8.64022 19.795 8.27735 19.7675Z" fill="#393939"/>
<path d="M18.2632 12.4141H137.868" stroke="#999999" stroke-dasharray="2 2"/>
<path d="M140.252 15.6974C140.478 16.3987 140.732 17.1412 141.033 17.8562C141.437 18.7981 141.957 19.7262 142.642 20.6888C143.73 22.2219 144.751 23.1982 145.949 23.8582C146.531 24.1813 147.037 24.3532 147.523 24.3944C148.817 24.5044 149.933 24.1538 150.919 23.315C151.98 22.4144 152.768 21.5688 153.398 20.6406C153.72 20.1663 154 19.7194 154.24 19.2794C154.575 18.6675 154.877 18.035 155.13 17.4987C155.287 17.1618 155.417 16.7975 155.52 16.5018C155.609 16.2406 155.691 15.9656 155.78 15.6287C155.849 15.3606 155.91 15.0787 155.972 14.7693C155.986 14.7074 155.999 14.6387 156.013 14.5768C156.061 14.343 156.109 14.1093 156.109 13.8755C156.109 13.7587 156.116 13.6349 156.123 13.518C156.136 13.1605 156.15 12.7893 156.041 12.4318C156.013 12.3355 155.999 12.2393 155.986 12.143C155.972 12.0468 155.965 11.9643 155.938 11.8818C155.767 11.3317 155.554 10.8642 155.294 10.4517C154.822 9.70235 154.219 9.07672 153.5 8.59546C153.432 8.54733 153.357 8.50608 153.281 8.45796C153.247 8.43733 153.213 8.41671 153.179 8.39608L153.138 8.36858C152.953 8.25858 152.09 7.77045 151.549 7.68107L151.036 7.5917L151.549 7.54357C152.302 7.46794 153.822 6.36793 154.219 5.73542C154.699 4.95853 154.877 4.27102 154.781 3.56976C154.76 3.48726 154.726 3.33601 154.658 3.30163C154.63 3.28788 154.603 3.28788 154.562 3.30163L152.74 4.18852L152.747 4.07165C152.836 2.75163 152.384 1.06723 151.933 1.01223C151.597 0.984726 151.467 1.1291 151.385 1.34911C151.364 1.40411 151.344 1.45911 151.33 1.51411C151.289 1.63786 151.241 1.76849 151.186 1.89224C150.865 2.60037 150.522 3.28101 149.831 3.72789L149.742 3.78289L149.721 3.67976C149.516 2.52475 148.893 1.26661 148.126 0.455344C148.098 0.427843 148.051 0.414093 147.989 0.414093C147.92 0.414093 147.866 0.441593 147.852 0.455344C147.092 1.37661 146.647 2.38725 146.188 3.72789L146.147 3.85164L146.072 3.74164C145.949 3.56289 145.819 3.41851 145.689 3.28101C145.524 3.10226 145.367 2.93725 145.25 2.71038C144.976 2.19474 144.757 1.74786 144.614 1.25973C144.518 0.936601 144.36 0.819724 144.08 0.86785C143.641 1.17723 143.45 1.66536 143.306 2.13974C143.203 2.4835 143.169 2.85475 143.142 3.24663C143.128 3.41851 143.114 3.59726 143.094 3.77602L143.08 3.86539L142.998 3.83102C142.957 3.81727 142.922 3.80352 142.881 3.78977C142.799 3.76227 142.724 3.73477 142.649 3.69351C142.354 3.52851 142.039 3.34976 141.724 3.15726C141.587 3.07476 141.416 3.04038 141.314 3.08851C141.259 3.10913 141.225 3.15038 141.211 3.21226C141.245 5.56354 143.162 7.01419 144.442 7.41982L144.648 7.48169L144.442 7.55045C143.415 7.88732 141.909 8.71921 141.033 9.95673C140.266 11.043 139.883 12.1293 139.869 13.2568C139.862 14.068 139.985 14.8862 140.252 15.6974ZM149.79 5.15104C149.844 5.02041 149.858 4.93103 149.865 4.85541C149.872 4.78666 149.879 4.72478 149.92 4.6629C149.981 4.57353 150.152 4.4429 150.317 4.31915C150.372 4.2779 150.426 4.23665 150.474 4.20227C150.858 3.89977 151.385 3.12288 151.638 2.75163C151.748 2.58662 151.775 2.55225 151.796 2.5385L151.871 2.47662L151.905 2.566C152.159 3.22601 152.152 3.92039 151.878 4.46353L151.871 4.47728L151.857 4.48415C151.556 4.71103 151.2 4.80728 150.83 4.91041C150.522 4.99291 150.207 5.08228 149.892 5.24041L149.721 5.32979L149.79 5.15104ZM149.338 6.74606C149.728 6.23043 150.098 5.92792 150.536 5.76292C151.303 5.47417 152.097 5.18541 152.857 4.91041C153.179 4.79353 153.5 4.67665 153.822 4.55978L153.945 4.51165L153.911 4.64228C153.637 5.65979 152.816 6.16855 152.076 6.56043C151.501 6.86981 150.94 7.02106 150.378 7.02106C150.043 7.02106 149.707 6.96606 149.372 6.85606L149.283 6.82856L149.338 6.74606ZM146.811 4.58728C146.907 3.63164 147.202 2.76538 147.695 2.01599C147.763 1.91286 147.907 1.67911 148.003 1.49348L148.057 1.38348L148.119 1.49348C148.187 1.61036 148.235 1.72036 148.277 1.80974C148.297 1.85786 148.318 1.89911 148.338 1.94036C148.722 2.69663 149.125 3.60414 149.153 4.6079C149.173 5.43979 148.893 6.1273 148.283 6.69793L148.201 6.78043C148.023 6.95919 147.962 7.01419 147.893 7.01419C147.859 7.01419 147.818 7.01419 147.551 6.70481C146.989 6.09292 146.736 5.37791 146.811 4.58728ZM144.018 2.38725L144.066 2.27037L144.134 2.3735C144.23 2.51787 144.326 2.66225 144.415 2.79975C144.62 3.11601 144.812 3.41851 145.038 3.70039C145.264 3.97539 145.524 4.23665 145.771 4.49103C145.88 4.60103 145.997 4.7179 146.106 4.82791L146.127 4.84853V4.87603C146.127 4.95853 146.134 5.15791 146.147 5.25416L146.168 5.41916L146.038 5.31604C145.771 5.10979 145.428 4.98603 145.059 4.84853C144.689 4.7179 144.312 4.57353 144.018 4.34665L143.997 4.3329L143.977 4.2504C143.86 3.65914 143.737 3.04726 144.018 2.38725ZM144.305 6.66356C143.32 6.19605 142.327 5.63229 142.032 4.3879L142.012 4.29165L142.108 4.3054C142.135 4.3054 142.183 4.32602 142.525 4.48415C143.135 4.75916 144.395 5.33666 145.107 5.52917C145.757 5.70792 146.27 6.0998 146.579 6.67043L146.613 6.73918L146.544 6.76668C146.223 6.90419 145.894 6.97294 145.558 6.97294C145.148 6.97294 144.737 6.86981 144.305 6.66356ZM142.388 9.80548C143.21 9.03547 143.956 8.58171 144.744 8.36858C147.243 7.68795 149.29 7.77732 151.816 8.69171C152.583 8.96672 153.281 9.4961 154.007 10.3486C154.39 10.8024 154.685 11.3249 154.883 11.8886C155.089 12.4868 155.164 13.133 155.109 13.9168C155.096 14.1024 155.055 14.2812 155.014 14.4599C155 14.5218 154.986 14.5837 154.972 14.6455L154.945 14.783C154.897 14.9962 154.856 15.2162 154.794 15.4293C154.692 15.7799 154.582 16.1787 154.438 16.5499C154.254 17.0381 154.076 17.4368 153.891 17.8081C153.569 18.4475 153.288 18.9631 153.001 19.4306C152.378 20.455 151.707 21.2938 150.954 21.995C150.467 22.4488 149.796 23.0057 148.954 23.2944C148.646 23.3975 148.324 23.4525 147.989 23.4525C147.749 23.4525 147.503 23.425 147.243 23.37C145.976 23.1088 145.134 22.2219 144.395 21.445C143.737 20.7506 143.148 19.9325 142.546 18.8669C142.087 18.0556 141.697 17.21 141.389 16.3643C141.108 15.5806 140.916 14.838 140.814 14.1024C140.786 13.9305 140.786 13.7587 140.78 13.6074C140.78 13.5455 140.78 13.4905 140.773 13.4424C140.759 12.0261 141.286 10.8367 142.388 9.80548Z" fill="#999999"/>
<path d="M148.194 10.4242C147.907 10.4036 147.612 10.7542 147.612 11.0705C147.619 11.4417 147.886 12.2255 148.16 12.2324C148.434 12.2461 148.694 11.4142 148.694 11.0705C148.694 10.7748 148.53 10.4517 148.194 10.4242Z" fill="#999999"/>
<path d="M151.268 11.0017C150.953 10.981 150.631 11.3317 150.631 11.6479C150.638 12.0192 150.933 12.8029 151.234 12.8098C151.535 12.8236 151.823 11.9917 151.823 11.6479C151.816 11.3592 151.631 11.0292 151.268 11.0017Z" fill="#999999"/>
<path d="M144.791 11.0017C144.476 10.9811 144.154 11.3318 144.154 11.648C144.161 12.0193 144.456 12.803 144.757 12.8099C145.058 12.8237 145.346 11.9918 145.346 11.648C145.346 11.3593 145.161 11.0292 144.791 11.0017Z" fill="#999999"/>
<path d="M149.447 13.7173C149.132 13.6967 148.811 14.0473 148.811 14.3636C148.817 14.7348 149.112 15.5186 149.413 15.5255C149.714 15.5392 150.002 14.7073 150.002 14.3636C149.995 14.068 149.81 13.7448 149.447 13.7173Z" fill="#999999"/>
<path d="M146.852 14.3568C146.845 14.068 146.667 13.7449 146.297 13.7174C145.982 13.6967 145.661 14.0474 145.661 14.3636C145.667 14.7349 145.962 15.5186 146.263 15.5255C146.564 15.5393 146.852 14.7074 146.852 14.3568Z" fill="#999999"/>
<path d="M152.624 15.1612C152.309 15.1405 151.987 15.4912 151.987 15.8074C151.994 16.1787 152.289 16.9624 152.59 16.9693C152.891 16.9831 153.179 16.1512 153.179 15.8074C153.172 15.5118 152.994 15.1887 152.624 15.1612Z" fill="#999999"/>
<path d="M143.354 15.1611C143.039 15.1405 142.717 15.4911 142.717 15.8074C142.724 16.1786 143.019 16.9624 143.32 16.9693C143.621 16.983 143.909 16.1511 143.909 15.8074C143.902 15.5117 143.724 15.1886 143.354 15.1611Z" fill="#999999"/>
<path d="M146.879 16.9693C146.564 16.9487 146.243 17.2993 146.243 17.6156C146.25 17.9868 146.544 18.7706 146.845 18.7775C147.146 18.7912 147.434 17.9593 147.434 17.6156C147.427 17.32 147.242 16.9968 146.879 16.9693Z" fill="#999999"/>
<path d="M149.427 16.9693C149.112 16.9486 148.79 17.2993 148.79 17.6155C148.797 17.9868 149.091 18.7705 149.393 18.7774C149.694 18.7912 149.981 17.9593 149.981 17.6155C149.974 17.3199 149.796 16.9968 149.427 16.9693Z" fill="#999999"/>
<path d="M148.146 19.7675C147.831 19.7468 147.509 20.0975 147.509 20.4137C147.516 20.785 147.811 21.5688 148.112 21.5756C148.413 21.5894 148.701 20.7575 148.701 20.4137C148.694 20.125 148.509 19.795 148.146 19.7675Z" fill="#999999"/>
<path d="M158.131 12.4141H277.737" stroke="#999999" stroke-dasharray="2 2"/>
<path d="M280.12 15.6974C280.346 16.3987 280.6 17.1412 280.901 17.8562C281.305 18.7981 281.825 19.7262 282.51 20.6888C283.599 22.2219 284.619 23.1982 285.817 23.8582C286.399 24.1813 286.905 24.3532 287.392 24.3944C288.686 24.5044 289.802 24.1538 290.787 23.315C291.849 22.4144 292.636 21.5688 293.266 20.6406C293.588 20.1663 293.868 19.7194 294.108 19.2794C294.444 18.6675 294.745 18.035 294.998 17.4987C295.156 17.1618 295.286 16.7975 295.388 16.5018C295.477 16.2406 295.559 15.9656 295.649 15.6287C295.717 15.3606 295.779 15.0787 295.84 14.7693C295.854 14.7074 295.868 14.6387 295.881 14.5768C295.929 14.343 295.977 14.1093 295.977 13.8755C295.977 13.7587 295.984 13.6349 295.991 13.518C296.005 13.1605 296.018 12.7893 295.909 12.4318C295.881 12.3355 295.868 12.2393 295.854 12.143C295.84 12.0468 295.833 11.9643 295.806 11.8818C295.635 11.3317 295.423 10.8642 295.162 10.4517C294.69 9.70235 294.087 9.07672 293.369 8.59546C293.3 8.54733 293.225 8.50608 293.15 8.45796C293.115 8.43733 293.081 8.41671 293.047 8.39608L293.006 8.36858C292.821 8.25858 291.958 7.77045 291.417 7.68107L290.904 7.5917L291.417 7.54357C292.17 7.46794 293.69 6.36793 294.087 5.73542C294.567 4.95853 294.745 4.27102 294.649 3.56976C294.628 3.48726 294.594 3.33601 294.526 3.30163C294.498 3.28788 294.471 3.28788 294.43 3.30163L292.609 4.18852L292.615 4.07165C292.704 2.75163 292.253 1.06723 291.801 1.01223C291.465 0.984726 291.335 1.1291 291.253 1.34911C291.232 1.40411 291.212 1.45911 291.198 1.51411C291.157 1.63786 291.109 1.76849 291.054 1.89224C290.733 2.60037 290.39 3.28101 289.699 3.72789L289.61 3.78289L289.589 3.67976C289.384 2.52475 288.761 1.26661 287.994 0.455344C287.967 0.427843 287.919 0.414093 287.857 0.414093C287.789 0.414093 287.734 0.441593 287.72 0.455344C286.96 1.37661 286.515 2.38725 286.056 3.72789L286.015 3.85164L285.94 3.74164C285.817 3.56289 285.687 3.41851 285.557 3.28101C285.392 3.10226 285.235 2.93725 285.118 2.71038C284.845 2.19474 284.626 1.74786 284.482 1.25973C284.386 0.936601 284.228 0.819724 283.948 0.86785C283.51 1.17723 283.318 1.66536 283.174 2.13974C283.071 2.4835 283.037 2.85475 283.01 3.24663C282.996 3.41851 282.982 3.59726 282.962 3.77602L282.948 3.86539L282.866 3.83102C282.825 3.81727 282.791 3.80352 282.75 3.78977C282.667 3.76227 282.592 3.73477 282.517 3.69351C282.222 3.52851 281.907 3.34976 281.593 3.15726C281.456 3.07476 281.284 3.04038 281.182 3.08851C281.127 3.10913 281.093 3.15038 281.079 3.21226C281.113 5.56354 283.03 7.01419 284.311 7.41982L284.516 7.48169L284.311 7.55045C283.284 7.88732 281.777 8.71921 280.901 9.95673C280.134 11.043 279.751 12.1293 279.737 13.2568C279.73 14.068 279.853 14.8862 280.12 15.6974ZM289.658 5.15104C289.713 5.02041 289.726 4.93103 289.733 4.85541C289.74 4.78666 289.747 4.72478 289.788 4.6629C289.849 4.57353 290.021 4.4429 290.185 4.31915C290.24 4.2779 290.294 4.23665 290.342 4.20227C290.726 3.89977 291.253 3.12288 291.506 2.75163C291.616 2.58662 291.643 2.55225 291.664 2.5385L291.739 2.47662L291.773 2.566C292.027 3.22601 292.02 3.92039 291.746 4.46353L291.739 4.47728L291.725 4.48415C291.424 4.71103 291.068 4.80728 290.698 4.91041C290.39 4.99291 290.075 5.08228 289.76 5.24041L289.589 5.32979L289.658 5.15104ZM289.206 6.74606C289.596 6.23043 289.966 5.92792 290.404 5.76292C291.171 5.47417 291.965 5.18541 292.725 4.91041C293.047 4.79353 293.369 4.67665 293.69 4.55978L293.814 4.51165L293.779 4.64228C293.506 5.65979 292.684 6.16855 291.945 6.56043C291.369 6.86981 290.808 7.02106 290.247 7.02106C289.911 7.02106 289.576 6.96606 289.24 6.85606L289.151 6.82856L289.206 6.74606ZM286.68 4.58728C286.775 3.63164 287.07 2.76538 287.563 2.01599C287.631 1.91286 287.775 1.67911 287.871 1.49348L287.926 1.38348L287.987 1.49348C288.056 1.61036 288.104 1.72036 288.145 1.80974C288.165 1.85786 288.186 1.89911 288.206 1.94036C288.59 2.69663 288.994 3.60414 289.021 4.6079C289.042 5.43979 288.761 6.1273 288.152 6.69793L288.069 6.78043C287.891 6.95919 287.83 7.01419 287.761 7.01419C287.727 7.01419 287.686 7.01419 287.419 6.70481C286.858 6.09292 286.604 5.37791 286.68 4.58728ZM283.886 2.38725L283.934 2.27037L284.002 2.3735C284.098 2.51787 284.194 2.66225 284.283 2.79975C284.489 3.11601 284.68 3.41851 284.906 3.70039C285.132 3.97539 285.392 4.23665 285.639 4.49103C285.748 4.60103 285.865 4.7179 285.974 4.82791L285.995 4.84853V4.87603C285.995 4.95853 286.002 5.15791 286.015 5.25416L286.036 5.41916L285.906 5.31604C285.639 5.10979 285.296 4.98603 284.927 4.84853C284.557 4.7179 284.181 4.57353 283.886 4.34665L283.866 4.3329L283.845 4.2504C283.729 3.65914 283.605 3.04726 283.886 2.38725ZM284.174 6.66356C283.188 6.19605 282.195 5.63229 281.901 4.3879L281.88 4.29165L281.976 4.3054C282.003 4.3054 282.051 4.32602 282.394 4.48415C283.003 4.75916 284.263 5.33666 284.975 5.52917C285.625 5.70792 286.139 6.0998 286.447 6.67043L286.481 6.73918L286.412 6.76668C286.091 6.90419 285.762 6.97294 285.427 6.97294C285.016 6.97294 284.605 6.86981 284.174 6.66356ZM282.257 9.80548C283.078 9.03547 283.824 8.58171 284.612 8.36858C287.111 7.68795 289.158 7.77732 291.684 8.69171C292.451 8.96672 293.15 9.4961 293.875 10.3486C294.259 10.8024 294.553 11.3249 294.752 11.8886C294.957 12.4868 295.032 13.133 294.978 13.9168C294.964 14.1024 294.923 14.2812 294.882 14.4599C294.868 14.5218 294.854 14.5837 294.841 14.6455L294.813 14.783C294.765 14.9962 294.724 15.2162 294.663 15.4293C294.56 15.7799 294.45 16.1787 294.307 16.5499C294.122 17.0381 293.944 17.4368 293.759 17.8081C293.437 18.4475 293.156 18.9631 292.869 19.4306C292.246 20.455 291.575 21.2938 290.822 21.995C290.336 22.4488 289.665 23.0057 288.822 23.2944C288.514 23.3975 288.193 23.4525 287.857 23.4525C287.617 23.4525 287.371 23.425 287.111 23.37C285.844 23.1088 285.002 22.2219 284.263 21.445C283.605 20.7506 283.017 19.9325 282.414 18.8669C281.955 18.0556 281.565 17.21 281.257 16.3643C280.976 15.5806 280.785 14.838 280.682 14.1024C280.655 13.9305 280.655 13.7587 280.648 13.6074C280.648 13.5455 280.648 13.4905 280.641 13.4424C280.627 12.0261 281.154 10.8367 282.257 9.80548Z" fill="#999999"/>
<path d="M288.062 10.4242C287.775 10.4036 287.48 10.7542 287.48 11.0705C287.487 11.4417 287.754 12.2255 288.028 12.2324C288.302 12.2461 288.562 11.4142 288.562 11.0705C288.562 10.7748 288.398 10.4517 288.062 10.4242Z" fill="#999999"/>
<path d="M291.137 11.0017C290.822 10.9811 290.5 11.3317 290.5 11.6479C290.507 12.0192 290.801 12.803 291.102 12.8098C291.404 12.8236 291.691 11.9917 291.691 11.6479C291.684 11.3592 291.5 11.0292 291.137 11.0017Z" fill="#999999"/>
<path d="M284.659 11.0018C284.344 10.9811 284.022 11.3318 284.022 11.648C284.029 12.0193 284.324 12.803 284.625 12.8099C284.926 12.8237 285.214 11.9918 285.214 11.648C285.214 11.3593 285.029 11.0293 284.659 11.0018Z" fill="#999999"/>
<path d="M289.315 13.7174C289 13.6967 288.679 14.0474 288.679 14.3636C288.686 14.7349 288.98 15.5186 289.281 15.5255C289.582 15.5393 289.87 14.7074 289.87 14.3636C289.863 14.068 289.678 13.7449 289.315 13.7174Z" fill="#999999"/>
<path d="M286.72 14.3568C286.713 14.068 286.535 13.7449 286.166 13.7174C285.851 13.6968 285.529 14.0474 285.529 14.3636C285.536 14.7349 285.83 15.5187 286.131 15.5255C286.433 15.5393 286.72 14.7074 286.72 14.3568Z" fill="#999999"/>
<path d="M292.492 15.1612C292.177 15.1405 291.855 15.4912 291.855 15.8074C291.862 16.1787 292.157 16.9624 292.458 16.9693C292.759 16.9831 293.047 16.1512 293.047 15.8074C293.04 15.5118 292.862 15.1887 292.492 15.1612Z" fill="#999999"/>
<path d="M283.222 15.1611C282.907 15.1405 282.585 15.4911 282.585 15.8074C282.592 16.1786 282.887 16.9624 283.188 16.9693C283.489 16.983 283.777 16.1511 283.777 15.8074C283.77 15.5118 283.592 15.1886 283.222 15.1611Z" fill="#999999"/>
<path d="M286.748 16.9693C286.433 16.9487 286.111 17.2993 286.111 17.6156C286.118 17.9869 286.412 18.7706 286.713 18.7775C287.015 18.7912 287.302 17.9594 287.302 17.6156C287.295 17.32 287.11 16.9968 286.748 16.9693Z" fill="#999999"/>
<path d="M289.294 16.9693C288.98 16.9486 288.658 17.2993 288.658 17.6155C288.665 17.9868 288.959 18.7706 289.26 18.7774C289.561 18.7912 289.849 17.9593 289.849 17.6155C289.842 17.3199 289.664 16.9968 289.294 16.9693Z" fill="#999999"/>
<path d="M288.014 19.7675C287.699 19.7469 287.377 20.0975 287.377 20.4138C287.384 20.785 287.679 21.5688 287.98 21.5756C288.281 21.5894 288.569 20.7575 288.569 20.4138C288.562 20.125 288.377 19.795 288.014 19.7675Z" fill="#999999"/>
</svg>
