<svg width="120" height="76" viewBox="0 0 120 76" fill="none" xmlns="http://www.w3.org/2000/svg">
<g clip-path="url(#clip0_1913_1782)">
<path d="M50.9964 54.7373C50.3773 49.86 42.8571 46.3414 43.1161 39.7642C43.0985 39.2885 43.0869 38.8538 42.9292 38.4932C42.8766 38.3977 42.8377 38.345 42.7345 38.2632C42.5359 38.1131 42.2945 37.9844 42.1038 38.1638C41.9772 38.2749 41.9091 38.577 41.7903 38.7486C41.8098 38.7408 41.8215 38.7174 41.8254 38.7037C41.804 38.7466 41.7981 38.8032 41.7864 38.8616C41.6988 39.6589 41.8234 40.4718 41.9597 41.2672C42.3043 43.1463 42.9136 44.9846 43.6767 46.7371C45.0492 49.8171 46.8849 52.6944 49.1373 55.2051C49.2599 55.3338 49.7408 55.866 49.8731 56.0024C51.0509 57.1779 51.049 55.6632 50.9964 54.7373ZM51.5142 54.7139C51.5045 55.3786 51.5746 56.7393 50.6635 56.8582C50.0386 56.8407 49.7038 56.3943 49.3514 55.9829C48.2535 54.6905 47.21 53.3396 46.2483 51.9419C44.0349 48.7449 42.203 45.2146 41.3037 41.4056C41.1168 40.4718 40.889 39.4932 41.0623 38.5322C41.0934 38.4211 41.1518 38.2846 41.2355 38.1949L41.1323 38.3762C41.1985 38.1267 41.292 37.8577 41.51 37.6101C42.0824 36.9551 43.1277 37.2709 43.5872 37.8908C43.9765 38.423 44.0018 39.1716 44.0408 39.7272C44.0719 40.6102 44.1225 41.39 44.3892 42.2126C45.3743 45.0957 47.5585 47.3433 49.295 49.7995C50.3209 51.2655 51.4188 52.8406 51.5123 54.712L51.5142 54.7139Z" fill="#010101"/>
<path d="M70.0081 55.3435C70.2573 51.1914 75.8269 47.1152 77.1332 42.8442C77.4018 42.0176 77.4505 41.2418 77.4816 40.3587C77.5206 39.8012 77.5478 39.0546 77.9352 38.5224C78.3966 37.9025 79.44 37.5828 80.0124 38.2417C80.2304 38.4893 80.3219 38.7583 80.39 39.0078L80.2869 38.8265C80.3745 38.9162 80.429 39.0449 80.4601 39.1638C80.6334 40.1248 80.4056 41.1034 80.2187 42.0371C79.0896 46.8072 76.5316 51.09 73.5512 54.9205C73.1229 55.4839 72.6304 56.0726 72.1729 56.6145C72.0425 56.7627 71.8264 57.0492 71.6531 57.1701C70.2164 58.2442 69.942 56.4118 70.0081 55.3474V55.3435ZM70.526 55.3669C70.4442 56.6827 70.6077 57.8524 71.9023 56.3669C72.3832 55.8465 72.8874 55.2811 73.3293 54.7353C75.7549 51.7547 77.6841 48.3336 78.8677 44.6727C79.1558 43.7604 79.4011 42.8305 79.5685 41.8968C79.6989 41.0664 79.8625 40.1969 79.7126 39.3704C79.7067 39.3607 79.7048 39.347 79.7028 39.3334C79.7028 39.347 79.7184 39.3704 79.7379 39.3782L79.6347 39.1969C79.5821 39.0254 79.5062 38.8733 79.4245 38.7914C79.2356 38.6101 78.9942 38.7408 78.7937 38.8909C78.6905 38.9727 78.6516 39.0254 78.599 39.1189C78.4414 39.4776 78.4277 39.9143 78.4122 40.3899C78.6594 46.9807 71.1431 50.4818 70.524 55.365L70.526 55.3669Z" fill="#010101"/>
<path d="M43.5191 35.6062C43.3517 36.2319 42.6761 36.7563 42.0104 36.6588C40.7353 36.4776 40.159 35.1559 40.1143 34.0311C40.124 33.6549 40.0792 32.881 40.634 32.8576C41.0312 32.9044 41.1538 33.2728 41.3134 33.5632C41.3134 33.571 41.3387 33.5847 41.2901 33.5496C41.2434 33.5145 41.1558 33.5593 41.1499 33.5788C41.1343 33.6003 41.1363 33.6061 41.1343 33.6061C41.1519 33.3449 41.1635 33.0408 41.292 32.7952C41.4672 32.4735 41.878 32.6003 42.0006 32.8946C42.1038 33.1578 42.096 33.3001 42.2479 33.497C42.2576 33.5126 42.2712 33.5106 42.2342 33.4911C42.1953 33.4697 42.1291 33.5126 42.1389 33.5087C42.1778 33.4326 42.2011 33.3625 42.2498 33.2728C42.3705 33.0272 42.6469 32.7932 42.9506 32.8771C43.7702 33.2319 43.741 34.8635 43.5171 35.6062H43.5191ZM42.9078 35.3898C43.1258 34.7972 43.1998 33.9063 42.8806 33.3449C42.8358 33.2942 42.8358 33.2767 42.7754 33.2903C42.5788 33.3566 42.5477 33.5866 42.4094 33.7484C42.1233 34.0272 41.8994 33.6432 41.8235 33.3937C41.7729 33.2455 41.769 33.0993 41.732 33.0194C41.6171 32.7854 41.512 32.8985 41.4731 33.0818C41.4186 33.2923 41.4205 33.4424 41.3913 33.6705C41.3855 33.69 41.3816 33.7094 41.3563 33.7426C41.3426 33.7757 41.2375 33.8264 41.1733 33.7855C41.0954 33.7328 41.1051 33.7172 41.0876 33.6958C40.9903 33.5067 40.6671 32.8322 40.49 33.2845C40.3265 33.9765 40.5445 34.8128 40.9572 35.3898C41.4925 36.1734 42.5418 36.4035 42.9078 35.3898Z" fill="#010101"/>
<path d="M37.5289 35.3898C37.893 36.4035 38.9403 36.1734 39.4815 35.3898C39.8942 34.8128 40.1122 33.9765 39.9487 33.2845C39.7735 32.8322 39.4465 33.5048 39.3511 33.6958C39.3335 33.7172 39.3433 33.7328 39.2654 33.7855C39.2031 33.8284 39.098 33.7757 39.0824 33.7426C39.0571 33.7075 39.0532 33.688 39.0474 33.6705C39.0182 33.4443 39.0221 33.2923 38.9656 33.0818C38.9267 32.8966 38.8216 32.7835 38.7048 33.0194C38.6678 33.0973 38.6639 33.2455 38.6133 33.3937C38.5373 33.6432 38.3135 34.0272 38.0273 33.7484C37.893 33.5905 37.8599 33.3586 37.6613 33.2903C37.599 33.2767 37.601 33.2962 37.5562 33.3449C37.235 33.9083 37.309 34.7972 37.527 35.3898H37.5289ZM36.9138 35.6062C36.6899 34.8596 36.6568 33.2416 37.4803 32.8771C37.784 32.7932 38.0623 33.0291 38.1811 33.2728C38.2278 33.3625 38.2512 33.4326 38.292 33.5087C38.3018 33.5106 38.2375 33.4697 38.1967 33.4911C38.1597 33.5067 38.1733 33.5087 38.183 33.497C38.3349 33.3001 38.3271 33.1578 38.4303 32.8946C38.551 32.6003 38.9637 32.4735 39.1389 32.7952C39.2674 33.0389 39.2771 33.3469 39.2966 33.6061C39.2966 33.6061 39.2966 33.6003 39.281 33.5788C39.2751 33.5613 39.1895 33.5165 39.1428 33.5496C39.0922 33.5847 39.1194 33.571 39.1194 33.5632C39.279 33.2747 39.3997 32.9063 39.7988 32.8576C40.3536 32.8849 40.305 33.6549 40.3186 34.0311C40.2738 35.1598 39.6995 36.4776 38.4225 36.6588C37.7548 36.7563 37.0812 36.2319 36.9138 35.6062Z" fill="#010101"/>
<path d="M11.2424 41.9358C10.9932 46.0879 5.42362 50.1621 4.11737 54.4351C3.84872 55.2617 3.80005 56.0375 3.76891 56.9225C3.72997 57.48 3.70272 58.2266 3.31532 58.7588C2.85394 59.3807 1.8105 59.6984 1.23816 59.0415C1.02013 58.7939 0.928634 58.5249 0.860499 58.2754L0.963675 58.4567C0.878019 58.367 0.821564 58.2383 0.790417 58.1194C0.617158 57.1584 0.844925 56.1798 1.03181 55.2461C2.16091 50.476 4.72085 46.1932 7.69934 42.3627C8.12762 41.7993 8.62014 41.2106 9.07762 40.6687C9.20805 40.5225 9.42414 40.234 9.5974 40.1131C11.0302 39.0371 11.3086 40.8714 11.2424 41.9358ZM10.7246 41.9085C10.8063 40.5927 10.6428 39.423 9.34822 40.9085C8.86738 41.4289 8.36318 41.9943 7.91932 42.5401C5.4937 45.5207 3.5645 48.9418 2.38089 52.6027C2.09278 53.515 1.84749 54.4449 1.68007 55.3786C1.54964 56.209 1.38611 57.0785 1.53601 57.905C1.54185 57.9147 1.5438 57.9284 1.54575 57.942C1.54575 57.9284 1.53017 57.905 1.5107 57.8972L1.61388 58.0785C1.66644 58.25 1.74236 58.4021 1.82413 58.484C2.01296 58.6653 2.25435 58.5346 2.45487 58.3845C2.55804 58.3027 2.59698 58.25 2.64954 58.1565C2.80722 57.7978 2.82085 57.3611 2.83642 56.8855C2.58724 50.2947 10.1016 46.7936 10.7246 41.9104V41.9085Z" fill="#010101"/>
<path d="M29.3761 54.402C29.6253 50.2498 35.1949 46.1757 36.5011 41.9026C36.7698 41.0761 36.8184 40.3003 36.8496 39.4152C36.8885 38.8577 36.9158 38.1111 37.3032 37.5789C37.7645 36.9571 38.808 36.6393 39.3803 37.2982C39.5984 37.5458 39.6899 37.8148 39.758 38.0643L39.6548 37.883C39.7424 37.9727 39.7969 38.1014 39.8281 38.2203C40.0013 39.1813 39.7736 40.1599 39.5867 41.0936C38.4576 45.8638 35.8976 50.1465 32.9191 53.977C32.4909 54.5404 31.9983 55.1291 31.5409 55.671C31.4104 55.8192 31.1943 56.1057 31.0211 56.2266C29.5883 57.3007 29.3099 55.4683 29.3761 54.4039V54.402ZM29.8939 54.4273C29.8122 55.7432 29.9757 56.9147 31.2703 55.4274C31.7511 54.9069 32.2553 54.3416 32.6972 53.7957C35.1228 50.8151 37.052 47.394 38.2357 43.7311C38.5238 42.8188 38.7691 41.889 38.9365 40.9552C39.0669 40.1248 39.2304 39.2554 39.0805 38.4289C39.0747 38.4191 39.0727 38.4055 39.0708 38.3918C39.0708 38.4055 39.0864 38.4289 39.1058 38.4367L39.0027 38.2554C38.9501 38.0838 38.8742 37.9318 38.7924 37.8499C38.6036 37.6686 38.3622 37.7992 38.1617 37.9493C38.0585 38.0312 38.0196 38.0838 37.967 38.1774C37.8093 38.5361 37.7957 38.9727 37.7801 39.4484C38.0293 46.0372 30.511 49.5383 29.892 54.4234L29.8939 54.4273Z" fill="#010101"/>
<path d="M17 62H15V73H17V62Z" fill="#F2F2F2" stroke="#010101" stroke-width="0.5" stroke-miterlimit="10"/>
<path d="M17 65H15V67H17V65Z" fill="#010101"/>
<path d="M17 69H15V71H17V69Z" fill="#010101"/>
<path d="M25 62H23V73H25V62Z" fill="#F2F2F2" stroke="#010101" stroke-width="0.5" stroke-miterlimit="10"/>
<path d="M25 65H23V67H25V65Z" fill="#010101"/>
<path d="M25 69H23V71H25V69Z" fill="#010101"/>
<path d="M25.3903 75.1182L23.2362 74.9033C22.6071 74.8396 22.1527 74.2947 22.2275 73.6803C22.3008 73.0682 22.8705 72.6217 23.503 72.6827L25.657 72.8975C26.288 72.9608 26.7405 73.5061 26.6658 74.1206C26.591 74.735 26.019 75.18 25.3903 75.1182Z" fill="#010101"/>
<path d="M14.5033 75.1182L16.6573 74.9033C17.2864 74.8396 17.7408 74.2947 17.6661 73.6803C17.5928 73.0682 17.0231 72.6217 16.3906 72.6827L14.2365 72.8975C13.6055 72.9608 13.153 73.5061 13.2278 74.1206C13.3025 74.735 13.8746 75.18 14.5033 75.1182Z" fill="#010101"/>
<path d="M2.78966 60.3651C2.42562 59.3514 1.37828 59.5815 0.837092 60.3651C0.424386 60.9421 0.206353 61.7784 0.369878 62.4704C0.545083 62.9227 0.872133 62.2502 0.967522 62.0591C0.985043 62.0377 0.975309 62.0221 1.05318 61.9694C1.11547 61.9266 1.2206 61.9792 1.23617 62.0123C1.26148 62.0474 1.26537 62.0669 1.27121 62.0825C1.30041 62.3086 1.29652 62.4607 1.35297 62.6712C1.39191 62.8564 1.49703 62.9675 1.61189 62.7336C1.64888 62.6556 1.65472 62.5075 1.70338 62.3593C1.77931 62.1098 2.00318 61.7258 2.28935 62.0045C2.42367 62.1624 2.45677 62.3944 2.65339 62.4626C2.71568 62.4763 2.71373 62.4568 2.75851 62.408C3.07972 61.8466 3.00574 60.9577 2.78771 60.3632L2.78966 60.3651ZM3.40482 60.1487C3.6287 60.8953 3.66179 62.5133 2.83832 62.8778C2.53464 62.9617 2.25625 62.7258 2.1375 62.4821C2.09078 62.3925 2.06742 62.3223 2.02654 62.2463C2.01681 62.2443 2.08105 62.2852 2.12193 62.2657C2.15892 62.2502 2.14529 62.2463 2.13556 62.2599C1.98371 62.4568 1.9915 62.5991 1.88832 62.8623C1.76763 63.1566 1.35492 63.2833 1.17972 62.9617C1.05123 62.7161 1.0415 62.41 1.02203 62.1507C1.02203 62.1507 1.02203 62.1566 1.0376 62.178C1.04344 62.1956 1.1291 62.2404 1.17582 62.2073C1.22644 62.1741 1.19918 62.1858 1.19918 62.1936C1.03955 62.4821 0.918854 62.8506 0.519776 62.8993C-0.035041 62.872 0.0136271 62.102 0 61.7258C0.0447747 60.5971 0.619058 59.2793 1.89611 59.098C2.56384 59.0006 3.2374 59.5249 3.40482 60.1507V60.1487Z" fill="#010101"/>
<path d="M84.5657 38.2164C84.3983 38.8421 83.7228 39.3665 83.057 39.269C81.7819 39.0877 81.2057 37.7661 81.1609 36.6413C81.1706 36.2651 81.1278 35.4912 81.6807 35.4678C82.0778 35.5146 82.2004 35.883 82.3601 36.1734C82.3601 36.1812 82.3854 36.1949 82.3367 36.1598C82.29 36.1247 82.2024 36.1695 82.1985 36.189C82.1829 36.2105 82.1849 36.2144 82.1829 36.2144C82.2024 35.9532 82.2121 35.6491 82.3406 35.4034C82.5158 35.0818 82.9266 35.2085 83.0492 35.5029C83.1524 35.766 83.1446 35.9083 83.2964 36.1052C83.3062 36.1208 83.3198 36.1189 83.2828 36.0994C83.2439 36.0779 83.1777 36.1208 83.1874 36.1169C83.2264 36.0409 83.2497 35.9688 83.2984 35.881C83.4191 35.6354 83.6955 35.4015 83.9992 35.4873C84.8207 35.8401 84.7915 37.4737 84.5657 38.2164ZM83.9544 38C84.1725 37.4074 84.2464 36.5165 83.9272 35.9551C83.8824 35.9044 83.8824 35.8869 83.8221 35.9005C83.6254 35.9668 83.5943 36.1968 83.458 36.3586C83.1719 36.6374 82.948 36.2534 82.8721 36.0038C82.8214 35.8576 82.8176 35.7095 82.7806 35.6296C82.6657 35.3956 82.5606 35.5087 82.5216 35.6919C82.4671 35.9025 82.4691 36.0526 82.4399 36.2807C82.434 36.2982 82.4302 36.3196 82.4048 36.3508C82.3912 36.3859 82.2861 36.4347 82.2219 36.3937C82.144 36.3411 82.1537 36.3255 82.1343 36.304C82.0369 36.115 81.7138 35.4405 81.5366 35.8947C81.3731 36.5867 81.5911 37.423 82.0038 38C82.5411 38.7817 83.5885 39.0137 83.9544 38Z" fill="#010101"/>
<path d="M119.405 59.0644C119.237 58.4386 118.562 57.9143 117.896 58.0117C116.621 58.193 116.045 59.5147 116 60.6395C116.01 61.0157 115.967 61.7896 116.52 61.813C116.917 61.7662 117.04 61.3978 117.199 61.1073C117.199 61.0995 117.224 61.0859 117.176 61.121C117.129 61.1561 117.041 61.1112 117.038 61.0917C117.022 61.0703 117.024 61.0664 117.022 61.0664C117.041 61.3276 117.051 61.6317 117.18 61.8773C117.355 62.199 117.766 62.0723 117.888 61.7779C117.991 61.5147 117.984 61.3724 118.136 61.1756C118.145 61.16 118.159 61.1619 118.122 61.1814C118.083 61.2028 118.017 61.16 118.027 61.1639C118.065 61.2399 118.089 61.312 118.138 61.3997C118.258 61.6453 118.535 61.8793 118.838 61.7935C119.66 61.4407 119.631 59.8071 119.405 59.0644ZM118.794 59.2808C119.012 59.8734 119.086 60.7642 118.766 61.3257C118.722 61.3763 118.722 61.3939 118.661 61.3802C118.465 61.314 118.433 61.0839 118.297 60.9221C118.011 60.6434 117.787 61.0274 117.711 61.2769C117.661 61.4231 117.657 61.5713 117.62 61.6512C117.505 61.8851 117.4 61.7721 117.361 61.5888C117.306 61.3783 117.308 61.2282 117.279 61.0001C117.273 60.9826 117.269 60.9611 117.244 60.9299C117.23 60.8948 117.125 60.8461 117.061 60.887C116.983 60.9397 116.993 60.9553 116.973 60.9767C116.876 61.1658 116.553 61.8403 116.376 61.3861C116.212 60.6941 116.43 59.8578 116.843 59.2808C117.38 58.4991 118.428 58.2671 118.794 59.2808Z" fill="#010101"/>
<path d="M92.4908 56.1623C91.8717 51.285 84.3496 47.7663 84.6104 41.1892C84.5929 40.7135 84.5813 40.2788 84.4236 39.9182C84.371 39.8227 84.3321 39.77 84.2289 39.6901C84.0303 39.54 83.7889 39.4113 83.5982 39.5907C83.4716 39.7018 83.4035 40.004 83.2847 40.1755C83.3042 40.1677 83.3159 40.1443 83.3198 40.1307C83.2984 40.1735 83.2945 40.2301 83.2808 40.2886C83.1932 41.0859 83.3178 41.8987 83.4541 42.6941C83.7987 44.5733 84.406 46.4115 85.1711 48.164C86.5435 51.244 88.3793 54.1213 90.6317 56.6321C90.7543 56.7607 91.2352 57.2929 91.3675 57.4294C92.5453 58.6029 92.5433 57.0902 92.4908 56.1642V56.1623ZM93.0086 56.135C92.9989 56.8017 93.069 58.1604 92.1579 58.2793C91.533 58.2598 91.1982 57.8153 90.8458 57.404C89.7479 56.1116 88.7044 54.7607 87.7427 53.363C85.5293 50.166 83.6974 46.6357 82.798 42.8266C82.6112 41.8929 82.3834 40.9143 82.5567 39.9533C82.5878 39.8422 82.6462 39.7057 82.7299 39.616L82.6267 39.7973C82.6929 39.5478 82.7864 39.2788 83.0044 39.0312C83.5767 38.3762 84.6221 38.692 85.0816 39.3119C85.4709 39.8441 85.4962 40.5927 85.5351 41.1482C85.5663 42.0332 85.6169 42.811 85.8836 43.6337C86.8687 46.5168 89.0529 48.7644 90.7894 51.2226C91.8153 52.6885 92.9132 54.2636 93.0067 56.135H93.0086Z" fill="#010101"/>
<path d="M110.517 40.1451C110.856 45.0498 118.165 48.9929 117.529 55.5444C117.519 56.0202 117.506 56.4549 117.642 56.824C117.689 56.9223 117.725 56.9771 117.824 57.0628C118.013 57.224 118.247 57.3663 118.448 57.1981C118.58 57.0944 118.666 56.7947 118.794 56.6322C118.774 56.6389 118.761 56.6616 118.757 56.675C118.78 56.6334 118.789 56.5773 118.804 56.5195C118.938 55.7286 118.86 54.9099 118.769 54.1081C118.533 52.2122 118.031 50.3422 117.368 48.5489C116.174 45.3935 114.505 42.4179 112.404 39.7807C112.289 39.6452 111.84 39.0864 111.715 38.9426C110.603 37.7034 110.516 39.2137 110.52 40.1413L110.517 40.1451ZM109.999 40.1408C110.047 39.4777 110.055 38.1153 110.971 38.0487C111.594 38.1019 111.904 38.5668 112.231 38.9975C113.253 40.3506 114.218 41.759 115.098 43.2094C117.125 46.5277 118.752 50.157 119.432 54.0113C119.565 54.9542 119.736 55.9442 119.508 56.8938C119.471 57.0029 119.405 57.1358 119.316 57.2205L119.43 57.0454C119.349 57.2908 119.24 57.554 119.009 57.7887C118.4 58.4099 117.374 58.0348 116.951 57.3897C116.593 56.8361 116.61 56.0873 116.603 55.5304C116.623 54.6451 116.617 53.8656 116.397 53.0272C115.579 50.0924 113.527 47.7236 111.934 45.1721C110.993 43.6499 109.987 42.0146 110.001 40.1409L109.999 40.1408Z" fill="#010101"/>
<path d="M99 62H97V72H99V62Z" fill="#F2F2F2" stroke="#010101" stroke-width="0.5" stroke-miterlimit="10"/>
<path d="M99 64H97V66H99V64Z" fill="#010101"/>
<path d="M99 67H97V69H99V67Z" fill="#010101"/>
<path d="M106 62H104V72H106V62Z" fill="#F2F2F2" stroke="#010101" stroke-width="0.5" stroke-miterlimit="10"/>
<path d="M106 64H104V66H106V64Z" fill="#010101"/>
<path d="M106 67H104V69H106V67Z" fill="#010101"/>
<path d="M106.464 73.9814L104.068 73.2972C103.367 73.0964 102.991 72.4648 103.235 71.882C103.476 71.3011 104.239 70.9892 104.944 71.1899L107.34 71.8742C108.041 72.075 108.417 72.7066 108.174 73.2894C107.932 73.8703 107.165 74.1803 106.464 73.9814Z" fill="#010101"/>
<path d="M96.2247 73.9814L98.6211 73.2972C99.3219 73.0964 99.6976 72.4648 99.4543 71.882C99.2129 71.3011 98.4498 70.9892 97.747 71.1899L95.3506 71.8742C94.6498 72.075 94.274 72.7066 94.5174 73.2894C94.7588 73.8703 95.5258 74.1803 96.2247 73.9814Z" fill="#010101"/>
<path d="M59 61H57V71H59V61Z" fill="#F2F2F2" stroke="#010101" stroke-width="0.5" stroke-miterlimit="10"/>
<path d="M58.8456 63.1215H56.6672V64.5777H58.8456V63.1215Z" fill="#010101"/>
<path d="M58.8456 67.4901H56.6672V68.9462H58.8456V67.4901Z" fill="#010101"/>
<path d="M66 61H64V71H66V61Z" fill="#F2F2F2" stroke="#010101" stroke-width="0.5" stroke-miterlimit="10"/>
<path d="M66 63H64V65H66V63Z" fill="#010101"/>
<path d="M66 67H64V69H66V67Z" fill="#010101"/>
<path d="M66.3038 73.5639L63.9073 72.71C63.2065 72.4586 62.8308 71.6691 63.0741 70.94C63.3155 70.2148 64.0787 69.825 64.7814 70.0764L67.1778 70.9303C67.8787 71.1817 68.2544 71.9712 68.011 72.7003C67.7716 73.4255 67.0065 73.8153 66.3038 73.5639Z" fill="#010101"/>
<path d="M56.5272 72.8544L58.581 72.1702C59.1826 71.9694 59.5038 71.3378 59.2955 70.753C59.0872 70.1721 58.435 69.8602 57.8315 70.0609L55.7778 70.7452C55.1782 70.946 54.855 71.5776 55.0633 72.1624C55.2716 72.7433 55.9238 73.0513 56.5272 72.8544Z" fill="#010101"/>
<path d="M79.0623 36.6315C79.4283 37.6452 80.4756 37.4152 81.0148 36.6315C81.4275 36.0545 81.6456 35.2183 81.4821 34.5262C81.3068 34.074 80.9798 34.7465 80.8844 34.9375C80.8669 34.959 80.8766 34.9746 80.7968 35.0272C80.7345 35.0701 80.6294 35.0175 80.6138 34.9843C80.5866 34.9492 80.5846 34.9297 80.5788 34.9122C80.5496 34.6861 80.5515 34.534 80.497 34.3235C80.4581 34.1383 80.353 34.0272 80.2361 34.2611C80.1992 34.3391 80.1953 34.4872 80.1447 34.6354C80.0687 34.8849 79.8449 35.2689 79.5587 34.9902C79.4244 34.8323 79.3913 34.6003 79.1946 34.5321C79.1324 34.5184 79.1343 34.5379 79.0895 34.5867C78.7703 35.1461 78.8423 36.037 79.0603 36.6315H79.0623ZM78.451 36.8479C78.2271 36.1013 78.194 34.4833 79.0175 34.1188C79.3212 34.035 79.5996 34.2709 79.7183 34.5126C79.765 34.6023 79.7884 34.6724 79.8293 34.7485C79.839 34.7504 79.7748 34.7095 79.7339 34.7309C79.6969 34.7465 79.7105 34.7485 79.7203 34.7368C79.8721 34.5399 79.8643 34.3976 79.9675 34.1344C80.0882 33.84 80.5009 33.7133 80.6761 34.035C80.8046 34.2806 80.8143 34.5886 80.8338 34.8459C80.8338 34.8459 80.8338 34.8401 80.8182 34.8206C80.8124 34.803 80.7267 34.7582 80.68 34.7913C80.6294 34.8264 80.6566 34.8128 80.6566 34.805C80.8163 34.5165 80.937 34.148 81.336 34.0993C81.8909 34.1247 81.8422 34.8966 81.8558 35.2728C81.811 36.4015 81.2368 37.7193 79.9597 37.9006C79.292 37.9981 78.6165 37.4717 78.451 36.8479Z" fill="#010101"/>
<path d="M12.2819 14.7148C12.3286 15.206 12.3714 15.6602 12.4162 16.1144C12.3617 16.1378 12.3052 16.1612 12.2527 16.1846C12.056 15.8376 11.8555 15.4906 11.62 15.0715C11.472 15.4049 11.3358 15.709 11.0768 16.2996C11.0107 15.5998 10.9737 15.2255 10.9737 15.2099C10.047 14.9039 9.30922 14.6602 8.57141 14.4146C9.10481 13.8707 9.63627 13.3249 10.1697 12.781C10.1872 12.8181 10.2067 12.8551 10.2222 12.8921C10.5337 12.4204 10.8452 11.9525 11.1567 11.4827C11.548 11.9876 12.1904 12.4555 12.2741 13.0091C12.4104 13.898 12.7958 14.2275 13.5979 14.2742C16.2104 14.4321 18.8423 14.8707 21.4334 14.7031C33.6082 13.9136 45.7908 13.1611 57.9306 11.9896C66.1477 11.1981 74.3493 9.96808 82.2433 7.36178C84.6377 6.57033 86.9018 5.38512 89.2339 4.39484C90.1294 4.01276 90.5967 3.49228 90.4078 2.38699C90.3319 1.94838 90.7835 1.22712 91.1982 0.971749C91.4337 0.827495 92.0878 1.36942 92.7828 1.71641C93.0417 1.81388 93.544 2.00296 94.0482 2.19205C93.8535 2.68134 93.6511 3.16479 93.4661 3.65798C93.3532 3.95818 93.2656 4.26618 93.1274 4.70479C93.104 4.71844 92.8276 4.87049 92.4421 5.08297C92.1735 4.88218 91.6888 4.5196 90.9101 3.93674C90.9179 4.75742 90.9237 5.20773 90.9257 5.65998C90.9354 8.02261 90.9879 10.3872 90.9237 12.7479C90.9101 13.2372 90.5675 13.976 90.1917 14.1222C89.8141 14.2664 89.0763 13.9467 88.7239 13.5959C87.1062 11.9954 85.5838 10.3053 83.9934 8.67565C83.6936 8.36765 83.2497 8.20391 82.8721 7.97388C82.6891 8.3813 82.4185 8.77312 82.3367 9.20003C81.9065 11.436 81.5619 13.6914 81.1005 15.9215C80.9876 16.4634 80.571 17.327 80.2479 17.3484C79.7184 17.3835 78.9728 16.9858 78.6301 16.5336C77.3667 14.8571 76.259 13.0656 75.0345 11.3619C74.7231 10.9252 74.1858 10.6484 73.7536 10.2995C73.3779 10.779 72.8406 11.202 72.6556 11.7459C72.1787 13.1534 71.8594 14.6134 71.4681 16.0521C71.3533 16.4731 71.2929 16.9468 71.0554 17.2938C70.4442 18.1983 69.7492 19.0463 69.0834 19.9177C68.4488 19.2529 67.7188 18.6545 67.1951 17.9079C66.066 16.2957 64.9797 14.6427 64.0102 12.9292C63.5119 12.0481 62.8889 12.1923 62.1355 12.2449C61.3607 12.2995 61.1583 12.7342 60.9753 13.3951C60.3815 15.5452 59.8053 17.7071 59.0461 19.8007C58.3686 21.674 57.2084 21.8534 56.0267 20.2081C54.7828 18.4751 53.7198 16.5901 52.7387 14.6914C52.2189 13.6894 51.6077 13.4497 50.5642 13.5705C49.4624 13.6992 49.6317 14.5355 49.4332 15.2041C48.7985 17.3425 48.2573 19.5161 47.4806 21.6019C46.8576 23.2647 45.9446 23.4285 44.9576 21.9996C43.4976 19.8865 42.2478 17.6252 41.0097 15.3678C40.6534 14.7187 40.4004 14.3366 39.5769 14.3873C38.7203 14.4399 38.5159 14.8922 38.331 15.5998C37.8638 17.3776 37.3985 19.1672 36.758 20.8845C36.466 21.6682 35.7574 22.2978 35.2376 22.9977C34.6926 22.3602 33.9937 21.8008 33.6335 21.0717C32.7809 19.3484 32.1287 17.5258 31.3033 15.7869C31.1145 15.3932 30.5227 14.939 30.1372 14.9565C29.7401 14.9741 29.1755 15.4614 29.0179 15.8727C28.2645 17.8338 27.6318 19.8397 26.9329 21.8241C26.7597 22.3154 26.5475 22.8105 26.2691 23.2511C25.6286 24.2667 24.7779 24.3564 24.2737 23.2725C23.2497 21.0678 22.4671 18.7519 21.5677 16.4907C21.4237 16.13 21.192 15.8045 21.0032 15.4614C20.6859 15.7636 20.2401 16.0053 20.0688 16.3776C19.2842 18.0872 18.5795 19.8377 17.8359 21.5688C17.647 22.0113 17.4816 22.5064 17.1643 22.8359C16.773 23.2413 16.1675 23.8183 15.7723 23.7365C15.3499 23.6468 14.8691 22.9294 14.7542 22.407C14.2734 20.2257 13.9054 18.019 13.5336 15.8162C13.4129 15.0891 13.226 14.5452 12.276 14.7187L12.2819 14.7148ZM41.2667 14.438C41.9091 15.7616 42.4736 17.0326 43.1355 18.2529C43.6942 19.2861 44.2821 20.3251 45.0121 21.2413C45.8765 22.3251 46.5559 22.2666 46.9939 21.0152C47.8076 18.6896 48.4306 16.2957 49.2073 13.6816C46.3846 13.9467 43.92 14.1846 41.2667 14.436V14.438ZM64.0044 12.0071C65.7058 14.5705 67.2691 16.9273 68.9939 19.5258C71.1878 16.7421 71.3007 13.5939 72.3228 10.5802C69.4669 11.0695 66.8739 11.5139 64.0044 12.0071ZM52.6258 13.4087C53.8405 15.516 54.9093 17.3991 56.0111 19.2627C56.2058 19.5921 56.5153 19.8631 56.8151 20.1106C57.3972 20.5941 58.0416 20.5902 58.3063 19.8494C59.1512 17.5004 59.9046 15.1164 60.73 12.6348C57.8489 12.9116 55.3648 13.1475 52.6277 13.4087H52.6258ZM22.0291 15.5589C22.4048 18.0775 23.1212 20.4342 24.5131 22.5396C25.1166 23.4519 25.6559 23.3427 26.0783 22.3212C26.4423 21.4343 26.7791 20.5317 27.0867 19.6253C27.5792 18.1554 28.0387 16.6739 28.5993 14.9351C26.2847 15.1554 24.2679 15.3483 22.0311 15.5608L22.0291 15.5589ZM83.7286 7.7614C85.5897 9.59575 87.2794 11.2878 89.0023 12.9467C89.6077 13.5315 90.254 13.399 90.2832 12.5413C90.3669 10.0383 90.3144 7.53527 90.3144 4.77887C87.9472 5.84907 85.9771 6.74188 83.7286 7.75945V7.7614ZM81.8052 8.35596C79.3134 8.9895 77.1467 9.54507 74.8009 10.1416C76.2785 12.2255 77.6276 14.1534 79.0078 16.0579C79.477 16.7071 80.1953 16.9995 80.4192 15.9838C80.9643 13.5315 81.3302 11.0344 81.8033 8.35401L81.8052 8.35596ZM31.5233 15.0423C32.6835 17.479 33.801 19.8299 34.9534 22.2511C36.1662 21.2783 37.8307 16.2821 37.6827 14.4555C35.7107 14.6427 33.7367 14.8298 31.5213 15.0423H31.5233ZM13.9405 15.0559C14.4427 17.5316 14.8924 19.8416 15.4005 22.138C15.4628 22.4187 15.8132 22.8222 16.0429 22.83C16.2902 22.8398 16.6659 22.5045 16.7885 22.2296C17.7677 20.0483 18.7022 17.8494 19.7067 15.5199C17.7405 15.362 15.9787 15.2177 13.9405 15.054V15.0559Z" fill="#010101"/>
<path d="M41.2667 14.438C43.9201 14.1846 46.3847 13.9487 49.2074 13.6797C48.4307 16.2957 47.8077 18.6857 46.994 21.0132C46.556 22.2647 45.8766 22.3232 45.0122 21.2393C44.2822 20.327 43.6962 19.2841 43.1356 18.251C42.4737 17.0326 41.9072 15.7597 41.2667 14.438Z" fill="white"/>
<path d="M64.0044 12.0071C66.8739 11.5159 69.4669 11.0734 72.3228 10.5841C71.3027 13.5959 71.1917 16.746 68.9939 19.5297C67.2691 16.9254 65.7039 14.5686 64.0044 12.0071Z" fill="white"/>
<path d="M52.6259 13.4107C55.3629 13.1494 57.847 12.9116 60.7301 12.6368C59.9066 15.1183 59.1532 17.5024 58.3064 19.8514C58.0416 20.5902 57.3953 20.596 56.8152 20.1126C56.5154 19.865 56.2059 19.5921 56.0112 19.2646C54.9094 17.401 53.8406 15.5179 52.6259 13.4107Z" fill="white"/>
<path d="M22.0292 15.5589C24.266 15.3464 26.2828 15.1534 28.5935 14.9331C28.0348 16.672 27.5773 18.1535 27.0809 19.6233C26.7733 20.5337 26.4404 21.4343 26.0725 22.3193C25.6501 23.3407 25.1108 23.4499 24.5073 22.5376C23.1193 20.4362 22.399 18.0755 22.0272 15.5569L22.0292 15.5589Z" fill="white"/>
<path d="M83.7286 7.76139C85.9791 6.74382 87.9472 5.85101 90.3144 4.78081C90.3144 7.53527 90.367 10.0402 90.2833 12.5432C90.2541 13.4009 89.6097 13.5315 89.0023 12.9487C87.2795 11.2878 85.5897 9.5977 83.7286 7.76334V7.76139Z" fill="white"/>
<path d="M81.8052 8.35596C81.3322 11.0363 80.9701 13.5315 80.4211 15.9858C80.1953 17.0014 79.4789 16.709 79.0078 16.0599C77.6276 14.1553 76.2785 12.2274 74.8009 10.1435C77.1448 9.54702 79.3134 8.9934 81.8052 8.35791V8.35596Z" fill="white"/>
<path d="M31.5233 15.0423C33.7387 14.8318 35.7107 14.6427 37.6847 14.4536C37.8327 16.2801 36.1643 21.2783 34.9554 22.2491C33.8029 19.8319 32.6855 17.479 31.5253 15.0423H31.5233Z" fill="white"/>
<path d="M13.9424 15.054C15.9787 15.2177 17.7443 15.36 19.7086 15.5199C18.7021 17.8474 17.7677 20.0502 16.7904 22.2296C16.6678 22.5025 16.2921 22.8398 16.0448 22.83C15.8132 22.8203 15.4647 22.4187 15.4024 22.138C14.8982 19.8416 14.4466 17.5316 13.9424 15.0559V15.054Z" fill="white"/>
<path d="M26.7304 3.91334C26.6467 4.40069 26.5708 4.84904 26.491 5.29935C26.4326 5.30714 26.3722 5.31689 26.3158 5.32469C26.2165 4.93871 26.1153 4.54884 25.9985 4.08489C25.7668 4.3695 25.5604 4.62681 25.1516 5.12585C25.2704 4.43383 25.3346 4.06345 25.3385 4.04785C24.5248 3.50788 23.8765 3.07707 23.2283 2.6482C23.8843 2.26418 24.5443 1.8782 25.2003 1.49418C25.2081 1.53317 25.2159 1.57215 25.2237 1.61309C25.6461 1.24271 26.0705 0.87038 26.4949 0.5C26.7421 1.09261 27.2385 1.71056 27.1743 2.26613C27.0711 3.16089 27.3573 3.57805 28.1184 3.83732C30.5986 4.6775 33.0222 5.79448 35.5647 6.31302C47.5195 8.75752 59.4704 11.241 71.4895 13.3093C79.6249 14.7089 87.8615 15.6817 96.1584 15.2489C98.6755 15.1183 101.171 14.5705 103.683 14.2255C104.648 14.091 105.234 13.7148 105.341 12.5978C105.384 12.1553 106.007 11.5763 106.476 11.4399C106.741 11.3638 107.229 12.0559 107.81 12.5744C108.035 12.7381 108.468 13.0539 108.904 13.3658C108.588 13.7869 108.265 14.2002 107.959 14.6251C107.773 14.8824 107.607 15.1593 107.356 15.5452C107.331 15.553 107.025 15.6271 106.597 15.7285C106.392 15.4653 106.017 14.9858 105.419 14.2177C105.211 15.013 105.098 15.4497 104.981 15.8825C104.372 18.1671 103.803 20.4596 103.12 22.7208C102.978 23.1887 102.454 23.8125 102.055 23.8515C101.654 23.8905 101.025 23.3856 100.776 22.9567C99.6372 20.9879 98.6074 18.9527 97.5036 16.9644C97.2953 16.5901 96.9099 16.3152 96.6062 15.9916C96.3219 16.3367 95.9599 16.6447 95.7691 17.0326C94.7685 19.0775 93.8457 21.1633 92.8139 23.1926C92.5648 23.6838 91.934 24.409 91.6167 24.3447C91.0969 24.2394 90.4798 23.6585 90.2696 23.1322C89.4889 21.1828 88.8913 19.1613 88.1554 17.1944C87.9666 16.6915 87.5247 16.284 87.1996 15.8318C86.711 16.1944 86.0822 16.4634 85.761 16.939C84.9317 18.171 84.2406 19.4966 83.4872 20.7793C83.2672 21.1555 83.0823 21.5941 82.7649 21.869C81.9376 22.5785 81.0421 23.214 80.1758 23.8788C79.7378 23.0678 79.1888 22.2998 78.8812 21.4421C78.2174 19.5882 77.6003 17.709 77.1136 15.8006C76.8644 14.8201 76.224 14.7928 75.4842 14.6466C74.723 14.4945 74.4135 14.859 74.065 15.4517C72.9282 17.3698 71.8049 19.3036 70.5239 21.1243C69.3793 22.752 68.2132 22.6214 67.5046 20.7208C66.759 18.7188 66.2256 16.6252 65.7778 14.5296C65.5384 13.4243 65.0108 13.0325 63.9752 12.8746C62.8772 12.7069 62.8227 13.5608 62.4548 14.1534C61.2809 16.0482 60.1888 18.0053 58.8923 19.8124C57.8547 21.2549 56.9319 21.1672 56.3537 19.5317C55.5011 17.1086 54.8859 14.5959 54.2824 12.0929C54.1092 11.3716 53.9651 10.9369 53.1592 10.7693C52.3182 10.5958 52.0009 10.9779 51.6388 11.6114C50.7199 13.204 49.805 14.8084 48.7362 16.2977C48.2476 16.9761 47.4008 17.3971 46.7175 17.9332C46.3573 17.1749 45.8297 16.4517 45.676 15.6524C45.3061 13.7635 45.1562 11.8356 44.8116 9.94079C44.7337 9.50998 44.2821 8.91737 43.9025 8.83355C43.517 8.74583 42.8454 9.06747 42.5846 9.42226C41.3425 11.1163 40.2057 12.8863 39.0123 14.6154C38.7164 15.0442 38.3816 15.4653 38 15.8142C37.1162 16.6271 36.2694 16.4887 36.0708 15.3094C35.662 12.9116 35.5121 10.471 35.2396 8.0538C35.1948 7.66783 35.0585 7.29355 34.9631 6.91537C34.5777 7.12395 34.0832 7.23897 33.8204 7.55281C32.6154 8.9973 31.4785 10.5003 30.3066 11.972C30.0068 12.3483 29.7206 12.783 29.3254 13.0188C28.8426 13.3054 28.1048 13.7031 27.7486 13.5218C27.3631 13.3249 27.0906 12.5042 27.1159 11.972C27.2268 9.74001 27.4488 7.51578 27.6668 5.29155C27.733 4.56833 27.696 3.99132 26.7324 3.90945L26.7304 3.91334ZM54.7711 11.28C55.0436 12.7245 55.2558 14.1007 55.5751 15.4536C55.8456 16.5979 56.1357 17.7558 56.601 18.8299C57.1499 20.1028 57.8216 20.2276 58.573 19.1321C59.9688 17.1008 61.1991 14.9565 62.6319 12.6387C59.8384 12.1572 57.4011 11.7362 54.773 11.282L54.7711 11.28ZM77.3492 14.9214C78.3186 17.8416 79.2102 20.5278 80.1914 23.4928C83.0394 21.3855 83.9719 18.3757 85.7454 15.7402C82.8623 15.4595 80.2439 15.2041 77.3472 14.9214H77.3492ZM66.0017 13.2801C66.6208 15.6349 67.16 17.7324 67.7343 19.8182C67.8375 20.1867 68.0652 20.5317 68.2891 20.8495C68.7252 21.4674 69.3442 21.637 69.7959 20.9918C71.2287 18.9469 72.5777 16.8455 74.0242 14.6661C71.1703 14.1748 68.7115 13.7479 66.0017 13.2801ZM35.9151 7.29745C35.6153 9.82578 35.6912 12.2917 36.4796 14.6856C36.8242 15.7246 37.3712 15.7616 38.0467 14.8883C38.6327 14.128 39.1914 13.3483 39.7268 12.5529C40.5911 11.2644 41.4204 9.95639 42.4152 8.42418C40.1258 8.02456 38.1285 7.67952 35.9151 7.29745ZM97.4939 16.0209C98.8099 18.2802 99.9954 20.3602 101.224 22.4109C101.656 23.1341 102.314 23.177 102.567 22.3583C103.305 19.9664 103.908 17.5355 104.633 14.8785C102.063 15.286 99.9292 15.629 97.4919 16.0209H97.4939ZM95.481 16.0871C92.9113 16.0443 90.6725 16.0053 88.2567 15.9663C89.1366 18.366 89.9308 20.5843 90.764 22.7832C91.0483 23.5337 91.6615 24.0074 92.1482 23.0854C93.3162 20.8631 94.3227 18.5492 95.481 16.0871ZM45.2107 9.29555C45.6915 11.9506 46.1529 14.516 46.6298 17.1535C48.0549 16.5355 50.971 12.1514 51.3078 10.3502C49.3572 10.011 47.4027 9.67373 45.2107 9.29555ZM28.243 4.6775C28.0776 7.19803 27.9101 9.54507 27.7933 11.896C27.7797 12.1826 28.0114 12.6641 28.2314 12.7323C28.465 12.8064 28.9185 12.5822 29.1074 12.3483C30.6239 10.5042 32.1014 8.62497 33.6822 6.64246C31.8289 5.97383 30.1645 5.37147 28.2411 4.6775H28.243Z" fill="#010101"/>
<path d="M54.7711 11.28C57.3992 11.7342 59.8404 12.1553 62.63 12.6407C61.1973 14.9585 59.9689 17.1028 58.5711 19.134C57.8197 20.2276 57.1481 20.1048 56.5991 18.8319C56.1338 17.7578 55.8438 16.5998 55.5732 15.4556C55.252 14.1008 55.0437 12.7245 54.7692 11.28H54.7711Z" fill="white"/>
<path d="M77.3473 14.9214C80.246 15.2021 82.8624 15.4575 85.7474 15.7363C83.972 18.3757 83.0415 21.3816 80.1934 23.4909C79.2064 20.5278 78.3168 17.8416 77.3473 14.9214Z" fill="white"/>
<path d="M65.9998 13.2781C68.7115 13.746 71.1683 14.1729 74.0222 14.6641C72.5758 16.8396 71.2267 18.943 69.7939 20.9898C69.3423 21.635 68.7193 21.4694 68.2872 20.8475C68.0633 20.5298 67.8355 20.1847 67.7323 19.8163C67.1542 17.7305 66.6169 15.6329 65.9998 13.2781Z" fill="white"/>
<path d="M35.9132 7.2955C38.1266 7.67758 40.124 8.02457 42.4133 8.41834C41.4185 9.95054 40.5873 11.2566 39.7249 12.5471C39.1915 13.3444 38.6308 14.1261 38.0448 14.8844C37.3713 15.7597 36.8223 15.7246 36.4777 14.6817C35.6913 12.2878 35.6134 9.82188 35.9132 7.2955Z" fill="white"/>
<path d="M97.4919 16.0209C99.9273 15.631 102.063 15.2899 104.629 14.8785C103.906 17.5355 103.301 19.9703 102.563 22.3583C102.312 23.177 101.652 23.1341 101.22 22.4109C99.9935 20.3563 98.8079 18.2802 97.4919 16.0209Z" fill="white"/>
<path d="M95.4791 16.0852C94.3208 18.5473 93.3162 20.8612 92.1463 23.0834C91.6615 24.0035 91.0464 23.5337 90.7621 22.7813C89.9309 20.5785 89.1347 18.364 88.2548 15.9643C90.6706 16.0072 92.9094 16.0423 95.4791 16.0852Z" fill="white"/>
<path d="M45.2107 9.29555C47.4027 9.67372 49.3553 10.011 51.3078 10.3502C50.971 12.1533 48.0529 16.5355 46.6298 17.1535C46.1548 14.514 45.6896 11.9486 45.2087 9.29555H45.2107Z" fill="white"/>
<path d="M28.2431 4.67749C30.1665 5.37147 31.8309 5.97382 33.6881 6.64635C32.1074 8.62691 30.6298 10.5061 29.1133 12.3522C28.9225 12.5841 28.4709 12.8103 28.2373 12.7362C28.0173 12.666 27.7857 12.1865 27.7993 11.8999C27.9122 9.54506 28.0835 7.19802 28.2451 4.67749H28.2431Z" fill="white"/>
<path d="M116.159 57.3319C116.159 57.3319 117.387 61.6263 113.35 61.6263H88.6382C88.6382 61.6263 85.5955 61.9207 86.0783 58.2169C86.5591 54.5131 87.8926 44.4446 87.8926 44.4446C87.8926 44.4446 90.4837 33.6373 101.183 33.6373C111.882 33.6373 114.456 44.4329 114.456 44.4329L116.159 57.3358V57.3319Z" fill="white"/>
<path d="M116.539 57.2539C117.144 60.1643 115.92 62.1605 112.75 61.8193C112.184 61.7979 108.586 61.6965 107.928 61.6809C106.001 61.6731 104.064 61.5464 102.143 61.7004C100.852 61.8232 97.6944 61.8057 96.357 61.8525L88.6421 61.9928C87.9101 62.0611 86.7596 61.7647 86.2301 61.0084C85.5235 60.1078 85.539 58.9323 85.6695 57.8621C85.7162 57.5073 85.8213 56.4722 85.868 56.0999C86.0393 54.6047 87.0127 46.0411 87.2074 44.3549C88.7667 38.2612 93.4739 33.2123 99.9467 32.7016C105.497 32.263 110.492 35.0038 113.229 39.8363C114.037 41.2437 114.674 42.7038 115.073 44.2848C115.116 44.3296 116.511 57.2032 116.541 57.2559L116.539 57.2539ZM115.777 57.4138C115.735 57.4644 113.821 44.2711 113.839 44.5791C112.994 41.8032 111.362 39.1521 109.139 37.2943C105.822 34.4716 101.015 34.0116 96.9488 35.2572C94.1883 36.1656 91.9321 38.1676 90.3922 40.6277C89.6447 41.735 88.8835 43.5304 88.5779 44.5382C88.1963 47.0957 87.0263 54.9653 86.6584 57.3962C86.5883 57.9225 86.4559 58.5561 86.4715 59.0844C86.4287 60.139 87.0127 61.0864 88.1068 61.2345C88.2703 61.2657 88.463 61.2774 88.6051 61.2716C88.6071 61.2872 96.3433 61.3944 96.357 61.41C97.7177 61.4567 100.832 61.4373 102.143 61.562C104.066 61.7141 106.001 61.5854 107.928 61.5815C108.588 61.5581 112.155 61.4704 112.75 61.4412C115.528 61.5308 116.449 60.0162 115.777 57.4138Z" fill="#010101"/>
<path d="M98.294 46.7994C98.8157 46.7994 99.2382 46.3784 99.2382 45.8579C99.2382 45.3374 98.8157 44.9183 98.294 44.9183C97.7723 44.9183 97.3499 45.3394 97.3499 45.8579C97.3499 46.3764 97.7723 46.7994 98.294 46.7994Z" fill="#010101" stroke="#010101" stroke-miterlimit="10"/>
<path d="M104.105 46.7994C104.627 46.7994 105.049 46.3784 105.049 45.8579C105.049 45.3374 104.627 44.9183 104.105 44.9183C103.583 44.9183 103.161 45.3394 103.161 45.8579C103.161 46.3764 103.583 46.7994 104.105 46.7994Z" fill="#010101" stroke="#010101" stroke-miterlimit="10"/>
<path d="M94.0774 31.955C95.3467 34.1442 93.1352 38.0624 90.2287 39.3334C89.8666 39.4893 88.3131 40.1716 86.8998 39.5907C86.637 39.4815 85.8427 39.156 85.7357 38.5185C85.65 38 86.0608 37.5302 86.1503 37.4288C86.419 37.1228 86.748 36.9707 86.9952 36.8538C87.5714 36.5848 87.9549 36.5965 87.9705 36.4444C87.9841 36.3119 87.7058 36.2729 87.367 35.9493C87.2055 35.7953 86.966 35.5672 86.9154 35.2689C86.8356 34.8011 87.2308 34.2358 87.7194 34.0564C88.1126 33.9122 88.3015 34.1149 88.8641 33.9375C89.1249 33.8537 89.3722 33.7757 89.4909 33.5671C89.6856 33.2338 89.3293 32.9394 89.2787 32.3332C89.2768 32.2962 89.2203 31.4774 89.7596 30.9141C90.3494 30.2961 91.2955 30.3507 91.5136 30.3624C92.6135 30.4287 93.6219 31.1714 94.0774 31.957V31.955Z" fill="#010101" stroke="#010101" stroke-miterlimit="10"/>
<path d="M109.34 32.8069C108.07 35.1637 110.282 39.3841 113.188 40.7525C113.55 40.9221 115.104 41.6551 116.517 41.0313C116.78 40.9143 117.574 40.5634 117.681 39.8753C117.767 39.3158 117.358 38.8109 117.267 38.7018C116.998 38.3723 116.669 38.2086 116.422 38.0838C115.846 37.7953 115.462 37.8051 115.447 37.6433C115.433 37.501 115.711 37.4581 116.05 37.1091C116.212 36.9434 116.451 36.6978 116.502 36.3762C116.582 35.8713 116.186 35.265 115.698 35.072C115.304 34.9161 115.116 35.1344 114.553 34.9434C114.292 34.8537 114.045 34.7679 113.926 34.5457C113.732 34.1851 114.088 33.8693 114.138 33.2162C114.14 33.1753 114.197 32.2961 113.658 31.6879C113.068 31.0232 112.122 31.0797 111.905 31.0934C110.806 31.1636 109.797 31.9648 109.342 32.8108L109.34 32.8069Z" fill="#010101" stroke="#010101" stroke-miterlimit="10"/>
<path d="M76.6815 56.5404C76.6815 56.5404 77.9099 60.8349 73.8724 60.8349H49.1607C49.1607 60.8349 46.118 61.1293 46.6008 57.4255C47.0816 53.7217 48.4151 43.6512 48.4151 43.6512C48.4151 43.6512 51.0062 32.8439 61.7054 32.8439C72.4046 32.8439 74.9782 43.6395 74.9782 43.6395L76.6815 56.5424V56.5404Z" fill="white"/>
<path d="M77.061 56.4605C77.6665 59.3709 76.442 61.3671 73.2727 61.0259C72.7062 61.0045 69.1087 60.9012 68.4507 60.8856C66.5234 60.8778 64.5864 60.7511 62.665 60.9051C61.3743 61.0279 58.2167 61.0104 56.8793 61.0571L49.1645 61.1994C48.4325 61.2677 47.282 60.9714 46.7525 60.215C46.0458 59.3144 46.0614 58.1389 46.1899 57.0687C46.2366 56.7139 46.3417 55.6788 46.3884 55.3065C46.5598 53.8113 47.5331 45.2478 47.7278 43.5616C49.2871 37.4678 53.9943 32.419 60.4672 31.9082C66.0173 31.4696 71.0126 34.2104 73.7497 39.0429C74.5576 40.4504 75.1941 41.9104 75.5932 43.4914C75.6341 43.5304 77.0318 56.404 77.061 56.4605ZM76.3018 56.6184C76.2609 56.6691 74.3454 43.4758 74.3629 43.7838C73.518 41.0079 71.8866 38.3567 69.6635 36.499C66.3463 33.6763 61.5398 33.2163 57.4731 34.4619C54.7126 35.3703 52.4564 37.3723 50.9165 39.8324C50.169 40.9397 49.4078 42.735 49.1022 43.7428C48.7226 46.3004 47.5506 54.17 47.1827 56.6009C47.1126 57.1272 46.9802 57.7608 46.9958 58.291C46.953 59.3456 47.537 60.293 48.6311 60.4411C48.7946 60.4723 48.9873 60.484 49.1294 60.4782C49.1314 60.4938 56.8677 60.601 56.8813 60.6166C58.2401 60.6634 61.3568 60.6419 62.667 60.7686C64.5903 60.9207 66.5254 60.792 68.4526 60.7881C69.1106 60.7647 72.679 60.677 73.2747 60.6478C76.0487 60.7374 76.9734 59.2208 76.3018 56.6204V56.6184Z" fill="#010101"/>
<path d="M58.8456 45.6454C59.2467 45.6454 59.5718 45.3199 59.5718 44.9164C59.5718 44.5128 59.2467 44.1873 58.8456 44.1873C58.4446 44.1873 58.1195 44.5128 58.1195 44.9164C58.1195 45.3199 58.4446 45.6454 58.8456 45.6454Z" fill="#010101" stroke="#010101" stroke-miterlimit="10"/>
<path d="M63.9305 45.6454C64.3315 45.6454 64.6566 45.3199 64.6566 44.9164C64.6566 44.5128 64.3315 44.1873 63.9305 44.1873C63.5294 44.1873 63.2043 44.5128 63.2043 44.9164C63.2043 45.3199 63.5294 45.6454 63.9305 45.6454Z" fill="#010101" stroke="#010101" stroke-miterlimit="10"/>
<path d="M66.2763 34.1149C64.8026 31.9609 60.1636 32.0837 57.6776 34.0681C57.3681 34.3137 56.0404 35.3742 55.947 36.9006C55.9314 37.1832 55.8788 38.0448 56.4278 38.4367C56.8736 38.7564 57.4946 38.6102 57.6289 38.5829C58.0339 38.4873 58.3239 38.269 58.5419 38.1014C59.0481 37.7154 59.2097 37.3723 59.3576 37.4288C59.4842 37.4795 59.4005 37.7446 59.5504 38.1969C59.6224 38.4133 59.7275 38.733 59.9845 38.9182C60.3836 39.2086 61.0883 39.1248 61.4737 38.7719C61.7832 38.4912 61.6801 38.2281 62.0967 37.8109C62.2894 37.6179 62.4743 37.4366 62.7196 37.4249C63.1187 37.4113 63.2316 37.8635 63.7767 38.193C63.8117 38.2144 64.5476 38.6452 65.3127 38.4328C66.1517 38.2008 66.5255 37.3353 66.6092 37.1364C67.0452 36.1306 66.8019 34.8849 66.2743 34.113L66.2763 34.1149Z" fill="#010101" stroke="#010101" stroke-miterlimit="10"/>
<path d="M34.3927 58.2559C34.3927 58.2559 35.6211 62.5503 31.5836 62.5503H6.87188C6.87188 62.5503 3.82915 62.8447 4.31194 59.1409C4.79278 55.4371 6.12628 45.3686 6.12628 45.3686C6.12628 45.3686 8.71737 34.5613 19.4166 34.5613C30.1158 34.5613 32.6893 45.3569 32.6893 45.3569L34.3927 58.2598V58.2559Z" fill="white"/>
<path d="M34.7723 58.174C35.3797 61.0844 34.1533 63.0806 30.984 62.7394C30.4175 62.718 26.82 62.6166 26.162 62.601C24.2347 62.5932 22.2977 62.4665 20.3763 62.6186C19.0856 62.7414 15.9261 62.7238 14.5906 62.7706L6.87578 62.9129C6.14381 62.9812 4.9933 62.6849 4.46379 61.9285C3.75713 61.0279 3.7727 59.8524 3.90118 58.7822C3.9479 58.4274 4.05303 57.3923 4.09975 57.02C4.27106 55.5248 5.24442 46.9612 5.4391 45.275C6.99842 39.1813 11.7056 34.1325 18.1785 33.6217C23.7266 33.1831 28.7239 35.9239 31.461 40.7564C32.2689 42.1638 32.9054 43.6239 33.3045 45.2049C33.3473 45.2477 34.7431 58.1194 34.7723 58.1721V58.174ZM34.0112 58.3339C33.9703 58.3845 32.0567 45.1912 32.0722 45.4992C31.2274 42.7233 29.596 40.0722 27.3728 38.2144C24.0556 35.3917 19.2492 34.9317 15.1825 36.1773C12.42 37.0857 10.1657 39.0877 8.62588 41.5478C7.87834 42.6551 7.11717 44.4505 6.81154 45.4583C6.42998 48.0159 5.26 55.8855 4.89207 58.3163C4.82198 58.8426 4.68961 59.4762 4.70518 60.0064C4.66235 61.061 5.24637 62.0084 6.34043 62.1566C6.50395 62.1878 6.69668 62.1995 6.83879 62.1936C6.84074 62.2092 14.577 62.3164 14.5906 62.332C15.9495 62.3788 19.0662 62.3593 20.3763 62.4841C22.2997 62.6361 24.2347 62.5075 26.162 62.5016C26.82 62.4782 30.3883 62.3905 30.984 62.3613C33.762 62.4509 34.6828 60.9363 34.0112 58.3339Z" fill="#010101"/>
<path d="M21.7956 47.8307C22.1966 47.8307 22.5217 47.5051 22.5217 47.1016C22.5217 46.6981 22.1966 46.3725 21.7956 46.3725C21.3946 46.3725 21.0695 46.6981 21.0695 47.1016C21.0695 47.5051 21.3946 47.8307 21.7956 47.8307Z" fill="#010101" stroke="#010101" stroke-miterlimit="10"/>
<path d="M15.9826 47.8307C16.3836 47.8307 16.7087 47.5051 16.7087 47.1016C16.7087 46.6981 16.3836 46.3725 15.9826 46.3725C15.5816 46.3725 15.2565 46.6981 15.2565 47.1016C15.2565 47.5051 15.5816 47.8307 15.9826 47.8307Z" fill="#010101" stroke="#010101" stroke-miterlimit="10"/>
<path d="M23.4522 35.5711C22.0758 33.417 17.7463 33.5398 15.4258 35.5243C15.1377 35.7699 13.8977 36.8304 13.812 38.3567C13.7964 38.6394 13.7478 39.501 14.2597 39.8928C14.6763 40.2125 15.2565 40.0663 15.3811 40.039C15.7587 39.9435 16.0293 39.7252 16.2337 39.5575C16.7068 39.1716 16.8567 38.8285 16.9949 38.885C17.1136 38.9357 17.0338 39.2008 17.174 39.6531C17.2402 39.8694 17.3395 40.1891 17.5789 40.3743C17.9507 40.6648 18.6087 40.581 18.9689 40.2301C19.257 39.9494 19.1616 39.6862 19.5509 39.269C19.73 39.0761 19.9033 38.8948 20.133 38.8831C20.5048 38.8694 20.6119 39.3217 21.1181 39.6511C21.1492 39.6726 21.8383 40.1034 22.5528 39.8909C23.3373 39.6589 23.6838 38.7934 23.7637 38.5946C24.1686 37.5867 23.9428 36.343 23.4502 35.5711H23.4522Z" fill="#010101" stroke="#010101" stroke-miterlimit="10"/>
<path d="M24.1394 33.148C22.6658 35.3021 18.0267 35.1773 15.5408 33.1948C15.2312 32.9492 13.9036 31.8887 13.8101 30.3624C13.7946 30.0797 13.742 29.22 14.291 28.8263C14.7368 28.5066 15.3578 28.6528 15.4921 28.682C15.897 28.7775 16.1871 28.9959 16.4051 29.1616C16.9113 29.5475 17.0728 29.8906 17.2208 29.8341C17.3473 29.7834 17.2636 29.5183 17.4135 29.066C17.4855 28.8497 17.5907 28.53 17.8457 28.3448C18.2448 28.0543 18.9495 28.1381 19.3349 28.489C19.6445 28.7678 19.5413 29.0329 19.9579 29.4501C20.1506 29.6431 20.3355 29.8243 20.5808 29.836C20.9799 29.8497 21.0928 29.3974 21.6379 29.068C21.6729 29.0465 22.4088 28.6157 23.1758 28.8282C24.0149 29.0602 24.3886 29.9257 24.4723 30.1245C24.9084 31.1324 24.6651 32.3761 24.1375 33.148H24.1394Z" fill="#010101" stroke="#010101" stroke-miterlimit="10"/>
<path d="M100.856 32.6158L100.889 40.1813" stroke="black" stroke-miterlimit="10"/>
<path d="M94.7258 42.0722C94.8757 40.7564 95.2164 38.7875 96.912 36.5477C98.0061 35.1052 99.8691 33.8849 100.714 33.5359" stroke="black" stroke-miterlimit="10"/>
<path d="M87.9977 44.1639C91.3441 41.542 96.6859 40.4971 101.485 40.8129C106.4 41.1365 110.623 41.9904 113.977 42.9027" stroke="black" stroke-miterlimit="10"/>
<path d="M101.055 42.1073C102.074 42.1073 102.9 41.4868 102.9 40.7213C102.9 39.9559 102.074 39.3353 101.055 39.3353C100.035 39.3353 99.2091 39.9559 99.2091 40.7213C99.2091 41.4868 100.035 42.1073 101.055 42.1073Z" fill="white" stroke="black" stroke-miterlimit="10"/>
<path d="M100.955 37.9084C101.742 37.9084 102.38 37.4292 102.38 36.8382C102.38 36.2471 101.742 35.768 100.955 35.768C100.168 35.768 99.5302 36.2471 99.5302 36.8382C99.5302 37.4292 100.168 37.9084 100.955 37.9084Z" fill="white" stroke="black" stroke-miterlimit="10"/>
<path d="M97.0034 37.46C97.7904 37.46 98.4284 36.9809 98.4284 36.3898C98.4284 35.7988 97.7904 35.3196 97.0034 35.3196C96.2164 35.3196 95.5784 35.7988 95.5784 36.3898C95.5784 36.9809 96.2164 37.46 97.0034 37.46Z" fill="white" stroke="black" stroke-miterlimit="10"/>
<path d="M95.3136 41.9572C96.3329 41.9572 97.1591 41.3367 97.1591 40.5712C97.1591 39.8057 96.3329 39.1852 95.3136 39.1852C94.2944 39.1852 93.4681 39.8057 93.4681 40.5712C93.4681 41.3367 94.2944 41.9572 95.3136 41.9572Z" fill="white" stroke="black" stroke-miterlimit="10"/>
<path d="M107.808 42.1716C107.658 40.8558 107.317 38.887 105.622 36.6471C104.527 35.2046 102.664 33.9843 101.82 33.6354" stroke="black" stroke-miterlimit="10"/>
<path d="M105.53 37.5594C106.317 37.5594 106.955 37.0803 106.955 36.4892C106.955 35.8982 106.317 35.419 105.53 35.419C104.743 35.419 104.105 35.8982 104.105 36.4892C104.105 37.0803 104.743 37.5594 105.53 37.5594Z" fill="white" stroke="black" stroke-miterlimit="10"/>
<path d="M107.22 42.0566C108.239 42.0566 109.065 41.4361 109.065 40.6706C109.065 39.9052 108.239 39.2846 107.22 39.2846C106.201 39.2846 105.374 39.9052 105.374 40.6706C105.374 41.4361 106.201 42.0566 107.22 42.0566Z" fill="white" stroke="black" stroke-miterlimit="10"/>
<path d="M101.029 34.6061C101.679 34.6061 102.205 34.2108 102.205 33.7231C102.205 33.2354 101.679 32.84 101.029 32.84C100.38 32.84 99.8534 33.2354 99.8534 33.7231C99.8534 34.2108 100.38 34.6061 101.029 34.6061Z" fill="white" stroke="black" stroke-miterlimit="10"/>
<path d="M51.4169 31.3273V35.191C52.984 34.2962 56.7957 32.378 61.6294 32.4014C66.8232 32.4268 70.5707 34.4892 72.095 35.4444L72.1592 31.7094C72.1728 30.9121 71.8516 30.146 71.2696 29.6002C70.2534 28.6489 68.4643 27.2551 65.9881 26.4247C64.7792 26.0192 63.4067 25.7463 61.8805 25.7248C57.076 25.6566 53.7218 28.1148 52.2228 29.4813C51.705 29.955 51.4149 30.6255 51.4149 31.3273H51.4169Z" fill="white" stroke="black" stroke-miterlimit="10"/>
<path d="M55.468 33.2026C56.5095 32.0583 57.9598 30.6801 59.8851 29.3857C62.1803 27.8418 64.3548 26.951 65.9901 26.4227" fill="white"/>
<path d="M55.468 33.2026C56.5095 32.0583 57.9598 30.6801 59.8851 29.3857C62.1803 27.8418 64.3548 26.951 65.9901 26.4227" stroke="black" stroke-miterlimit="10"/>
<path d="M63.6539 32.4852L70.6602 29.0621" stroke="black" stroke-miterlimit="10"/>
<path d="M51.4733 37.4425C51.4733 37.3158 51.4169 35.189 51.4169 35.189C52.984 34.265 56.636 32.3995 61.6294 32.3995C66.9108 32.3995 70.5551 34.4833 72.095 35.4424V37.809C71.1177 36.9415 67.4676 34.2026 61.6858 34.0896C56.2934 33.9843 52.5674 36.612 51.4733 37.4425Z" fill="white" stroke="black" stroke-miterlimit="10"/>
<path d="M51.6329 34.9648C51.8646 33.9843 53.0755 32.0973 53.9476 30.6996C55.4816 28.2434 58.3472 26.4734 59.4412 25.8769" fill="white"/>
<path d="M51.6329 34.9648C51.8646 33.9843 53.0755 32.0973 53.9476 30.6996C55.4816 28.2434 58.3472 26.4734 59.4412 25.8769" stroke="black" stroke-miterlimit="10"/>
<path d="M7.52991 40.7116C9.86208 41.6804 13.7361 42.9748 18.6944 43.2087C24.005 43.4602 28.2119 42.388 30.6589 41.5752" stroke="black" stroke-miterlimit="10"/>
<path d="M8.75244 38.9084C10.9483 39.9318 14.5128 41.2457 19.0642 41.4406C24.0401 41.6551 28.0114 40.4367 30.3533 39.5049" stroke="black" stroke-miterlimit="10"/>
</g>
<defs>
<clipPath id="clip0_1913_1782">
<rect width="120" height="75" fill="white" transform="translate(0 0.5)"/>
</clipPath>
</defs>
</svg>
