<svg width="120" height="76" viewBox="0 0 120 76" fill="none" xmlns="http://www.w3.org/2000/svg">
<g clip-path="url(#clip0_2201_4650)">
<path d="M50.9958 28.3975C50.3767 33.2748 42.8565 36.7934 43.1155 43.3706C43.0979 43.8463 43.0863 44.281 42.9286 44.6416C42.876 44.7371 42.8371 44.7897 42.7339 44.8716C42.5353 45.0217 42.2939 45.1504 42.1032 44.971C41.9766 44.8599 41.9085 44.5578 41.7897 44.3862C41.8092 44.394 41.8209 44.4174 41.8248 44.4311C41.8034 44.3882 41.7975 44.3316 41.7858 44.2732C41.6982 43.4759 41.8228 42.663 41.9591 41.8676C42.3037 39.9885 42.913 38.1502 43.6761 36.3977C45.0486 33.3177 46.8843 30.4404 49.1367 27.9297C49.2593 27.801 49.7402 27.2688 49.8725 27.1324C51.0503 25.9569 51.0484 27.4716 50.9958 28.3975ZM51.5136 28.4209C51.5039 27.7562 51.574 26.3955 50.6629 26.2766C50.038 26.2941 49.7032 26.7405 49.3508 27.1519C48.2529 28.4443 47.2094 29.7952 46.2477 31.1929C44.0343 34.3899 42.2024 37.9202 41.3031 41.7292C41.1162 42.663 40.8884 43.6416 41.0617 44.6026C41.0928 44.7137 41.1512 44.8502 41.2349 44.9398L41.1317 44.7586C41.1979 45.0081 41.2914 45.2771 41.5094 45.5247C42.0817 46.1796 43.1271 45.8638 43.5866 45.2439C43.9759 44.7118 44.0012 43.9632 44.0401 43.4076C44.0713 42.5246 44.1219 41.7448 44.3886 40.9222C45.3737 38.0391 47.5579 35.7915 49.2944 33.3353C50.3203 31.8693 51.4182 30.2942 51.5117 28.4228L51.5136 28.4209Z" fill="#010101"/>
<path d="M72.0974 27.415C71.8483 31.5672 76.8906 36.28 77.6768 40.6767C77.8446 41.5294 77.8002 42.3055 77.7255 43.1859C77.6975 43.7441 77.6353 44.4886 77.9563 45.0633C78.3402 45.7339 79.338 46.1761 79.985 45.5904C80.2311 45.3706 80.3541 45.1145 80.4515 44.8749L80.3274 45.0426C80.4251 44.964 80.4946 44.8428 80.5398 44.7285C80.8267 43.795 80.7176 42.7962 80.6437 41.8468C80.093 36.976 78.0655 32.4181 75.5645 28.2587C75.2066 27.6481 74.788 27.0047 74.3986 26.412C74.2868 26.2493 74.1066 25.939 73.949 25.7983C72.6511 24.5601 72.1594 26.3465 72.0979 27.4112L72.0974 27.415ZM72.6143 27.4537C72.6905 26.1376 72.9927 24.9959 74.1004 26.6254C74.5155 27.1997 74.9485 27.8212 75.322 28.416C77.3738 31.6652 78.8801 35.2925 79.6175 39.0687C79.7944 40.0089 79.9268 40.9614 79.9814 41.9085C80.0116 42.7485 80.0699 43.6313 79.8223 44.4339C79.8153 44.4429 79.8118 44.4562 79.8082 44.4695C79.8098 44.456 79.8281 44.4346 79.8484 44.4292L79.7242 44.5969C79.6515 44.7609 79.558 44.9028 79.467 44.9743C79.2579 45.1317 79.0338 44.9732 78.8527 44.8002C78.76 44.7065 78.7277 44.6496 78.6867 44.5504C78.573 44.1755 78.6117 43.7403 78.6531 43.2662C79.6866 36.7523 72.6429 32.3776 72.6122 27.4554L72.6143 27.4537Z" fill="#010101"/>
<path d="M43.4048 46.341C43.2374 45.7152 42.5619 45.1908 41.8961 45.2883C40.621 45.4696 40.0448 46.7913 40 47.9161C40.0097 48.2923 39.965 49.0662 40.5198 49.0896C40.9169 49.0428 41.0396 48.6744 41.1992 48.3839C41.1992 48.3761 41.2245 48.3625 41.1758 48.3975C41.1291 48.4326 41.0415 48.3878 41.0357 48.3683C41.0201 48.3469 41.022 48.341 41.0201 48.341C41.0376 48.6022 41.0493 48.9063 41.1778 49.152C41.353 49.4736 41.7637 49.3469 41.8864 49.0525C41.9896 48.7894 41.9818 48.6471 42.1336 48.4502C42.1433 48.4346 42.157 48.4365 42.12 48.456C42.081 48.4775 42.0149 48.4346 42.0246 48.4385C42.0635 48.5145 42.0869 48.5847 42.1356 48.6744C42.2563 48.92 42.5327 49.1539 42.8364 49.0701C43.656 48.7153 43.6267 47.0837 43.4029 46.341H43.4048ZM42.7936 46.5573C43.0116 47.15 43.0856 48.0408 42.7663 48.6022C42.7215 48.6529 42.7215 48.6705 42.6612 48.6568C42.4646 48.5905 42.4334 48.3605 42.2952 48.1987C42.009 47.92 41.7851 48.304 41.7092 48.5535C41.6586 48.7016 41.6547 48.8478 41.6177 48.9278C41.5029 49.1617 41.3977 49.0486 41.3588 48.8654C41.3043 48.6549 41.3063 48.5048 41.2771 48.2767C41.2712 48.2572 41.2673 48.2377 41.242 48.2046C41.2284 48.1714 41.1233 48.1207 41.059 48.1617C40.9811 48.2143 40.9909 48.2299 40.9734 48.2513C40.876 48.4404 40.5529 49.1149 40.3757 48.6627C40.2122 47.9706 40.4302 47.1344 40.8429 46.5573C41.3783 45.7737 42.4276 45.5437 42.7936 46.5573Z" fill="#010101"/>
<path d="M42.0639 45.7606C41.264 45.0393 40.4498 45.7371 40.3432 46.6834C40.2523 47.387 40.4554 48.227 40.9266 48.7596C41.2947 49.0753 41.2651 48.3281 41.2589 48.1146C41.2642 48.0875 41.2482 48.0783 41.292 47.9951C41.3266 47.9279 41.4441 47.9246 41.4735 47.9464C41.5124 47.9654 41.525 47.9807 41.5385 47.9934C41.6711 48.1789 41.7395 48.3147 41.8888 48.4736C42.0106 48.6184 42.1567 48.6683 42.1481 48.4052C42.1439 48.319 42.0773 48.1867 42.0519 48.0322C42.0008 47.7764 42.0166 47.3322 42.4005 47.4426C42.5935 47.5182 42.7324 47.707 42.9396 47.6733C43.0009 47.6559 42.99 47.6396 43.0064 47.5755C43.0232 46.9272 42.5379 46.1788 42.0656 45.7596L42.0639 45.7606ZM42.5038 45.2791C43.0539 45.8312 43.8478 47.2414 43.2945 47.9519C43.0665 48.1693 42.7097 48.093 42.4898 47.9344C42.4063 47.8775 42.3525 47.8267 42.2806 47.779C42.2711 47.7819 42.347 47.7876 42.3729 47.7494C42.3981 47.7181 42.3852 47.7229 42.3822 47.7378C42.3414 47.983 42.4155 48.1048 42.449 48.3855C42.4818 48.7019 42.1779 49.0086 41.8715 48.808C41.6431 48.654 41.489 48.3872 41.3493 48.1679C41.3493 48.1679 41.352 48.173 41.3759 48.1846C41.3893 48.1973 41.486 48.1963 41.5115 48.145C41.5395 48.0902 41.522 48.1151 41.5257 48.1219C41.5213 48.4516 41.5891 48.8334 41.2605 49.0649C40.7586 49.3031 40.4376 48.6016 40.2477 48.2765C39.7537 47.2606 39.637 45.8279 40.6767 45.0646C41.219 44.6631 42.0605 44.8068 42.5038 45.2791Z" fill="#010101"/>
<path d="M11.2421 29.2124C10.993 33.3645 5.42338 37.4387 4.11712 41.7117C3.84848 42.5382 3.79981 43.3141 3.76866 44.1991C3.72973 44.7566 3.70247 45.5032 3.31507 46.0354C2.8537 46.6572 1.81026 46.975 1.23792 46.3181C1.01989 46.0705 0.92839 45.8015 0.860254 45.552L0.963431 45.7332C0.877775 45.6436 0.82132 45.5149 0.790172 45.396C0.616914 44.435 0.844681 43.4564 1.03157 42.5226C2.16067 37.7525 4.72061 33.4698 7.6991 29.6393C8.12738 29.0759 8.6199 28.4872 9.07738 27.9453C9.20781 27.7991 9.4239 27.5106 9.59715 27.3897C11.0299 26.3136 11.3083 28.148 11.2421 29.2124ZM10.7243 29.1851C10.8061 27.8692 10.6425 26.6996 9.34797 28.185C8.86713 28.7055 8.36293 29.2708 7.91908 29.8167C5.49346 32.7972 3.56425 36.2184 2.38065 39.8793C2.09253 40.7916 1.84724 41.7214 1.67983 42.6552C1.5494 43.4856 1.38587 44.355 1.53577 45.1816C1.54161 45.1913 1.54355 45.205 1.5455 45.2186C1.5455 45.205 1.52993 45.1816 1.51046 45.1738L1.61364 45.3551C1.6662 45.5266 1.74212 45.6787 1.82388 45.7605C2.01272 45.9418 2.25411 45.8112 2.45462 45.6611C2.5578 45.5792 2.59673 45.5266 2.64929 45.433C2.80698 45.0744 2.82061 44.6377 2.83618 44.1621C2.587 37.5712 10.1014 34.0702 10.7243 29.187V29.1851Z" fill="#010101"/>
<path d="M28.9816 30.2442C29.8136 34.3198 35.9018 37.5683 37.7973 41.6145C38.1798 42.3949 38.3373 43.1562 38.4929 44.028C38.61 44.5744 38.7422 45.3097 39.2008 45.782C39.7452 46.3326 40.823 46.5001 41.2968 45.7671C41.4777 45.4913 41.5304 45.2121 41.5627 44.9555L41.4861 45.1495C41.5602 45.0484 41.596 44.9133 41.6101 44.7912C41.6461 43.8153 41.2827 42.8786 40.9661 41.9805C39.1759 37.4172 36.0379 33.538 32.5492 30.1656C32.0458 29.6682 31.4752 29.1548 30.9459 28.6827C30.7959 28.5545 30.5416 28.3012 30.353 28.206C28.7831 27.3446 28.7658 29.1979 28.9813 30.2423L28.9816 30.2442ZM29.4907 30.1462C29.2243 28.855 29.2211 27.6721 30.7124 28.9621C31.2618 29.4096 31.8406 29.8982 32.355 30.3763C35.1766 32.9853 37.5687 36.1003 39.2568 39.5598C39.6706 40.4224 40.0445 41.3084 40.3419 42.2092C40.5881 43.013 40.8725 43.8506 40.8406 44.69C40.8362 44.7005 40.8362 44.7143 40.8362 44.7281C40.8343 44.7146 40.8464 44.6892 40.8646 44.6788L40.788 44.8728C40.7601 45.05 40.7064 45.2113 40.637 45.3038C40.4756 45.5099 40.2182 45.4147 39.9985 45.2943C39.8848 45.2278 39.8389 45.1812 39.7736 45.096C39.567 44.7631 39.4919 44.3327 39.4095 43.864C38.7274 37.3058 30.7908 34.8994 29.4893 30.1503L29.4907 30.1462Z" fill="#010101"/>
<path d="M17 49.2766H15V60.2766H17V49.2766Z" fill="#F2F2F2" stroke="#010101" stroke-width="0.5" stroke-miterlimit="10"/>
<path d="M17 52.2766H15V54.2766H17V52.2766Z" fill="#010101"/>
<path d="M17 56.2766H15V58.2766H17V56.2766Z" fill="#010101"/>
<path d="M25 49.2766H23V60.2766H25V49.2766Z" fill="#F2F2F2" stroke="#010101" stroke-width="0.5" stroke-miterlimit="10"/>
<path d="M25 52.2766H23V54.2766H25V52.2766Z" fill="#010101"/>
<path d="M25 56.2766H23V58.2766H25V56.2766Z" fill="#010101"/>
<path d="M25.3903 62.3947L23.2362 62.1799C22.6071 62.1161 22.1527 61.5713 22.2275 60.9568C22.3008 60.3447 22.8705 59.8983 23.503 59.9593L25.657 60.1741C26.288 60.2374 26.7405 60.7827 26.6658 61.3972C26.591 62.0116 26.019 62.4566 25.3903 62.3947Z" fill="#010101"/>
<path d="M14.5033 62.3947L16.6573 62.1799C17.2864 62.1161 17.7408 61.5713 17.6661 60.9568C17.5928 60.3447 17.0231 59.8983 16.3906 59.9593L14.2365 60.1741C13.6055 60.2374 13.153 60.7827 13.2278 61.3972C13.3025 62.0116 13.8746 62.4566 14.5033 62.3947Z" fill="#010101"/>
<path d="M2.78966 47.6417C2.42562 46.628 1.37828 46.858 0.837092 47.6417C0.424386 48.2187 0.206353 49.055 0.369878 49.747C0.545083 50.1993 0.872133 49.5267 0.967522 49.3357C0.985043 49.3143 0.975309 49.2987 1.05318 49.246C1.11547 49.2031 1.2206 49.2558 1.23617 49.2889C1.26148 49.324 1.26537 49.3435 1.27121 49.3591C1.30041 49.5852 1.29652 49.7373 1.35297 49.9478C1.39191 50.133 1.49703 50.2441 1.61189 50.0102C1.64888 49.9322 1.65472 49.784 1.70338 49.6359C1.77931 49.3864 2.00318 49.0024 2.28935 49.2811C2.42367 49.439 2.45677 49.671 2.65339 49.7392C2.71568 49.7529 2.71373 49.7334 2.75851 49.6846C3.07972 49.1232 3.00574 48.2343 2.78771 47.6397L2.78966 47.6417ZM3.40482 47.4253C3.6287 48.1719 3.66179 49.7899 2.83832 50.1544C2.53464 50.2383 2.25625 50.0024 2.1375 49.7587C2.09078 49.669 2.06742 49.5989 2.02654 49.5228C2.01681 49.5209 2.08105 49.5618 2.12193 49.5423C2.15892 49.5267 2.14529 49.5228 2.13556 49.5365C1.98371 49.7334 1.9915 49.8757 1.88832 50.1388C1.76763 50.4332 1.35492 50.5599 1.17972 50.2383C1.05123 49.9926 1.0415 49.6866 1.02203 49.4273C1.02203 49.4273 1.02203 49.4332 1.0376 49.4546C1.04344 49.4722 1.1291 49.517 1.17582 49.4838C1.22644 49.4507 1.19918 49.4624 1.19918 49.4702C1.03955 49.7587 0.918854 50.1271 0.519776 50.1759C-0.035041 50.1486 0.0136271 49.3786 0 49.0024C0.0447747 47.8737 0.619058 46.5559 1.89611 46.3746C2.56384 46.2771 3.2374 46.8015 3.40482 47.4273V47.4253Z" fill="#010101"/>
<path d="M82.6109 46.9228C82.6253 46.2752 82.1236 45.5827 81.4571 45.49C80.1823 45.3071 79.2591 46.4146 78.9013 47.4819C78.8053 47.8459 78.5476 48.5768 79.0718 48.754C79.4662 48.8203 79.687 48.5009 79.9216 48.2667C79.9238 48.2593 79.9519 48.2532 79.8953 48.2733C79.8407 48.2939 79.7691 48.2263 79.7708 48.2065C79.7619 48.1816 79.7649 48.1784 79.763 48.1779C79.7086 48.4341 79.6328 48.7287 79.6874 49.0005C79.7655 49.3583 80.1954 49.3517 80.3955 49.1034C80.5682 48.8796 80.6006 48.7409 80.8014 48.5943C80.8152 48.5821 80.8277 48.5878 80.7867 48.5961C80.7433 48.6058 80.6918 48.5461 80.7001 48.5526C80.7162 48.6365 80.7184 48.7123 80.7406 48.8101C80.7877 49.0797 80.9876 49.3816 81.3031 49.3843C82.1906 49.2755 82.6198 47.6991 82.6109 46.9228ZM81.9635 46.9595C82.0069 47.5894 81.8286 48.4654 81.365 48.915C81.3078 48.9511 81.3029 48.968 81.2488 48.938C81.0785 48.8193 81.113 48.5897 81.0275 48.3963C80.8308 48.0486 80.5084 48.3546 80.3656 48.5729C80.2761 48.6991 80.2309 48.8402 80.173 48.9066C79.9973 49.099 79.928 48.961 79.9419 48.7742C79.9485 48.5568 79.9924 48.4133 80.0282 48.1862C80.0275 48.1677 80.0298 48.146 80.0142 48.109C80.011 48.0715 79.9237 47.9953 79.8506 48.0166C79.7611 48.0453 79.766 48.063 79.7414 48.0781C79.595 48.2324 79.096 48.7895 79.053 48.3039C79.0897 47.5937 79.5331 46.8519 80.0908 46.4135C80.8255 45.8134 81.8959 45.8839 81.9635 46.9595Z" fill="#010101"/>
<path d="M119.405 46.341C119.237 45.7152 118.562 45.1908 117.896 45.2883C116.621 45.4696 116.045 46.7913 116 47.9161C116.01 48.2923 115.967 49.0662 116.52 49.0896C116.917 49.0428 117.04 48.6744 117.199 48.3839C117.199 48.3761 117.224 48.3625 117.176 48.3976C117.129 48.4326 117.041 48.3878 117.038 48.3683C117.022 48.3469 117.024 48.343 117.022 48.343C117.041 48.6042 117.051 48.9083 117.18 49.1539C117.355 49.4755 117.766 49.3488 117.888 49.0545C117.991 48.7913 117.984 48.649 118.136 48.4521C118.145 48.4365 118.159 48.4385 118.122 48.458C118.083 48.4794 118.017 48.4365 118.027 48.4404C118.065 48.5165 118.089 48.5886 118.138 48.6763C118.258 48.9219 118.535 49.1559 118.838 49.0701C119.66 48.7172 119.631 47.0837 119.405 46.341ZM118.794 46.5573C119.012 47.15 119.086 48.0408 118.766 48.6022C118.722 48.6529 118.722 48.6705 118.661 48.6568C118.465 48.5905 118.433 48.3605 118.297 48.1987C118.011 47.92 117.787 48.304 117.711 48.5535C117.661 48.6997 117.657 48.8479 117.62 48.9278C117.505 49.1617 117.4 49.0486 117.361 48.8654C117.306 48.6549 117.308 48.5048 117.279 48.2767C117.273 48.2591 117.269 48.2377 117.244 48.2065C117.23 48.1714 117.125 48.1227 117.061 48.1636C116.983 48.2163 116.993 48.2319 116.973 48.2533C116.876 48.4424 116.553 49.1169 116.376 48.6627C116.212 47.9706 116.43 47.1344 116.843 46.5573C117.38 45.7757 118.428 45.5437 118.794 46.5573Z" fill="#010101"/>
<path d="M91.4873 28.7191C90.5514 33.5457 82.8157 36.5661 82.647 43.1462C82.5985 43.6197 82.5585 44.0528 82.3776 44.4023C82.3189 44.4942 82.2766 44.5442 82.1684 44.6172C81.9605 44.7541 81.7112 44.8667 81.5326 44.6753C81.4135 44.5562 81.3653 44.2502 81.258 44.0713C81.2769 44.0803 81.287 44.1044 81.29 44.1183C81.2714 44.0741 81.2712 44.0174 81.2614 43.9582C81.226 43.1569 81.4034 42.3539 81.5913 41.5691C82.0577 39.7164 82.7837 37.9217 83.6614 36.2228C85.2319 33.2389 87.2514 30.4875 89.6628 28.129C89.7936 28.0087 90.3081 27.509 90.4491 27.3814C91.7009 26.2873 91.6003 27.7966 91.4874 28.7172L91.4873 28.7191ZM92.0022 28.7801C92.036 28.1142 92.1946 26.763 91.2932 26.5849C90.6684 26.5636 90.3053 26.9852 89.9268 27.3727C88.7469 28.5908 87.6175 29.8707 86.5667 31.2027C84.1495 34.2485 82.0912 37.6518 80.9453 41.394C80.6979 42.3136 80.4067 43.2752 80.5169 44.2455C80.5408 44.3584 80.5901 44.4984 80.6678 44.5934L80.5767 44.4057C80.6265 44.659 80.7022 44.9336 80.9036 45.1948C81.432 45.8858 82.4957 45.6388 82.9946 45.0502C83.4178 44.5446 83.4919 43.7993 83.567 43.2474C83.6558 42.3663 83.7571 41.5935 84.0769 40.79C85.2479 37.9773 87.5741 35.8769 89.4672 33.5373C90.5866 32.1414 91.785 30.6413 92.0003 28.78L92.0022 28.7801Z" fill="#010101"/>
<path d="M110.517 27.4217C110.856 32.3264 118.165 36.2695 117.529 42.821C117.519 43.2968 117.506 43.7315 117.642 44.1005C117.689 44.1989 117.725 44.2537 117.824 44.3394C118.013 44.5006 118.247 44.6428 118.448 44.4747C118.58 44.371 118.666 44.0713 118.794 43.9088C118.774 43.9154 118.761 43.9381 118.757 43.9515C118.78 43.9099 118.789 43.8538 118.804 43.7961C118.938 43.0051 118.86 42.1865 118.769 41.3846C118.533 39.4888 118.031 37.6188 117.368 35.8255C116.174 32.6701 114.505 29.6945 112.404 27.0573C112.289 26.9218 111.84 26.363 111.715 26.2192C110.603 24.98 110.516 26.4902 110.52 27.4179L110.517 27.4217ZM109.999 27.4174C110.047 26.7543 110.055 25.3918 110.971 25.3252C111.594 25.3785 111.904 25.8434 112.231 26.2741C113.253 27.6272 114.218 29.0356 115.098 30.486C117.125 33.8043 118.752 37.4336 119.432 41.2879C119.565 42.2308 119.736 43.2208 119.508 44.1703C119.471 44.2795 119.405 44.4124 119.316 44.4971L119.43 44.322C119.349 44.5673 119.24 44.8306 119.009 45.0653C118.4 45.6865 117.374 45.3114 116.951 44.6662C116.593 44.1127 116.61 43.3639 116.603 42.807C116.623 41.9216 116.617 41.1422 116.397 40.3037C115.579 37.369 113.527 35.0002 111.934 32.4487C110.993 30.9265 109.987 29.2912 110.001 27.4175L109.999 27.4174Z" fill="#010101"/>
<path d="M99 49.2766H97V59.2766H99V49.2766Z" fill="#F2F2F2" stroke="#010101" stroke-width="0.5" stroke-miterlimit="10"/>
<path d="M99 51.2766H97V53.2766H99V51.2766Z" fill="#010101"/>
<path d="M99 54.2766H97V56.2766H99V54.2766Z" fill="#010101"/>
<path d="M106 49.2766H104V59.2766H106V49.2766Z" fill="#F2F2F2" stroke="#010101" stroke-width="0.5" stroke-miterlimit="10"/>
<path d="M106 51.2766H104V53.2766H106V51.2766Z" fill="#010101"/>
<path d="M106 54.2766H104V56.2766H106V54.2766Z" fill="#010101"/>
<path d="M106.464 61.258L104.068 60.5738C103.367 60.373 102.991 59.7414 103.235 59.1585C103.476 58.5776 104.239 58.2657 104.944 58.4665L107.34 59.1508C108.041 59.3515 108.417 59.9831 108.174 60.566C107.932 61.1469 107.165 61.4569 106.464 61.258Z" fill="#010101"/>
<path d="M96.2248 61.258L98.6212 60.5738C99.322 60.373 99.6977 59.7414 99.4544 59.1585C99.213 58.5776 98.4499 58.2657 97.7471 58.4665L95.3507 59.1508C94.6499 59.3515 94.2742 59.9831 94.5175 60.566C94.7589 61.1469 95.5259 61.4569 96.2248 61.258Z" fill="#010101"/>
<path d="M59 48.2766H57V58.2766H59V48.2766Z" fill="#F2F2F2" stroke="#010101" stroke-width="0.5" stroke-miterlimit="10"/>
<path d="M58.8454 50.3981H56.667V51.8543H58.8454V50.3981Z" fill="#010101"/>
<path d="M58.8454 54.7666H56.667V56.2228H58.8454V54.7666Z" fill="#010101"/>
<path d="M66 48.2766H64V58.2766H66V48.2766Z" fill="#F2F2F2" stroke="#010101" stroke-width="0.5" stroke-miterlimit="10"/>
<path d="M66 50.2766H64V52.2766H66V50.2766Z" fill="#010101"/>
<path d="M66 54.2766H64V56.2766H66V54.2766Z" fill="#010101"/>
<path d="M66.3038 60.8404L63.9073 59.9866C63.2065 59.7351 62.8308 58.9457 63.0741 58.2166C63.3155 57.4914 64.0787 57.1015 64.7814 57.353L67.1778 58.2068C67.8787 58.4583 68.2544 59.2478 68.011 59.9769C67.7716 60.702 67.0065 61.0919 66.3038 60.8404Z" fill="#010101"/>
<path d="M56.5272 60.131L58.581 59.4467C59.1826 59.246 59.5038 58.6144 59.2955 58.0296C59.0872 57.4486 58.435 57.1367 57.8315 57.3375L55.7778 58.0218C55.1782 58.2225 54.855 58.8541 55.0633 59.4389C55.2716 60.0199 55.9238 60.3279 56.5272 60.131Z" fill="#010101"/>
<path d="M78.7478 46.5573C79.1138 45.5436 80.1611 45.7737 80.7004 46.5573C81.1131 47.1343 81.3311 47.9706 81.1676 48.6626C80.9924 49.1149 80.6653 48.4424 80.57 48.2513C80.5524 48.2299 80.5622 48.2143 80.4824 48.1616C80.4201 48.1188 80.3149 48.1714 80.2994 48.2045C80.2721 48.2396 80.2702 48.2591 80.2643 48.2767C80.2351 48.5028 80.2371 48.6548 80.1826 48.8654C80.1436 49.0506 80.0385 49.1617 79.9217 48.9277C79.8847 48.8498 79.8808 48.7016 79.8302 48.5535C79.7543 48.3039 79.5304 47.9199 79.2442 48.1987C79.1099 48.3566 79.0768 48.5886 78.8802 48.6568C78.8179 48.6704 78.8198 48.6509 78.7751 48.6022C78.4558 48.0427 78.5278 47.1519 78.7459 46.5573H78.7478ZM78.1365 46.3409C77.9127 47.0875 77.8796 48.7055 78.703 49.07C79.0067 49.1539 79.2851 48.918 79.4039 48.6763C79.4506 48.5866 79.4739 48.5164 79.5148 48.4404C79.5246 48.4385 79.4603 48.4794 79.4194 48.4579C79.3824 48.4424 79.3961 48.4404 79.4058 48.4521C79.5577 48.649 79.5499 48.7913 79.653 49.0545C79.7737 49.3488 80.1865 49.4755 80.3617 49.1539C80.4901 48.9083 80.4999 48.6003 80.5193 48.3429C80.5193 48.3429 80.5193 48.3488 80.5038 48.3683C80.4979 48.3858 80.4123 48.4307 80.3655 48.3975C80.3149 48.3624 80.3422 48.3761 80.3422 48.3839C80.5018 48.6724 80.6225 49.0408 81.0216 49.0895C81.5764 49.0642 81.5277 48.2923 81.5414 47.916C81.4966 46.7873 80.9223 45.4696 79.6453 45.2883C78.9775 45.1908 78.302 45.7171 78.1365 46.3409Z" fill="#010101"/>
<path d="M116.159 44.6085C116.159 44.6085 117.387 48.9029 113.35 48.9029H88.6382C88.6382 48.9029 85.5955 49.1973 86.0783 45.4935C86.5591 41.7897 87.8926 31.7212 87.8926 31.7212C87.8926 31.7212 90.4837 20.9139 101.183 20.9139C111.882 20.9139 114.456 31.7095 114.456 31.7095L116.159 44.6124V44.6085Z" fill="white"/>
<path d="M116.539 44.5305C117.144 47.4409 115.92 49.4371 112.751 49.0959C112.184 49.0745 108.587 48.9731 107.929 48.9575C106.001 48.9497 104.064 48.823 102.143 48.977C100.852 49.0998 97.6946 49.0823 96.3572 49.1291L88.6424 49.2694C87.9104 49.3376 86.7599 49.0413 86.2304 48.285C85.5237 47.3844 85.5393 46.2089 85.6697 45.1387C85.7164 44.7839 85.8215 43.7488 85.8683 43.3765C86.0396 41.8813 87.0129 33.3177 87.2076 31.6315C88.7669 25.5378 93.4741 20.4889 99.947 19.9782C105.497 19.5396 110.492 22.2804 113.229 27.1129C114.037 28.5203 114.674 29.9804 115.073 31.5614C115.116 31.6062 116.512 44.4798 116.541 44.5325L116.539 44.5305ZM115.778 44.6903C115.735 44.741 113.821 31.5477 113.839 31.8557C112.994 29.0798 111.363 26.4287 109.139 24.5709C105.822 21.7482 101.016 21.2882 96.949 22.5338C94.1886 23.4422 91.9323 25.4442 90.3925 27.9043C89.6449 29.0116 88.8837 30.8069 88.5781 31.8148C88.1966 34.3723 87.0266 42.2419 86.6586 44.6728C86.5886 45.1991 86.4562 45.8327 86.4718 46.361C86.4289 47.4156 87.0129 48.363 88.107 48.5111C88.2705 48.5423 88.4633 48.554 88.6054 48.5482C88.6073 48.5637 96.3436 48.671 96.3572 48.6866C97.718 48.7333 100.833 48.7138 102.143 48.8386C104.066 48.9907 106.001 48.862 107.929 48.8581C108.588 48.8347 112.155 48.747 112.751 48.7177C115.529 48.8074 116.449 47.2928 115.778 44.6903Z" fill="#010101"/>
<path d="M98.2943 34.076C98.816 34.076 99.2384 33.655 99.2384 33.1345C99.2384 32.614 98.816 32.1949 98.2943 32.1949C97.7725 32.1949 97.3501 32.6159 97.3501 33.1345C97.3501 33.653 97.7725 34.076 98.2943 34.076Z" fill="#010101" stroke="#010101" stroke-miterlimit="10"/>
<path d="M104.105 34.076C104.627 34.076 105.049 33.655 105.049 33.1345C105.049 32.614 104.627 32.1949 104.105 32.1949C103.583 32.1949 103.161 32.6159 103.161 33.1345C103.161 33.653 103.583 34.076 104.105 34.076Z" fill="#010101" stroke="#010101" stroke-miterlimit="10"/>
<path d="M94.0775 19.2316C95.3468 21.4207 93.1353 25.339 90.2288 26.6099C89.8667 26.7659 88.3133 27.4482 86.8999 26.8673C86.6371 26.7581 85.8429 26.4325 85.7358 25.7951C85.6501 25.2766 86.0609 24.8068 86.1504 24.7054C86.4191 24.3994 86.7481 24.2473 86.9953 24.1303C87.5716 23.8613 87.9551 23.873 87.9706 23.721C87.9843 23.5884 87.7059 23.5494 87.3672 23.2258C87.2056 23.0718 86.9661 22.8438 86.9155 22.5455C86.8357 22.0777 87.2309 21.5123 87.7195 21.333C88.1127 21.1887 88.3016 21.3915 88.8642 21.2141C89.125 21.1303 89.3723 21.0523 89.491 20.8437C89.6857 20.5104 89.3294 20.216 89.2788 19.6098C89.2769 19.5727 89.2204 18.754 89.7597 18.1906C90.3495 17.5727 91.2956 17.6273 91.5137 17.6389C92.6136 17.7052 93.622 18.4479 94.0775 19.2335V19.2316Z" fill="#010101" stroke="#010101" stroke-miterlimit="10"/>
<path d="M109.34 20.0834C108.071 22.4402 110.282 26.6606 113.189 28.0291C113.551 28.1987 115.104 28.9316 116.517 28.3078C116.78 28.1909 117.574 27.84 117.682 27.1519C117.767 26.5924 117.358 26.0875 117.267 25.9783C116.998 25.6489 116.669 25.4851 116.422 25.3604C115.846 25.0719 115.462 25.0816 115.447 24.9198C115.433 24.7775 115.711 24.7346 116.05 24.3857C116.212 24.22 116.451 23.9744 116.502 23.6527C116.582 23.1479 116.186 22.5416 115.698 22.3486C115.305 22.1927 115.116 22.411 114.553 22.22C114.292 22.1303 114.045 22.0445 113.926 21.8223C113.732 21.4616 114.088 21.1459 114.139 20.4928C114.14 20.4519 114.197 19.5727 113.658 18.9645C113.068 18.2998 112.122 18.3563 111.906 18.37C110.806 18.4401 109.797 19.2413 109.342 20.0873L109.34 20.0834Z" fill="#010101" stroke="#010101" stroke-miterlimit="10"/>
<path d="M76.6815 43.817C76.6815 43.817 77.9099 48.1115 73.8724 48.1115H49.1607C49.1607 48.1115 46.118 48.4058 46.6008 44.702C47.0816 40.9982 48.4151 30.9278 48.4151 30.9278C48.4151 30.9278 51.0062 20.1205 61.7054 20.1205C72.4046 20.1205 74.9782 30.9161 74.9782 30.9161L76.6815 43.819V43.817Z" fill="white"/>
<path d="M77.061 43.7371C77.6665 46.6475 76.442 48.6437 73.2727 48.3025C72.7062 48.2811 69.1087 48.1778 68.4507 48.1622C66.5234 48.1544 64.5864 48.0277 62.665 48.1817C61.3743 48.3045 58.2167 48.2869 56.8793 48.3337L49.1645 48.476C48.4325 48.5443 47.282 48.2479 46.7525 47.4916C46.0458 46.591 46.0614 45.4155 46.1899 44.3453C46.2366 43.9905 46.3417 42.9554 46.3884 42.5831C46.5598 41.0879 47.5331 32.5243 47.7278 30.8381C49.2871 24.7444 53.9943 19.6955 60.4672 19.1848C66.0173 18.7462 71.0126 21.487 73.7497 26.3195C74.5576 27.7269 75.1941 29.187 75.5932 30.768C75.6341 30.8069 77.0318 43.6806 77.061 43.7371ZM76.3018 43.895C76.2609 43.9457 74.3454 30.7524 74.3629 31.0604C73.518 28.2845 71.8866 25.6333 69.6635 23.7756C66.3463 20.9529 61.5398 20.4928 57.4731 21.7385C54.7126 22.6469 52.4564 24.6489 50.9165 27.109C50.169 28.2162 49.4078 30.0116 49.1022 31.0194C48.7226 33.577 47.5506 41.4466 47.1827 43.8775C47.1126 44.4038 46.9802 45.0373 46.9958 45.5676C46.953 46.6222 47.537 47.5696 48.6311 47.7177C48.7946 47.7489 48.9873 47.7606 49.1294 47.7548C49.1314 47.7704 56.8677 47.8776 56.8813 47.8932C58.2401 47.94 61.3568 47.9185 62.667 48.0452C64.5903 48.1973 66.5254 48.0686 68.4526 48.0647C69.1106 48.0413 72.679 47.9536 73.2747 47.9244C76.0487 48.014 76.9734 46.4974 76.3018 43.897V43.895Z" fill="#010101"/>
<path d="M58.8458 32.922C59.2468 32.922 59.5719 32.5965 59.5719 32.1929C59.5719 31.7894 59.2468 31.4639 58.8458 31.4639C58.4447 31.4639 58.1196 31.7894 58.1196 32.1929C58.1196 32.5965 58.4447 32.922 58.8458 32.922Z" fill="#010101" stroke="#010101" stroke-miterlimit="10"/>
<path d="M63.9302 32.922C64.3313 32.922 64.6564 32.5965 64.6564 32.1929C64.6564 31.7894 64.3313 31.4639 63.9302 31.4639C63.5292 31.4639 63.2041 31.7894 63.2041 32.1929C63.2041 32.5965 63.5292 32.922 63.9302 32.922Z" fill="#010101" stroke="#010101" stroke-miterlimit="10"/>
<path d="M66.2762 21.3915C64.8025 19.2375 60.1634 19.3603 57.6775 21.3447C57.368 21.5903 56.0403 22.6508 55.9468 24.1772C55.9313 24.4598 55.8787 25.3214 56.4277 25.7133C56.8735 26.033 57.4945 25.8867 57.6288 25.8595C58.0337 25.7639 58.3238 25.5456 58.5418 25.378C59.048 24.992 59.2096 24.6489 59.3575 24.7054C59.484 24.7561 59.4003 25.0212 59.5502 25.4735C59.6223 25.6899 59.7274 26.0096 59.9844 26.1947C60.3834 26.4852 61.0881 26.4014 61.4736 26.0485C61.7831 25.7678 61.6799 25.5047 62.0965 25.0875C62.2893 24.8945 62.4742 24.7132 62.7195 24.7015C63.1186 24.6879 63.2315 25.1401 63.7766 25.4696C63.8116 25.491 64.5475 25.9218 65.3125 25.7094C66.1516 25.4774 66.5253 24.6119 66.6091 24.413C67.0451 23.4072 66.8018 22.1615 66.2742 21.3896L66.2762 21.3915Z" fill="#010101" stroke="#010101" stroke-miterlimit="10"/>
<path d="M34.393 45.5325C34.393 45.5325 35.6214 49.8269 31.5838 49.8269H6.87212C6.87212 49.8269 3.82939 50.1213 4.31218 46.4175C4.79302 42.7137 6.12653 32.6452 6.12653 32.6452C6.12653 32.6452 8.71762 21.8379 19.4168 21.8379C30.116 21.8379 32.6896 32.6335 32.6896 32.6335L34.393 45.5364V45.5325Z" fill="white"/>
<path d="M34.7725 45.4506C35.3798 48.361 34.1534 50.3571 30.9841 50.016C30.4176 49.9946 26.8201 49.8932 26.1621 49.8776C24.2348 49.8698 22.2979 49.7431 20.3764 49.8951C19.0858 50.018 15.9262 50.0004 14.5908 50.0472L6.8759 50.1895C6.14393 50.2577 4.99342 49.9614 4.46391 49.2051C3.75725 48.3045 3.77282 47.129 3.90131 46.0588C3.94803 45.704 4.05315 44.6689 4.09987 44.2966C4.27118 42.8014 5.24455 34.2378 5.43922 32.5516C6.99854 26.4579 11.7057 21.409 18.1786 20.8983C23.7267 20.4597 28.724 23.2005 31.4611 28.033C32.269 29.4404 32.9056 30.9005 33.3046 32.4814C33.3475 32.5243 34.7433 45.396 34.7725 45.4486V45.4506ZM34.0113 45.6104C33.9704 45.6611 32.0568 32.4678 32.0724 32.7758C31.2275 29.9999 29.5961 27.3487 27.373 25.491C24.0557 22.6683 19.2493 22.2083 15.1826 23.4539C12.4202 24.3623 10.1659 26.3643 8.62601 28.8244C7.87846 29.9317 7.11729 31.727 6.81166 32.7348C6.4301 35.2924 5.26012 43.162 4.89219 45.5929C4.82211 46.1192 4.68973 46.7528 4.7053 47.283C4.66247 48.3376 5.24649 49.285 6.34055 49.4331C6.50408 49.4643 6.6968 49.476 6.83891 49.4702C6.84086 49.4858 14.5771 49.593 14.5908 49.6086C15.9496 49.6554 19.0663 49.6359 20.3764 49.7606C22.2998 49.9127 24.2348 49.784 26.1621 49.7782C26.8201 49.7548 30.3884 49.6671 30.9841 49.6378C33.7621 49.7275 34.6829 48.2128 34.0113 45.6104Z" fill="#010101"/>
<path d="M21.7955 35.1072C22.1965 35.1072 22.5216 34.7817 22.5216 34.3782C22.5216 33.9747 22.1965 33.6491 21.7955 33.6491C21.3944 33.6491 21.0693 33.9747 21.0693 34.3782C21.0693 34.7817 21.3944 35.1072 21.7955 35.1072Z" fill="#010101" stroke="#010101" stroke-miterlimit="10"/>
<path d="M15.9825 35.1072C16.3835 35.1072 16.7086 34.7817 16.7086 34.3782C16.7086 33.9747 16.3835 33.6491 15.9825 33.6491C15.5814 33.6491 15.2563 33.9747 15.2563 34.3782C15.2563 34.7817 15.5814 35.1072 15.9825 35.1072Z" fill="#010101" stroke="#010101" stroke-miterlimit="10"/>
<path d="M23.4522 22.8477C22.0758 20.6936 17.7463 20.8164 15.4258 22.8009C15.1377 23.0465 13.8977 24.107 13.812 25.6333C13.7964 25.916 13.7478 26.7776 14.2597 27.1694C14.6763 27.4891 15.2565 27.3429 15.3811 27.3156C15.7587 27.2201 16.0293 27.0018 16.2337 26.8341C16.7068 26.4482 16.8567 26.1051 16.9949 26.1616C17.1136 26.2123 17.0338 26.4774 17.174 26.9297C17.2402 27.146 17.3395 27.4657 17.5789 27.6509C17.9507 27.9414 18.6087 27.8576 18.9689 27.5067C19.257 27.226 19.1616 26.9628 19.5509 26.5456C19.73 26.3526 19.9033 26.1714 20.133 26.1597C20.5048 26.146 20.6119 26.5983 21.1181 26.9277C21.1492 26.9492 21.8383 27.38 22.5528 27.1675C23.3373 26.9355 23.6838 26.07 23.7637 25.8712C24.1686 24.8633 23.9428 23.6196 23.4502 22.8477H23.4522Z" fill="#010101" stroke="#010101" stroke-miterlimit="10"/>
<path d="M24.1394 20.4246C22.6658 22.5787 18.0267 22.4539 15.5408 20.4714C15.2312 20.2258 13.9036 19.1653 13.8101 17.639C13.7946 17.3563 13.742 16.4966 14.291 16.1029C14.7368 15.7832 15.3578 15.9294 15.4921 15.9586C15.897 16.0541 16.1871 16.2725 16.4051 16.4382C16.9113 16.8241 17.0728 17.1672 17.2208 17.1107C17.3473 17.06 17.2636 16.7949 17.4135 16.3426C17.4855 16.1263 17.5907 15.8066 17.8457 15.6214C18.2448 15.3309 18.9495 15.4147 19.3349 15.7656C19.6445 16.0444 19.5413 16.3095 19.9579 16.7267C20.1506 16.9197 20.3355 17.1009 20.5808 17.1126C20.9799 17.1263 21.0928 16.674 21.6379 16.3446C21.6729 16.3231 22.4088 15.8923 23.1758 16.1048C24.0149 16.3368 24.3886 17.2023 24.4723 17.4011C24.9084 18.409 24.6651 19.6527 24.1375 20.4246H24.1394Z" fill="#010101" stroke="#010101" stroke-miterlimit="10"/>
<path d="M100.856 19.8924L100.889 27.4579" stroke="black" stroke-miterlimit="10"/>
<path d="M94.7256 29.3488C94.8755 28.033 95.2162 26.0641 96.9118 23.8243C98.0058 22.3818 99.8688 21.1615 100.714 20.8125" stroke="black" stroke-miterlimit="10"/>
<path d="M87.9976 31.4405C91.344 28.8186 96.6858 27.7737 101.484 28.0895C106.4 28.4131 110.622 29.2669 113.977 30.1792" stroke="black" stroke-miterlimit="10"/>
<path d="M101.054 29.3839C102.074 29.3839 102.9 28.7634 102.9 27.9979C102.9 27.2324 102.074 26.6119 101.054 26.6119C100.035 26.6119 99.209 27.2324 99.209 27.9979C99.209 28.7634 100.035 29.3839 101.054 29.3839Z" fill="white" stroke="black" stroke-miterlimit="10"/>
<path d="M100.955 25.185C101.742 25.185 102.38 24.7058 102.38 24.1148C102.38 23.5237 101.742 23.0446 100.955 23.0446C100.168 23.0446 99.5303 23.5237 99.5303 24.1148C99.5303 24.7058 100.168 25.185 100.955 25.185Z" fill="white" stroke="black" stroke-miterlimit="10"/>
<path d="M97.0031 24.7366C97.7901 24.7366 98.4281 24.2575 98.4281 23.6664C98.4281 23.0753 97.7901 22.5962 97.0031 22.5962C96.2161 22.5962 95.5781 23.0753 95.5781 23.6664C95.5781 24.2575 96.2161 24.7366 97.0031 24.7366Z" fill="white" stroke="black" stroke-miterlimit="10"/>
<path d="M95.3133 29.2338C96.3325 29.2338 97.1588 28.6133 97.1588 27.8478C97.1588 27.0823 96.3325 26.4618 95.3133 26.4618C94.294 26.4618 93.4678 27.0823 93.4678 27.8478C93.4678 28.6133 94.294 29.2338 95.3133 29.2338Z" fill="white" stroke="black" stroke-miterlimit="10"/>
<path d="M107.807 29.4482C107.658 28.1324 107.317 26.1636 105.621 23.9237C104.527 22.4812 102.664 21.2609 101.819 20.912" stroke="black" stroke-miterlimit="10"/>
<path d="M105.53 24.836C106.317 24.836 106.955 24.3569 106.955 23.7658C106.955 23.1748 106.317 22.6956 105.53 22.6956C104.743 22.6956 104.105 23.1748 104.105 23.7658C104.105 24.3569 104.743 24.836 105.53 24.836Z" fill="white" stroke="black" stroke-miterlimit="10"/>
<path d="M107.22 29.3332C108.239 29.3332 109.065 28.7127 109.065 27.9472C109.065 27.1818 108.239 26.5612 107.22 26.5612C106.2 26.5612 105.374 27.1818 105.374 27.9472C105.374 28.7127 106.2 29.3332 107.22 29.3332Z" fill="white" stroke="black" stroke-miterlimit="10"/>
<path d="M101.029 21.8827C101.678 21.8827 102.205 21.4874 102.205 20.9997C102.205 20.512 101.678 20.1166 101.029 20.1166C100.379 20.1166 99.853 20.512 99.853 20.9997C99.853 21.4874 100.379 21.8827 101.029 21.8827Z" fill="white" stroke="black" stroke-miterlimit="10"/>
<path d="M51.417 18.6039V22.4675C52.9841 21.5728 56.7958 19.6546 61.6295 19.678C66.8234 19.7033 70.5708 21.7658 72.0951 22.7209L72.1593 18.986C72.173 18.1887 71.8518 17.4226 71.2697 16.8767C70.2535 15.9254 68.4645 14.5316 65.9882 13.7012C64.7793 13.2957 63.4069 13.0228 61.8806 13.0014C57.0761 12.9332 53.7219 15.3913 52.2229 16.7578C51.7051 17.2315 51.415 17.9021 51.415 18.6039H51.417Z" fill="white" stroke="black" stroke-miterlimit="10"/>
<path d="M55.4683 20.4792C56.5098 19.3349 57.9601 17.9567 59.8854 16.6623C62.1806 15.1184 64.3551 14.2276 65.9903 13.6993" fill="white"/>
<path d="M55.4683 20.4792C56.5098 19.3349 57.9601 17.9567 59.8854 16.6623C62.1806 15.1184 64.3551 14.2276 65.9903 13.6993" stroke="black" stroke-miterlimit="10"/>
<path d="M63.6543 19.7618L70.6606 16.3387" stroke="black" stroke-miterlimit="10"/>
<path d="M51.4734 24.719C51.4734 24.5923 51.417 22.4656 51.417 22.4656C52.9841 21.5416 56.6362 19.676 61.6295 19.676C66.911 19.676 70.5552 21.7599 72.0951 22.719V25.0855C71.1178 24.2181 67.4677 21.4792 61.686 21.3661C56.2935 21.2609 52.5675 23.8886 51.4734 24.719Z" fill="white" stroke="black" stroke-miterlimit="10"/>
<path d="M51.6333 22.2414C51.865 21.2609 53.0758 19.3739 53.948 17.9762C55.482 15.52 58.3476 13.7499 59.4416 13.1534" fill="white"/>
<path d="M51.6333 22.2414C51.865 21.2609 53.0758 19.3739 53.948 17.9762C55.482 15.52 58.3476 13.7499 59.4416 13.1534" stroke="black" stroke-miterlimit="10"/>
<path d="M7.52979 27.9882C9.86196 28.957 13.7359 30.2514 18.6943 30.4853C24.0049 30.7368 28.2118 29.6646 30.6588 28.8517" stroke="black" stroke-miterlimit="10"/>
<path d="M8.75244 26.185C10.9483 27.2084 14.5128 28.5223 19.0642 28.7172C24.0401 28.9317 28.0114 27.7133 30.3533 26.7815" stroke="black" stroke-miterlimit="10"/>
</g>
<defs>
<clipPath id="clip0_2201_4650">
<rect width="120" height="75" fill="white" transform="translate(0 0.414215)"/>
</clipPath>
</defs>
</svg>
