<svg width="77" height="72" viewBox="0 0 77 72" fill="none" xmlns="http://www.w3.org/2000/svg">
<g clip-path="url(#clip0_1913_1730)">
<path d="M24.4014 52.3636H22.2324V67.6364H24.4014V52.3636Z" fill="#F2F2F2" stroke="black" stroke-width="0.5" stroke-miterlimit="10"/>
<path d="M35.2465 52.3636H33.0775V67.6364H35.2465V52.3636Z" fill="#F2F2F2" stroke="black" stroke-width="0.5" stroke-miterlimit="10"/>
<path d="M16.5794 22.4868C16.255 28.4575 7.85519 34.5689 5.94352 40.868C5.53801 42.088 5.46849 43.2727 5.42215 44.5748C5.36422 45.3959 5.32946 46.4399 4.78492 47.2141C4.19404 47.9648 3.03545 48.4575 2.15492 47.8592C1.71466 47.5543 1.47135 47.0029 1.36708 46.5572L1.48294 46.7683C1.36708 46.651 1.29756 46.4751 1.25122 46.3226C0.996329 44.9267 1.33232 43.4956 1.5988 42.1349C2.90801 36.5279 5.60752 31.3196 8.87475 26.6041C10.2998 24.5396 11.8523 22.5572 13.4859 20.6569C13.9957 20.0704 14.5055 19.4135 15.386 19.39C16.6605 19.5308 16.5678 21.5367 16.5794 22.4751V22.4868ZM15.9653 22.4516C16.0928 20.4575 15.78 18.6745 13.8104 20.9384L13.0804 21.7243C9.75528 25.4428 7.00942 29.6774 4.95871 34.217C3.81171 36.7977 2.89642 39.5073 2.37505 42.2874C2.16651 43.4721 1.98113 44.6804 2.09699 45.8651C2.12016 45.9589 2.13175 46.0528 2.16651 46.1232C2.16651 46.1232 2.16651 46.0997 2.14334 46.088L2.25919 46.2991C2.3403 46.5689 2.45615 46.8035 2.59519 46.9443C3.07021 47.4135 3.93915 46.8035 4.10135 46.2639C4.46052 45.1261 4.25197 43.7654 4.42576 42.522C4.48369 41.8299 4.65748 41.173 4.84285 40.5161C5.83924 37.3138 7.97105 34.6393 10.0681 32.1056C12.3389 29.2317 15.5482 26.217 15.9653 22.4516Z" fill="black"/>
<path d="M51.0244 46.5455C51.0244 46.5455 52.8434 52.8798 46.8535 52.8798H10.1609C10.1609 52.8798 5.64239 53.3138 6.36072 47.8592C7.07904 42.393 9.04865 27.5543 9.04865 27.5543C9.04865 27.5543 12.8952 11.6246 28.7795 11.6246C44.6638 11.6246 48.4871 27.5425 48.4871 27.5425L51.0128 46.5572L51.0244 46.5455Z" fill="white"/>
<path d="M51.4762 46.4516C52.3683 50.7214 50.642 53.5484 45.9613 53.1026C45.1155 53.0792 40.933 53.0792 39.9598 53.0675C37.1097 53.0675 36.7273 53.0675 35.3602 53.1026C33.4485 53.2551 23.6121 53.0792 21.6309 53.1261L10.1724 53.2786H10.2072C9.84802 53.3021 9.55837 53.2786 9.23396 53.2434C7.09057 53.0088 5.80453 51.2141 5.80453 49.1496C5.76978 48.5631 5.83929 47.9179 5.90881 47.3314C5.97832 46.8035 6.14052 45.2903 6.22163 44.739C6.4881 42.5337 7.9711 29.9238 8.27233 27.437C10.6243 18.5572 17.46 11.261 26.9952 10.522C35.1864 9.88857 42.4276 13.7947 46.5059 20.8563C47.6992 22.8974 48.6493 25.044 49.2401 27.3431C49.3212 27.39 51.4299 46.3812 51.4878 46.4399L51.4762 46.4516ZM50.5725 46.6393C50.5378 46.6979 47.734 27.3431 47.7571 27.7067C46.5059 23.566 44.0844 19.6129 40.7477 16.8328C35.7657 12.5982 28.5245 11.8475 22.3956 13.7478C18.2362 15.1202 14.8531 18.1232 12.5475 21.7947C11.4237 23.4956 10.323 26.0176 9.83643 27.6481C9.28031 31.4135 7.57718 43.0264 7.05581 46.6158C6.95154 47.4018 6.76616 48.3402 6.78934 49.1261C6.74299 50.7566 7.64669 52.1877 9.33824 52.4106C9.59313 52.4575 9.88278 52.4692 10.1029 52.4575C10.1029 52.4809 21.5845 52.5982 21.5961 52.61C24.342 52.6569 28.93 52.6686 31.618 52.868C33.9931 52.868 36.4145 52.8563 38.7781 52.8094C39.7629 52.7742 45.046 52.6804 45.9381 52.6452C47.2821 52.6334 48.7535 52.5748 49.7847 51.6246C51.0939 50.3695 50.9896 48.2581 50.5493 46.6276L50.5725 46.6393Z" fill="black"/>
<path d="M24.3884 30.6979C25.0024 30.6979 25.5122 30.1935 25.5122 29.5836C25.5122 28.9736 25.014 28.4692 24.3884 28.4692C23.7627 28.4692 23.2645 28.9736 23.2645 29.5836C23.2645 30.1935 23.7627 30.6979 24.3884 30.6979Z" fill="black" stroke="black" stroke-width="0.21" stroke-miterlimit="10"/>
<path d="M32.2204 30.6979C32.8344 30.6979 33.3442 30.1935 33.3442 29.5836C33.3442 28.9736 32.846 28.4692 32.2204 28.4692C31.5948 28.4692 31.0966 28.9736 31.0966 29.5836C31.0966 30.1935 31.5948 30.6979 32.2204 30.6979Z" fill="black" stroke="black" stroke-width="0.21" stroke-miterlimit="10"/>
<path d="M24.4014 55.6364H22.2324V57.8182H24.4014V55.6364Z" fill="black"/>
<path d="M24.4014 62.1818H22.2324V64.3636H24.4014V62.1818Z" fill="black"/>
<path d="M35.2465 55.6364H33.0775V57.8182H35.2465V55.6364Z" fill="black"/>
<path d="M35.2465 62.1818H33.0775V64.3636H35.2465V62.1818Z" fill="black"/>
<path d="M36.4146 71.3783L33.4022 70.346C32.5217 70.041 32.0467 69.0909 32.3479 68.2111C32.6491 67.3314 33.6108 66.8622 34.4913 67.1671L37.5036 68.1994C38.3842 68.5044 38.8592 69.4545 38.558 70.3343C38.2567 71.2141 37.2951 71.6833 36.4146 71.3783Z" fill="black"/>
<path d="M21.3991 71.2258L24.4115 70.1935C25.292 69.8886 25.767 68.9384 25.4542 68.0587C25.153 67.1789 24.1913 66.7097 23.3108 67.0147L20.2985 68.0469C19.4179 68.3519 18.9429 69.3021 19.2442 70.1818C19.5454 71.0616 20.507 71.5308 21.3875 71.2258H21.3991Z" fill="black"/>
<path d="M35.2211 13.912C33.0546 10.0997 26.1957 10.3226 22.5346 13.8299C22.0827 14.2639 20.1131 16.1408 19.9857 18.8387C19.9625 19.3431 19.8814 20.8563 20.6924 21.5484C21.3528 22.1114 22.2681 21.8534 22.4651 21.8065C23.0675 21.6422 23.4962 21.2551 23.809 20.9619C24.5621 20.2815 24.7938 19.6716 25.014 19.7771C25.1993 19.8592 25.0719 20.3402 25.292 21.1378C25.3963 21.5249 25.5585 22.088 25.9292 22.4164C26.5201 22.9326 27.5513 22.7801 28.1306 22.1584C28.5824 21.6657 28.4318 21.1965 29.0459 20.4575C29.3355 20.1173 29.602 19.7889 29.9611 19.7771C30.552 19.7537 30.7142 20.5513 31.5252 21.1378C31.5716 21.173 32.6607 21.9355 33.7961 21.5601C35.0358 21.1496 35.5803 19.6246 35.7078 19.2727C36.3566 17.4897 35.9974 15.2845 35.2211 13.9238V13.912Z" fill="black" stroke="black" stroke-width="0.23" stroke-miterlimit="10"/>
<path d="M4.19407 49.6188C3.63794 48.0469 1.95799 48.3988 1.14697 49.6188C0.532919 50.4985 0.220099 51.7302 0.474989 52.7742C0.764637 53.4897 1.286 52.4927 1.43662 52.1759C1.52931 51.9883 1.76103 51.9883 1.81896 52.1994C1.85371 52.5279 1.85371 52.7625 1.93481 53.0674C1.96957 53.2434 2.06226 53.3842 2.14336 53.3842C2.46777 53.3607 2.4446 52.915 2.54887 52.61C2.65314 52.2933 2.94279 51.7302 3.33671 52.1056C3.53367 52.3519 3.5916 52.6921 3.89283 52.7976C3.99711 52.8211 4.03187 52.7977 4.12455 52.7038C4.62275 51.8475 4.51847 50.5337 4.19407 49.6188ZM4.92398 49.3607C5.24839 50.393 5.3179 52.7742 4.15931 53.2903C3.60319 53.4311 3.22085 52.9032 3.05865 52.4692C3.03548 52.434 3.02389 52.3988 3.0123 52.3871C2.98913 52.3754 3.05865 52.4223 3.10499 52.3988C3.13975 52.3871 3.11658 52.3871 3.10499 52.4106C3.03548 52.5044 2.96596 52.6452 2.91962 52.739C2.80376 53.1026 2.6879 53.783 2.09702 53.7126C1.58724 53.5718 1.61041 52.9619 1.54089 52.5396C1.54089 52.4457 1.54089 52.3284 1.51772 52.2815C1.51772 52.2815 1.51772 52.2815 1.52931 52.305C1.52931 52.3284 1.63358 52.3754 1.69151 52.3402C1.74944 52.305 1.71468 52.3167 1.71468 52.3402C1.61041 52.563 1.49455 52.7859 1.34393 52.9853C1.03111 53.4545 0.370716 53.5249 0.162169 52.9032C-0.254924 51.3079 0.254857 49.4428 1.55248 48.3871C2.75741 47.4252 4.4953 47.8827 4.93557 49.3842L4.92398 49.3607Z" fill="black"/>
<path d="M73.9065 64.1173C76.2237 63.4604 77.2317 61.6188 76.9536 58.651C76.6872 55.7889 75.4243 54.6393 72.0991 54.3343C73.362 52.7507 73.559 50.956 73.3504 49.0792C73.084 46.5689 71.6125 45.2317 69.0868 45.2082C66.7001 45.1965 64.3018 45.2082 62.1584 45.2082C62.7725 42.3109 63.4676 39.4839 63.9311 36.6217C64.2207 34.8387 64.1976 32.9971 64.2902 31.1789C64.3482 30.1818 63.85 29.7361 62.842 29.8182C62.309 29.8651 61.7413 29.9472 61.2316 29.8182C60.6059 29.6657 60.0034 29.0674 59.4357 29.1144C58.9028 29.1613 58.5668 29.9589 57.7442 29.8886C56.2844 29.7595 54.8014 29.8416 53.33 29.7713C52.2988 29.7243 51.8354 30.1349 51.9628 31.1437C52.0787 32.0587 51.8586 32.4927 50.8158 32.7038C48.4639 33.173 47.5138 34.4516 47.5833 36.6452C47.6529 38.8035 49.0779 40.5982 51.2213 40.7507C52.7854 40.8563 53.4806 41.4545 53.7586 42.9091C53.8977 43.6481 54.3379 44.3402 54.7087 45.1965C52.1598 45.1965 49.7383 45.1965 47.3053 45.1965C46.9114 45.1965 46.4595 45.1496 46.1467 45.3255C45.7875 45.5249 45.3357 45.9707 45.3473 46.2874C45.3589 46.6041 45.8802 47.1554 46.2046 47.1672C47.1431 47.2023 47.3516 47.7419 47.398 48.4692C47.4559 49.4545 47.5022 50.4516 47.4791 51.4487C47.4559 52.2698 47.2705 52.9853 46.1583 52.9971C45.9266 52.9971 45.5095 53.5249 45.5095 53.7947C45.5095 54.088 45.8686 54.5103 46.1699 54.6276C46.6217 54.8035 47.1547 54.7566 47.7455 54.8152C47.7108 55.8827 48.209 56.5044 49.3676 56.4927C49.495 56.4927 49.7383 56.7742 49.7383 56.9384C49.7731 58.4516 49.7963 59.9765 49.7499 61.4897C49.7499 61.6891 49.356 62.0176 49.1243 62.0411C48.2206 62.1349 47.8614 62.6041 47.6992 63.3079C47.3516 63.7654 46.6333 64.3871 46.7492 64.6569C46.9693 65.1847 47.6529 65.5249 48.1511 65.9472C48.2669 65.8768 48.3944 65.8182 48.5102 65.7478C48.5102 66.9443 48.545 68.1525 48.4755 69.349C48.4639 69.5836 48.0004 69.8064 47.7455 70.0293C47.4211 70.3108 47.0967 70.5924 46.7723 70.8622C47.1083 71.1789 47.4211 71.5543 47.8035 71.7889C48.0468 71.9296 48.4291 71.8592 48.7535 71.8592C56.3191 71.9062 63.8963 71.9413 71.4619 71.9765C73.7907 71.9883 74.7639 71.4018 75.4591 69.654C76.189 67.7771 75.7487 65.8064 74.2889 64.4692C74.1846 64.3754 74.0803 64.2815 73.8834 64.1056L73.9065 64.1173ZM56.1106 30.3226V30.4047C57.0838 30.4047 58.057 30.346 59.0186 30.4399C59.3199 30.4633 59.8297 30.9091 59.8181 31.1202C59.6559 32.9032 60.6638 34.8856 58.9491 36.4106C58.8564 36.4927 58.8333 36.6686 58.7753 36.7977C57.9643 38.956 58.6711 39.8475 60.9187 39.4604C61.1736 39.4135 61.5791 39.085 61.5675 38.9325C61.4517 37.9941 61.498 36.868 60.9767 36.1877C60.4321 35.4721 60.3163 34.8739 60.3742 34.088C60.409 33.6305 60.3974 33.1613 60.409 32.6921C60.4205 30.2757 60.4205 30.3109 62.8188 30.3109C63.5256 30.3109 63.792 30.5689 63.7573 31.2493C63.6646 32.8915 63.7573 34.5572 63.4792 36.1642C63.0042 38.8856 62.2975 41.5718 61.6718 44.2698C61.498 45.0088 61.0114 45.2434 60.2352 45.2082C58.9144 45.1378 57.582 45.1496 56.2496 45.2082C55.4849 45.2434 55.091 44.9736 54.7898 44.2933C52.8897 40.0469 52.5885 35.5425 52.4842 31.0029C52.4726 30.4164 52.797 30.2991 53.3068 30.3109C54.2452 30.3343 55.1721 30.3109 56.099 30.3109L56.1106 30.3226ZM50.3524 56.5513C50.3524 56.5513 50.4451 56.4927 50.5378 56.4927C57.918 56.4927 65.2982 56.4927 72.6784 56.5513C74.3121 56.563 75.0536 57.6774 74.9956 59.7185C74.9377 61.4663 74.1614 62.3226 72.5742 62.3108C66.48 62.2639 60.3974 62.1935 54.3032 62.1349C52.9476 62.1232 51.6037 62.1349 50.3524 62.1349V56.5513ZM47.873 47.2727C49.1011 47.2727 50.3871 47.2727 51.6732 47.2727C57.443 47.2962 63.2127 47.3079 68.9709 47.3548C69.4807 47.3548 70.0716 47.4721 70.4887 47.7419C71.404 48.3402 71.74 50.2522 71.2765 51.6012C70.8826 52.7507 70.2802 53.1261 68.774 53.1144C62.0078 53.044 55.2301 52.9736 48.4639 52.9032C48.2322 52.9032 48.0004 52.8328 47.8614 52.8094C47.8614 50.9677 47.8614 49.2082 47.8614 47.2727H47.873ZM49.0432 65.8182C49.1822 65.7595 49.2401 65.7126 49.3096 65.7126C56.7942 65.7126 64.2787 65.7009 71.7632 65.7126C72.6321 65.7126 73.2577 66.1584 73.6285 66.9443C74.4163 68.6217 73.3968 70.2757 71.5198 70.2639C64.2902 70.217 57.049 70.1349 49.8194 70.0528C49.5761 70.0528 49.3328 69.9941 49.0432 69.9589V65.8299V65.8182ZM48.3944 63.2375C48.4175 63.0733 48.4291 62.8974 48.4523 62.7331C48.9157 62.6862 49.3907 62.5924 49.8542 62.5924C57.385 62.6745 64.9043 62.7801 72.4351 62.8387C73.084 62.8387 73.8254 62.6979 74.3584 62.3695C75.5054 61.6422 75.853 59.6716 75.2853 57.9472C74.8334 56.5396 74.1267 56.0235 72.4467 56.0235C64.9159 56.0235 57.385 56.0586 49.8658 56.0352C49.3328 56.0352 48.3364 55.6481 48.348 55.5308C48.4407 54.6628 49.2285 54.9091 49.7847 54.9091C57.2808 54.9091 64.7653 54.9325 72.2613 54.956C74.9377 54.956 76.2469 56.129 76.3975 58.7801C76.4439 59.6598 76.3512 60.5748 76.1426 61.4311C75.7835 62.9091 74.9029 63.566 73.362 63.6012C72.3193 63.6364 71.2881 63.6012 70.2454 63.6012C63.4329 63.6012 56.6204 63.6012 49.8078 63.5894C49.3328 63.5894 48.8578 63.3666 48.3828 63.2493L48.3944 63.2375ZM58.7522 54.4047C54.9867 54.4047 51.2213 54.4282 47.4559 54.3812C46.9577 54.3812 46.4711 54.0411 45.9845 53.8651C46.4595 53.6891 46.9461 53.3724 47.4211 53.3724C54.5928 53.4428 61.7645 53.5601 68.9362 53.6422C70.9521 53.6657 72.018 52.5161 72.0296 50.3812C72.0296 48.0587 71.0101 46.8152 68.9941 46.8152C62.5408 46.8035 56.0758 46.8152 49.6225 46.8152C48.684 46.8152 47.7571 46.8622 46.8303 46.7918C46.4827 46.7683 46.1467 46.4399 45.8107 46.2522C46.1583 46.0645 46.4943 45.7243 46.8418 45.7243C54.4075 45.7126 61.9846 45.7243 69.5502 45.7713C71.0332 45.7713 72.1455 46.6628 72.5858 48.0704C73.0608 49.607 73.0144 51.1789 72.4815 52.7038C72.0528 53.9472 71.3113 54.4047 69.9558 54.4047C66.2251 54.4047 62.4944 54.4047 58.7638 54.4047H58.7522ZM47.0967 64.8915C47.0967 64.7038 47.0967 64.5161 47.0967 64.3284C47.7108 64.2346 48.3248 64.0469 48.9389 64.0469C56.2496 64.0469 63.5719 64.0821 70.8826 64.1056C71.2418 64.1056 71.601 64.1056 71.9601 64.129C74.0108 64.2698 75.3316 65.8064 75.2621 67.9883C75.1926 70.2405 74.0108 71.4369 71.8211 71.4487C70.0253 71.4487 68.241 71.4604 66.4452 71.4487C60.5248 71.4252 54.616 71.4018 48.6956 71.3548C48.2206 71.3548 47.7456 71.1906 47.2821 71.1085C47.2821 70.9443 47.2937 70.7918 47.3053 70.6276C47.8382 70.5806 48.3712 70.4751 48.9041 70.4868C56.4697 70.5689 64.0353 70.6745 71.5894 70.7449C73.2577 70.7566 74.3352 69.7361 74.4047 68.1642C74.4743 66.4633 73.4431 65.2786 71.7516 65.1613C71.3576 65.1378 70.9637 65.1378 70.5698 65.1378C63.2591 65.1378 55.9368 65.1496 48.6261 65.1378C48.1163 65.1378 47.6065 64.9619 47.0967 64.868V64.8915ZM52.9592 40.4692C51.2561 40.4927 49.8078 40.129 48.8346 38.7683C47.9657 37.5601 47.7571 36.1525 48.4291 34.8152C49.1127 33.4545 50.4682 33.0792 51.8817 32.9384C52.2641 33.7595 52.0671 34.0997 51.2445 34.2991C49.8658 34.6276 49.1474 35.5543 49.217 36.6921C49.2981 37.9589 50.2945 38.956 51.6616 39.1202C52.0092 39.1672 52.3567 39.2023 52.7043 39.2375C52.7854 39.6481 52.8549 39.9883 52.9476 40.4575L52.9592 40.4692ZM52.0787 34.6393C52.2409 36.0235 52.4031 37.349 52.5653 38.6745C50.9201 38.6745 49.8194 37.8416 49.7499 36.6452C49.6804 35.5777 50.4914 34.8504 52.0787 34.6393ZM59.0186 38.9677C58.8449 37.5836 59.3546 36.1994 60.0382 36.1642C60.6754 36.129 61.1736 37.2786 61.1389 38.6745C61.1389 38.7683 61.0578 38.8622 60.9998 38.9677H59.0186Z" fill="black"/>
<path d="M56.1106 30.3226C55.1721 30.3226 54.2453 30.346 53.3184 30.3226C52.8086 30.3109 52.4842 30.4282 52.4958 31.0147C52.6001 35.5543 52.9013 40.0704 54.8014 44.305C55.1142 44.9971 55.5081 45.2551 56.2612 45.2199C57.582 45.1613 58.9144 45.1613 60.2468 45.2199C61.0114 45.2551 61.5096 45.0205 61.6834 44.2815C62.3091 41.5836 63.0042 38.8974 63.4908 36.176C63.7689 34.5689 63.6762 32.9032 63.7689 31.261C63.8036 30.5806 63.5372 30.3226 62.8304 30.3226C60.4321 30.3226 60.4321 30.2874 60.4206 32.7038C60.4206 33.173 60.4205 33.6305 60.3858 34.0997C60.3163 34.8856 60.4437 35.4839 60.9883 36.1994C61.5096 36.8798 61.4633 38.0059 61.5791 38.9443C61.6023 39.0968 61.1852 39.437 60.9303 39.4721C58.6711 39.8592 57.9759 38.9795 58.7869 36.8094C58.8333 36.6804 58.8565 36.5044 58.9607 36.4223C60.6754 34.8974 59.6675 32.9032 59.8297 31.132C59.8528 30.9208 59.3315 30.4751 59.0302 30.4516C58.0686 30.3695 57.0954 30.4164 56.1222 30.4164V30.3226H56.1106Z" fill="white"/>
<path d="M50.3524 56.5513V62.1349C51.6037 62.1349 52.9593 62.1349 54.3032 62.1349C60.3974 62.1936 66.48 62.2639 72.5742 62.3108C74.1615 62.3226 74.9377 61.4663 74.9957 59.7185C75.0536 57.6774 74.3121 56.563 72.6785 56.5513C65.2983 56.5044 57.918 56.5044 50.5378 56.4927C50.4335 56.4927 50.3408 56.5513 50.3524 56.5513ZM59.5169 61.2317C59.5169 61.1613 59.5169 61.0792 59.5169 61.0088H70.5583C70.5583 61.0792 70.5583 61.1613 70.5583 61.2317H59.5169ZM62.3438 59.6129C62.3438 59.6833 62.3438 59.7537 62.3438 59.824H52.994V59.6129H62.3438ZM58.9608 58.0411C58.9608 58.1232 58.9723 58.1935 58.9839 58.2757H52.2873V58.0411H58.9723H58.9608ZM72.6669 59.6246V59.8358H64.4988V59.6246H72.6669ZM66.202 58.2991C66.202 58.2287 66.202 58.1701 66.202 58.0997H72.6206V58.2991H66.202ZM60.2468 58.3226C60.2468 58.2522 60.2584 58.1701 60.27 58.0997H64.4525V58.3226H60.2584H60.2468Z" fill="white"/>
<path d="M47.873 47.2727V52.8094C48.0005 52.8328 48.2322 52.8915 48.4755 52.9032C55.2417 52.9853 62.0195 53.0557 68.7856 53.1144C70.2802 53.1261 70.8943 52.7507 71.2882 51.6012C71.7516 50.2522 71.4156 48.3402 70.5003 47.7419C70.0833 47.4721 69.504 47.3666 68.9826 47.3548C63.2128 47.3079 57.443 47.2962 51.6848 47.2727C50.3988 47.2727 49.1127 47.2727 47.8846 47.2727H47.873ZM63.8269 48.739C63.8269 48.8211 63.8269 48.8915 63.8269 48.9736H51.2098C51.2098 48.8915 51.2098 48.8211 51.2098 48.739H63.8384H63.8269ZM59.0998 51.6598C59.0998 51.5777 59.0882 51.5073 59.0882 51.4252H69.4924V51.6598H59.0998ZM55.5313 51.4135C55.5313 51.4839 55.5313 51.5542 55.5313 51.6246H49.1127C49.1127 51.5542 49.1127 51.4839 49.1127 51.4135H55.5313ZM59.401 49.9941V50.1701H49.0896V49.9941H59.401ZM62.228 50.1935C62.228 50.1232 62.2396 50.0645 62.2512 49.9941H68.8551C68.8551 50.0645 68.8551 50.1232 68.8551 50.1935H62.228Z" fill="white"/>
<path d="M49.0432 65.8182V69.9472C49.3329 69.9824 49.5762 70.0411 49.8195 70.0411C57.0491 70.1114 64.2903 70.1935 71.5199 70.2522C73.3968 70.2639 74.4164 68.61 73.6285 66.9325C73.2578 66.1466 72.6321 65.7009 71.7632 65.7009C64.2787 65.7009 56.7942 65.7009 49.3097 65.7009C49.2402 65.7009 49.1822 65.7478 49.0432 65.8182ZM51.1287 68.8094V68.61H57.8949V68.8094H51.1287ZM60.2931 67.3196C60.3047 67.261 60.3163 67.2023 60.3279 67.1437H69.2491C69.2491 67.2023 69.2491 67.261 69.2491 67.3196H60.2931ZM71.6589 68.61C71.6589 68.6804 71.6357 68.739 71.6357 68.7977H65.0086C65.0086 68.7273 65.0086 68.6686 65.0086 68.61H71.6589ZM57.2113 67.1085V67.2962H52.1946V67.1085H57.2113Z" fill="white"/>
<path d="M48.3944 63.2375C48.8694 63.3548 49.3444 63.5777 49.8194 63.5894C56.6319 63.6129 63.4445 63.6012 70.257 63.6012C71.2997 63.6012 72.3309 63.6364 73.3736 63.6012C74.9145 63.5543 75.795 62.9091 76.1542 61.4311C76.3628 60.5748 76.4554 59.6598 76.4091 58.7801C76.2585 56.129 74.9609 54.956 72.2729 54.956C64.7768 54.9326 57.2923 54.9091 49.7962 54.9091C49.2401 54.9091 48.4639 54.6745 48.3596 55.5308C48.348 55.6481 49.3444 56.0352 49.8773 56.0352C57.4082 56.0587 64.939 56.0235 72.4583 56.0235C74.1383 56.0235 74.8334 56.5513 75.2968 57.9472C75.853 59.6716 75.517 61.6422 74.37 62.3695C73.837 62.7097 73.0955 62.8504 72.4467 62.8387C64.9159 62.7801 57.3966 62.6745 49.8658 62.5924C49.4023 62.5924 48.9273 62.6862 48.4639 62.7331C48.4407 62.8974 48.4291 63.0733 48.4059 63.2375H48.3944Z" fill="white"/>
<path d="M58.7521 54.4047H69.9441C71.3113 54.4047 72.0528 53.9355 72.4699 52.7038C72.9912 51.1789 73.0376 49.6188 72.5741 48.0704C72.1454 46.6628 71.0332 45.7713 69.5386 45.7713C61.973 45.7243 54.3958 45.7126 46.8302 45.7243C46.4826 45.7243 46.1466 46.0762 45.7991 46.2522C46.1351 46.4399 46.4595 46.7683 46.8186 46.7918C47.7455 46.8739 48.684 46.8152 49.6108 46.8152C56.0642 46.8152 62.5291 46.8035 68.9825 46.8152C70.9984 46.8152 72.0296 48.0587 72.018 50.3812C72.018 52.5044 70.9521 53.6657 68.9246 53.6422C61.7529 53.5601 54.5812 53.4428 47.4095 53.3724C46.9345 53.3724 46.4479 53.6891 45.9729 53.8651C46.4595 54.0528 46.9577 54.3812 47.4443 54.3812C51.2097 54.4282 54.9751 54.4047 58.7405 54.4047H58.7521Z" fill="white"/>
<path d="M47.0968 64.8915C47.6066 64.9853 48.1164 65.1613 48.6261 65.1613C55.9369 65.173 63.2592 65.1613 70.5699 65.1613C70.9638 65.1613 71.3577 65.1613 71.7516 65.1847C73.4432 65.302 74.4859 66.4868 74.4048 68.1877C74.3353 69.7595 73.2578 70.7801 71.5894 70.7683C64.0238 70.6979 56.4582 70.5924 48.9042 70.5103C48.3712 70.5103 47.8383 70.6041 47.3053 70.651C47.3053 70.8152 47.2938 70.9677 47.2822 71.132C47.7572 71.2141 48.2322 71.3783 48.6957 71.3783C54.6161 71.4252 60.5249 71.4487 66.4453 71.4721C68.2411 71.4721 70.0253 71.4721 71.8211 71.4721C73.9993 71.4721 75.1926 70.2639 75.2622 68.0117C75.3201 65.8299 74.0109 64.2932 71.9602 64.1525C71.601 64.129 71.2418 64.129 70.8827 64.129C63.572 64.1056 56.2497 64.0704 48.939 64.0704C48.3249 64.0704 47.7109 64.2581 47.0968 64.3519C47.0968 64.5396 47.0968 64.7155 47.0968 64.9032V64.8915Z" fill="white"/>
<path d="M52.9592 40.4692C52.8665 40 52.797 39.6598 52.7159 39.2493C52.3683 39.2141 52.0207 39.1672 51.6731 39.132C50.306 38.956 49.3096 37.9707 49.2285 36.7038C49.159 35.566 49.8773 34.6276 51.256 34.3108C52.0786 34.1114 52.2756 33.7713 51.8933 32.9501C50.4798 33.0909 49.1242 33.4663 48.4407 34.827C47.7687 36.1642 47.9772 37.5718 48.8462 38.7801C49.8194 40.1408 51.2792 40.5044 52.9708 40.4809L52.9592 40.4692Z" fill="white"/>
<path d="M52.0903 34.6393C50.5031 34.8504 49.6921 35.5777 49.7616 36.6452C49.8311 37.8534 50.9433 38.6862 52.5769 38.6745C52.4147 37.3372 52.2525 36.0117 52.0903 34.6276V34.6393Z" fill="white"/>
<path d="M59.0302 38.9677H61.0114C61.0693 38.8504 61.1388 38.7683 61.1504 38.6745C61.1968 37.2786 60.687 36.1408 60.0498 36.1642C59.3778 36.1994 58.8564 37.5836 59.0302 38.9677Z" fill="white"/>
<path d="M59.5168 61.2317H70.5582C70.5582 61.1613 70.5582 61.0792 70.5582 61.0088H59.5168C59.5168 61.0792 59.5168 61.1496 59.5168 61.2317Z" fill="black"/>
<path d="M62.3323 59.6129H52.9824V59.824H62.3323C62.3323 59.7537 62.3323 59.6833 62.3323 59.6129Z" fill="black"/>
<path d="M58.9607 58.0411H52.2756V58.2757H58.9723C58.9723 58.1936 58.9607 58.1232 58.9607 58.0411Z" fill="black"/>
<path d="M72.6669 59.6246H64.4988V59.8358H72.6669V59.6246Z" fill="black"/>
<path d="M66.2019 58.2991H72.6205V58.0997H66.2019V58.2991Z" fill="black"/>
<path d="M60.2468 58.3226H64.4409V58.0997H60.2584C60.2584 58.1701 60.2584 58.2522 60.2468 58.3226Z" fill="black"/>
<path d="M63.8268 48.7273H51.1981C51.1981 48.8094 51.1981 48.8798 51.1981 48.9619H63.8152C63.8152 48.8798 63.8152 48.8094 63.8152 48.7273H63.8268Z" fill="black"/>
<path d="M59.0997 51.6598H69.4923V51.4252H59.0881C59.0881 51.5073 59.0881 51.5777 59.0997 51.6598Z" fill="black"/>
<path d="M55.5313 51.4135H49.1127C49.1127 51.4839 49.1127 51.5542 49.1127 51.6246H55.5313C55.5313 51.5542 55.5313 51.4839 55.5313 51.4135Z" fill="black"/>
<path d="M59.4009 49.9941H49.0895V50.1701H59.4009C59.4009 50.1114 59.4009 50.0528 59.4009 49.9941Z" fill="black"/>
<path d="M62.2395 50.1935H68.8666C68.8666 50.1232 68.8666 50.0645 68.8666 49.9941H62.2627C62.2627 50.0645 62.2395 50.1232 62.2395 50.1935Z" fill="black"/>
<path d="M51.1287 68.8094H57.8948V68.61H51.1287V68.8094Z" fill="black"/>
<path d="M60.2815 67.3197H69.2374C69.2374 67.261 69.2374 67.2024 69.2374 67.1437H60.3162C60.3047 67.2024 60.2931 67.261 60.2699 67.3197H60.2815Z" fill="black"/>
<path d="M71.6473 68.61H64.9969C64.9969 68.6804 64.9969 68.739 64.9969 68.7977H71.6241C71.6241 68.739 71.6357 68.6686 71.6473 68.61Z" fill="black"/>
<path d="M57.1997 67.1085H52.183V67.2962H57.1997V67.1085Z" fill="black"/>
<path d="M46.6217 43.1671C50.0511 41.6774 53.6312 41.8651 57.1996 41.9941C61.6834 42.1466 66.1556 42.2874 70.6393 42.4868C71.1375 42.5103 71.9949 42.8152 72.0296 43.085C72.1455 43.8475 71.9601 44.6803 71.7979 45.4545C71.7631 45.5953 71.2418 45.7243 70.9521 45.7126C65.2866 45.5484 59.6211 45.3138 53.9672 45.2199C51.8122 45.1847 49.9121 44.4927 48.012 43.6246C47.5717 43.4252 47.0851 43.3196 46.6217 43.1671ZM67.0824 42.7918C62.2511 42.6158 57.4545 42.4399 52.264 42.2522C52.797 43.0029 53.1446 43.4956 53.6544 44.2111C53.5153 44.2815 53.2141 44.4223 52.9013 44.563C52.9476 44.6217 52.994 44.6803 53.0403 44.739C57.6978 44.9032 62.3554 45.0557 67.0824 45.2199C67.0824 44.3402 67.0824 43.6364 67.0824 42.8035V42.7918ZM48.4639 43.0381C48.4407 43.132 48.4291 43.2375 48.4059 43.3431C49.8194 43.5777 50.9664 45.1261 52.6232 44.1525C52.3915 43.7537 52.0439 43.4252 52.0555 43.1085C52.0903 42.346 51.6268 42.2874 51.1402 42.3812C50.2365 42.5455 49.356 42.8035 48.4754 43.0264L48.4639 43.0381ZM69.6545 45.3607C70.3497 45.2199 71.1491 45.2903 71.5083 44.915C71.8211 44.5982 71.8558 43.5425 71.5662 43.261C71.1954 42.8974 70.3844 42.9795 69.6545 42.8504V45.3607ZM67.569 45.1144H69.0752V42.9443H67.6733C67.6386 43.6598 67.6154 44.2932 67.569 45.1144Z" fill="black"/>
<path d="M67.0824 42.7918V45.2082C62.3554 45.044 57.6978 44.8915 53.0403 44.7273C52.9939 44.6686 52.9476 44.61 52.9013 44.5513C53.2141 44.4106 53.5153 44.2581 53.6543 44.1994C53.1446 43.4839 52.797 42.9912 52.264 42.2405C57.4429 42.4281 62.2511 42.6041 67.0824 42.7801V42.7918Z" fill="white"/>
<path d="M48.4639 43.0381C49.356 42.8152 50.2366 42.5572 51.1287 42.393C51.6269 42.2991 52.0787 42.3578 52.044 43.1202C52.0324 43.4369 52.3915 43.7654 52.6117 44.1642C50.9549 45.1378 49.8079 43.5777 48.3944 43.3548C48.4176 43.2493 48.4292 43.1554 48.4523 43.0499L48.4639 43.0381Z" fill="white"/>
<path d="M67.5691 45.1144C67.6038 44.2815 67.6386 43.6598 67.6734 42.9443H69.0753V45.1144H67.5691Z" fill="white"/>
<path d="M12.5591 9.7478V15.9883C15.0616 14.5455 21.1558 11.4487 28.8721 11.4839C37.1676 11.5308 43.1575 14.8504 45.5905 16.3988L45.6948 10.3695C45.718 9.07918 45.2082 7.84751 44.2697 6.96774C42.6477 5.43108 39.786 3.17888 35.8352 1.84164C33.9003 1.18475 31.7106 0.750731 29.2776 0.715541C21.6077 0.609969 16.2434 4.57478 13.8567 6.78006C13.0341 7.54252 12.5707 8.63343 12.5707 9.75953L12.5591 9.7478Z" fill="white" stroke="black" stroke-miterlimit="10"/>
<path d="M19.0356 12.7742C20.6924 10.9208 23.0212 8.70381 26.0915 6.6041C29.7526 4.10557 33.2284 2.67449 35.8468 1.81818" fill="white"/>
<path d="M19.0356 12.7742C20.6924 10.9208 23.0212 8.70381 26.0915 6.6041C29.7526 4.10557 33.2284 2.67449 35.8468 1.81818" stroke="black" stroke-miterlimit="10"/>
<path d="M32.1046 11.6129L43.2966 6.08797" stroke="black" stroke-miterlimit="10"/>
<path d="M12.6518 19.6246C12.6518 19.4252 12.5591 15.9883 12.5591 15.9883C15.0616 14.4985 20.8894 11.4839 28.8721 11.4839C37.3066 11.4839 43.1227 14.8504 45.5905 16.3988V20.2229C44.0264 18.827 38.1987 14.4047 28.9647 14.217C20.3448 14.0411 14.4012 18.2874 12.6518 19.6364V19.6246Z" fill="white" stroke="black" stroke-miterlimit="10"/>
<path d="M12.9067 15.6246C13.2775 14.0411 15.2123 10.9912 16.6026 8.739C19.0473 4.77419 23.6353 1.91202 25.3732 0.950146" fill="white"/>
<path d="M12.9067 15.6246C13.2775 14.0411 15.2123 10.9912 16.6026 8.739C19.0473 4.77419 23.6353 1.91202 25.3732 0.950146" stroke="black" stroke-miterlimit="10"/>
</g>
<defs>
<clipPath id="clip0_1913_1730">
<rect width="77" height="72" fill="white"/>
</clipPath>
</defs>
</svg>
