<svg width="121" height="78" viewBox="0 0 121 78" fill="none" xmlns="http://www.w3.org/2000/svg">
<rect width="120.391" height="77.8284" fill="white"/>
<path d="M63.1319 46.5028C62.8059 45.7911 61.8897 45.3018 61.1091 45.5511C59.6131 46.0222 59.1842 47.7115 59.3547 49.06C59.4414 49.5062 59.5442 50.4364 60.2132 50.3536C60.6811 50.2185 60.755 49.7551 60.8889 49.3773C60.8874 49.368 60.9151 49.3467 60.8636 49.3982C60.8144 49.4493 60.7002 49.4135 60.6917 49.391C60.6687 49.3686 60.6702 49.3636 60.6679 49.364C60.7434 49.6712 60.8157 50.0314 61.0191 50.2982C61.2937 50.6462 61.762 50.4131 61.8507 50.038C61.9222 49.7039 61.8845 49.536 62.0277 49.2711C62.0363 49.2506 62.053 49.2502 62.0125 49.2808C61.97 49.3142 61.8819 49.2763 61.8944 49.279C61.9563 49.3618 61.9987 49.443 62.0747 49.5377C62.2687 49.8061 62.6475 50.0294 62.9953 49.8665C63.9121 49.2818 63.5513 47.3422 63.1319 46.5028ZM62.4405 46.8829C62.8207 47.545 63.0872 48.5912 62.8155 49.3237C62.7718 49.393 62.7753 49.4139 62.7001 49.4097C62.4506 49.3701 62.3673 49.1024 62.1713 48.937C61.7719 48.6623 61.5794 49.1644 61.5379 49.4768C61.5063 49.661 61.5311 49.8383 61.5026 49.9408C61.4113 50.2424 61.2624 50.1288 61.1791 49.9184C61.0716 49.6785 61.044 49.4994 60.9634 49.2336C60.9529 49.2139 60.944 49.1891 60.9073 49.157C60.884 49.118 60.7479 49.081 60.6789 49.1426C60.5958 49.2208 60.6106 49.2375 60.5915 49.2669C60.5123 49.5116 60.2584 50.3795 59.955 49.874C59.6205 49.0826 59.7158 48.043 60.0966 47.2732C60.5864 46.2347 61.7986 45.7489 62.4405 46.8829Z" fill="#010101"/>
<path d="M106.56 46.2549C106.356 45.4993 105.533 44.8662 104.722 44.9839C103.168 45.2027 102.466 46.7986 102.412 48.1567C102.423 48.611 102.371 49.5454 103.045 49.5737C103.529 49.5172 103.678 49.0723 103.873 48.7216C103.873 48.7122 103.903 48.6957 103.844 48.7381C103.787 48.7805 103.68 48.7263 103.676 48.7028C103.657 48.6769 103.659 48.6722 103.657 48.6722C103.68 48.9876 103.692 49.3548 103.849 49.6513C104.062 50.0397 104.563 49.8867 104.712 49.5313C104.838 49.2135 104.828 49.0417 105.013 48.804C105.025 48.7852 105.042 48.7875 104.997 48.8111C104.949 48.8369 104.869 48.7852 104.88 48.7899C104.928 48.8817 104.956 48.9688 105.016 49.0747C105.163 49.3712 105.499 49.6537 105.869 49.5501C106.87 49.1241 106.835 47.1517 106.56 46.2549ZM105.815 46.5161C106.08 47.2317 106.171 48.3074 105.782 48.9852C105.727 49.0464 105.727 49.0676 105.654 49.0511C105.414 48.9711 105.376 48.6934 105.21 48.498C104.861 48.1614 104.589 48.6251 104.496 48.9264C104.435 49.1029 104.43 49.2818 104.385 49.3783C104.245 49.6608 104.117 49.5242 104.069 49.303C104.003 49.0488 104.005 48.8675 103.97 48.5922C103.963 48.571 103.958 48.5451 103.927 48.5074C103.91 48.4651 103.782 48.4062 103.704 48.4556C103.609 48.5192 103.621 48.538 103.597 48.5639C103.479 48.7922 103.085 49.6066 102.869 49.0582C102.67 48.2226 102.936 47.2129 103.439 46.5161C104.093 45.5723 105.369 45.2922 105.815 46.5161Z" fill="#010101"/>
<path d="M71.9515 25.2553C71.3001 31.1574 62.2121 35.5716 62.6682 43.5064C62.6568 44.081 62.6517 44.6061 62.4673 45.045C62.4052 45.1615 62.3589 45.2259 62.2349 45.3247C61.9962 45.5103 61.7049 45.6709 61.4688 45.4586C61.3123 45.3273 61.223 44.964 61.0747 44.7595C61.0986 44.7685 61.1133 44.7965 61.1184 44.8129C61.0914 44.7616 61.0854 44.6934 61.0676 44.6231C60.9441 43.6625 61.0788 42.6783 61.228 41.7151C61.6082 39.4387 62.3093 37.206 63.2043 35.0733C64.8112 31.3245 66.9866 27.8103 69.6772 24.7292C69.8239 24.5712 70.3984 23.9181 70.5567 23.7504C71.9666 22.3076 71.996 24.1339 71.9515 25.253L71.9515 25.2553ZM72.5828 25.2768C72.5569 24.4722 72.6137 22.8302 71.5015 22.7068C70.7408 22.7442 70.3423 23.2881 69.9218 23.7925C68.6117 25.3771 67.3692 27.0311 66.2272 28.7398C63.5985 32.6484 61.4415 36.951 60.4262 41.5696C60.2182 42.701 59.9614 43.8875 60.1926 45.0439C60.2329 45.1774 60.3069 45.3408 60.4107 45.4472L60.2812 45.2306C60.3671 45.5304 60.4866 45.8531 60.7574 46.1472C61.4683 46.9253 62.7349 46.5209 63.2814 45.7624C63.7445 45.1113 63.7596 44.207 63.7953 43.5354C63.8146 42.4662 63.8599 41.5261 64.1675 40.527C65.3066 37.0245 67.9197 34.2627 69.9831 31.2566C71.2018 29.4641 72.506 27.5383 72.5805 25.2769L72.5828 25.2768Z" fill="#010101"/>
<path d="M94.9973 24.3773C95.4104 30.2995 104.314 35.0605 103.539 42.9711C103.527 43.5457 103.511 44.0705 103.677 44.5161C103.735 44.6349 103.778 44.701 103.898 44.8045C104.129 44.9992 104.414 45.1709 104.658 44.9679C104.82 44.8427 104.924 44.4808 105.08 44.2846C105.056 44.2926 105.04 44.32 105.035 44.3362C105.064 44.286 105.075 44.2182 105.093 44.1485C105.255 43.1935 105.16 42.205 105.05 41.2368C104.762 38.9477 104.151 36.6898 103.343 34.5244C101.888 30.7144 99.8557 27.1216 97.2961 23.9373C97.1559 23.7737 96.6081 23.099 96.4566 22.9254C95.1012 21.4291 94.9958 23.2527 95 24.3728L94.9973 24.3773ZM94.3657 24.3721C94.4239 23.5715 94.4335 21.9264 95.5498 21.846C96.3086 21.9103 96.6871 22.4717 97.0847 22.9917C98.33 24.6255 99.505 26.326 100.577 28.0773C103.047 32.084 105.029 36.4661 105.857 41.12C106.019 42.2585 106.228 43.4538 105.951 44.6004C105.905 44.7322 105.824 44.8926 105.716 44.995L105.854 44.7835C105.757 45.0798 105.624 45.3976 105.342 45.681C104.6 46.431 103.351 45.9781 102.835 45.1992C102.399 44.5307 102.42 43.6266 102.411 42.9542C102.435 41.8852 102.428 40.9441 102.161 39.9317C101.164 36.3882 98.6635 33.5279 96.7227 30.4471C95.577 28.6091 94.3514 26.6346 94.3681 24.3722L94.3657 24.3721Z" fill="#010101"/>
<path d="M80.7983 49.7995H78.3618V61.8739H80.7983V49.7995Z" fill="#F2F2F2" stroke="#010101" stroke-width="0.390775" stroke-miterlimit="10"/>
<path d="M80.7983 52.2144H78.3618V54.6293H80.7983V52.2144Z" fill="#010101"/>
<path d="M80.7983 55.8367H78.3618V58.2516H80.7983V55.8367Z" fill="#010101"/>
<path d="M89.3256 49.7995H86.8892V61.8739H89.3256V49.7995Z" fill="#F2F2F2" stroke="#010101" stroke-width="0.390775" stroke-miterlimit="10"/>
<path d="M89.3256 52.2144H86.8892V54.6293H89.3256V52.2144Z" fill="#010101"/>
<path d="M89.3256 55.8367H86.8892V58.2516H89.3256V55.8367Z" fill="#010101"/>
<path d="M89.8915 64.2664L86.9721 63.4403C86.1183 63.1978 85.6606 62.4352 85.957 61.7315C86.2511 61.03 87.1808 60.6534 88.0393 60.8959L90.9587 61.722C91.8125 61.9645 92.2702 62.7271 91.9737 63.4309C91.6797 64.1323 90.7453 64.5065 89.8915 64.2664Z" fill="#010101"/>
<path d="M77.4183 64.2664L80.3377 63.4403C81.1915 63.1978 81.6492 62.4352 81.3527 61.7315C81.0586 61.03 80.129 60.6534 79.2728 60.8959L76.3534 61.722C75.4996 61.9645 75.0419 62.7271 75.3384 63.4309C75.6324 64.1323 76.5669 64.5065 77.4183 64.2664Z" fill="#010101"/>
<path d="M101.703 44.163C101.703 44.163 103.199 49.3483 98.2805 49.3483H68.1755C68.1755 49.3483 64.4688 49.7038 65.0569 45.2316C65.6427 40.7595 67.2672 28.6024 67.2672 28.6024C67.2672 28.6024 70.4238 15.5531 83.4581 15.5531C96.4923 15.5531 99.6275 28.5882 99.6275 28.5882L101.703 44.1677V44.163Z" fill="white"/>
<path d="M102.165 44.0689C102.903 47.583 101.411 49.9933 97.5502 49.5814C96.86 49.5555 92.4773 49.4331 91.6757 49.4142C89.3279 49.4048 86.9681 49.2518 84.6274 49.4378C83.055 49.5861 79.2083 49.5649 77.579 49.6214L68.1804 49.7908C67.2887 49.8732 65.8871 49.5154 65.242 48.6022C64.3812 47.5148 64.4001 46.0954 64.559 44.8032C64.6159 44.3749 64.744 43.125 64.8009 42.6754C65.0096 40.8701 66.1954 30.5301 66.4326 28.4941C68.3322 21.1362 74.0667 15.04 81.9522 14.4233C88.7136 13.8937 94.7991 17.2031 98.1336 23.0381C99.1178 24.7375 99.8933 26.5004 100.379 28.4093C100.432 28.4635 102.132 44.0077 102.168 44.0712L102.165 44.0689ZM101.238 44.2619C101.186 44.3231 98.8545 28.3929 98.8759 28.7647C97.8466 25.413 95.8592 22.2119 93.1509 19.9688C89.1097 16.5605 83.2542 16.0051 78.3 17.5091C74.9371 18.6059 72.1884 21.0233 70.3125 23.9937C69.4018 25.3306 68.4745 27.4984 68.1022 28.7153C67.6373 31.8034 66.212 41.3056 65.7638 44.2407C65.6784 44.8762 65.5171 45.6412 65.5361 46.279C65.4839 47.5524 66.1954 48.6963 67.5282 48.8752C67.7275 48.9129 67.9622 48.927 68.1354 48.9199C68.1377 48.9388 77.5624 49.0682 77.579 49.0871C79.2368 49.1436 83.0313 49.12 84.6274 49.2707C86.9705 49.4542 89.3279 49.2989 91.6757 49.2942C92.4797 49.2659 96.8245 49.16 97.5502 49.1247C100.934 49.233 102.056 47.4041 101.238 44.2619Z" fill="#010101"/>
<path d="M79.9388 31.4457C80.5744 31.4457 81.089 30.9372 81.089 30.3088C81.089 29.6803 80.5744 29.1743 79.9388 29.1743C79.3032 29.1743 78.7886 29.6827 78.7886 30.3088C78.7886 30.9349 79.3032 31.4457 79.9388 31.4457Z" fill="#010101" stroke="#010101" stroke-width="0.781551" stroke-miterlimit="10"/>
<path d="M87.0169 31.4457C87.6525 31.4457 88.1671 30.9372 88.1671 30.3088C88.1671 29.6803 87.6525 29.1743 87.0169 29.1743C86.3813 29.1743 85.8667 29.6827 85.8667 30.3088C85.8667 30.9349 86.3813 31.4457 87.0169 31.4457Z" fill="#010101" stroke="#010101" stroke-width="0.781551" stroke-miterlimit="10"/>
<path d="M74.8024 13.5218C76.3487 16.1651 73.6546 20.8961 70.1138 22.4308C69.6727 22.6191 67.7802 23.4429 66.0584 22.7415C65.7382 22.6097 64.7706 22.2166 64.6402 21.4469C64.5359 20.8208 65.0363 20.2536 65.1453 20.1312C65.4726 19.7616 65.8734 19.578 66.1746 19.4368C66.8766 19.112 67.3438 19.1261 67.3628 18.9425C67.3794 18.7825 67.0402 18.7354 66.6276 18.3447C66.4307 18.1587 66.139 17.8833 66.0774 17.5232C65.9801 16.9583 66.4616 16.2757 67.0568 16.0592C67.5359 15.885 67.766 16.1298 68.4513 15.9156C68.7691 15.8144 69.0703 15.7202 69.215 15.4684C69.4522 15.0659 69.0181 14.7105 68.9565 13.9785C68.9541 13.9337 68.8853 12.9452 69.5423 12.2649C70.2609 11.5188 71.4134 11.5847 71.6791 11.5988C73.019 11.6788 74.2475 12.5756 74.8024 13.5242V13.5218Z" fill="#010101" stroke="#010101" stroke-width="0.781551" stroke-miterlimit="10"/>
<path d="M93.3953 14.5504C91.8491 17.3961 94.5432 22.492 98.084 24.1443C98.5251 24.3491 100.418 25.2341 102.139 24.4809C102.46 24.3397 103.427 23.916 103.558 23.0852C103.662 22.4096 103.164 21.8 103.052 21.6682C102.725 21.2704 102.324 21.0727 102.023 20.9221C101.321 20.5737 100.854 20.5855 100.835 20.3901C100.818 20.2183 101.158 20.1665 101.57 19.7452C101.767 19.5451 102.059 19.2485 102.12 18.8602C102.218 18.2505 101.736 17.5185 101.141 17.2855C100.662 17.0972 100.432 17.3608 99.7464 17.1302C99.4287 17.0219 99.1275 16.9183 98.9828 16.65C98.7456 16.2145 99.1796 15.8332 99.2413 15.0447C99.2437 14.9953 99.3124 13.9338 98.6555 13.1994C97.9369 12.3968 96.7843 12.465 96.5211 12.4815C95.1811 12.5662 93.9527 13.5336 93.3977 14.5551L93.3953 14.5504Z" fill="#010101" stroke="#010101" stroke-width="0.781551" stroke-miterlimit="10"/>
<path d="M83.0596 14.3197L83.0999 23.4547" stroke="black" stroke-width="0.781551" stroke-miterlimit="10"/>
<path d="M75.5913 25.7378C75.7739 24.149 76.189 21.7717 78.2546 19.0673C79.5874 17.3255 81.857 15.852 82.8863 15.4307" stroke="black" stroke-width="0.781551" stroke-miterlimit="10"/>
<path d="M67.395 28.2634C71.4718 25.0976 77.9794 23.836 83.8254 24.2173C89.8136 24.608 94.9576 25.639 99.0438 26.7405" stroke="black" stroke-width="0.781551" stroke-miterlimit="10"/>
<path d="M83.3015 25.7802C84.5432 25.7802 85.5498 25.0309 85.5498 24.1067C85.5498 23.1824 84.5432 22.4331 83.3015 22.4331C82.0598 22.4331 81.0532 23.1824 81.0532 24.1067C81.0532 25.0309 82.0598 25.7802 83.3015 25.7802Z" fill="white" stroke="black" stroke-width="0.781551" stroke-miterlimit="10"/>
<path d="M83.1803 20.7102C84.1391 20.7102 84.9163 20.1317 84.9163 19.418C84.9163 18.7043 84.1391 18.1258 83.1803 18.1258C82.2216 18.1258 81.4443 18.7043 81.4443 19.418C81.4443 20.1317 82.2216 20.7102 83.1803 20.7102Z" fill="white" stroke="black" stroke-width="0.781551" stroke-miterlimit="10"/>
<path d="M78.3664 20.1688C79.3251 20.1688 80.1024 19.5903 80.1024 18.8766C80.1024 18.1629 79.3251 17.5844 78.3664 17.5844C77.4076 17.5844 76.6304 18.1629 76.6304 18.8766C76.6304 19.5903 77.4076 20.1688 78.3664 20.1688Z" fill="white" stroke="black" stroke-width="0.781551" stroke-miterlimit="10"/>
<path d="M76.3073 25.5989C77.549 25.5989 78.5556 24.8497 78.5556 23.9254C78.5556 23.0012 77.549 22.2519 76.3073 22.2519C75.0657 22.2519 74.0591 23.0012 74.0591 23.9254C74.0591 24.8497 75.0657 25.5989 76.3073 25.5989Z" fill="white" stroke="black" stroke-width="0.781551" stroke-miterlimit="10"/>
<path d="M91.5279 25.8579C91.3453 24.2691 90.9303 21.8918 88.8646 19.1873C87.5318 17.4455 85.2622 15.9721 84.2329 15.5508" stroke="black" stroke-width="0.781551" stroke-miterlimit="10"/>
<path d="M88.7541 20.2889C89.7128 20.2889 90.4901 19.7103 90.4901 18.9967C90.4901 18.283 89.7128 17.7045 88.7541 17.7045C87.7953 17.7045 87.0181 18.283 87.0181 18.9967C87.0181 19.7103 87.7953 20.2889 88.7541 20.2889Z" fill="white" stroke="black" stroke-width="0.781551" stroke-miterlimit="10"/>
<path d="M90.8122 25.719C92.0539 25.719 93.0605 24.9697 93.0605 24.0455C93.0605 23.1212 92.0539 22.3719 90.8122 22.3719C89.5706 22.3719 88.564 23.1212 88.564 24.0455C88.564 24.9697 89.5706 25.719 90.8122 25.719Z" fill="white" stroke="black" stroke-width="0.781551" stroke-miterlimit="10"/>
<path d="M83.2708 16.7229C84.0619 16.7229 84.7033 16.2455 84.7033 15.6567C84.7033 15.0678 84.0619 14.5904 83.2708 14.5904C82.4797 14.5904 81.8384 15.0678 81.8384 15.6567C81.8384 16.2455 82.4797 16.7229 83.2708 16.7229Z" fill="white" stroke="black" stroke-width="0.781551" stroke-miterlimit="10"/>
<g clip-path="url(#clip0_2201_4846)">
<g clip-path="url(#clip1_2201_4846)">
<path d="M34.0167 49.2025H32.2852V61.3947H34.0167V49.2025Z" fill="#F2F2F2" stroke="black" stroke-width="0.399149" stroke-miterlimit="10"/>
<path d="M42.6744 49.2025H40.9429V61.3947H42.6744V49.2025Z" fill="#F2F2F2" stroke="black" stroke-width="0.399149" stroke-miterlimit="10"/>
<path d="M27.7727 25.3519C27.5138 30.1183 20.8082 34.997 19.2821 40.0256C18.9584 40.9995 18.9029 41.9453 18.8659 42.9847C18.8197 43.6402 18.7919 44.4736 18.3572 45.0916C17.8855 45.691 16.9606 46.0842 16.2577 45.6067C15.9062 45.3632 15.712 44.9231 15.6288 44.5672L15.7213 44.7358C15.6288 44.6422 15.5733 44.5017 15.5363 44.38C15.3328 43.2656 15.601 42.1232 15.8137 41.0369C16.8589 36.5609 19.0139 32.4031 21.6221 28.6387C22.7598 26.9906 23.9991 25.4081 25.3032 23.8911C25.7102 23.4229 26.1171 22.8985 26.8201 22.8798C27.8375 22.9921 27.7635 24.5934 27.7727 25.3425V25.3519ZM27.2825 25.3238C27.3843 23.7319 27.1345 22.3085 25.5622 24.1158L24.9795 24.7432C22.3251 27.7117 20.133 31.0922 18.496 34.7161C17.5803 36.7762 16.8496 38.9394 16.4334 41.1587C16.2669 42.1045 16.119 43.069 16.2114 44.0148C16.2299 44.0897 16.2392 44.1646 16.2669 44.2208C16.2669 44.2208 16.2669 44.202 16.2484 44.1927L16.3409 44.3612C16.4057 44.5766 16.4982 44.7639 16.6092 44.8763C16.9884 45.2508 17.682 44.7639 17.8115 44.3331C18.0982 43.4248 17.9318 42.3386 18.0705 41.346C18.1167 40.7935 18.2555 40.2691 18.4035 39.7447C19.1989 37.1883 20.9007 35.0532 22.5748 33.0306C24.3876 30.7363 26.9496 28.3297 27.2825 25.3238Z" fill="black"/>
<path d="M48.4646 26.6372C48.7236 31.4035 55.4291 36.2823 56.9552 41.3109C57.2789 42.2847 57.3344 43.2305 57.3714 44.27C57.4176 44.9254 57.4454 45.7589 57.8801 46.3769C58.3518 46.9762 59.2767 47.3695 59.9796 46.8919C60.3311 46.6485 60.5253 46.2083 60.6085 45.8525L60.5161 46.0211C60.6085 45.9274 60.664 45.787 60.701 45.6652C60.9045 44.5509 60.6363 43.4084 60.4236 42.3222C59.3784 37.8461 57.2234 33.6884 54.6152 29.924C53.4776 28.2759 52.2382 26.6933 50.9341 25.1763C50.5271 24.7081 50.1202 24.1837 49.4172 24.165C48.3998 24.2774 48.4738 25.8787 48.4646 26.6278V26.6372ZM48.9548 26.6091C48.853 25.0171 49.1028 23.5938 50.6751 25.4011L51.2578 26.0285C53.9123 28.9969 56.1043 32.3774 57.7413 36.0014C58.657 38.0615 59.3877 40.2246 59.8039 42.4439C59.9704 43.3897 60.1183 44.3542 60.0259 45.3C60.0074 45.3749 59.9981 45.4498 59.9704 45.506C59.9704 45.506 59.9704 45.4873 59.9889 45.4779L59.8964 45.6465C59.8316 45.8619 59.7391 46.0492 59.6281 46.1615C59.2489 46.5361 58.5553 46.0492 58.4258 45.6184C58.1391 44.7101 58.3055 43.6238 58.1668 42.6312C58.1206 42.0787 57.9818 41.5543 57.8338 41.0299C57.0384 38.4735 55.3366 36.3385 53.6625 34.3158C51.8497 32.0216 49.2877 29.615 48.9548 26.6091Z" fill="black"/>
<path d="M55.2695 44.5579C55.2695 44.5579 56.7216 49.6146 51.9398 49.6146H22.6482C22.6482 49.6146 19.0411 49.9611 19.6145 45.6067C20.188 41.243 21.7603 29.3973 21.7603 29.3973C21.7603 29.3973 24.831 16.6807 37.5114 16.6807C50.1918 16.6807 53.2439 29.3879 53.2439 29.3879L55.2602 44.5673L55.2695 44.5579Z" fill="white"/>
<path d="M55.6306 44.483C56.3428 47.8916 54.9646 50.1483 51.228 49.7925C50.5529 49.7738 47.214 49.7738 46.4371 49.7644C44.1618 49.7644 43.8566 49.7644 42.7652 49.7925C41.2391 49.9142 33.3867 49.7738 31.8051 49.8112L22.6578 49.9329H22.6856C22.3989 49.9517 22.1676 49.9329 21.9087 49.9049C20.1976 49.7176 19.171 48.2849 19.171 46.6368C19.1432 46.1685 19.1987 45.6535 19.2542 45.1853C19.3097 44.7639 19.4392 43.5559 19.5039 43.1158C19.7166 41.3553 20.9005 31.2888 21.141 29.3036C23.0185 22.2149 28.4755 16.3904 36.0874 15.8004C42.6265 15.2948 48.4071 18.413 51.6628 24.0503C52.6154 25.6797 53.3738 27.3933 53.8455 29.2287C53.9103 29.2662 55.5936 44.4268 55.6398 44.4736L55.6306 44.483ZM54.9092 44.6328C54.8814 44.6796 52.6431 29.2287 52.6616 29.519C51.6628 26.2134 49.7297 23.0577 47.066 20.8384C43.0889 17.4579 37.3083 16.8586 32.4155 18.3756C29.0951 19.4712 26.3944 21.8684 24.5539 24.7994C23.6567 26.1572 22.7781 28.1705 22.3896 29.4722C21.9457 32.4781 20.5861 41.7486 20.1698 44.6141C20.0866 45.2415 19.9386 45.9906 19.9571 46.618C19.9201 47.9196 20.6415 49.0621 21.9919 49.24C22.1954 49.2775 22.4266 49.2868 22.6023 49.2775C22.6023 49.2962 31.7681 49.3898 31.7774 49.3992C33.9694 49.4366 37.632 49.446 39.7778 49.6052C41.6738 49.6052 43.6069 49.5958 45.4937 49.5584C46.2798 49.5303 50.4974 49.4554 51.2095 49.4273C52.2824 49.4179 53.4571 49.3711 54.2802 48.6126C55.3254 47.6106 55.2421 45.9251 54.8907 44.6234L54.9092 44.6328Z" fill="black"/>
<path d="M34.0065 31.9069C34.4967 31.9069 34.9037 31.5042 34.9037 31.0173C34.9037 30.5303 34.506 30.1277 34.0065 30.1277C33.5071 30.1277 33.1094 30.5303 33.1094 31.0173C33.1094 31.5042 33.5071 31.9069 34.0065 31.9069Z" fill="black" stroke="black" stroke-width="0.167643" stroke-miterlimit="10"/>
<path d="M40.2585 31.9069C40.7487 31.9069 41.1556 31.5042 41.1556 31.0173C41.1556 30.5303 40.7579 30.1277 40.2585 30.1277C39.759 30.1277 39.3613 30.5303 39.3613 31.0173C39.3613 31.5042 39.759 31.9069 40.2585 31.9069Z" fill="black" stroke="black" stroke-width="0.167643" stroke-miterlimit="10"/>
<path d="M34.0167 51.8152H32.2852V53.5569H34.0167V51.8152Z" fill="black"/>
<path d="M34.0167 57.0404H32.2852V58.7821H34.0167V57.0404Z" fill="black"/>
<path d="M42.6744 51.8152H40.9429V53.5569H42.6744V51.8152Z" fill="black"/>
<path d="M42.6744 57.0404H40.9429V58.7821H42.6744V57.0404Z" fill="black"/>
<path d="M43.6068 64.3819L41.2021 63.5578C40.4991 63.3144 40.1199 62.5559 40.3604 61.8536C40.6009 61.1512 41.3685 60.7767 42.0715 61.0201L44.4762 61.8442C45.1791 62.0877 45.5584 62.8462 45.3179 63.5485C45.0774 64.2508 44.3097 64.6254 43.6068 64.3819Z" fill="black"/>
<path d="M31.6203 64.2602L34.025 63.4361C34.7279 63.1927 35.1071 62.4342 34.8574 61.7319C34.617 61.0295 33.8493 60.655 33.1464 60.8984L30.7416 61.7225C30.0387 61.966 29.6595 62.7245 29.9 63.4268C30.1404 64.1291 30.9081 64.5037 31.611 64.2602H31.6203Z" fill="black"/>
<path d="M42.6538 18.5067C40.9242 15.4633 35.4488 15.6412 32.5261 18.4411C32.1654 18.7876 30.5931 20.2859 30.4913 22.4396C30.4728 22.8423 30.4081 24.0503 31.0555 24.6028C31.5827 25.0523 32.3134 24.8462 32.4706 24.8088C32.9516 24.6777 33.2938 24.3687 33.5435 24.1346C34.1447 23.5914 34.3297 23.1045 34.5054 23.1888C34.6534 23.2543 34.5517 23.6383 34.7274 24.275C34.8106 24.584 34.9401 25.0335 35.2361 25.2957C35.7078 25.7078 36.531 25.586 36.9934 25.0897C37.3541 24.6964 37.2339 24.3219 37.7241 23.7319C37.9553 23.4603 38.168 23.1981 38.4548 23.1888C38.9264 23.1701 39.0559 23.8068 39.7034 24.275C39.7404 24.3031 40.6098 24.9118 41.5162 24.6121C42.5058 24.2844 42.9405 23.067 43.0423 22.7861C43.5602 21.3628 43.2735 19.6023 42.6538 18.516V18.5067Z" fill="black" stroke="black" stroke-width="0.183609" stroke-miterlimit="10"/>
<path d="M17.8851 47.0113C17.4411 45.7565 16.1 46.0374 15.4526 47.0113C14.9624 47.7136 14.7127 48.6969 14.9161 49.5303C15.1474 50.1015 15.5636 49.3055 15.6838 49.0527C15.7578 48.9029 15.9428 48.9029 15.989 49.0714C16.0168 49.3336 16.0168 49.5209 16.0815 49.7644C16.1093 49.9049 16.1832 50.0172 16.248 50.0172C16.507 49.9985 16.4885 49.6427 16.5717 49.3992C16.6549 49.1464 16.8862 48.6969 17.2006 48.9965C17.3579 49.1932 17.4041 49.4647 17.6446 49.549C17.7278 49.5677 17.7556 49.549 17.8296 49.4741C18.2273 48.7905 18.144 47.7417 17.8851 47.0113ZM18.4678 46.8053C18.7267 47.6294 18.7822 49.5303 17.8573 49.9423C17.4134 50.0547 17.1081 49.6333 16.9787 49.2868C16.9602 49.2587 16.9509 49.2306 16.9417 49.2213C16.9232 49.2119 16.9787 49.2494 17.0157 49.2306C17.0434 49.2213 17.0249 49.2213 17.0157 49.24C16.9602 49.3149 16.9047 49.4273 16.8677 49.5022C16.7752 49.7925 16.6827 50.3356 16.211 50.2794C15.804 50.1671 15.8225 49.6801 15.767 49.343C15.767 49.2681 15.767 49.1744 15.7485 49.137C15.7485 49.137 15.7485 49.137 15.7578 49.1557C15.7578 49.1744 15.841 49.2119 15.8873 49.1838C15.9335 49.1557 15.9058 49.1651 15.9058 49.1838C15.8225 49.3617 15.73 49.5396 15.6098 49.6988C15.3601 50.0734 14.8329 50.1296 14.6664 49.6333C14.3334 48.3598 14.7404 46.8709 15.7763 46.0281C16.7382 45.2602 18.1255 45.6254 18.477 46.824L18.4678 46.8053Z" fill="black"/>
<path d="M73.5363 58.5855C75.3861 58.0611 76.1908 56.5909 75.9688 54.2217C75.7561 51.9369 74.7479 51.0192 72.0935 50.7757C73.1016 49.5116 73.2588 48.0788 73.0924 46.5806C72.8796 44.5766 71.705 43.5091 69.6887 43.4904C67.7834 43.481 65.8689 43.4904 64.1578 43.4904C64.648 41.1774 65.2029 38.9206 65.5729 36.6358C65.8041 35.2124 65.7856 33.7422 65.8596 32.2908C65.9059 31.4948 65.5082 31.139 64.7035 31.2045C64.278 31.242 63.8248 31.3075 63.4179 31.2045C62.9184 31.0828 62.4375 30.6052 61.9843 30.6427C61.5588 30.6801 61.2906 31.3169 60.6339 31.2607C59.4686 31.1577 58.2847 31.2233 57.1101 31.1671C56.2869 31.1296 55.9169 31.4574 56.0187 32.2627C56.1112 32.9931 55.9354 33.3396 55.103 33.5081C53.2255 33.8827 52.467 34.9034 52.5225 36.6545C52.578 38.3775 53.7157 39.8102 55.4267 39.932C56.6753 40.0163 57.2303 40.4938 57.4523 41.655C57.5633 42.2449 57.9147 42.7974 58.2107 43.481C56.1759 43.481 54.2429 43.481 52.3006 43.481C51.9861 43.481 51.6254 43.4435 51.3757 43.584C51.0889 43.7432 50.7282 44.099 50.7375 44.3519C50.7467 44.6047 51.1629 45.0448 51.4219 45.0542C52.1711 45.0823 52.3376 45.513 52.3746 46.0936C52.4208 46.8802 52.4578 47.6762 52.4393 48.4721C52.4208 49.1276 52.2728 49.6988 51.3849 49.7082C51.1999 49.7082 50.867 50.1296 50.867 50.345C50.867 50.5791 51.1537 50.9162 51.3942 51.0098C51.7549 51.1503 52.1803 51.1128 52.652 51.1596C52.6243 52.0118 53.022 52.5081 53.9469 52.4987C54.0486 52.4987 54.2429 52.7235 54.2429 52.8546C54.2706 54.0626 54.2891 55.2799 54.2521 56.4879C54.2521 56.6471 53.9376 56.9093 53.7527 56.928C53.0312 57.0029 52.7445 57.3775 52.615 57.9393C52.3376 58.3045 51.7641 58.8008 51.8566 59.0162C52.0323 59.4376 52.578 59.7092 52.9757 60.0463C53.0682 59.9901 53.17 59.9433 53.2625 59.8871C53.2625 60.8422 53.2902 61.8067 53.2347 62.7619C53.2255 62.9492 52.8555 63.1271 52.652 63.305C52.3931 63.5298 52.1341 63.7545 51.8751 63.9699C52.1433 64.2227 52.3931 64.5224 52.6983 64.7097C52.8925 64.822 53.1977 64.7658 53.4567 64.7658C59.4963 64.8033 65.5452 64.8314 71.5848 64.8595C73.4438 64.8688 74.2207 64.4006 74.7757 63.0054C75.3584 61.5071 75.0069 59.9339 73.8415 58.8664C73.7583 58.7915 73.675 58.7166 73.5178 58.5761L73.5363 58.5855ZM59.3298 31.6072V31.6727C60.1067 31.6727 60.8837 31.6259 61.6513 31.7008C61.8918 31.7196 62.2988 32.0754 62.2895 32.244C62.16 33.6673 62.9647 35.2499 61.5958 36.4672C61.5218 36.5328 61.5033 36.6732 61.4571 36.7762C60.8097 38.4992 61.3739 39.2109 63.1682 38.9019C63.3716 38.8645 63.6954 38.6023 63.6861 38.4805C63.5936 37.7314 63.6306 36.8324 63.2144 36.2893C62.7797 35.7181 62.6872 35.2405 62.7335 34.6131C62.7612 34.2479 62.752 33.8733 62.7612 33.4988C62.7705 31.5697 62.7705 31.5978 64.685 31.5978C65.2492 31.5978 65.4619 31.8038 65.4342 32.347C65.3602 33.658 65.4342 34.9877 65.2122 36.2706C64.833 38.4431 64.2688 40.5875 63.7693 42.7412C63.6306 43.3312 63.2422 43.5185 62.6225 43.4904C61.5681 43.4342 60.5044 43.4435 59.4408 43.4904C58.8304 43.5185 58.5159 43.3031 58.2754 42.76C56.7586 39.3701 56.5181 35.7743 56.4349 32.1503C56.4256 31.6821 56.6846 31.5885 57.0916 31.5978C57.8407 31.6166 58.5806 31.5978 59.3206 31.5978L59.3298 31.6072ZM54.7331 52.5456C54.7331 52.5456 54.807 52.4987 54.881 52.4987C60.7727 52.4987 66.6643 52.4987 72.5559 52.5456C73.86 52.5549 74.452 53.4445 74.4057 55.0739C74.3595 56.4692 73.7398 57.1527 72.4727 57.1434C67.6077 57.1059 62.752 57.0497 57.887 57.0029C56.8048 56.9935 55.7319 57.0029 54.7331 57.0029V52.5456ZM52.7538 45.1385C53.7342 45.1385 54.7608 45.1385 55.7874 45.1385C60.3935 45.1572 64.9995 45.1666 69.5962 45.204C70.0032 45.204 70.4749 45.2977 70.8078 45.513C71.5385 45.9906 71.8067 47.517 71.4368 48.5939C71.1223 49.5116 70.6414 49.8112 69.439 49.8018C64.0376 49.7457 58.6269 49.6895 53.2255 49.6333C53.0405 49.6333 52.8555 49.5771 52.7445 49.5584C52.7445 48.0882 52.7445 46.6836 52.7445 45.1385H52.7538ZM53.6879 59.9433C53.7989 59.8965 53.8452 59.859 53.9006 59.859C59.8755 59.859 65.8504 59.8496 71.8252 59.859C72.5189 59.859 73.0184 60.2148 73.3143 60.8422C73.9433 62.1813 73.1294 63.5017 71.631 63.4923C65.8596 63.4548 60.079 63.3893 54.3076 63.3237C54.1134 63.3237 53.9191 63.2769 53.6879 63.2488V59.9526V59.9433ZM53.17 57.8831C53.1885 57.752 53.1977 57.6116 53.2162 57.4805C53.5862 57.443 53.9654 57.3681 54.3353 57.3681C60.3472 57.4337 66.3498 57.5179 72.3617 57.5648C72.8796 57.5648 73.4716 57.4524 73.897 57.1902C74.8127 56.6096 75.0901 55.0364 74.6369 53.6599C74.2762 52.5362 73.712 52.1242 72.3709 52.1242C66.3591 52.1242 60.3472 52.1523 54.3446 52.1335C53.9191 52.1335 53.1237 51.8245 53.133 51.7309C53.207 51.0379 53.8359 51.2346 54.2799 51.2346C60.264 51.2346 66.2388 51.2533 72.2229 51.272C74.3595 51.272 75.4046 52.2084 75.5249 54.3248C75.5618 55.0271 75.4879 55.7575 75.3214 56.4411C75.0347 57.6209 74.3317 58.1453 73.1016 58.1734C72.2692 58.2015 71.446 58.1734 70.6136 58.1734C65.1752 58.1734 59.7368 58.1734 54.2984 58.1641C53.9191 58.1641 53.5399 57.9862 53.1607 57.8925L53.17 57.8831ZM61.4386 50.8319C58.4327 50.8319 55.4267 50.8506 52.4208 50.8132C52.0231 50.8132 51.6346 50.5416 51.2462 50.4011C51.6254 50.2607 52.0138 50.0079 52.3931 50.0079C58.1182 50.064 63.8433 50.1577 69.5685 50.2232C71.1778 50.242 72.0287 49.3243 72.038 47.62C72.038 45.7659 71.2241 44.7733 69.6147 44.7733C64.463 44.7639 59.3021 44.7733 54.1504 44.7733C53.4012 44.7733 52.6613 44.8107 51.9214 44.7545C51.6439 44.7358 51.3757 44.4736 51.1074 44.3238C51.3849 44.174 51.6531 43.9024 51.9306 43.9024C57.9702 43.893 64.0191 43.9024 70.0587 43.9399C71.2426 43.9399 72.1305 44.6515 72.4819 45.7752C72.8611 47.0019 72.8241 48.2567 72.3987 49.4741C72.0565 50.4667 71.4645 50.8319 70.3824 50.8319C67.4042 50.8319 64.426 50.8319 61.4478 50.8319H61.4386ZM52.1341 59.2035C52.1341 59.0537 52.1341 58.9038 52.1341 58.754C52.6243 58.6791 53.1145 58.5293 53.6047 58.5293C59.4408 58.5293 65.2862 58.5574 71.1223 58.5761C71.409 58.5761 71.6958 58.5761 71.9825 58.5948C73.6196 58.7072 74.6739 59.9339 74.6184 61.6756C74.563 63.4736 73.6196 64.4287 71.8715 64.4381C70.4379 64.4381 69.0135 64.4475 67.5799 64.4381C62.8537 64.4194 58.1367 64.4006 53.4104 64.3632C53.0312 64.3632 52.652 64.2321 52.2821 64.1665C52.2821 64.0354 52.2913 63.9137 52.3006 63.7826C52.726 63.7451 53.1515 63.6609 53.5769 63.6702C59.6165 63.7358 65.6561 63.8201 71.6865 63.8762C73.0184 63.8856 73.8785 63.0709 73.934 61.8161C73.9895 60.4583 73.1663 59.5125 71.816 59.4189C71.5015 59.4001 71.1871 59.4001 70.8726 59.4001C65.0365 59.4001 59.1911 59.4095 53.355 59.4001C52.948 59.4001 52.541 59.2597 52.1341 59.1848V59.2035ZM56.8141 39.7072C55.4545 39.726 54.2984 39.4357 53.5214 38.3494C52.8278 37.3849 52.6613 36.2612 53.1977 35.1937C53.7434 34.1074 54.8255 33.8078 55.9539 33.6954C56.2591 34.3509 56.1019 34.6225 55.4452 34.7817C54.3446 35.0439 53.7712 35.7836 53.8267 36.692C53.8914 37.7033 54.6868 38.4992 55.7782 38.6303C56.0557 38.6678 56.3331 38.6959 56.6106 38.724C56.6754 39.0517 56.7308 39.3233 56.8048 39.6979L56.8141 39.7072ZM56.1112 35.0532C56.2406 36.1582 56.3701 37.2164 56.4996 38.2745C55.1863 38.2745 54.3076 37.6096 54.2521 36.6545C54.1966 35.8024 54.844 35.2218 56.1112 35.0532ZM61.6513 38.5086C61.5126 37.4036 61.9195 36.2987 62.4652 36.2706C62.9739 36.2425 63.3716 37.1602 63.3439 38.2745C63.3439 38.3494 63.2792 38.4243 63.2329 38.5086H61.6513Z" fill="black"/>
<path d="M59.3303 31.6072C58.5811 31.6072 57.8412 31.6259 57.1013 31.6072C56.6943 31.5978 56.4353 31.6915 56.4446 32.1597C56.5278 35.7836 56.7683 39.3889 58.2851 42.7693C58.5349 43.3218 58.8493 43.5278 59.4505 43.4997C60.5049 43.4529 61.5685 43.4529 62.6322 43.4997C63.2426 43.5278 63.6403 43.3405 63.779 42.7506C64.2785 40.5968 64.8334 38.4524 65.2219 36.2799C65.4439 34.997 65.3699 33.6673 65.4439 32.3563C65.4716 31.8132 65.2589 31.6072 64.6947 31.6072C62.7802 31.6072 62.7802 31.5791 62.7709 33.5081C62.7709 33.8827 62.7709 34.2479 62.7432 34.6225C62.6877 35.2499 62.7894 35.7274 63.2241 36.2987C63.6403 36.8418 63.6033 37.7408 63.6958 38.4899C63.7143 38.6116 63.3813 38.8832 63.1779 38.9113C61.3743 39.2203 60.8194 38.518 61.4668 36.7856C61.5038 36.6826 61.5223 36.5421 61.6055 36.4766C62.9744 35.2592 62.1697 33.6673 62.2992 32.2533C62.3177 32.0848 61.9015 31.7289 61.661 31.7102C60.8934 31.6447 60.1164 31.6821 59.3395 31.6821V31.6072H59.3303Z" fill="white"/>
<path d="M54.7332 52.5456V57.0029C55.7321 57.0029 56.8142 57.0029 57.8871 57.0029C62.7521 57.0498 67.6078 57.1059 72.4728 57.1434C73.7399 57.1528 74.3596 56.4692 74.4059 55.0739C74.4521 53.4445 73.8602 52.5549 72.5561 52.5456C66.6644 52.5081 60.7728 52.5081 54.8812 52.4987C54.7979 52.4987 54.724 52.5456 54.7332 52.5456ZM62.0492 56.2819C62.0492 56.2257 62.0492 56.1602 62.0492 56.104H70.8635C70.8635 56.1602 70.8635 56.2257 70.8635 56.2819H62.0492ZM64.3059 54.9896C64.3059 55.0458 64.3059 55.102 64.3059 55.1582H56.842V54.9896H64.3059ZM61.6052 53.7348C61.6052 53.8004 61.6145 53.8566 61.6237 53.9221H56.2778V53.7348H61.6145H61.6052ZM72.5468 54.999V55.1675H66.0263V54.999H72.5468ZM67.3859 53.9408C67.3859 53.8847 67.3859 53.8378 67.3859 53.7816H72.5098V53.9408H67.3859ZM62.6319 53.9596C62.6319 53.9034 62.6411 53.8378 62.6504 53.7816H65.9893V53.9596H62.6411H62.6319Z" fill="white"/>
<path d="M52.7544 45.1385V49.5584C52.8561 49.5771 53.0411 49.6239 53.2353 49.6333C58.6368 49.6989 64.0474 49.755 69.4489 49.8019C70.642 49.8112 71.1322 49.5116 71.4467 48.5939C71.8166 47.517 71.5484 45.9906 70.8177 45.5131C70.4848 45.2977 70.0223 45.2134 69.6061 45.204C65.0001 45.1666 60.3941 45.1572 55.7973 45.1385C54.7707 45.1385 53.744 45.1385 52.7636 45.1385H52.7544ZM65.4903 46.309C65.4903 46.3746 65.4903 46.4307 65.4903 46.4963H55.4181C55.4181 46.4307 55.4181 46.3746 55.4181 46.309H65.4995H65.4903ZM61.7167 48.6407C61.7167 48.5752 61.7074 48.519 61.7074 48.4534H70.0131V48.6407H61.7167ZM58.868 48.4441C58.868 48.5002 58.868 48.5564 58.868 48.6126H53.744C53.744 48.5564 53.744 48.5002 53.744 48.4441H58.868ZM61.9572 47.311V47.4514H53.7255V47.311H61.9572ZM64.2139 47.4702C64.2139 47.414 64.2232 47.3672 64.2324 47.311H69.5044C69.5044 47.3672 69.5044 47.414 69.5044 47.4702H64.2139Z" fill="white"/>
<path d="M53.688 59.9433V63.2395C53.9192 63.2675 54.1134 63.3144 54.3077 63.3144C60.0791 63.3706 65.8597 63.4361 71.6311 63.4829C73.1294 63.4923 73.9433 62.1719 73.3144 60.8329C73.0184 60.2055 72.519 59.8496 71.8253 59.8496C65.8504 59.8496 59.8756 59.8496 53.9007 59.8496C53.8452 59.8496 53.799 59.8871 53.688 59.9433ZM55.3528 62.3311V62.1719H60.7542V62.3311H55.3528ZM62.6688 61.1419C62.678 61.095 62.6873 61.0482 62.6965 61.0014H69.8183C69.8183 61.0482 69.8183 61.095 69.8183 61.1419H62.6688ZM71.7421 62.1719C71.7421 62.2281 71.7236 62.2749 71.7236 62.3218H66.4331C66.4331 62.2656 66.4331 62.2188 66.4331 62.1719H71.7421ZM60.2085 60.9733V61.1231H56.2037V60.9733H60.2085Z" fill="white"/>
<path d="M53.1704 57.8832C53.5496 57.9768 53.9288 58.1547 54.308 58.1641C59.7465 58.1828 65.1849 58.1734 70.6233 58.1734C71.4557 58.1734 72.2789 58.2015 73.1113 58.1734C74.3414 58.136 75.0443 57.621 75.3311 56.4411C75.4975 55.7575 75.5715 55.0271 75.5345 54.3248C75.4143 52.2084 74.3784 51.272 72.2326 51.272C66.2485 51.2533 60.2736 51.2346 54.2895 51.2346C53.8456 51.2346 53.2259 51.0473 53.1427 51.7309C53.1334 51.8245 53.9288 52.1335 54.3543 52.1335C60.3661 52.1523 66.378 52.1242 72.3806 52.1242C73.7217 52.1242 74.2767 52.5456 74.6466 53.6599C75.0906 55.0364 74.8224 56.6096 73.9067 57.1902C73.4812 57.4618 72.8893 57.5741 72.3714 57.5648C66.3595 57.518 60.3569 57.4337 54.345 57.3681C53.9751 57.3681 53.5959 57.443 53.2259 57.4805C53.2074 57.6116 53.1981 57.7521 53.1797 57.8832H53.1704Z" fill="white"/>
<path d="M61.439 50.8319H70.3736C71.465 50.8319 72.0569 50.4574 72.3899 49.4741C72.8061 48.2568 72.8431 47.0113 72.4731 45.7753C72.1309 44.6515 71.243 43.9399 70.0499 43.9399C64.0103 43.9024 57.9614 43.893 51.9218 43.9024C51.6443 43.9024 51.3761 44.1833 51.0986 44.3238C51.3669 44.4736 51.6258 44.7358 51.9125 44.7546C52.6525 44.8201 53.4016 44.7733 54.1416 44.7733C59.2933 44.7733 64.4542 44.7639 69.6059 44.7733C71.2152 44.7733 72.0384 45.7659 72.0292 47.62C72.0292 49.3149 71.1783 50.242 69.5597 50.2232C63.8345 50.1577 58.1094 50.0641 52.3842 50.0079C52.005 50.0079 51.6166 50.2607 51.2374 50.4012C51.6258 50.551 52.0235 50.8132 52.412 50.8132C55.4179 50.8507 58.4239 50.8319 61.4298 50.8319H61.439Z" fill="white"/>
<path d="M52.1343 59.2035C52.5412 59.2784 52.9482 59.4189 53.3551 59.4189C59.1913 59.4283 65.0367 59.4189 70.8728 59.4189C71.1873 59.4189 71.5017 59.4189 71.8162 59.4376C73.1665 59.5313 73.999 60.477 73.9342 61.8349C73.8787 63.0897 73.0186 63.9043 71.6867 63.895C65.6471 63.8388 59.6075 63.7545 53.5771 63.689C53.1517 63.689 52.7262 63.7639 52.3008 63.8013C52.3008 63.9324 52.2915 64.0542 52.2823 64.1853C52.6615 64.2508 53.0407 64.3819 53.4106 64.3819C58.1369 64.4194 62.8539 64.4381 67.5801 64.4568C69.0137 64.4568 70.4381 64.4568 71.8717 64.4568C73.6105 64.4568 74.5631 63.4923 74.6186 61.6944C74.6649 59.9527 73.6197 58.7259 71.9827 58.6136C71.6959 58.5948 71.4092 58.5948 71.1225 58.5948C65.2864 58.5761 59.441 58.548 53.6049 58.548C53.1147 58.548 52.6245 58.6978 52.1343 58.7728C52.1343 58.9226 52.1343 59.0631 52.1343 59.2129V59.2035Z" fill="white"/>
<path d="M56.8143 39.7072C56.7404 39.3327 56.6849 39.0611 56.6201 38.7334C56.3426 38.7053 56.0652 38.6678 55.7877 38.6397C54.6963 38.4993 53.9009 37.7127 53.8362 36.7013C53.7807 35.793 54.3541 35.0439 55.4547 34.791C56.1114 34.6318 56.2687 34.3603 55.9634 33.7048C54.8351 33.8172 53.7529 34.1168 53.2072 35.2031C52.6708 36.2706 52.8373 37.3943 53.5309 38.3588C54.3079 39.445 55.4732 39.7353 56.8236 39.7166L56.8143 39.7072Z" fill="white"/>
<path d="M56.1206 35.0532C54.8535 35.2218 54.2061 35.8024 54.2616 36.6545C54.3171 37.619 55.205 38.2839 56.5091 38.2745C56.3796 37.207 56.2501 36.1488 56.1206 35.0439V35.0532Z" fill="white"/>
<path d="M61.6612 38.5086H63.2428C63.289 38.415 63.3445 38.3494 63.3538 38.2745C63.3908 37.1602 62.9838 36.2518 62.4751 36.2706C61.9387 36.2987 61.5225 37.4036 61.6612 38.5086Z" fill="white"/>
<path d="M62.0493 56.2819H70.8636C70.8636 56.2257 70.8636 56.1601 70.8636 56.1039H62.0493C62.0493 56.1601 62.0493 56.2163 62.0493 56.2819Z" fill="black"/>
<path d="M64.2965 54.9896H56.8325V55.1582H64.2965C64.2965 55.102 64.2965 55.0458 64.2965 54.9896Z" fill="black"/>
<path d="M61.6057 53.7348H56.269V53.9221H61.615C61.615 53.8566 61.6057 53.8004 61.6057 53.7348Z" fill="black"/>
<path d="M72.5469 54.999H66.0264V55.1675H72.5469V54.999Z" fill="black"/>
<path d="M67.3862 53.9408H72.5102V53.7816H67.3862V53.9408Z" fill="black"/>
<path d="M62.6313 53.9596H65.9795V53.7816H62.6406C62.6406 53.8378 62.6406 53.9034 62.6313 53.9596Z" fill="black"/>
<path d="M65.4896 46.2996H55.4082C55.4082 46.3652 55.4082 46.4214 55.4082 46.4869H65.4804C65.4804 46.4214 65.4804 46.3652 65.4804 46.2996H65.4896Z" fill="black"/>
<path d="M61.7163 48.6407H70.0126V48.4534H61.707C61.707 48.519 61.707 48.5752 61.7163 48.6407Z" fill="black"/>
<path d="M58.8676 48.444H53.7437C53.7437 48.5002 53.7437 48.5564 53.7437 48.6126H58.8676C58.8676 48.5564 58.8676 48.5002 58.8676 48.444Z" fill="black"/>
<path d="M61.9562 47.311H53.7246V47.4514H61.9562C61.9562 47.4046 61.9562 47.3578 61.9562 47.311Z" fill="black"/>
<path d="M64.2227 47.4702H69.5131C69.5131 47.414 69.5131 47.3672 69.5131 47.311H64.2412C64.2412 47.3672 64.2227 47.414 64.2227 47.4702Z" fill="black"/>
<path d="M55.353 62.3311H60.7545V62.172H55.353V62.3311Z" fill="black"/>
<path d="M62.6596 61.1419H69.8091C69.8091 61.0951 69.8091 61.0483 69.8091 61.0015H62.6874C62.6781 61.0483 62.6689 61.0951 62.6504 61.1419H62.6596Z" fill="black"/>
<path d="M71.7328 62.172H66.4238C66.4238 62.2281 66.4238 62.275 66.4238 62.3218H71.7143C71.7143 62.275 71.7235 62.2188 71.7328 62.172Z" fill="black"/>
<path d="M60.1992 60.9733H56.1943V61.1232H60.1992V60.9733Z" fill="black"/>
<path d="M51.7549 41.861C54.4926 40.6718 57.3505 40.8216 60.1992 40.9246C63.7786 41.0463 67.3487 41.1587 70.9281 41.3179C71.3258 41.3366 72.0102 41.5801 72.038 41.7955C72.1305 42.4041 71.9825 43.069 71.853 43.687C71.8253 43.7994 71.409 43.9024 71.1778 43.893C66.655 43.7619 62.1323 43.5747 57.6188 43.4997C55.8984 43.4717 54.3816 42.9192 52.8648 42.2262C52.5133 42.067 52.1248 41.9827 51.7549 41.861ZM68.0886 41.5614C64.2318 41.4209 60.4027 41.2804 56.2592 41.1306C56.6846 41.7299 56.9621 42.1232 57.369 42.6944C57.258 42.7506 57.0176 42.863 56.7678 42.9754C56.8048 43.0222 56.8418 43.069 56.8788 43.1158C60.5969 43.2469 64.315 43.3686 68.0886 43.4997C68.0886 42.7974 68.0886 42.2356 68.0886 41.5707V41.5614ZM53.2255 41.758C53.207 41.8329 53.1977 41.9172 53.1792 42.0015C54.3076 42.1888 55.2233 43.4248 56.5459 42.6476C56.3609 42.3292 56.0834 42.067 56.0927 41.8142C56.1204 41.2055 55.7505 41.1587 55.362 41.2336C54.6406 41.3647 53.9376 41.5707 53.2347 41.7486L53.2255 41.758ZM70.1419 43.6121C70.6969 43.4997 71.3351 43.5559 71.6218 43.2563C71.8715 43.0034 71.8992 42.1607 71.668 41.9359C71.372 41.6456 70.7246 41.7112 70.1419 41.6082V43.6121ZM68.4771 43.4155H69.6795V41.6831H68.5603C68.5326 42.2543 68.5141 42.76 68.4771 43.4155Z" fill="black"/>
<path d="M68.0883 41.5614V43.4904C64.3147 43.3593 60.5966 43.2376 56.8785 43.1065C56.8415 43.0596 56.8045 43.0128 56.7675 42.966C57.0172 42.8536 57.2577 42.7319 57.3687 42.6851C56.9617 42.1139 56.6842 41.7206 56.2588 41.1212C60.3931 41.2711 64.2314 41.4115 68.0883 41.552V41.5614Z" fill="white"/>
<path d="M53.2259 41.758C53.9381 41.5801 54.641 41.3741 55.3532 41.243C55.7509 41.168 56.1116 41.2149 56.0838 41.8235C56.0746 42.0764 56.3613 42.3386 56.5371 42.657C55.2144 43.4342 54.2988 42.1887 53.1704 42.0108C53.1889 41.9265 53.1982 41.8516 53.2167 41.7674L53.2259 41.758Z" fill="white"/>
<path d="M68.4771 43.4155C68.5048 42.7506 68.5325 42.2543 68.5603 41.6831H69.6794V43.4155H68.4771Z" fill="white"/>
<path d="M24.563 15.1824V20.1642C26.5608 19.0124 31.4258 16.5402 37.5856 16.5683C44.2079 16.6058 48.9896 19.2558 50.9319 20.4919L51.0152 15.6787C51.0337 14.6486 50.6267 13.6654 49.8776 12.9631C48.5827 11.7364 46.2982 9.93844 43.1443 8.87092C41.5997 8.34652 39.8516 8.00005 37.9093 7.97196C31.7865 7.88768 27.5042 11.0528 25.5989 12.8133C24.9422 13.4219 24.5722 14.2928 24.5722 15.1918L24.563 15.1824Z" fill="white" stroke="black" stroke-width="0.798298" stroke-miterlimit="10"/>
<path d="M29.7329 17.5984C31.0555 16.1188 32.9146 14.349 35.3656 12.6728C38.2883 10.6782 41.063 9.53578 43.1532 8.8522" fill="white"/>
<path d="M29.7329 17.5984C31.0555 16.1188 32.9146 14.349 35.3656 12.6728C38.2883 10.6782 41.063 9.53578 43.1532 8.8522" stroke="black" stroke-width="0.798298" stroke-miterlimit="10"/>
<path d="M40.1655 16.6713L49.1001 12.2608" stroke="black" stroke-width="0.798298" stroke-miterlimit="10"/>
<path d="M24.637 23.067C24.637 22.9079 24.563 20.1641 24.563 20.1641C26.5608 18.9749 31.213 16.5683 37.5856 16.5683C44.3189 16.5683 48.9619 19.2558 50.9319 20.4919V23.5446C49.6833 22.4303 45.0311 18.9 37.6596 18.7502C30.7783 18.6097 26.0336 21.9995 24.637 23.0764V23.067Z" fill="white" stroke="black" stroke-width="0.798298" stroke-miterlimit="10"/>
<path d="M24.8403 19.8739C25.1363 18.6097 26.6809 16.175 27.7908 14.3771C29.7423 11.212 33.4049 8.92711 34.7923 8.15924" fill="white"/>
<path d="M24.8403 19.8739C25.1363 18.6097 26.6809 16.175 27.7908 14.3771C29.7423 11.212 33.4049 8.92711 34.7923 8.15924" stroke="black" stroke-width="0.798298" stroke-miterlimit="10"/>
</g>
</g>
<defs>
<clipPath id="clip0_2201_4846">
<rect width="65.4605" height="63.8639" fill="white" transform="translate(10.9443 7.40073)"/>
</clipPath>
<clipPath id="clip1_2201_4846">
<rect width="61.469" height="57.4775" fill="white" transform="translate(14.5366 7.40073)"/>
</clipPath>
</defs>
</svg>
