<svg width="29" height="28" viewBox="0 0 29 28" fill="none" xmlns="http://www.w3.org/2000/svg">
<path d="M5.19116 6.66275V9.87715C6.50973 9.13421 9.71941 7.53667 13.7879 7.55599C18.16 7.57747 21.3133 9.2931 22.5972 10.0876L22.6514 6.98054C22.6622 6.31705 22.3933 5.67932 21.9032 5.22625C21.0465 4.43393 19.5415 3.27443 17.4573 2.58302C16.4402 2.2459 15.2843 2.0183 14.0004 2.00112C9.9558 1.94529 7.13215 3.98945 5.87213 5.12748C5.43623 5.52042 5.19116 6.08085 5.19116 6.6649V6.66275Z" stroke="black" stroke-miterlimit="10"/>
<path d="M8.39429 8.5094C9.27044 7.55603 10.6996 6.12598 12.3196 5.05022C14.2519 3.76618 16.0823 3.02324 17.4573 2.58521" stroke="black" stroke-miterlimit="10"/>
<path d="M15.4924 7.62689L21.3891 4.77966" stroke="black" stroke-miterlimit="10"/>
<path d="M5.23887 11.7539C5.23887 11.6486 5.19116 9.87718 5.19116 9.87718C6.50973 9.10847 9.58278 7.55603 13.7879 7.55603C18.2337 7.55603 21.3003 9.29099 22.5972 10.0876V12.0566C21.7752 11.3351 18.7022 9.05479 13.8356 8.96246C9.29651 8.87443 6.16057 11.0625 5.23887 11.7517V11.7539Z" stroke="black" stroke-miterlimit="10"/>
<path d="M5.37329 9.69248C5.56847 8.87653 6.58776 7.30476 7.32295 6.14311C8.61333 4.09895 11.0249 2.62595 11.9466 2.12994" stroke="black" stroke-miterlimit="10"/>
<path d="M22.4385 11.4138C23.3008 12.8582 23.7958 14.5424 23.7958 16.34C23.7958 21.6921 19.4148 26.0298 14.0094 26.0298C8.60392 26.0298 4.2251 21.6921 4.2251 16.34C4.2251 14.5831 4.69626 12.9374 5.52189 11.5165" stroke="black" stroke-miterlimit="10"/>
<path d="M23.0525 12.9066C23.1218 12.9023 23.1934 12.9001 23.265 12.9001C25.2002 12.9001 26.7684 14.3972 26.7684 16.2445C26.7684 18.0918 25.2002 19.5889 23.265 19.5889" stroke="black" stroke-miterlimit="10"/>
<path d="M4.77997 19.5889C2.95284 19.4948 1.5 18.0353 1.5 16.2466C1.5 14.458 3.05251 12.9001 4.96822 12.9001" stroke="black" stroke-miterlimit="10"/>
<circle cx="12" cy="15" r="1" fill="black"/>
<circle cx="16" cy="15" r="1" fill="black"/>
</svg>
