<svg width="30" height="30" viewBox="0 0 30 30" fill="none" xmlns="http://www.w3.org/2000/svg">
<path d="M13.7863 7.30532C13.8602 7.20951 13.9441 7.10737 14.0327 6.9994C14.2503 6.73413 14.4969 6.43366 14.6972 6.10531C15.0168 5.5823 14.889 5.14792 14.3936 4.78762C14.2764 4.70205 14.1521 4.62603 14.0279 4.55009C13.878 4.45841 13.7283 4.36686 13.5916 4.2588M13.7863 7.30532L13.7711 7.20648C13.758 7.2085 13.7448 7.21053 13.7317 7.21258M13.7863 7.30532L13.7071 7.24422C13.7152 7.23372 13.7234 7.22318 13.7317 7.21258M13.7863 7.30532C9.44386 7.97216 6.5092 10.2516 4.78763 14.1073L15.2601 7.15002M13.7317 7.21258C13.8025 7.12208 13.8798 7.02789 13.9603 6.92983C14.1764 6.66648 14.4153 6.37531 14.6118 6.05323L14.6119 6.05317C14.7621 5.80738 14.7997 5.59541 14.7539 5.40936C14.7076 5.22135 14.5714 5.04061 14.3347 4.86849L14.3346 4.86838C14.2209 4.78536 14.1001 4.71149 13.9754 4.63518C13.9626 4.6274 13.9499 4.61959 13.9371 4.61175C13.8003 4.52791 13.6598 4.44016 13.5296 4.33726L13.5916 4.2588M13.7317 7.21258C9.39301 7.88986 6.44771 10.1749 4.71491 14.0251C3.3711 14.4409 2.41439 14.9462 1.79457 15.6176C1.16463 16.3 0.89204 17.1434 0.900177 18.2079L0.900177 18.2079C0.908335 19.2358 1.21001 20.0711 1.84731 20.7418C2.4746 21.402 3.41904 21.8941 4.70312 22.2613C5.68501 24.3721 6.98572 26.0472 8.62152 27.2115C10.2687 28.384 12.2504 29.0349 14.5769 29.0956L14.577 29.0956C17.058 29.1578 19.1684 28.5549 20.9214 27.3761C22.6625 26.2054 24.0452 24.4706 25.0896 22.2688C26.368 21.9403 27.3229 21.4575 27.9629 20.7916C28.613 20.1152 28.9298 19.2588 28.9402 18.2096V18.2096C28.9506 17.1227 28.6507 16.2447 28.0001 15.5513C27.3596 14.8687 26.3881 14.3745 25.0674 14.027C24.1006 11.9154 22.7922 10.2821 21.1368 9.13218C19.5083 8.00103 17.5493 7.34129 15.2601 7.15002M13.5916 4.2588L13.5296 4.33724M13.5916 4.2588C12.9611 3.76049 12.7504 2.91205 13.0425 2.14933C13.288 1.50719 14.0841 0.953676 14.7756 1.00307C14.918 1.01324 15.0546 1.10381 15.1796 1.18664C15.2332 1.22217 15.2847 1.25628 15.3335 1.28201C15.2565 1.73819 15.0473 1.85441 14.7364 1.89654L13.5296 4.33724M13.5296 4.33724C12.8626 3.81012 12.6424 2.91451 12.9491 2.11358C13.0807 1.76936 13.3566 1.45528 13.686 1.23388C14.0153 1.01256 14.4091 0.876634 14.7828 0.903326C14.9095 0.912375 15.0254 0.971557 15.1219 1.03049C15.1611 1.05442 15.1998 1.08002 15.2356 1.10375C15.2443 1.10957 15.2529 1.11528 15.2614 1.12082C15.3053 1.14982 15.3442 1.17462 15.3801 1.19353L15.4442 1.22727L15.4321 1.29865C15.3915 1.53907 15.3134 1.70668 15.1898 1.81864C15.0669 1.93009 14.9128 1.97355 14.7498 1.99564L14.7496 1.99567C14.5279 2.0251 14.3435 2.09765 14.2047 2.21427C14.0671 2.32995 13.9677 2.49441 13.9237 2.72051C13.8784 2.95345 13.9235 3.13051 14.0212 3.27624C14.1215 3.42592 14.2821 3.54953 14.4794 3.66198L14.4796 3.6621C14.6195 3.74228 14.7601 3.8251 14.8969 3.91728L14.897 3.91734C15.3772 4.24171 15.6859 4.6585 15.8022 5.12996C15.9184 5.60134 15.8394 6.11574 15.5657 6.63015C15.4916 6.77017 15.4084 6.90672 15.3133 7.06259C15.296 7.09104 15.2782 7.12014 15.2601 7.15002M13.5296 4.33724L15.2601 7.15002M14.9205 28.0196C9.97148 28.0383 5.07043 24.039 5.03582 18.1457C5.02442 12.7241 9.42955 8.30448 14.8558 8.29153C20.3251 8.27859 24.7161 12.6791 24.7348 18.1494C24.7521 23.6549 20.1367 27.9995 14.9205 28.0196ZM25.4801 15.2851C26.8819 15.5854 27.8237 16.7141 27.8657 18.078C27.9076 19.4532 26.9734 20.6432 25.4634 21.0246C25.9651 19.0691 25.9302 17.1827 25.4801 15.2851ZM4.30352 15.3143C3.81497 17.2059 3.81504 19.0869 4.29867 20.9745C2.95118 20.7147 1.9656 19.4905 1.97911 18.1196C1.99403 16.7702 2.95525 15.5922 4.30352 15.3143Z" fill="black" stroke="black" stroke-width="0.2"/>
<path d="M10.2086 20.0074H10.2778H10.2789H10.28H10.2812H10.2823H10.2834H10.2846H10.2857H10.2868H10.2879H10.2891H10.2902H10.2913H10.2924H10.2936H10.2947H10.2958H10.297H10.2981H10.2992H10.3003H10.3014H10.3026H10.3037H10.3048H10.3059H10.3071H10.3082H10.3093H10.3104H10.3115H10.3127H10.3138H10.3149H10.316H10.3171H10.3183H10.3194H10.3205H10.3216H10.3227H10.3238H10.325H10.3261H10.3272H10.3283H10.3294H10.3305H10.3316H10.3328H10.3339H10.335H10.3361H10.3372H10.3383H10.3394H10.3406H10.3417H10.3428H10.3439H10.345H10.3461H10.3472H10.3483H10.3494H10.3506H10.3517H10.3528H10.3539H10.355H10.3561H10.3572H10.3583H10.3594H10.3605H10.3616H10.3627H10.3639H10.365H10.3661H10.3672H10.3683H10.3694H10.3705H10.3716H10.3727H10.3738H10.3749H10.376H10.3771H10.3782H10.3793H10.3805H10.3816H10.3827H10.3838H10.3849H10.386H10.3871H10.3882H10.3893H10.3904H10.3915H10.3926H10.3937H10.3948H10.3959H10.397H10.3981H10.3992H10.4003H10.4014H10.4025H10.4037H10.4048H10.4059H10.407H10.4081H10.4092H10.4103H10.4114H10.4125H10.4136H10.4147H10.4158H10.4169H10.418H10.4191H10.4202H10.4213H10.4224H10.4235H10.4246H10.4257H10.4268H10.4279H10.429H10.4301H10.4313H10.4324H10.4335H10.4346H10.4357H10.4368H10.4379H10.439H10.4401H10.4412H10.4423H10.4434H10.4445H10.4456H10.4467H10.4478H10.4489H10.45H10.4511H10.4523H10.4534H10.4545H10.4556H10.4567H10.4578H10.4589H10.46H10.4611H10.4622H10.4633H10.4644H10.4655H10.4666H10.4678H10.4689H10.47H10.4711H10.4722H10.4733H10.4744H10.4755H10.4766H10.4777H10.4789H10.48H10.4811H10.4822H10.4833H10.4844H10.4855H10.4866H10.4877H10.4889H10.49H10.4911H10.4922H10.4933H10.4944H10.4955H10.4967H10.4978H10.4989H10.5H10.5011H10.5022H10.5033H10.5045H10.5056H10.5067H10.5078H10.5089H10.5101H10.5112H10.5123H10.5134H10.5145H10.5156H10.5168H10.5179H10.519H10.5201H10.5213H10.5224H10.5235H10.5246H10.5257H10.5269H10.528H10.5291H10.5302H10.5314H10.5325H10.5336H10.5347H10.5359H10.537H10.5381H10.5393H10.5404H10.5415H10.5426H10.5438H10.5449H10.546H10.5472H10.5483H10.5494H10.5506H10.5517H10.5528H10.554H10.5551H10.5562H10.5574H10.5585H10.5596H10.5608H10.5619H10.5631H10.5642H10.5653H10.5665H10.5676H10.5688H10.5699H10.571H10.5722H10.5733H10.5745H10.5756H10.5768H10.5779H10.5791H10.5802H10.5813H10.5825H10.5836H10.5848H10.5859H10.5871H10.5882H10.5894H10.5905H10.5917H10.5928H10.594H10.5952H10.5963H10.5975H10.5986H10.5998H10.6009H10.6021H10.6033H10.6044H10.6056H10.6067H10.6079H10.6091H10.6102H10.6114H10.6125H10.6137H10.6149H10.616H10.6172H10.6184H10.6195H10.6207H10.6219H10.6231H10.6242H10.6254H10.6266H10.6277H10.6289H10.6301H10.6313H10.6324H10.6336H10.6348H10.636H10.6372H10.6383H10.6395H10.6407H10.6419H10.6431H10.6442H10.6454H10.6466H10.6478H10.649H10.6502H10.6514H10.6525H10.6537H10.6549H10.6561H10.6573H10.6585H10.6597H10.6609H10.6621H10.6633H10.6645H10.6657H10.6669H10.6681H10.6693H10.6705H10.6717H10.6729H10.6741H10.6753H10.6765H10.6777H10.6789H10.6801H10.6813H10.6826H10.6838H10.685H10.6862H10.6874H10.6886H10.6898H10.6911H10.6923H10.6935H10.6947H10.6959H10.6971H10.6984H10.6996H10.7008H10.702H10.7033H10.7045H10.7057H10.707H10.7082H10.7094H10.7107H10.7119H10.7131H10.7144H10.7156H10.7168H10.7181H10.7193H10.7205H10.7218H10.723H10.7243H10.7255H10.7268H10.728H10.7293H10.7305H10.7318H10.733H10.7343H10.7355H10.7368H10.738H10.7393H10.7405H10.7418H10.7431H10.7443H10.7456H10.7468H10.7481H10.7494H10.7506H10.7519H10.7532H10.7544H10.7557H10.757H10.7583H10.7595H10.7608H10.7621H10.7634H10.7646H10.7659H10.7672H10.7685H10.7698H10.771H10.7723H10.7736H10.7749H10.7762H10.7775H10.7788H10.7801H10.7814H10.7827H10.784H10.7853H10.7866H10.7879H10.7892H10.7905H10.7918H10.7931H10.7944H10.7957H10.797H10.7983H10.7996H10.8009H10.8022H10.8036H10.8049H10.8062H10.8075H10.8088H10.8101H10.8115H10.8128H10.8141H10.8154H10.8168H10.8181H10.8194H10.8208H10.8221H10.8234H10.8248H10.8261H10.8274H10.8288H10.8301H10.8315H10.8328H10.8342H10.8355H10.8369H10.8382H10.8396H10.8409H10.8423H10.8436H10.845H10.8463H10.8477H10.849H10.8504H10.8518H10.8531H10.8545H10.8559H10.8572H10.8586H10.86H10.8614H10.8627H10.8641H10.8655H10.8669H10.8682H10.8696H10.871H10.8724H10.8738H10.8752H10.8766H10.8779H10.8793H10.8807H10.8821H10.962L10.9796 20.0852C10.9977 20.1649 11.0176 20.2404 11.0376 20.3166C11.0495 20.362 11.0615 20.4076 11.0732 20.4543L10.2086 20.0074ZM10.2086 20.0074L10.1842 20.0721M10.2086 20.0074L10.1842 20.0721M10.1842 20.0721C9.93153 20.7421 10.0534 21.5989 10.4119 22.406C10.7716 23.2155 11.3765 23.9923 12.1165 24.5072C13.9132 25.7579 16.3883 25.6335 18.0444 24.2059C18.6943 23.6458 19.1981 22.8856 19.4746 22.1288C19.7499 21.3752 19.806 20.6064 19.5321 20.0392L19.5029 19.9788L19.4359 19.9829C19.2941 19.9916 19.133 20.0003 18.9375 20.0109C18.9053 20.0126 18.8722 20.0144 18.8381 20.0163L18.7542 20.0208L18.7442 20.1042C18.7324 20.2018 18.7205 20.2934 18.7092 20.381C18.6887 20.5386 18.6699 20.6831 18.6567 20.8261L18.6567 20.8263M10.1842 20.0721L18.6567 20.8263M18.6567 20.8263C18.4813 22.7673 16.8167 24.2741 14.8545 24.2656C12.9193 24.2571 11.3072 22.7602 11.1416 20.8282L18.6567 20.8263Z" fill="black" stroke="black" stroke-width="0.2"/>
<path d="M16.6353 16.6337C16.6087 16.7981 16.6025 16.9419 16.6235 17.0612C16.6448 17.1819 16.6955 17.2843 16.7873 17.3526C16.8779 17.42 16.9938 17.4431 17.1235 17.4366C17.253 17.4302 17.4053 17.3939 17.5795 17.3324L17.6394 17.3112L17.6457 17.2479C17.6836 16.8653 17.7713 16.5116 17.9554 16.2559C18.1348 16.0069 18.4124 15.8411 18.859 15.8431C19.3037 15.8452 19.5735 16.019 19.7522 16.2908C19.9366 16.5712 20.0282 16.9628 20.0897 17.4058L20.104 17.5086L20.2062 17.4906C20.5024 17.4383 20.7362 17.3976 20.9454 17.3613L21.0221 17.348L21.028 17.2703C21.1303 15.9166 20.3172 14.876 19.1158 14.7459L19.1156 14.7459C17.9052 14.6168 16.8284 15.4361 16.6353 16.6337ZM16.6353 16.6337L16.734 16.6497M16.6353 16.6337C16.6353 16.6337 16.6353 16.6337 16.6353 16.6338L16.734 16.6497M16.734 16.6497C16.9185 15.5049 17.9471 14.7218 19.105 14.8453C20.2454 14.9688 21.0271 15.9553 20.9283 17.2628C20.7428 17.295 20.5379 17.3306 20.2873 17.3747C20.2875 17.3759 20.2877 17.3771 20.2878 17.3783L20.1888 17.3921L20.1714 17.2936C20.1724 17.2934 20.1734 17.2932 20.1744 17.2931C20.0456 16.4476 19.7783 15.7473 18.8595 15.7431C17.9064 15.7388 17.6231 16.4608 17.5461 17.2381C16.8677 17.4778 16.6309 17.286 16.734 16.6497Z" fill="black" stroke="black" stroke-width="0.2"/>
<path d="M12.0416 17.3153L12.053 17.3851L12.1227 17.3976C12.3057 17.4302 12.4618 17.4447 12.5911 17.4364C12.7199 17.4281 12.8318 17.3965 12.9161 17.3274C13.0027 17.2564 13.0469 17.1568 13.0606 17.0408C13.0741 16.9273 13.0594 16.7931 13.0253 16.6409L13.0252 16.6405C12.9582 16.3474 12.8534 16.0465 12.6986 15.7839C12.1551 14.8619 10.9993 14.494 10 14.8874C9.01504 15.2747 8.49647 16.1997 8.69156 17.3249L8.70594 17.4078H8.79009H8.79138H8.79266H8.79395H8.79524H8.79652H8.79781H8.7991H8.80039H8.80167H8.80296H8.80425H8.80554H8.80683H8.80812H8.80941H8.8107H8.81199H8.81329H8.81458H8.81587H8.81716H8.81846H8.81975H8.82104H8.82234H8.82363H8.82492H8.82622H8.82751H8.82881H8.83011H8.8314H8.8327H8.834H8.83529H8.83659H8.83789H8.83919H8.84048H8.84178H8.84308H8.84438H8.84568H8.84698H8.84828H8.84958H8.85088H8.85218H8.85348H8.85478H8.85608H8.85739H8.85869H8.85999H8.86129H8.8626H8.8639H8.8652H8.86651H8.86781H8.86912H8.87042H8.87173H8.87303H8.87434H8.87564H8.87695H8.87826H8.87956H8.88087H8.88218H8.88348H8.88479H8.8861H8.88741H8.88871H8.89002H8.89133H8.89264H8.89395H8.89526H8.89657H8.89788H8.89919H8.9005H8.90181H8.90312H8.90443H8.90574H8.90705H8.90836H8.90968H8.91099H8.9123H8.91361H8.91493H8.91624H8.91755H8.91886H8.92018H8.92149H8.92281H8.92412H8.92543H8.92675H8.92806H8.92938H8.93069H8.93201H8.93332H8.93464H8.93595H8.93727H8.93859H8.9399H8.94122H8.94254H8.94385H8.94517H8.94649H8.9478H8.94912H8.95044H8.95176H8.95307H8.95439H8.95571H8.95703H8.95835H8.95967H8.96098H8.9623H8.96362H8.96494H8.96626H8.96758H8.9689H8.97022H8.97154H8.97286H8.97418H8.9755H8.97682H8.97814H8.97946H8.98078H8.9821H8.98342H8.98474H8.98607H8.98739H8.98871H8.99003H8.99135H8.99267H8.994H8.99532H8.99664H8.99796H8.99928H9.00061H9.00193H9.00325H9.00457H9.0059H9.00722H9.00854H9.00987H9.01119H9.01251H9.01384H9.01516H9.01648H9.01781H9.01913H9.02045H9.02178H9.0231H9.02442H9.02575H9.02707H9.0284H9.02972H9.03104H9.03237H9.03369H9.03502H9.03634H9.03766H9.03899H9.04031H9.04164H9.04296H9.04429H9.04561H9.04694H9.04826H9.04959H9.05091H9.05224H9.05356H9.05488H9.05621H9.05753H9.05886H9.06018H9.06151H9.06283H9.06416H9.06548H9.06681H9.06813H9.06946H9.07078H9.07211H9.07343H9.07476H9.07608H9.07741H9.07873H9.08006H9.08138H9.08271H9.08403H9.08536H9.08668H9.08801H9.08933H9.09066H9.09198H9.09331H9.09463H9.09596H9.09728H9.09861H9.09993H9.10126H9.10258H9.10391H9.10523H9.10656H9.10788H9.1092H9.11053H9.11185H9.11318H9.1145H9.11583H9.11715H9.11847H9.1198H9.12112H9.12245H9.12377H9.12509H9.12642H9.12774H9.12907H9.13039H9.13171H9.13304H9.13436H9.13568H9.13701H9.13833H9.13965H9.14097H9.1423H9.14362H9.14494H9.14627H9.14759H9.14891H9.15023H9.15155H9.15288H9.1542H9.15552H9.15684H9.15816H9.15949H9.16081H9.16213H9.16345H9.16477H9.16609H9.16741H9.16873H9.17005H9.17137H9.17269H9.17402H9.17534H9.17666H9.17798H9.1793H9.18061H9.18193H9.18325H9.18457H9.18589H9.18721H9.18853H9.18985H9.19117H9.19249H9.1938H9.19512H9.19644H9.19776H9.19907H9.20039H9.20171H9.20303H9.20434H9.20566H9.20698H9.20829H9.20961H9.21093H9.21224H9.21356H9.21487H9.21619H9.2175H9.21882H9.22013H9.22145H9.22276H9.22408H9.22539H9.2267H9.22802H9.22933H9.23064H9.23196H9.23327H9.23458H9.2359H9.23721H9.23852H9.23983H9.24114H9.24246H9.24377H9.24508H9.24639H9.2477H9.24901H9.25032H9.25163H9.25294H9.25425H9.25556H9.25687H9.25817H9.25948H9.26079H9.2621H9.26341H9.26472H9.26602H9.26733H9.26864H9.26994H9.27125H9.27256H9.27386H9.27517H9.27647H9.27778H9.27908H9.28039H9.28169H9.28299H9.2843H9.2856H9.2869H9.28821H9.28951H9.29081H9.29211H9.29342H9.29472H9.29602H9.29732H9.29862H9.29992H9.30122H9.30252H9.30382H9.30512H9.30642H9.30772H9.30902H9.31031H9.31161H9.31291H9.31421H9.3155H9.3168H9.31809H9.31939H9.32069H9.32198H9.32328H9.32457H9.32587H9.32716H9.32845H9.32975H9.33104H9.33233H9.33362H9.33492H9.33621H9.3375H9.33879H9.34008H9.34137H9.34266H9.34395H9.34524H9.34653H9.34782H9.3491H9.35039H9.35168H9.35297H9.35425H9.35554H9.35683H9.35811H9.3594H9.36068H9.36197H9.36325H9.36453H9.36582H9.3671H9.36838H9.36967H9.37095H9.37223H9.37351H9.37479H9.37607H9.37735H9.37863H9.37991H9.38119H9.38247H9.38375H9.38502H9.3863H9.38758H9.38885H9.39013H9.39141H9.39268H9.39396H9.39523H9.3965H9.39778H9.39905H9.40032H9.4016H9.40287H9.40414H9.40541H9.40668H9.40795H9.40922H9.41049H9.41176H9.41303H9.4143H9.41556H9.41683H9.4181H9.41936H9.42063H9.42189H9.42316H9.42442H9.42569H9.42695H9.42821H9.42948H9.43074H9.432H9.43326H9.43452H9.43578H9.43704H9.4383H9.43956H9.44082H9.44208H9.44333H9.44459H9.44585H9.4471H9.44836H9.44961H9.45087H9.45212H9.45338H9.45463H9.45588H9.45713H9.45839H9.53705L9.55558 17.3314C9.69064 16.7738 9.84049 16.4034 10.0292 16.1712C10.2121 15.9463 10.4359 15.8455 10.7434 15.8388L10.7435 15.8388C11.2235 15.8278 11.5063 15.9963 11.6905 16.2555C11.8811 16.5237 11.9734 16.8988 12.0416 17.3153ZM12.1403 17.2991C12.0037 16.4652 11.7611 15.7156 10.7412 15.7388C10.0744 15.7533 9.73006 16.1863 9.45839 17.3078L12.1403 17.2991Z" fill="black" stroke="black" stroke-width="0.2"/>
</svg>
