<svg xmlns="http://www.w3.org/2000/svg" width="229" height="196" viewBox="0 0 229 196" fill="none">
  <path d="M39.5677 30.9597C38.8949 26.9041 42.5801 21.878 47.0434 21.3749C50.9546 20.9356 54.008 24.1357 55.1072 25.2875C56.7713 27.0318 56.1781 27.3587 58.4508 30.7656C61.7559 35.715 63.0631 35.1072 65.7288 39.5688C66.4709 40.8126 67.0462 41.9925 68.4817 43.0906C68.7925 43.3281 70.4001 44.5234 72.809 44.8503C73.1762 44.9013 78.5846 45.5449 81.6611 41.5251C83.9673 38.509 83.3535 34.9718 83.2354 34.2874C82.8938 32.3209 82.1876 31.9557 79.8917 28.0278C77.1747 23.3772 75.8188 20.9893 75.9574 18.0523C75.9985 17.1916 76.1449 14.8191 77.9246 12.7708C79.8173 10.5949 82.3751 10.1378 83.4331 10.0331C83.862 9.98966 87.3546 9.69341 90.1204 12.186C92.0927 13.961 92.6166 16.1828 92.8734 17.2708C93.5128 19.9779 92.6551 20.7466 92.8734 24.8993C92.9376 26.1302 93.0429 28.1146 93.6592 30.1807C94.7943 33.9732 97.1595 36.3765 98.3793 37.6151C103.197 42.5058 119.502 53.1708 131.425 46.6124C135.581 44.3267 138 40.6134 140.08 37.4184C141.451 35.314 144.99 29.3737 149.325 20.9867C150.008 19.6664 150.981 17.7586 153.061 16.8775C155.303 15.93 158.799 16.1931 160.732 18.6371C162.653 21.0659 161.788 24.0718 161.716 24.3093C161.403 25.3283 160.856 26.1251 158.567 28.2219C154.98 31.5113 153.475 32.1651 151.29 34.2848C149.505 36.0164 148.935 37.1094 147.157 39.5663C140.159 49.2532 136.821 49.1919 136.536 52.8695C136.11 58.3578 143.182 63.2945 147.157 65.1946C149.302 66.2187 154.122 68.5197 159.156 66.9542C162.759 65.8356 162.941 63.8333 171.942 56.0005C176.028 52.443 177.774 51.3039 180.204 51.1098C180.691 51.0715 185.247 50.7804 188.072 54.2409C188.411 54.6572 190.517 57.3209 189.842 60.6972C189.336 63.2255 187.559 64.7221 186.498 65.5878C183.971 67.6514 181.665 67.9451 177.646 68.913C173.188 69.9882 168.948 71.0098 164.664 73.2163C161.03 75.0858 157.584 76.9246 156.795 80.4541C156.151 83.34 157.612 85.8836 157.977 86.517C158.131 86.7851 160.206 90.2738 164.271 91.211C167.237 91.8955 168.018 90.473 173.714 89.6455C176.916 89.1807 179.826 88.7874 183.157 89.8421C185.091 90.4551 188.157 91.423 189.451 94.3421C190.961 97.7464 188.902 101.197 188.665 101.58C187.196 103.952 184.97 104.854 184.338 105.102C181.542 106.19 178.937 105.574 176.274 104.905C171.703 103.761 171.202 102.246 167.62 102.167C164.726 102.103 163.041 103.046 162.309 103.536C161.585 104.021 160.298 104.882 159.949 106.471C159.613 107.993 160.339 109.262 160.54 109.602C161.277 110.848 162.509 111.617 164.672 112.339C168.18 113.514 170.214 113.256 176.277 114.296C177.379 114.485 178.845 114.755 180.211 115.861C180.504 116.096 182.625 117.853 182.178 119.383C181.77 120.78 179.415 121.319 177.851 121.339C175.309 121.372 174.032 120.047 169.392 116.839C162.158 111.836 160.039 111.446 158.377 111.949C156.968 112.375 155.889 113.445 155.624 113.708C153.87 115.45 153.442 117.595 153.264 118.402C151.58 126.038 146.759 129.358 143.036 139.137C142.766 139.847 142.299 141.119 141.069 142.072C139.584 143.221 138.354 142.851 135.56 143.637C133.498 144.217 132.055 144.623 130.84 145.79C128.326 148.201 128.608 152.109 128.675 153.028C128.811 154.913 129.376 156.195 130.444 158.506C134.856 168.027 135.655 168.579 135.953 171.222C136.081 172.374 136.431 175.936 134.379 179.438C133.873 180.301 132.512 182.553 129.659 183.938C126.926 185.263 124.427 185.013 123.562 184.916C122.627 184.811 119.494 184.408 116.875 181.785C115.74 180.648 114.44 178.774 113.726 174.547C112.599 167.856 114.725 165.762 114.908 156.159C115.018 150.257 114.281 147.496 112.35 145.79C112.029 145.507 110.449 144.112 108.415 144.225C107.517 144.276 106.577 144.618 103.498 147.356C100.231 150.262 100.123 150.913 98.5797 151.856C97.3162 152.627 94.9227 154.067 92.2853 153.421C89.2472 152.676 87.709 149.603 87.3674 148.921C85.8702 145.931 87.0824 144.406 85.4003 142.465C84.2421 141.127 82.1311 140.08 80.4824 140.705C80.2153 140.808 79.1059 141.277 78.1223 143.837C77.1978 146.245 77.3853 147.895 77.3365 151.074C77.2389 157.219 76.3863 159.957 76.1552 160.659C75.2153 163.537 74.1777 164.674 73.2044 165.353C71.6739 166.421 70.0971 166.512 69.6631 166.528C69.0185 166.548 66.7303 166.617 65.531 165.159C63.9414 163.223 65.3667 159.926 65.7288 159.096C66.2244 157.952 66.6045 157.684 69.8608 153.618C71.1988 151.948 71.8665 151.113 72.0257 150.88C72.8886 149.608 74.8326 146.457 75.1742 142.274C75.2718 141.06 75.3154 140.442 74.9764 139.926C74.2779 138.859 72.6677 138.713 67.5007 138.948C63.1735 139.148 61.0086 139.245 60.0251 139.536C55.9803 140.728 53.4225 143.183 52.3542 144.23C51.4066 145.159 50.0172 147.264 47.2411 151.468C45.2971 154.41 44.3906 155.919 42.521 158.314C40.8389 160.467 39.9992 161.545 38.9796 162.227C36.6966 163.757 33.4018 164.515 30.1275 163.596C25.9492 162.424 23.9384 159.119 23.2424 157.727C22.8187 156.877 21.2291 153.437 22.4566 149.511C23.322 146.743 25.1531 145.113 26.5886 143.839C28.4428 142.189 29.7217 141.727 32.2923 140.317C34.5728 139.066 38.3299 137.005 41.3397 134.254C42.6006 133.1 46.2422 129.77 47.8318 124.67C48.9386 121.115 48.4687 118.568 47.8318 113.323C46.7532 104.443 46.178 99.7027 46.2576 94.9346C46.3166 91.3975 46.5452 82.9288 50.7825 74.1996C53.4045 68.7955 54.9223 65.6696 57.6676 62.4619C58.0784 61.9818 59.8658 59.9233 61.4041 56.7897C62.3877 54.7849 63.0246 53.4543 62.9783 51.7049C62.8987 48.6173 60.757 46.4081 59.6347 45.2487C59.098 44.6945 57.7112 43.346 51.3732 40.358C46.3372 37.9829 45.143 37.8603 43.1117 36.0547C41.6196 34.7292 39.9478 33.2454 39.5703 30.9699L39.5677 30.9597Z" fill="white" stroke="#231F20" stroke-width="3" stroke-miterlimit="10"/>
  <path d="M138 94.5V90.4073L141.5 86.5L148 80.5997C142.384 60.51 122.47 44 100.998 44C89.9863 44 79.8596 47.8693 71.8485 54.3474L77 59L84.66 68.7499L77 66.5L73.2877 65L69.8691 63.3963L68.4108 57.4137C59.5296 66.1458 54 78.4135 54 91.9988C54 97.1785 54.8056 102.163 56.2926 106.837L64.7435 94.5434L75.4871 96.6114C75.4871 96.6114 79.3934 91.9988 82.1546 92.1441C82.2622 92.0417 82.3219 91.9869 82.3219 92.0012C82.3219 92.0155 82.2622 92.0631 82.1546 92.1441C81.0812 93.1782 77 102 77 102L66.8449 99.4085L65.7261 123.715C74.3396 133.698 86.9478 140 101 140C126.958 140 148 118.509 148 91.9988C148 89.1374 148.471 89.2256 148 86.5L143 93L138 94.5Z" fill="#FEA386"/>
  <path d="M82.1546 92.1441C79.3934 91.9988 75.4871 96.6114 75.4871 96.6114L64.7435 94.5434L56.2926 106.837C54.8056 102.163 54 97.1785 54 91.9988C54 78.4135 59.5296 66.1458 68.4108 57.4137L69.8691 63.3963L73.2877 65L77 66.5L84.66 68.7499L77 59L71.8485 54.3474C79.8596 47.8693 89.9863 44 100.998 44C122.47 44 142.384 60.51 148 80.5997L141.5 86.5L138 90.4073V94.5L143 93L148 86.5C148.471 89.2256 148 89.1374 148 91.9988C148 118.509 126.958 140 101 140C86.9478 140 74.3396 133.698 65.7261 123.715L66.8449 99.4085L77 102C77 102 81.0812 93.1782 82.1546 92.1441ZM82.1546 92.1441C82.2622 92.0417 82.3219 91.9869 82.3219 92.0012C82.3219 92.0155 82.2622 92.0631 82.1546 92.1441Z" stroke="#231F20" stroke-width="3" stroke-miterlimit="10"/>
  <path d="M99.5 75.3817L107.339 78.2303L110.197 68.0361C110.197 68.0361 109.941 58.8983 109.959 58.3017C109.999 57 110.444 57 110.444 57L113.016 63.341C113.016 63.341 115.079 74.179 114.881 75.3817C114.683 76.5843 118.889 70.7267 121.668 70.7267C124.447 70.7267 121.945 72.6533 121.945 72.6533L120.001 73.415L116.061 76.3556C116.061 76.3556 130.079 76.8649 136.031 79.5155C138.211 80.487 136.031 80.1168 136.031 80.1168C136.031 80.1168 123.253 79.6357 117.341 82.3641C117.341 82.3641 130.734 97.3619 131.03 100.828C131.11 101.75 130.317 101.069 130.317 101.069C130.317 101.069 114.645 85.6962 112.501 87.3421C110.356 88.9881 102 97.5 102 97.5L107.064 85.0948L91.5 75.3817H99.5Z" fill="white" stroke="#231F20" stroke-width="3" stroke-miterlimit="10"/>
</svg>