<?xml version="1.0" encoding="UTF-8"?>
<svg id="Layer_1" data-name="Layer 1" xmlns="http://www.w3.org/2000/svg" viewBox="0 0 480.51 971.05">
  <defs>
    <style>
      .cls-1 {
        fill: #fff;
      }

      .cls-2 {
        fill: #231f20;
      }
    </style>
  </defs>
  <path class="cls-2" d="M183.46,868.27c-17.57,0-34.54-3.25-42.65-8.34-26.3-16.52-58.81-18.56-82.54-20.05-20.77-1.31-34.49-2.17-36.68-14.08h0c-2.38-12.96,14.29-25.47,59-55.37,12.93-8.65,26.3-17.59,35.84-24.95,3.7-2.87,5.63-5.27,5.71-7.11,.06-1.33-1.42-3.3-4.05-6.65-1.09-1.4-2.26-2.9-3.45-4.55-4.81-6.71-6.64-11.41-8.94-17.36-1.08-2.76-2.33-6-4.17-10.17-5.72-12.98-11.66-22.7-17.4-32.1-7.93-12.98-15.41-25.25-19.71-42.56-1.45-5.82-3.01-14.72,.16-24.67,3.57-11.21,11.33-17.81,14.65-20.63,14.38-12.27,26.38-31.99,50.29-71.28,1.72-2.83,4.61-7.58,4.81-13.97,.25-8.06-3.98-14.43-6.02-17.49-15.04-22.63-47.98-77.14-31.91-98.87,3.01-4.06,7.57-5.08,13.89-6.49,10.49-2.34,30.03-6.69,55.86-27.44,8.35-6.71,29.47-14.93,47.06-18.32,13.85-2.67,24.79-2.87,49.54,3.14l8.91,2.16q74.98,18.19,75.65,27.17c.55,7.54-4.84,11.3-10.06,14.92-4.04,2.82-10.16,7.06-18.63,15.07-6.25,5.91-14.43,14.48-17.92,21.78-4.23,8.85-5.09,16.89-5.24,20.9-.23,6.01,.64,12.02,2.64,18.37,4.49,14.23,13.39,25.36,23.7,38.24,9.3,11.63,19.84,24.8,29.1,42.72,3.65,7.04,7.93,16.76,8.61,29.54,.77,14.48-3.56,25.5-5.18,29.65l-1,2.53c-30.53,77.34-48.29,132.02-48.72,150.03-.05,2.01-.18,7.31,2.31,13.01,2.83,6.47,7.57,10.25,9.6,11.86,8.59,6.83,19.43,14.55,29.91,22.01,34.13,24.3,47.8,42.26,44.21,51.79-3.67,9.72-19.95-3.56-54.81-8.34-14.65-2.01-31.25-4.28-46.84-5.42-3.27-.24-10.1-.74-18.64,1.31-9.79,2.34-16.89,6.95-23.16,11.02-6.84,4.43-9.98,7.4-13.03,10.27-3.48,3.28-6.76,6.37-13.6,9.97-3.53,1.86-16.23,8.01-31.22,8.65-1.96,.08-3.93,.12-5.89,.12Zm-141.48-47.6c4.63,.68,11.5,1.1,17.41,1.48,24.19,1.51,60.74,3.82,90.87,22.73,3.71,2.33,18.83,6.34,38.34,5.52,11.56-.49,21.75-5.59,23.68-6.61,4.71-2.48,6.7-4.35,9.71-7.19,3.28-3.09,7.35-6.93,15.54-12.23,7.1-4.61,15.93-10.34,28.69-13.39,11.24-2.68,20.23-2.02,24.07-1.75,16.15,1.19,33.05,3.5,47.95,5.54,5.39,.73,11.3,1.54,16.71,2.21-5.97-4.45-12.9-9.39-18.82-13.6-10.67-7.6-21.69-15.45-30.66-22.57-2.8-2.23-10.23-8.15-14.82-18.66-4.07-9.32-3.86-17.78-3.79-20.56,.63-26.02,27.52-99.25,49.97-156.11l.98-2.5c1.24-3.17,4.54-11.59,3.98-22.22-.5-9.32-3.64-16.51-6.65-22.31-8.46-16.36-17.99-28.27-27.21-39.79-10.94-13.68-21.27-26.6-26.77-43.99-2.62-8.32-3.75-16.29-3.45-24.36,.19-5.38,1.35-16.17,6.96-27.91,3.74-7.84,11.06-16.94,21.74-27.03,6.61-6.25,11.91-10.43,16.03-13.44-10.16-2.68-27.92-6.98-54.98-13.55l-8.91-2.16c-23.65-5.74-31.66-4.95-41.99-2.97-17.08,3.3-34.4,10.8-39.29,14.73-29.06,23.34-51.22,28.28-63.12,30.93-1.38,.31-2.99,.66-4.12,.97-3.45,9.69,11.27,44.43,32.94,77.03,2.7,4.06,9.53,14.33,9.11,28.07-.35,11.07-5.1,18.88-7.38,22.64-24.9,40.91-37.39,61.45-53.7,75.36-2.79,2.36-7.48,6.35-9.5,12.71-1.77,5.56-.92,10.7,.15,15,3.64,14.68,10.13,25.29,17.63,37.59,5.76,9.43,12.28,20.13,18.48,34.19,1.98,4.47,3.32,7.94,4.47,10.91,2.14,5.52,3.32,8.55,6.82,13.42,1.03,1.45,2.06,2.75,3.01,3.97,4.01,5.13,8.16,10.43,7.79,18.4-.5,10.98-9.59,18.03-12.58,20.34-10.02,7.75-23.65,16.86-36.83,25.67-16.44,10.99-39.99,26.74-48.48,35.48Z"/>
  <g>
    <path class="cls-1" d="M11.62,821.9c8.54,2.12,33.83,5.43,88.47,9.15,6.34,.43,35.48,8.52,47.02,14.08,4.29,2.07,40.05,17.34,53.66,11.85,12.09-4.88,13.53-10.99,27.46-21.36,0,0,12.39-9.22,32.03-16.78,50.52-19.44,122.03,16.78,122.03,16.78h0s3.57,29.56-6.1,53.39c-3.64,8.96-13.61,19.7-33.56,41.19-16.98,18.29-21.98,21.13-25.93,22.88-14.6,6.45-27.15,3.27-42.71,1.53-2.35-.26-24.45,.84-68.64,3.05-84.17,4.21-84.12,6.01-96.1,3.05-9.35-2.31-41.22-10.63-67.12-39.66-25.32-28.39-29.52-59.29-32.03-77.8-2.07-15.21-1.36-22.07,1.53-21.36Z"/>
    <path class="cls-2" d="M120.94,971.05c-5.73,0-8.99-.52-13.83-1.72-35.84-8.83-58.73-27.92-71.62-42.38-27.13-30.4-31.56-63.01-34.21-82.5-2.36-17.4-1.57-24.68,3.11-28.87,2.57-2.3,5.98-3.14,9.37-2.3,3.93,.97,21.77,4.46,86.93,8.91,8.11,.54,38.51,9.27,50.27,14.93,12.11,5.83,38.96,14.63,46.47,11.62,5.57-2.25,7.95-4.57,12.27-8.78,3.16-3.08,7.1-6.92,13.22-11.47,.55-.41,13.61-10.04,34.14-17.94,53.17-20.43,126.12,15.57,129.19,17.12l4.39,3.2,.82,7.81c.71,9.96,1.2,33.34-7.06,53.67-4.25,10.48-14.62,21.64-35.28,43.88-17.78,19.16-23.59,22.64-28.85,24.96-14.58,6.45-27.09,4.82-40.34,3.09-2.25-.29-4.57-.6-6.95-.87-2.86-.06-28.44,1.16-67.17,3.1-27.67,1.38-46.2,2.5-59.07,3.28-12.97,.79-20.47,1.24-25.82,1.24ZM17.86,832.15c.13,2.34,.43,5.56,1.02,9.92,2.38,17.47,6.35,46.71,29.86,73.07,11.22,12.58,31.2,29.2,62.62,36.95,6.47,1.6,7.74,1.59,34.32-.01,12.9-.78,31.5-1.9,59.2-3.29,56.89-2.84,67.25-3.31,70.07-3.01,2.5,.28,4.92,.6,7.28,.9,11.64,1.51,20.82,2.71,30.87-1.72,2.35-1.03,6.27-2.77,23.01-20.8,18.58-20,28.81-31.02,31.84-38.49,6.5-16,6.39-35.21,5.89-44.19-15.94-7.13-71.29-29.41-110.4-14.35-18.13,6.97-29.82,15.53-29.93,15.62-5.16,3.84-8.48,7.08-11.41,9.93-4.73,4.61-9.2,8.97-18.02,12.53-18.88,7.62-60.41-11.89-60.82-12.09-10.73-5.17-38.68-12.87-43.76-13.22-37.91-2.59-66.18-5.29-81.63-7.77Zm-8.41-1.63s.03,0,.05,.01c0,0-.02,0-.02,0h-.02Z"/>
  </g>
  <path class="cls-2" d="M180.46,557.63c-6.88,5.91-7.33,34.24,1.95,45.76,4.15,5.14,11.57,8.59,16.59,3.05,5.74-6.33,5.01-20.72,2.93-28.98-3.75-14.86-15.63-24.85-21.47-19.83Z"/>
  <path class="cls-2" d="M247.1,539.96c6.57,5.91,7,34.24-1.86,45.76-3.96,5.14-11.05,8.59-15.84,3.05-5.48-6.33-4.78-20.72-2.8-28.98,3.58-14.86,14.92-24.85,20.5-19.83Z"/>
  <g>
    <path class="cls-1" d="M25.75,354.37c-14.23-24.32,1.41-58.67,16.78-76.27,20.39-23.35,50.03-28.38,62.54-30.51,12.82-2.18,22.63-1.78,28.98-1.53,122.08,4.84,183.11,7.26,198.3,4.58,2.82-.5,10.42-1.94,19.83,0,18.87,3.9,30.6,18.46,36.61,25.93,18.83,23.39,20.32,48.21,21.36,65.59,1.39,23.25-4.2,27.75-6.1,28.98-6.4,4.15-15.73,.17-19.83-1.53-10.58-4.39-49.25-14.11-126.61-33.56-9.42-2.37-21.32-4.22-36.61-3.05-32,2.46-61.79,30.68-78.49,38.44-15.19,7.06-24.97,9.35-40.49,8.84-27.15-.89-62.3-2.05-76.27-25.93Z"/>
    <path class="cls-2" d="M106.02,389.25c-1.39,0-2.82-.02-4.29-.08-28.35-.93-67.19-2.2-83.64-30.32-17.03-29.1,1.29-67.73,17.75-86.6,22.47-25.74,54.19-31.13,67.74-33.43,13.71-2.33,24.4-1.9,30.79-1.64,117.5,4.66,182.19,7.22,196.44,4.71,3.55-.63,12.36-2.19,23.17,.05,21.99,4.54,35.32,21.1,41.72,29.05,20.62,25.61,22.23,52.7,23.31,70.64,1.19,19.96-2.02,31.7-10.12,36.96-10.23,6.62-22.6,1.5-27.88-.69-10.2-4.23-51.18-14.53-125.56-33.23-11.24-2.82-21.96-3.72-33.76-2.81-20.08,1.54-39.99,14.95-55.98,25.72-7.41,4.99-13.81,9.31-19.45,11.93-15.25,7.08-25.93,9.74-40.23,9.74Zm19.79-134.5c-5.27,0-11.71,.32-19.26,1.6-11.68,1.98-39.03,6.63-57.34,27.59-13.52,15.49-27.36,46.19-15.8,65.95h0c11.5,19.66,43.32,20.7,68.89,21.54,13.7,.42,22.24-1.42,36.46-8.02,4.36-2.03,10.23-5.98,17.01-10.55,16.79-11.31,39.79-26.8,64.55-28.7,13.76-1.05,26.3,0,39.44,3.29,80.08,20.14,116.63,29.32,127.84,33.97,7.64,3.17,10.53,3,11.6,2.28h0s3.09-3.88,2.07-21c-.99-16.62-2.36-39.38-19.41-60.56-5.51-6.83-15.75-19.55-31.5-22.8-7.49-1.55-13.63-.46-16.24,0-16.39,2.89-74.06,.61-200.44-4.4-2.23-.09-4.87-.2-7.89-.2Z"/>
  </g>
  <path class="cls-2" d="M480.06,59.11c-7.04-16.02-20.14-23.52-36.55-31.59-.08-.04-.17-.09-.27-.13-.08-.04-.16-.08-.25-.11C382.78-.74,329.98-7.21,286.07,8.04c-59.82,20.77-94.86,91.13-97.44,146.79-.7,14.99-1.95,41.93,20.54,47.42,1.82,.44,3.8,.75,5.94,.9,35.65,2.44,65.72-3.54,91.91-18.26,24.91-14.01,46.19-33.13,66.77-51.62,29.86-26.84,60.74-54.59,102.52-65.87,1.48-.4,2.77-1.54,3.52-3.12,.82-1.71,.9-3.64,.23-5.17Zm-132.66,79.66c-36.16-11.18-74.07-13-108.57-5.31,12.09-14.87,27.23-29.06,44.79-41.89,.58,.05,1.14,.15,1.76,.02,27.84-5.58,67.28,4.78,95.19,17.65-7.83,6.73-15.49,13.62-23.08,20.47-3.35,3.03-6.71,6.05-10.08,9.06Zm34.25-120.18c17.83,4.36,36.61,11.12,56.26,20.28l.56,.28c9.82,4.82,19.91,9.78,26.29,18.5-10.77,3.46-20.92,7.96-30.59,13.19-7.23-4.56-20.37-12.18-35.88-18.07,14.86-.34,29.93,.8,44.92,3.58,3.91,.73,6.53-1.96,7.09-4.99,.59-3.15-1.1-6.83-4.98-7.48-29.11-5.41-58.61-5.05-86.48,.61-.17,0-.34-.02-.5-.02-1.03,0-1.92,.29-2.72,.71-10.92,2.39-21.58,5.57-31.84,9.59,6.96-15.97,19.3-32.76,35.21-40.47,7.37,.99,14.92,2.41,22.65,4.3Zm-42.81-5.83c-15.18,13.12-26,32.27-31.09,49.13-7.19,3.57-14.17,7.51-20.82,11.92-9.98,6.61-19.27,13.71-27.9,21.14-2.58-20.79,2.74-42.52,16.17-66.14,.44-.77,.68-1.56,.77-2.33,6.25-3.38,12.8-6.21,19.7-8.25,13.46-3.99,27.88-5.77,43.17-5.46Zm-90.84,92.21c-21.56,20.87-37.59,44.02-46.54,67.42-.32-4.23-.37-8.44-.4-11.03-.41-41.16,19.55-90.76,54.24-120.61-9.42,22.44-11.95,43.98-7.3,64.22Zm-20.78,44.47c.47-.04,.95-.1,1.43-.25,32.93-10.24,71.63-10.29,107.41-.56-16.34,13.84-34.13,26.74-54.17,34.24-13.13,4.91-27.58,7.41-45.48,7.86l-1.99,.06c-6.82,.21-17.99,.54-25.01-2.27,3.39-13.04,9.48-26.2,17.81-39.07Zm78.21-72.07c16.79-9.41,35.28-16.21,54.69-20.26,19.79,.22,43.87,10.42,61.74,20.97-10.69,6.72-20.82,14.28-30.62,22.25-24.21-12.13-57.14-22.37-85.81-22.96Z"/>
</svg>